<svg width="20" height="20" viewBox="0 0 20 20" fill="none" xmlns="http://www.w3.org/2000/svg">
<circle cx="15" cy="15" r="5" fill="#14D172"/>
<path d="M15.4 11.1218L11.4 15.9219H15L14.6 19.1219L18.6 14.3218H15L15.4 11.1218Z" fill="#171B1C"/>
<path d="M15.001 1.83301C16.7497 1.83327 18.167 3.25126 18.167 5V9.5957C17.7508 9.35126 17.3044 9.15264 16.834 9.00879V5C16.834 3.98764 16.0133 3.16628 15.001 3.16602H5.00098C3.98845 3.16602 3.16699 3.98748 3.16699 5V15C3.16699 16.0125 3.98845 16.833 5.00098 16.833H9.00977C9.15356 17.3034 9.35136 17.7499 9.5957 18.166H5.00098C3.25208 18.166 1.83398 16.7489 1.83398 15V5C1.83398 3.2511 3.25207 1.83301 5.00098 1.83301H15.001Z" fill="#171B1C"/>
<path d="M7.02539 4.5C7.39301 4.50067 7.69141 4.79922 7.69141 5.16699C7.69123 5.53462 7.3929 5.83234 7.02539 5.83301H5.25098C4.88297 5.83292 4.58416 5.53498 4.58398 5.16699C4.58398 4.79886 4.88286 4.50009 5.25098 4.5H7.02539Z" fill="#171B1C"/>
<path d="M13.501 4.5C13.8689 4.50035 14.168 4.79902 14.168 5.16699C14.1678 5.53482 13.8688 5.83266 13.501 5.83301H9.83398C9.46605 5.83283 9.16814 5.53492 9.16797 5.16699C9.16797 4.79891 9.46594 4.50018 9.83398 4.5H13.501Z" fill="#171B1C"/>
</svg>
