<svg width="20" height="20" viewBox="0 0 20 20" fill="none" xmlns="http://www.w3.org/2000/svg">
<path d="M5 1.5C3.067 1.5 1.5 3.067 1.5 5V15C1.5 16.933 3.067 18.5 5 18.5H10.466C10.2266 18.1903 10.0182 17.8554 9.84549 17.5H5C3.61929 17.5 2.5 16.3807 2.5 15V5C2.5 3.61929 3.61929 2.5 5 2.5H15C16.3807 2.5 17.5 3.61929 17.5 5V9.84544C17.8554 10.0181 18.1903 10.2265 18.5 10.4659V5C18.5 3.067 16.933 1.5 15 1.5H5Z" fill="#171B1C"/>
<path d="M4.5 5C4.5 4.72386 4.72386 4.5 5 4.5H10C10.2761 4.5 10.5 4.72386 10.5 5C10.5 5.27614 10.2761 5.5 10 5.5H5C4.72386 5.5 4.5 5.27614 4.5 5Z" fill="#171B1C"/>
<path d="M12 4.5C11.7239 4.5 11.5 4.72386 11.5 5C11.5 5.27614 11.7239 5.5 12 5.5H14C14.2761 5.5 14.5 5.27614 14.5 5C14.5 4.72386 14.2761 4.5 14 4.5H12Z" fill="#171B1C"/>
<circle cx="15" cy="15" r="5" fill="#14D172"/>
<path d="M15.4 11.1218L11.4 15.9219H15L14.6 19.1219L18.6 14.3218H15L15.4 11.1218Z" fill="#171B1C"/>
</svg>
