<svg width="20" height="20" viewBox="0 0 20 20" fill="none" xmlns="http://www.w3.org/2000/svg">
<path d="M5 1.5C3.067 1.5 1.5 3.067 1.5 5V15C1.5 16.933 3.067 18.5 5 18.5H10.466C10.2266 18.1903 10.0182 17.8554 9.84549 17.5H5C3.61929 17.5 2.5 16.3807 2.5 15V5C2.5 3.61929 3.61929 2.5 5 2.5H15C16.3807 2.5 17.5 3.61929 17.5 5V9.84544C17.8554 10.0181 18.1903 10.2265 18.5 10.4659V5C18.5 3.067 16.933 1.5 15 1.5H5Z" fill="#171B1C"/>
<path d="M4.5 5C4.5 4.72386 4.72386 4.5 5 4.5H10C10.2761 4.5 10.5 4.72386 10.5 5C10.5 5.27614 10.2761 5.5 10 5.5H5C4.72386 5.5 4.5 5.27614 4.5 5Z" fill="#171B1C"/>
<path d="M11.5 5C11.5 4.72386 11.7239 4.5 12 4.5H14C14.2761 4.5 14.5 4.72386 14.5 5C14.5 5.27614 14.2761 5.5 14 5.5H12C11.7239 5.5 11.5 5.27614 11.5 5Z" fill="#171B1C"/>
<path d="M15.5 13C15.5 12.7239 15.2761 12.5 15 12.5C14.7239 12.5 14.5 12.7239 14.5 13V14.5H13C12.7239 14.5 12.5 14.7239 12.5 15C12.5 15.2761 12.7239 15.5 13 15.5H14.5V17C14.5 17.2761 14.7239 17.5 15 17.5C15.2761 17.5 15.5 17.2761 15.5 17V15.5H17C17.2761 15.5 17.5 15.2761 17.5 15C17.5 14.7239 17.2761 14.5 17 14.5H15.5V13Z" fill="#171B1C"/>
<path fill-rule="evenodd" clip-rule="evenodd" d="M15 20C17.7614 20 20 17.7614 20 15C20 12.2386 17.7614 10 15 10C12.2386 10 10 12.2386 10 15C10 17.7614 12.2386 20 15 20ZM19 15C19 17.2091 17.2091 19 15 19C12.7909 19 11 17.2091 11 15C11 12.7909 12.7909 11 15 11C17.2091 11 19 12.7909 19 15Z" fill="#171B1C"/>
</svg>
