<svg width="20" height="20" viewBox="0 0 20 20" fill="none" xmlns="http://www.w3.org/2000/svg">
<path d="M10 8.66211C10.3682 8.66211 10.667 8.96091 10.667 9.3291V10.958H12.2959C12.664 10.9581 12.9619 11.2569 12.9619 11.625C12.9618 11.993 12.6639 12.2909 12.2959 12.291H10.667V13.9209C10.6667 14.2889 10.368 14.5869 10 14.5869C9.63197 14.5869 9.33424 14.2889 9.33398 13.9209V12.291H7.7041C7.33608 12.2909 7.03824 11.993 7.03809 11.625C7.03809 11.2569 7.33599 10.9581 7.7041 10.958H9.33398V9.3291C9.33398 8.96091 9.63181 8.66211 10 8.66211Z" fill="#171B1C"/>
<path d="M7.02441 4.5C7.39226 4.50041 7.69043 4.79905 7.69043 5.16699C7.69025 5.53478 7.39215 5.8326 7.02441 5.83301H5.25C4.88199 5.83292 4.58318 5.53498 4.58301 5.16699C4.58301 4.79886 4.88189 4.50009 5.25 4.5H7.02441Z" fill="#171B1C"/>
<path d="M13.5 4.5C13.8681 4.50009 14.167 4.79886 14.167 5.16699C14.1668 5.53498 13.868 5.83292 13.5 5.83301H9.83301C9.46508 5.83283 9.16717 5.53492 9.16699 5.16699C9.16699 4.79891 9.46497 4.50018 9.83301 4.5H13.5Z" fill="#171B1C"/>
<path fill-rule="evenodd" clip-rule="evenodd" d="M15 1.83301C16.7489 1.83301 18.166 3.2511 18.166 5V15C18.166 16.7489 16.7489 18.166 15 18.166H5C3.2511 18.166 1.83398 16.7489 1.83398 15V5C1.83398 3.2511 3.2511 1.83301 5 1.83301H15ZM5 3.16602C3.98748 3.16602 3.16602 3.98748 3.16602 5V15C3.16602 16.0125 3.98748 16.833 5 16.833H15C16.0125 16.833 16.833 16.0125 16.833 15V5C16.833 3.98748 16.0125 3.16602 15 3.16602H5Z" fill="#171B1C"/>
</svg>
