<svg width="20" height="20" viewBox="0 0 20 20" fill="none" xmlns="http://www.w3.org/2000/svg">
<path d="M20 15C20 17.7614 17.7614 20 15 20C12.2386 20 10 17.7614 10 15C10 12.2386 12.2386 10 15 10C17.7614 10 20 12.2386 20 15Z" fill="#1B41F5"/>
<path d="M13.5048 13.1946L17.3995 13.1946C17.4739 13.1947 17.5466 13.217 17.6084 13.2585C17.6702 13.3 17.7183 13.3589 17.7466 13.4278C17.775 13.4967 17.7822 13.5724 17.7675 13.6454C17.7528 13.7184 17.7168 13.7854 17.664 13.838L13.7694 17.7351C13.7166 17.7877 13.6495 17.8234 13.5764 17.8379C13.5034 17.8523 13.4277 17.8448 13.3589 17.8162C13.2901 17.7877 13.2313 17.7394 13.1899 17.6774C13.1486 17.6155 13.1264 17.5427 13.1264 17.4682L13.1264 13.5711C13.1263 13.5216 13.1359 13.4726 13.1548 13.4269C13.1737 13.3812 13.2014 13.3396 13.2363 13.3046C13.2713 13.2697 13.3128 13.2419 13.3585 13.223C13.4042 13.2042 13.4532 13.1945 13.5026 13.1946" fill="white"/>
<path d="M15.001 1.83301C16.7497 1.83327 18.167 3.25126 18.167 5V9.5957C17.7508 9.35126 17.3044 9.15264 16.834 9.00879V5C16.834 3.98764 16.0133 3.16628 15.001 3.16602H5.00098C3.98845 3.16602 3.16699 3.98748 3.16699 5V15C3.16699 16.0125 3.98845 16.833 5.00098 16.833H9.00977C9.15356 17.3034 9.35136 17.7499 9.5957 18.166H5.00098C3.25208 18.166 1.83398 16.7489 1.83398 15V5C1.83398 3.2511 3.25207 1.83301 5.00098 1.83301H15.001Z" fill="#171B1C"/>
<path d="M7.02539 4.5C7.39301 4.50067 7.69141 4.79922 7.69141 5.16699C7.69123 5.53462 7.3929 5.83234 7.02539 5.83301H5.25098C4.88297 5.83292 4.58416 5.53498 4.58398 5.16699C4.58398 4.79886 4.88286 4.50009 5.25098 4.5H7.02539Z" fill="#171B1C"/>
<path d="M13.501 4.5C13.8689 4.50035 14.168 4.79902 14.168 5.16699C14.1678 5.53482 13.8688 5.83266 13.501 5.83301H9.83398C9.46605 5.83283 9.16814 5.53492 9.16797 5.16699C9.16797 4.79891 9.46594 4.50018 9.83398 4.5H13.501Z" fill="#171B1C"/>
</svg>
