<svg width="24" height="24" viewBox="0 0 24 24" fill="none" xmlns="http://www.w3.org/2000/svg">
<path fill-rule="evenodd" clip-rule="evenodd" d="M20.1997 12.1998C20.6415 12.1998 20.9997 12.5579 20.9997 12.9998V19.1998C20.9997 20.1939 20.1938 20.9998 19.1997 20.9998H4.79951C3.8054 20.9998 2.99951 20.1939 2.99951 19.1998V4.79976C2.99951 3.80564 3.8054 2.99976 4.79951 2.99976L10.9996 2.99976C11.4414 2.99976 11.7996 3.35793 11.7996 3.79976C11.7996 4.24158 11.4414 4.59976 10.9996 4.59976L4.79951 4.59976C4.68905 4.59976 4.59951 4.6893 4.59951 4.79976L4.59951 19.1998C4.59951 19.3102 4.68905 19.3998 4.79951 19.3998H19.1997C19.3102 19.3998 19.3997 19.3102 19.3997 19.1998V12.9998C19.3997 12.5579 19.7579 12.1998 20.1997 12.1998ZM14.1995 3.79995C14.1995 3.35812 14.5576 2.99995 14.9995 2.99995L20.1995 2.99995C20.6413 2.99995 20.9995 3.35812 20.9995 3.79995L20.9995 8.99995C20.9995 9.44178 20.6413 9.79995 20.1995 9.79995C19.7576 9.79995 19.3995 9.44178 19.3995 8.99995V5.73134L15.5652 9.56563C15.2528 9.87806 14.7463 9.87806 14.4338 9.56564C14.1214 9.25322 14.1214 8.74669 14.4338 8.43427L18.2681 4.59995L14.9995 4.59995C14.5576 4.59995 14.1995 4.24178 14.1995 3.79995ZM6.7998 6C6.35798 6 5.9998 6.35817 5.9998 6.8C5.9998 7.24183 6.35798 7.6 6.7998 7.6H12.7998C13.2416 7.6 13.5998 7.24183 13.5998 6.8C13.5998 6.35817 13.2416 6 12.7998 6H6.7998Z" fill="#171B1C"/>
</svg>
