<svg width="24" height="24" viewBox="0 0 24 24" fill="none" xmlns="http://www.w3.org/2000/svg">
<path fill-rule="evenodd" clip-rule="evenodd" d="M7.19902 2C7.64085 2 7.99902 2.35817 7.99902 2.8C7.99902 3.24183 7.64085 3.6 7.19902 3.6L3.59951 3.6L3.59951 7.2C3.59951 7.64183 3.24134 8 2.79951 8C2.35768 8 1.99951 7.64183 1.99951 7.2V2.8C1.99951 2.35817 2.35768 2 2.79951 2H7.19902ZM15.9996 2.8C15.9996 2.35817 16.3578 2 16.7996 2H21.1991C21.641 2 21.9991 2.35817 21.9991 2.8V7.2C21.9991 7.64183 21.6409 8 21.1991 8C20.7573 8 20.3991 7.64183 20.3991 7.2V3.6L16.7996 3.6C16.3578 3.6 15.9996 3.24183 15.9996 2.8ZM15.9996 21.2C15.9996 21.6418 16.3578 22 16.7996 22H21.1991C21.641 22 21.9991 21.6418 21.9991 21.2V16.8C21.9991 16.3581 21.6409 16 21.1991 16C20.7573 16 20.3991 16.3581 20.3991 16.8V20.4H16.7996C16.3578 20.4 15.9996 20.7582 15.9996 21.2ZM7.99902 21.2C7.99902 21.6418 7.64085 22 7.19902 22H2.79951C2.35768 22 1.99951 21.6418 1.99951 21.2V16.8C1.99951 16.3581 2.35768 16 2.79951 16C3.24134 16 3.59951 16.3581 3.59951 16.8L3.59951 20.4H7.19902C7.64085 20.4 7.99902 20.7582 7.99902 21.2ZM6.59961 17.4001V6.6001H17.3996V17.4001H6.59961ZM6.21294 5.0001C5.54284 5.0001 4.99961 5.54333 4.99961 6.21343V17.7868C4.99961 18.4569 5.54286 19.0001 6.21294 19.0001H17.7863C18.4564 19.0001 18.9996 18.4569 18.9996 17.7868V6.21343C18.9996 5.54335 18.4564 5.0001 17.7863 5.0001H6.21294ZM7.4 9.00005C7.4 8.55822 7.75817 8.20005 8.2 8.20005H10.8C11.2418 8.20005 11.6 8.55822 11.6 9.00005C11.6 9.44188 11.2418 9.80005 10.8 9.80005H8.2C7.75817 9.80005 7.4 9.44188 7.4 9.00005ZM13.7996 8.20005C13.3578 8.20005 12.9996 8.55822 12.9996 9.00005C12.9996 9.44188 13.3578 9.80005 13.7996 9.80005H15.1996C15.6414 9.80005 15.9996 9.44188 15.9996 9.00005C15.9996 8.55822 15.6414 8.20005 15.1996 8.20005H13.7996Z" fill="#171B1C"/>
</svg>
