<svg width="20" height="20" viewBox="0 0 20 20" fill="none" xmlns="http://www.w3.org/2000/svg">
<path fill-rule="evenodd" clip-rule="evenodd" d="M7.5 11C8.32843 11 9 11.6716 9 12.5V16.667C8.99982 17.4953 8.32832 18.167 7.5 18.167H3.33301C2.50484 18.1668 1.83318 17.4952 1.83301 16.667V12.5C1.83301 11.6717 2.50473 11.0002 3.33301 11H7.5ZM3.33301 12.333C3.24111 12.3332 3.16699 12.4081 3.16699 12.5V16.667C3.16717 16.7588 3.24122 16.8338 3.33301 16.834H7.5C7.59194 16.834 7.66682 16.7589 7.66699 16.667V12.5C7.66699 12.408 7.59205 12.333 7.5 12.333H3.33301Z" fill="#171B1C"/>
<path fill-rule="evenodd" clip-rule="evenodd" d="M7.5 1.83301C8.32832 1.83301 8.99982 2.50473 9 3.33301V7.5C9 8.32843 8.32843 9 7.5 9H3.33301C2.50473 8.99982 1.83301 8.32832 1.83301 7.5V3.33301C1.83318 2.50484 2.50484 1.83318 3.33301 1.83301H7.5ZM3.33301 3.16699C3.24122 3.16717 3.16717 3.24122 3.16699 3.33301V7.5C3.16699 7.59194 3.24111 7.66682 3.33301 7.66699H7.5C7.59205 7.66699 7.66699 7.59205 7.66699 7.5V3.33301C7.66682 3.24111 7.59194 3.16699 7.5 3.16699H3.33301Z" fill="#171B1C"/>
<path fill-rule="evenodd" clip-rule="evenodd" d="M16.667 1.83301C17.4952 1.83318 18.1668 2.50484 18.167 3.33301V7.5C18.167 8.32832 17.4953 8.99982 16.667 9H12.5C11.6716 9 11 8.32843 11 7.5V3.33301C11.0002 2.50473 11.6717 1.83301 12.5 1.83301H16.667ZM12.5 3.16699C12.4081 3.16699 12.3332 3.24111 12.333 3.33301V7.5C12.333 7.59205 12.408 7.66699 12.5 7.66699H16.667C16.7589 7.66682 16.834 7.59194 16.834 7.5V3.33301C16.8338 3.24122 16.7588 3.16717 16.667 3.16699H12.5Z" fill="#171B1C"/>
<path d="M20 14.9996C20 17.761 17.7614 19.9996 15 19.9996C12.2386 19.9996 10 17.761 10 14.9996C10 12.2381 12.2386 9.99957 15 9.99957C17.7614 9.99957 20 12.2381 20 14.9996Z" fill="#1B41F5"/>
<path d="M13.5048 13.1942L17.3995 13.1942C17.4739 13.1943 17.5466 13.2166 17.6084 13.2581C17.6702 13.2996 17.7183 13.3585 17.7466 13.4274C17.775 13.4963 17.7822 13.572 17.7675 13.645C17.7528 13.718 17.7168 13.785 17.664 13.8375L13.7694 17.7347C13.7166 17.7872 13.6495 17.823 13.5764 17.8374C13.5034 17.8519 13.4277 17.8444 13.3589 17.8158C13.2901 17.7873 13.2313 17.739 13.1899 17.677C13.1486 17.6151 13.1264 17.5423 13.1264 17.4677L13.1264 13.5706C13.1263 13.5212 13.1359 13.4722 13.1548 13.4264C13.1737 13.3807 13.2014 13.3392 13.2363 13.3042C13.2713 13.2692 13.3128 13.2415 13.3585 13.2226C13.4042 13.2037 13.4532 13.1941 13.5026 13.1942" fill="white"/>
</svg>
