<svg width="20" height="20" viewBox="0 0 20 20" fill="none" xmlns="http://www.w3.org/2000/svg">
<path fill-rule="evenodd" clip-rule="evenodd" d="M7.5 11C8.32843 11 9 11.6716 9 12.5V16.667C8.99982 17.4953 8.32832 18.167 7.5 18.167H3.33301C2.50484 18.1668 1.83318 17.4952 1.83301 16.667V12.5C1.83301 11.6717 2.50473 11.0002 3.33301 11H7.5ZM3.33301 12.333C3.24111 12.3332 3.16699 12.4081 3.16699 12.5V16.667C3.16717 16.7588 3.24122 16.8338 3.33301 16.834H7.5C7.59194 16.834 7.66682 16.7589 7.66699 16.667V12.5C7.66699 12.408 7.59205 12.333 7.5 12.333H3.33301Z" fill="#171B1C"/>
<path d="M14.6494 11.4795C15.0175 11.4795 15.3163 11.7774 15.3164 12.1455V13.7754H16.9453C17.3135 13.7754 17.6123 14.0732 17.6123 14.4414C17.6123 14.8096 17.3135 15.1084 16.9453 15.1084H15.3164V16.7373C15.3163 17.1054 15.0176 17.4033 14.6494 17.4033C14.2814 17.4031 13.9835 17.1053 13.9834 16.7373V15.1084H12.3545C11.9863 15.1084 11.6875 14.8096 11.6875 14.4414C11.6875 14.0732 11.9863 13.7754 12.3545 13.7754H13.9834V12.1455C13.9835 11.7775 14.2815 11.4797 14.6494 11.4795Z" fill="#171B1C"/>
<path fill-rule="evenodd" clip-rule="evenodd" d="M7.5 1.83301C8.32832 1.83301 8.99982 2.50473 9 3.33301V7.5C9 8.32843 8.32843 9 7.5 9H3.33301C2.50473 8.99982 1.83301 8.32832 1.83301 7.5V3.33301C1.83318 2.50484 2.50484 1.83318 3.33301 1.83301H7.5ZM3.33301 3.16699C3.24122 3.16717 3.16717 3.24122 3.16699 3.33301V7.5C3.16699 7.59194 3.24111 7.66682 3.33301 7.66699H7.5C7.59205 7.66699 7.66699 7.59205 7.66699 7.5V3.33301C7.66682 3.24111 7.59194 3.16699 7.5 3.16699H3.33301Z" fill="#171B1C"/>
<path fill-rule="evenodd" clip-rule="evenodd" d="M16.667 1.83301C17.4952 1.83318 18.1668 2.50484 18.167 3.33301V7.5C18.167 8.32832 17.4953 8.99982 16.667 9H12.5C11.6716 9 11 8.32843 11 7.5V3.33301C11.0002 2.50473 11.6717 1.83301 12.5 1.83301H16.667ZM12.5 3.16699C12.4081 3.16699 12.3332 3.24111 12.333 3.33301V7.5C12.333 7.59205 12.408 7.66699 12.5 7.66699H16.667C16.7589 7.66682 16.834 7.59194 16.834 7.5V3.33301C16.8338 3.24122 16.7588 3.16717 16.667 3.16699H12.5Z" fill="#171B1C"/>
</svg>
