<svg width="20" height="20" viewBox="0 0 20 20" fill="none" xmlns="http://www.w3.org/2000/svg">
<path fill-rule="evenodd" clip-rule="evenodd" d="M7.5 11.0002C8.32843 11.0002 8.99984 11.6716 8.99984 12.5V16.6667C8.99984 17.4951 8.32843 18.1665 7.5 18.1665H3.33333C2.50491 18.1665 1.8335 17.4951 1.8335 16.6667V12.5C1.8335 11.6716 2.50491 11.0002 3.33333 11.0002H7.5ZM3.33333 12.3332C3.24129 12.3332 3.1665 12.408 3.1665 12.5V16.6667C3.1665 16.7587 3.24129 16.8335 3.33333 16.8335H7.5C7.59205 16.8335 7.66683 16.7587 7.66683 16.6667V12.5C7.66683 12.408 7.59205 12.3332 7.5 12.3332H3.33333Z" fill="#171B1C"/>
<path fill-rule="evenodd" clip-rule="evenodd" d="M16.6667 11.0002C17.4951 11.0002 18.1665 11.6716 18.1665 12.5V16.6667C18.1665 17.4951 17.4951 18.1665 16.6667 18.1665H12.5C11.6716 18.1665 11.0002 17.4951 11.0002 16.6667V12.5C11.0002 11.6716 11.6716 11.0002 12.5 11.0002H16.6667ZM12.5 12.3332C12.408 12.3332 12.3332 12.408 12.3332 12.5V16.6667C12.3332 16.7587 12.408 16.8335 12.5 16.8335H16.6667C16.7587 16.8335 16.8335 16.7587 16.8335 16.6667V12.5C16.8335 12.408 16.7587 12.3332 16.6667 12.3332H12.5Z" fill="#171B1C"/>
<path fill-rule="evenodd" clip-rule="evenodd" d="M7.5 1.8335C8.32843 1.8335 8.99984 2.50491 8.99984 3.33333V7.5C8.99984 8.32843 8.32843 8.99984 7.5 8.99984H3.33333C2.50491 8.99984 1.8335 8.32843 1.8335 7.5V3.33333C1.8335 2.50491 2.50491 1.8335 3.33333 1.8335H7.5ZM3.33333 3.1665C3.24129 3.1665 3.1665 3.24129 3.1665 3.33333V7.5C3.1665 7.59205 3.24129 7.66683 3.33333 7.66683H7.5C7.59205 7.66683 7.66683 7.59205 7.66683 7.5V3.33333C7.66683 3.24129 7.59205 3.1665 7.5 3.1665H3.33333Z" fill="#171B1C"/>
<path fill-rule="evenodd" clip-rule="evenodd" d="M16.6667 1.8335C17.4951 1.8335 18.1665 2.50491 18.1665 3.33333V7.5C18.1665 8.32843 17.4951 8.99984 16.6667 8.99984H12.5C11.6716 8.99984 11.0002 8.32843 11.0002 7.5V3.33333C11.0002 2.50491 11.6716 1.8335 12.5 1.8335H16.6667ZM12.5 3.1665C12.408 3.1665 12.3332 3.24129 12.3332 3.33333V7.5C12.3332 7.59205 12.408 7.66683 12.5 7.66683H16.6667C16.7587 7.66683 16.8335 7.59205 16.8335 7.5V3.33333C16.8335 3.24129 16.7587 3.1665 16.6667 3.1665H12.5Z" fill="#171B1C"/>
</svg>
