<svg width="20" height="20" viewBox="0 0 20 20" fill="none" xmlns="http://www.w3.org/2000/svg">
<path d="M4.5 5C4.5 4.72386 4.72386 4.5 5 4.5H10C10.2761 4.5 10.5 4.72386 10.5 5C10.5 5.27614 10.2761 5.5 10 5.5H5C4.72386 5.5 4.5 5.27614 4.5 5Z" fill="#171B1C"/>
<path d="M12 4.5C11.7239 4.5 11.5 4.72386 11.5 5C11.5 5.27614 11.7239 5.5 12 5.5H14C14.2761 5.5 14.5 5.27614 14.5 5C14.5 4.72386 14.2761 4.5 14 4.5H12Z" fill="#171B1C"/>
<path fill-rule="evenodd" clip-rule="evenodd" d="M1.5 5C1.5 3.067 3.067 1.5 5 1.5H15C16.933 1.5 18.5 3.067 18.5 5V15C18.5 16.933 16.933 18.5 15 18.5H5C3.067 18.5 1.5 16.933 1.5 15V5ZM5 2.5C3.61929 2.5 2.5 3.61929 2.5 5V15C2.5 16.3807 3.61929 17.5 5 17.5H15C16.3807 17.5 17.5 16.3807 17.5 15V5C17.5 3.61929 16.3807 2.5 15 2.5H5Z" fill="#171B1C"/>
</svg>
