<svg width="20" height="20" viewBox="0 0 20 20" fill="none" xmlns="http://www.w3.org/2000/svg">
<path d="M7.5 11C8.32843 11 9 11.6716 9 12.5V16.5C9 17.3284 8.32843 18 7.5 18H3.5C2.67157 18 2 17.3284 2 16.5V12.5C2 11.6716 2.67157 11 3.5 11H7.5ZM3.5 12C3.22386 12 3 12.2239 3 12.5V16.5C3 16.7761 3.22386 17 3.5 17H7.5C7.77614 17 8 16.7761 8 16.5V12.5C8 12.2239 7.77614 12 7.5 12H3.5ZM7.5 2C8.32843 2 9 2.67157 9 3.5V7.5C9 8.32843 8.32843 9 7.5 9H3.5C2.67157 9 2 8.32843 2 7.5V3.5C2 2.67157 2.67157 2 3.5 2H7.5ZM16.5 2C17.3284 2 18 2.67157 18 3.5V7.5C18 8.32843 17.3284 9 16.5 9H12.5C11.6716 9 11 8.32843 11 7.5V3.5C11 2.67157 11.6716 2 12.5 2H16.5ZM3.5 3C3.22386 3 3 3.22386 3 3.5V7.5C3 7.77614 3.22386 8 3.5 8H7.5C7.77614 8 8 7.77614 8 7.5V3.5C8 3.22386 7.77614 3 7.5 3H3.5ZM12.5 3C12.2239 3 12 3.22386 12 3.5V7.5C12 7.77614 12.2239 8 12.5 8H16.5C16.7761 8 17 7.77614 17 7.5V3.5C17 3.22386 16.7761 3 16.5 3H12.5Z" fill="#171B1C"/>
<path d="M20 15C20 17.7614 17.7614 20 15 20C12.2386 20 10 17.7614 10 15C10 12.2386 12.2386 10 15 10C17.7614 10 20 12.2386 20 15Z" fill="#14D172"/>
<path d="M15.4 11.1218L11.4 15.9219H15L14.6 19.1219L18.6 14.3218H15L15.4 11.1218Z" fill="#171B1C"/>
</svg>
