<svg width="20" height="20" viewBox="0 0 20 20" fill="none" xmlns="http://www.w3.org/2000/svg">
<path fill-rule="evenodd" clip-rule="evenodd" d="M2 3.5C2 2.67157 2.67157 2 3.5 2H7.5C8.32843 2 9 2.67157 9 3.5V7.5C9 8.32843 8.32843 9 7.5 9H3.5C2.67157 9 2 8.32843 2 7.5V3.5ZM3.5 3C3.22386 3 3 3.22386 3 3.5V7.5C3 7.77614 3.22386 8 3.5 8H7.5C7.77614 8 8 7.77614 8 7.5V3.5C8 3.22386 7.77614 3 7.5 3H3.5Z" fill="#171B1C"/>
<path fill-rule="evenodd" clip-rule="evenodd" d="M2 12.5C2 11.6716 2.67157 11 3.5 11H7.5C8.32843 11 9 11.6716 9 12.5V16.5C9 17.3284 8.32843 18 7.5 18H3.5C2.67157 18 2 17.3284 2 16.5V12.5ZM3.5 12C3.22386 12 3 12.2239 3 12.5V16.5C3 16.7761 3.22386 17 3.5 17H7.5C7.77614 17 8 16.7761 8 16.5V12.5C8 12.2239 7.77614 12 7.5 12H3.5Z" fill="#171B1C"/>
<path fill-rule="evenodd" clip-rule="evenodd" d="M12.5 2C11.6716 2 11 2.67157 11 3.5V7.5C11 8.32843 11.6716 9 12.5 9H16.5C17.3284 9 18 8.32843 18 7.5V3.5C18 2.67157 17.3284 2 16.5 2H12.5ZM12 3.5C12 3.22386 12.2239 3 12.5 3H16.5C16.7761 3 17 3.22386 17 3.5V7.5C17 7.77614 16.7761 8 16.5 8H12.5C12.2239 8 12 7.77614 12 7.5V3.5Z" fill="#171B1C"/>
<path d="M15.5 13C15.5 12.7239 15.2761 12.5 15 12.5C14.7239 12.5 14.5 12.7239 14.5 13V14.5H13C12.7239 14.5 12.5 14.7239 12.5 15C12.5 15.2761 12.7239 15.5 13 15.5H14.5V17C14.5 17.2761 14.7239 17.5 15 17.5C15.2761 17.5 15.5 17.2761 15.5 17V15.5H17C17.2761 15.5 17.5 15.2761 17.5 15C17.5 14.7239 17.2761 14.5 17 14.5H15.5V13Z" fill="#171B1C"/>
<path fill-rule="evenodd" clip-rule="evenodd" d="M15 20C17.7614 20 20 17.7614 20 15C20 12.2386 17.7614 10 15 10C12.2386 10 10 12.2386 10 15C10 17.7614 12.2386 20 15 20ZM19 15C19 17.2091 17.2091 19 15 19C12.7909 19 11 17.2091 11 15C11 12.7909 12.7909 11 15 11C17.2091 11 19 12.7909 19 15Z" fill="#171B1C"/>
</svg>
