<svg width="20" height="20" viewBox="0 0 20 20" fill="none" xmlns="http://www.w3.org/2000/svg">
<path fill-rule="evenodd" clip-rule="evenodd" d="M3.5 2C2.67157 2 2 2.67157 2 3.5V7.5C2 8.32843 2.67157 9 3.5 9H7.5C8.32843 9 9 8.32843 9 7.5V3.5C9 2.67157 8.32843 2 7.5 2H3.5ZM3 3.5C3 3.22386 3.22386 3 3.5 3H7.5C7.77614 3 8 3.22386 8 3.5V7.5C8 7.77614 7.77614 8 7.5 8H3.5C3.22386 8 3 7.77614 3 7.5V3.5Z" fill="#171B1C"/>
<path fill-rule="evenodd" clip-rule="evenodd" d="M3.5 11C2.67157 11 2 11.6716 2 12.5V16.5C2 17.3284 2.67157 18 3.5 18H7.5C8.32843 18 9 17.3284 9 16.5V12.5C9 11.6716 8.32843 11 7.5 11H3.5ZM3 12.5C3 12.2239 3.22386 12 3.5 12H7.5C7.77614 12 8 12.2239 8 12.5V16.5C8 16.7761 7.77614 17 7.5 17H3.5C3.22386 17 3 16.7761 3 16.5V12.5Z" fill="#171B1C"/>
<path fill-rule="evenodd" clip-rule="evenodd" d="M11 3.5C11 2.67157 11.6716 2 12.5 2H16.5C17.3284 2 18 2.67157 18 3.5V7.5C18 8.32843 17.3284 9 16.5 9H12.5C11.6716 9 11 8.32843 11 7.5V3.5ZM12.5 3C12.2239 3 12 3.22386 12 3.5V7.5C12 7.77614 12.2239 8 12.5 8H16.5C16.7761 8 17 7.77614 17 7.5V3.5C17 3.22386 16.7761 3 16.5 3H12.5Z" fill="#171B1C"/>
<path fill-rule="evenodd" clip-rule="evenodd" d="M12.5 11C11.6716 11 11 11.6716 11 12.5V16.5C11 17.3284 11.6716 18 12.5 18H16.5C17.3284 18 18 17.3284 18 16.5V12.5C18 11.6716 17.3284 11 16.5 11H12.5ZM12 12.5C12 12.2239 12.2239 12 12.5 12H16.5C16.7761 12 17 12.2239 17 12.5V16.5C17 16.7761 16.7761 17 16.5 17H12.5C12.2239 17 12 16.7761 12 16.5V12.5Z" fill="#171B1C"/>
</svg>
