<svg width="24" height="24" viewBox="0 0 24 24" fill="none" xmlns="http://www.w3.org/2000/svg">
<path fill-rule="evenodd" clip-rule="evenodd" d="M7.39082 4.64272C9.04072 3.44054 11.0657 2.86718 13.101 3.02596C15.1362 3.18473 17.0478 4.0652 18.4913 5.5087C19.9348 6.95221 20.8153 8.86381 20.9741 10.899C21.1328 12.9343 20.5595 14.9593 19.3573 16.6092C18.1551 18.2591 16.4032 19.4254 14.4172 19.8979C12.5434 20.3436 10.5776 20.1442 8.83587 19.3376L4.05685 20.9577C3.76849 21.0554 3.44964 20.981 3.23434 20.7657C3.01904 20.5504 2.94462 20.2315 3.04237 19.9432L4.66238 15.1642C3.85585 13.4224 3.65638 11.4566 4.10216 9.58281C4.57465 7.59682 5.74092 5.84489 7.39082 4.64272ZM12.9765 4.62111C11.3215 4.492 9.67474 4.95825 8.33305 5.93586C6.99135 6.91346 6.04294 8.33813 5.65872 9.95313C5.2745 11.5681 5.47973 13.2673 6.23743 14.7443C6.33623 14.9369 6.35276 15.1613 6.28328 15.3663L5.07792 18.9221L8.63372 17.7167C8.83871 17.6473 9.0631 17.6638 9.25569 17.7626C10.7328 18.5203 12.4319 18.7255 14.0469 18.3413C15.6619 17.9571 17.0866 17.0087 18.0642 15.667C19.0418 14.3253 19.508 12.6785 19.3789 11.0235C19.2498 9.36844 18.5338 7.81393 17.3599 6.64007C16.1861 5.46622 14.6316 4.75023 12.9765 4.62111ZM12.5002 7.5C12.0584 7.5 11.7002 7.85817 11.7002 8.3V10.7H9.30002C8.85819 10.7 8.50002 11.0581 8.50002 11.5C8.50002 11.9418 8.85819 12.3 9.30002 12.3H11.7002V14.7C11.7002 15.1418 12.0584 15.5 12.5002 15.5C12.942 15.5 13.3002 15.1418 13.3002 14.7V12.3H15.7C16.1419 12.3 16.5 11.9418 16.5 11.5C16.5 11.0581 16.1418 10.7 15.7 10.7H13.3002V8.3C13.3002 7.85817 12.942 7.5 12.5002 7.5Z" fill="#171B1C"/>
</svg>
