<svg width="24" height="24" viewBox="0 0 24 24" fill="none" xmlns="http://www.w3.org/2000/svg">
<path fill-rule="evenodd" clip-rule="evenodd" d="M3 5.8C3 4.2536 4.2536 3 5.8 3H18.2C19.7464 3 21 4.2536 21 5.8V18.2C21 19.7464 19.7464 21 18.2 21H5.8C4.2536 21 3 19.7464 3 18.2V5.8ZM5.8 4.6C5.13726 4.6 4.6 5.13726 4.6 5.8V18.2C4.6 18.8627 5.13726 19.4 5.8 19.4H18.2C18.8627 19.4 19.4 18.8627 19.4 18.2V5.8C19.4 5.13726 18.8627 4.6 18.2 4.6H5.8ZM12.0002 17C11.4479 17 11.0002 16.5522 11.0002 16V13H8.0002C7.44791 13 7.0002 12.5522 7.0002 12C7.0002 11.4477 7.44791 11 8.0002 11H11.0002V7.99995C11.0002 7.44767 11.4479 6.99995 12.0002 6.99995C12.5525 6.99995 13.0002 7.44767 13.0002 7.99995V11H16.0002C16.5525 11 17.0002 11.4477 17.0002 12C17.0002 12.5522 16.5525 13 16.0002 13H13.0002V16C13.0002 16.5522 12.5525 17 12.0002 17Z" fill="#171B1C"/>
</svg>
