<svg width="24" height="24" viewBox="0 0 24 24" fill="none" xmlns="http://www.w3.org/2000/svg">
<path fill-rule="evenodd" clip-rule="evenodd" d="M12.8001 5.8C12.8001 5.35817 12.4419 5 12.0001 5C11.5583 5 11.2001 5.35817 11.2001 5.8V11.2H5.8C5.35817 11.2 5 11.5582 5 12C5 12.4418 5.35817 12.8 5.8 12.8L11.2001 12.8V18.2C11.2001 18.6418 11.5583 19 12.0001 19C12.4419 19 12.8001 18.6418 12.8001 18.2V12.8L18.2 12.8C18.6418 12.8 19 12.4418 19 12C19 11.5582 18.6418 11.2 18.2 11.2H12.8001V5.8Z" fill="#171B1C"/>
</svg>
