<svg width="24" height="24" viewBox="0 0 24 24" fill="none" xmlns="http://www.w3.org/2000/svg">
<path fill-rule="evenodd" clip-rule="evenodd" d="M2.74998 7.9375C2.74998 8.90117 3.45353 9.70052 4.375 9.84993V17.687C4.375 18.4164 4.66473 19.1158 5.18046 19.6316C5.69618 20.1473 6.39565 20.437 7.125 20.437H16.875C17.6043 20.437 18.3038 20.1473 18.8195 19.6316C19.3353 19.1158 19.625 18.4164 19.625 17.687V9.84993C20.5465 9.7005 21.25 8.90116 21.25 7.9375V5.5C21.25 4.42995 20.3825 3.5625 19.3125 3.5625H4.68748C3.61743 3.5625 2.74998 4.42995 2.74998 5.5V7.9375ZM4.99998 5.8125V7.625H5.46655C5.47766 7.62468 5.48881 7.62451 5.5 7.62451C5.51119 7.62451 5.52234 7.62468 5.53345 7.625H18.4666C18.4777 7.62468 18.4888 7.62451 18.5 7.62451C18.5112 7.62451 18.5223 7.62468 18.5335 7.625H19V5.8125H4.99998ZM10.375 10.5C9.54657 10.5 8.875 11.1716 8.875 12C8.875 12.8284 9.54657 13.5 10.375 13.5H13.625C14.4534 13.5 15.125 12.8284 15.125 12C15.125 11.1716 14.4534 10.5 13.625 10.5H10.375Z" fill="#171B1C"/>
</svg>
