<svg width="24" height="24" viewBox="0 0 24 24" fill="none" xmlns="http://www.w3.org/2000/svg">
<path fill-rule="evenodd" clip-rule="evenodd" d="M13.4343 17.7657C13.1219 17.4532 13.1219 16.9467 13.4343 16.6343L17.2688 12.8L4.8 12.8C4.35817 12.8 4 12.4418 4 12C4 11.5582 4.35817 11.2 4.8 11.2L17.2688 11.2L13.4343 7.3657C13.1219 7.05328 13.1219 6.54675 13.4343 6.23433C13.7467 5.9219 14.2533 5.92189 14.5657 6.2343L19.7659 11.4343C19.9159 11.5843 20.0002 11.7878 20.0002 12C20.0002 12.2122 19.9159 12.4157 19.7659 12.5657L14.5657 17.7657C14.2532 18.0781 13.7467 18.0781 13.4343 17.7657Z" fill="#171B1C"/>
</svg>
