<svg width="24" height="24" viewBox="0 0 24 24" fill="none" xmlns="http://www.w3.org/2000/svg">
<path fill-rule="evenodd" clip-rule="evenodd" d="M17.7658 10.5658C17.4533 10.8782 16.9468 10.8782 16.6344 10.5658L12.8001 6.73133L12.8001 19.2001C12.8001 19.6419 12.4419 20.0001 12.0001 20.0001C11.5583 20.0001 11.2001 19.6419 11.2001 19.2001L11.2001 6.73133L7.36579 10.5658C7.05337 10.8782 6.54684 10.8782 6.23442 10.5658C5.92199 10.2534 5.92198 9.74685 6.2344 9.43443L11.4344 4.23423C11.5844 4.0842 11.7879 3.99991 12.0001 3.99991C12.2123 3.99991 12.4158 4.0842 12.5658 4.23423L17.7658 9.43443C18.0782 9.74685 18.0782 10.2534 17.7658 10.5658Z" fill="#171B1C"/>
</svg>
