<svg width="24" height="24" viewBox="0 0 24 24" fill="none" xmlns="http://www.w3.org/2000/svg">
<path fill-rule="evenodd" clip-rule="evenodd" d="M10.5659 6.23433C10.8783 6.54675 10.8783 7.05328 10.5659 7.3657L6.73142 11.2H19.2002C19.642 11.2 20.0002 11.5582 20.0002 12C20.0002 12.4418 19.642 12.8 19.2002 12.8H6.73142L10.5659 16.6343C10.8783 16.9467 10.8783 17.4532 10.5659 17.7657C10.2535 18.0781 9.74695 18.0781 9.43452 17.7657L4.23433 12.5657C4.08429 12.4157 4 12.2122 4 12C4 11.7878 4.08429 11.5843 4.23433 11.4343L9.43452 6.2343C9.74695 5.92189 10.2535 5.9219 10.5659 6.23433Z" fill="#171B1C"/>
</svg>
