<svg width="24" height="24" viewBox="0 0 24 24" fill="none" xmlns="http://www.w3.org/2000/svg">
<path fill-rule="evenodd" clip-rule="evenodd" d="M7.6 3.8C7.6 3.35817 7.24183 3 6.8 3C6.35817 3 6 3.35817 6 3.8V18.2686L3.36569 15.6343C3.05327 15.3219 2.54673 15.3219 2.23431 15.6343C1.9219 15.9467 1.9219 16.4533 2.23431 16.7657L6.23431 20.7657C6.38434 20.9157 6.58783 21 6.8 21C7.01217 21 7.21566 20.9157 7.36569 20.7657L11.3657 16.7657C11.6781 16.4533 11.6781 15.9467 11.3657 15.6343C11.0533 15.3219 10.5467 15.3219 10.2343 15.6343L7.6 18.2686V3.8ZM10.8 3.00005C10.3582 3.00005 10 3.35822 10 3.80005C10 4.24188 10.3582 4.60005 10.8 4.60005H15.2C15.6418 4.60005 16 4.24188 16 3.80005C16 3.35822 15.6418 3.00005 15.2 3.00005H10.8ZM10 7.80005C10 7.35822 10.3582 7.00005 10.8 7.00005H18.2C18.6418 7.00005 19 7.35822 19 7.80005C19 8.24188 18.6418 8.60005 18.2 8.60005H10.8C10.3582 8.60005 10 8.24188 10 7.80005ZM10.8 11C10.3582 11 10 11.3582 10 11.8C10 12.2419 10.3582 12.6 10.8 12.6H21.2C21.6418 12.6 22 12.2419 22 11.8C22 11.3582 21.6418 11 21.2 11H10.8Z" fill="#171B1C"/>
</svg>
