<svg width="24" height="24" viewBox="0 0 24 24" fill="none" xmlns="http://www.w3.org/2000/svg">
<path d="M4.10025 8.19727C4.48271 7.97657 4.97201 8.10704 5.19303 8.48926C5.41387 8.87176 5.2824 9.36101 4.90006 9.58203C4.76806 9.65824 4.65778 9.76832 4.5817 9.90039C4.50567 10.0325 4.46607 10.1835 4.46647 10.3359V17.833C4.46647 18.0628 4.55796 18.2838 4.72037 18.4463C4.88289 18.6087 5.10388 18.6992 5.33365 18.6992H14.4997C14.6517 18.6992 14.8016 18.66 14.9333 18.584C15.0649 18.508 15.1746 18.3982 15.2506 18.2666C15.4716 17.8842 15.9609 17.7529 16.3434 17.9736C16.7259 18.1945 16.857 18.6839 16.6364 19.0664C16.4199 19.4413 16.108 19.7523 15.7331 19.9688C15.3581 20.1852 14.9326 20.2998 14.4997 20.2998H5.33365C4.67953 20.2998 4.05208 20.0396 3.58951 19.5771C3.12704 19.1146 2.86686 18.4871 2.86686 17.833V10.3379C2.86606 9.90463 2.97889 9.4781 3.19498 9.10254C3.41153 8.72633 3.72432 8.41431 4.10025 8.19727Z" fill="#171B1C"/>
<path fill-rule="evenodd" clip-rule="evenodd" d="M11.5837 3.7002C11.9018 3.70024 12.2161 3.77374 12.5006 3.91602C12.785 4.05825 13.0325 4.26522 13.2233 4.51953L13.7233 5.18652C13.7652 5.24234 13.8201 5.28812 13.8825 5.31934C13.9449 5.35045 14.0139 5.36621 14.0837 5.36621H18.6667C19.3206 5.36629 19.9483 5.62656 20.4108 6.08887C20.8732 6.55136 21.1334 7.179 21.1335 7.83301V13.667C21.1334 14.321 20.8732 14.9486 20.4108 15.4111C19.9483 15.8734 19.3206 16.1337 18.6667 16.1338H9.50065C8.84667 16.1338 8.21905 15.8734 7.7565 15.4111C7.29399 14.9486 7.03393 14.3211 7.03385 13.667V6.16699C7.03385 5.51279 7.29391 4.88544 7.7565 4.42285C8.21908 3.96036 8.84652 3.7002 9.50065 3.7002H11.5837ZM9.50065 5.2998C9.27087 5.2998 9.04988 5.39128 8.88736 5.55371C8.72483 5.71624 8.63346 5.93714 8.63346 6.16699V13.667C8.63354 13.8967 8.72501 14.1169 8.88736 14.2793C9.04988 14.4417 9.27087 14.5332 9.50065 14.5332H18.6667C18.8964 14.5331 19.1175 14.4418 19.2799 14.2793C19.4422 14.1169 19.5338 13.8966 19.5338 13.667V7.83301C19.5338 7.60342 19.4422 7.38313 19.2799 7.2207C19.1175 7.05825 18.8964 6.96688 18.6667 6.9668H14.0837C13.7655 6.9668 13.4512 6.89224 13.1667 6.75C12.8822 6.60772 12.6349 6.40091 12.444 6.14648L11.944 5.48047C11.9021 5.42466 11.8472 5.3789 11.7848 5.34766C11.7224 5.31646 11.6534 5.29985 11.5837 5.2998H9.50065Z" fill="#171B1C"/>
</svg>
