<svg width="24" height="24" viewBox="0 0 24 24" fill="none" xmlns="http://www.w3.org/2000/svg">
<path fill-rule="evenodd" clip-rule="evenodd" d="M13.101 3.02596C11.0657 2.86718 9.04072 3.44054 7.39082 4.64272C5.74092 5.84489 4.57465 7.59682 4.10216 9.58281C3.65638 11.4566 3.85585 13.4224 4.66238 15.1642L3.04237 19.9432C2.94462 20.2315 3.01904 20.5504 3.23434 20.7657C3.44964 20.981 3.76849 21.0554 4.05685 20.9577L8.83587 19.3376C10.5776 20.1442 12.5434 20.3436 14.4172 19.8979C16.4032 19.4254 18.1551 18.2591 19.3573 16.6092C20.5595 14.9593 21.1328 12.9343 20.9741 10.899C20.8153 8.86381 19.9348 6.95221 18.4913 5.5087C17.0478 4.0652 15.1362 3.18473 13.101 3.02596ZM8.33305 5.93586C9.67474 4.95825 11.3215 4.492 12.9765 4.62111C14.6316 4.75023 16.1861 5.46622 17.3599 6.64007C18.5338 7.81393 19.2498 9.36844 19.3789 11.0235C19.508 12.6785 19.0418 14.3253 18.0642 15.667C17.0866 17.0087 15.6619 17.9571 14.0469 18.3413C12.4319 18.7255 10.7328 18.5203 9.25569 17.7626C9.0631 17.6638 8.83871 17.6473 8.63372 17.7167L5.07792 18.9221L6.28328 15.3663C6.35276 15.1613 6.33623 14.9369 6.23743 14.7443C5.47973 13.2673 5.2745 11.5681 5.65872 9.95313C6.04294 8.33813 6.99135 6.91346 8.33305 5.93586ZM8.2998 10.6507C7.85798 10.6507 7.4998 11.0089 7.4998 11.4507C7.4998 11.8925 7.85798 12.2507 8.2998 12.2507L14.6049 12.2507L12.6472 14.1216C12.3278 14.4269 12.3163 14.9333 12.6216 15.2527C12.9269 15.5721 13.4333 15.5836 13.7527 15.2784L17.1527 12.029C17.3122 11.8766 17.4016 11.6651 17.3999 11.4445C17.3982 11.2239 17.3055 11.0138 17.1437 10.8639L13.7437 7.71321C13.4196 7.4129 12.9135 7.43216 12.6132 7.75624C12.3128 8.08031 12.3321 8.58648 12.6562 8.88679L14.5597 10.6507L8.2998 10.6507Z" fill="#171B1C"/>
</svg>
