<svg width="24" height="24" viewBox="0 0 24 24" fill="none" xmlns="http://www.w3.org/2000/svg">
<path fill-rule="evenodd" clip-rule="evenodd" d="M5.55979 6.99756C4.63191 6.99756 3.95008 7.60626 3.58644 8.21051C3.57395 8.23126 3.56241 8.25257 3.55186 8.27436L2.26395 10.9342C2.25004 10.9629 2.23785 10.9924 2.22747 11.0226C2.07687 11.4606 2 11.9204 2 12.3834V16.2515C2 16.7092 2.15657 17.1524 2.48815 17.483C2.8195 17.8133 3.26287 17.9687 3.71993 17.9687H4.82864C5.10118 19.1355 6.15043 20.0024 7.39962 20.0024C8.57661 20.0024 9.5761 19.2328 9.91567 18.1679H14.0828C14.4224 19.2328 15.4219 20.0024 16.5988 20.0024C17.848 20.0024 18.8973 19.1355 19.1698 17.9687H20.2787C20.7357 17.9687 21.1791 17.8133 21.5104 17.483C21.842 17.1524 21.9986 16.7092 21.9986 16.2515V13.3006C21.9986 12.0828 21.0817 11.0538 20.0232 10.7845C19.1813 10.5516 18.1386 10.2976 17.3112 10.1028C16.8948 10.0048 16.5304 9.9212 16.2701 9.86208L16.0947 9.82237L16.0626 9.78814C15.9368 9.65404 15.7604 9.46663 15.5579 9.25324C15.1543 8.82785 14.6421 8.2939 14.22 7.87304C14.1991 7.85221 14.1771 7.83255 14.154 7.81415C13.6069 7.37775 12.8837 6.99756 11.9993 6.99756H5.55979ZM19.0422 16.3687H20.2787C20.3279 16.3687 20.3563 16.3606 20.3688 16.3558C20.376 16.353 20.3795 16.3508 20.3807 16.3499C20.3816 16.3487 20.3836 16.3455 20.3861 16.339C20.3906 16.3273 20.3986 16.2998 20.3986 16.2515V13.3006C20.3986 12.8717 20.0339 12.4361 19.6252 12.3342L19.6052 12.3289C18.7928 12.1039 17.7702 11.8546 16.9446 11.6603C16.5331 11.5634 16.173 11.4808 15.9158 11.4224C15.7873 11.3932 15.6845 11.37 15.614 11.3543L15.5063 11.3302C15.3481 11.2952 15.204 11.2129 15.0936 11.0943L15.0415 11.0385L14.8958 10.8829C14.7715 10.7505 14.5972 10.5653 14.3972 10.3545C14.0067 9.94286 13.5229 9.4386 13.1232 9.03895C12.761 8.75776 12.3908 8.59756 11.9993 8.59756H5.55979C5.389 8.59756 5.15979 8.71525 4.97431 9.00803L3.72632 11.5854C3.64265 11.8431 3.6 12.1124 3.6 12.3834V16.2515C3.6 16.2998 3.60797 16.3273 3.61251 16.339C3.615 16.3455 3.61698 16.3487 3.61785 16.3499C3.61912 16.3508 3.62262 16.353 3.62977 16.3558C3.64226 16.3606 3.67068 16.3687 3.71993 16.3687H4.95626C5.35102 15.4085 6.2975 14.7337 7.39962 14.7337C8.57651 14.7337 9.57593 15.5031 9.91558 16.5679H14.0829C14.4225 15.5031 15.422 14.7337 16.5988 14.7337C17.701 14.7337 18.6474 15.4085 19.0422 16.3687ZM15.559 17.3743C15.559 17.3722 15.559 17.37 15.559 17.3679C15.559 17.3658 15.559 17.3637 15.559 17.3616C15.5625 16.7955 16.0244 16.3337 16.5988 16.3337C17.1754 16.3337 17.6387 16.799 17.6387 17.368C17.6387 17.937 17.1754 18.4024 16.5988 18.4024C16.0244 18.4024 15.5624 17.9404 15.559 17.3743ZM8.43945 17.3679L8.43947 17.3627C8.43661 16.7962 7.9744 16.3337 7.39962 16.3337C6.82306 16.3337 6.35977 16.799 6.35977 17.368C6.35977 17.937 6.82306 18.4024 7.39962 18.4024C7.97435 18.4024 8.43652 17.94 8.43947 17.3735L8.43945 17.3679Z" fill="#171B1C"/>
</svg>
