<svg width="24" height="24" viewBox="0 0 24 24" fill="none" xmlns="http://www.w3.org/2000/svg">
<path d="M10.8436 3.70889C11.3168 2.7637 12.6832 2.7637 13.1564 3.70889L13.2002 3.8063L15.2752 8.88919L20.7911 9.27299C21.9576 9.35416 22.4295 10.8165 21.5305 11.5641L17.3055 15.0767L18.6391 20.3827C18.923 21.512 17.69 22.4145 16.6995 21.8019L12 18.8952L7.30048 21.8019C6.30999 22.4145 5.07695 21.512 5.36086 20.3827L6.69356 15.0767L2.46945 11.5641C1.57045 10.8165 2.04241 9.35416 3.20887 9.27299L8.72378 8.88919L10.7998 3.8063L10.8436 3.70889ZM10.1315 9.66555C9.94466 10.1228 9.51373 10.4338 9.02091 10.4682L4.06323 10.8131L7.85967 13.9701C8.24309 14.289 8.4098 14.7996 8.28832 15.2832L7.08811 20.0554L11.3181 17.4409L11.4798 17.3561C11.8112 17.2109 12.1888 17.2109 12.5202 17.3561L12.6819 17.4409L16.9109 20.0554L15.7117 15.2832C15.5902 14.7996 15.7569 14.289 16.1403 13.9701L19.9358 10.8131L14.9791 10.4682C14.4863 10.4338 14.0553 10.1228 13.8685 9.66555L12 5.08725L10.1315 9.66555Z" fill="#171B1C"/>
</svg>
