<svg width="24" height="24" viewBox="0 0 24 24" fill="none" xmlns="http://www.w3.org/2000/svg">
<path fill-rule="evenodd" clip-rule="evenodd" d="M3.6 3.6V7.26912L7.26912 3.6H3.6ZM3.6 13.2691V9.53186L9.53186 3.6H13.2691L11.8669 5.00217C11.9111 5.00073 11.9555 5 12 5C12.6222 5 13.2112 5.14206 13.7364 5.3955L15.5319 3.6H19.2691L15.6048 7.2643C15.8581 7.7893 16 8.37807 16 9V9.13186L20.4 4.73186V8.46912L16 12.8691V15C16 15.0449 15.9993 15.0896 15.9978 15.1341L20.4 10.7319V14.4691L14.4691 20.4H10.7319L12.1341 18.9978C12.0896 18.9993 12.0449 19 12 19C11.3781 19 10.7893 18.8581 10.2643 18.6048L8.46912 20.4H4.73186L8.3955 16.7364C8.14206 16.2112 8 15.6222 8 15V14.8691L3.6 19.2691V15.5319L8 11.1319V9C8 8.95547 8.00073 8.91112 8.00217 8.86695L3.6 13.2691ZM16.7319 20.4L20.4 16.7319V20.4H16.7319ZM2 3.41333C2 2.63277 2.63277 2 3.41333 2H20.5867C21.3673 2 22 2.6328 22 3.41333V20.5867C22 21.3673 21.3673 22 20.5867 22H3.41333C2.6328 22 2 21.3673 2 20.5867V3.41333Z" fill="#171B1C"/>
<path fill-rule="evenodd" clip-rule="evenodd" d="M11.9999 7.0876C12.5522 7.0876 12.9999 7.53531 12.9999 8.0876V12.4875C12.9999 13.0398 12.5522 13.4875 11.9999 13.4875C11.4476 13.4875 10.9999 13.0398 10.9999 12.4875V8.0876C10.9999 7.53531 11.4476 7.0876 11.9999 7.0876Z" fill="#171B1C"/>
<path fill-rule="evenodd" clip-rule="evenodd" d="M12.0004 14.8C12.5527 14.8 13.0004 15.2477 13.0004 15.8V15.9C13.0004 16.4523 12.5527 16.9 12.0004 16.9C11.4481 16.9 11.0004 16.4523 11.0004 15.9V15.8C11.0004 15.2477 11.4481 14.8 12.0004 14.8Z" fill="#171B1C"/>
</svg>
