<svg width="24" height="24" viewBox="0 0 24 24" fill="none" xmlns="http://www.w3.org/2000/svg">
<path fill-rule="evenodd" clip-rule="evenodd" d="M3.6 7.26926V3.6H7.26926L3.6 7.26926ZM3.6 9.53201V13.2693L8.00217 8.8671C8.07084 6.7636 9.7636 5.07084 11.8671 5.00217L13.2693 3.6H9.53201L3.6 9.53201ZM3.6 15.532L8 11.132V14.8693L3.6 19.2693V15.532ZM4.73201 20.4L8.39555 16.7365C8.78867 17.551 9.44976 18.2119 10.2644 18.6049L8.46926 20.4H4.73201ZM16 9.132V12.8693L20.4 8.46926V4.73201L16 9.132ZM15.9978 15.1342C15.9285 17.2367 14.2367 18.9285 12.1342 18.9978L10.732 20.4H14.4693L20.4 14.4693V10.732L15.9978 15.1342ZM13.7365 5.39555C14.551 5.78867 15.2119 6.44976 15.6049 7.2644L19.2693 3.6H15.532L13.7365 5.39555ZM20.4 16.732L16.732 20.4H20.4V16.732ZM3.41333 2C2.63277 2 2 2.63277 2 3.41333V20.5867C2 21.3673 2.6328 22 3.41333 22H20.5867C21.3673 22 22 21.3673 22 20.5867V3.41333C22 2.6328 21.3673 2 20.5867 2H3.41333ZM12 7.08765C12.5523 7.08765 13 7.53536 13 8.08765V12.4876C13 13.0399 12.5523 13.4876 12 13.4876C11.4477 13.4876 11 13.0399 11 12.4876V8.08765C11 7.53536 11.4477 7.08765 12 7.08765ZM12.0005 14.8C12.5528 14.8 13.0005 15.2478 13.0005 15.8V15.9C13.0005 16.4523 12.5528 16.9 12.0005 16.9C11.4482 16.9 11.0005 16.4523 11.0005 15.9V15.8C11.0005 15.2478 11.4482 14.8 12.0005 14.8Z" fill="#171B1C"/>
</svg>
