<svg width="24" height="24" viewBox="0 0 24 24" fill="none" xmlns="http://www.w3.org/2000/svg">
<path fill-rule="evenodd" clip-rule="evenodd" d="M7.83301 2.86523C8.48251 2.86523 9.10942 3.09012 9.6084 3.49707L9.81445 3.68262L9.81543 3.68457L10.8887 4.75781C10.8921 4.76116 10.896 4.76415 10.8994 4.76758C10.9022 4.77032 10.9045 4.77359 10.9072 4.77637L12.8379 6.70703L13.8701 5.6748C13.8899 5.64948 13.9113 5.62489 13.9346 5.60156C13.9586 5.57752 13.9836 5.55452 14.0098 5.53418L15.7578 3.78809L15.8711 3.68066C16.4487 3.15782 17.2016 2.86623 17.9844 2.86621C18.8195 2.86635 19.6215 3.19852 20.2119 3.78906C20.802 4.37958 21.1338 5.18077 21.1338 6.01562C21.1337 6.79849 20.8414 7.55136 20.3184 8.12891L20.2109 8.24219L18.4707 9.98145C18.4487 10.0105 18.4259 10.0399 18.3994 10.0664C18.3718 10.094 18.3419 10.1179 18.3115 10.1406L17.292 11.1611L20.3164 14.1846C21.4117 15.2803 21.4119 17.0538 20.3164 18.1494L18.1494 20.3164C17.0538 21.4118 15.2803 21.4117 14.1846 20.3164L11.1611 17.292L9.08789 19.3672C8.83777 19.6165 8.53689 19.8088 8.20703 19.9316L8.06348 19.9805L4.43555 21.0801L4.43359 21.0811C4.2234 21.1442 3.99995 21.1492 3.78711 21.0957C3.5741 21.0422 3.37907 20.9316 3.22363 20.7764C3.06844 20.6213 2.95814 20.4266 2.9043 20.2139C2.85056 20.0011 2.85516 19.7776 2.91797 19.5674L2.91895 19.5645L4.01953 15.9375L4.02051 15.9355C4.13907 15.5491 4.35045 15.1966 4.63672 14.9111L6.70801 12.8389L3.68457 9.81543L3.68262 9.81445C3.15904 9.28821 2.86523 8.57536 2.86523 7.83301C2.86532 7.09082 3.15918 6.3787 3.68262 5.85254L5.85254 3.68262C6.37867 3.15916 7.09084 2.86536 7.83301 2.86523ZM12.292 16.1611L15.3164 19.1846C15.7873 19.655 16.5468 19.6551 17.0176 19.1846L19.1846 17.0176C19.6552 16.5468 19.655 15.7873 19.1846 15.3164L18.666 14.7979L17.5654 15.8994C17.2531 16.2113 16.7469 16.2114 16.4346 15.8994C16.1222 15.5871 16.1224 15.08 16.4346 14.7676L17.5352 13.666L16.1611 12.292L12.292 16.1611ZM5.7666 16.0449C5.66684 16.1445 5.59158 16.2668 5.5498 16.4014L5.55078 16.4023L4.6582 19.3398L7.59863 18.4492L7.69727 18.4121C7.79366 18.3693 7.88184 18.3092 7.95703 18.2344L16.6953 9.49414L14.5059 7.30371L5.7666 16.0449ZM7.83301 4.46484C7.51444 4.46497 7.20762 4.59018 6.98145 4.81445L6.98242 4.81543L4.81543 6.98242L4.81445 6.98145C4.59019 7.20765 4.46493 7.51442 4.46484 7.83301C4.46484 8.15179 4.59098 8.45828 4.81543 8.68457L7.83887 11.708L11.707 7.83789L10.333 6.46387L9.23242 7.56543C8.92004 7.87763 8.41394 7.87763 8.10156 7.56543C7.78923 7.253 7.78917 6.74599 8.10156 6.43359L9.20215 5.33301L8.68555 4.81641L8.59668 4.7373C8.38201 4.5623 8.11239 4.46484 7.83301 4.46484ZM17.9844 4.46582C17.5738 4.46584 17.1801 4.62968 16.8896 4.91992L15.6367 6.17285L17.8271 8.3623L19.0791 7.11035C19.3692 6.82002 19.5331 6.42608 19.5332 6.01562C19.5332 5.60496 19.3704 5.21038 19.0801 4.91992C18.7896 4.62947 18.3951 4.4659 17.9844 4.46582Z" fill="#171B1C"/>
</svg>
