<svg width="24" height="24" viewBox="0 0 24 24" fill="none" xmlns="http://www.w3.org/2000/svg">
<path fill-rule="evenodd" clip-rule="evenodd" d="M20.0645 8C18.5918 5.03656 15.5337 3 12 3C8.46628 3 5.40822 5.03656 3.93552 8H5.77283C7.08956 5.95445 9.38666 4.59961 12 4.59961C14.6133 4.59961 16.9104 5.95445 18.2272 8H20.0645ZM20.0645 16H18.2272C16.9104 18.0456 14.6133 19.4004 12 19.4004C9.38666 19.4004 7.08956 18.0456 5.77283 16H3.93552C5.40822 18.9634 8.46628 21 12 21C15.5337 21 18.5918 18.9634 20.0645 16Z" fill="#171B1C"/>
<path fill-rule="evenodd" clip-rule="evenodd" d="M7.52779 8H16.4722C15.3736 6.7725 13.777 6 12 6C10.223 6 8.62643 6.7725 7.52779 8Z" fill="#171B1C"/>
<path fill-rule="evenodd" clip-rule="evenodd" d="M7.52779 16C8.62643 17.2275 10.223 18 12 18C13.777 18 15.3736 17.2275 16.4722 16H7.52779Z" fill="#171B1C"/>
<path d="M20 15L20.2041 14.9893C21.2128 14.887 22 14.0357 22 13V11C22 9.96435 21.2128 9.11301 20.2041 9.01074L20 9H4C2.89543 9 2 9.89543 2 11V13L2.01074 13.2041C2.113 14.2128 2.96435 15 4 15H20ZM20.4004 13C20.4004 13.2209 20.2209 13.4004 20 13.4004H4C3.77909 13.4004 3.59961 13.2209 3.59961 13V11C3.59961 10.7791 3.77909 10.5996 4 10.5996H20C20.2209 10.5996 20.4004 10.7791 20.4004 11V13Z" fill="#171B1C"/>
</svg>
