<svg width="24" height="24" viewBox="0 0 24 24" fill="none" xmlns="http://www.w3.org/2000/svg">
<path fill-rule="evenodd" clip-rule="evenodd" d="M15.6621 15.5439C16.5007 15.5441 17.1806 16.2239 17.1807 17.0625V18.75C17.1807 19.5887 16.5007 20.2684 15.6621 20.2686H5.25C4.41121 20.2685 3.73145 19.5888 3.73145 18.75V17.0625C3.73149 16.2237 4.41124 15.544 5.25 15.5439H15.6621ZM5.25 16.8936C5.15683 16.8936 5.0811 16.9693 5.08105 17.0625V18.75C5.08105 18.8432 5.15681 18.9189 5.25 18.9189H15.6621C15.7552 18.9188 15.8311 18.8431 15.8311 18.75V17.0625C15.831 16.9695 15.7551 16.8937 15.6621 16.8936H5.25Z" fill="#171B1C"/>
<path fill-rule="evenodd" clip-rule="evenodd" d="M12.7188 9.6377C13.5573 9.63795 14.2373 10.3176 14.2373 11.1562V12.8438C14.2373 13.6824 13.5573 14.362 12.7188 14.3623H5.25C4.4113 14.3622 3.73145 13.6825 3.73145 12.8438V11.1562C3.73145 10.3175 4.41131 9.63781 5.25 9.6377H12.7188ZM5.25 10.9873C5.1569 10.9874 5.08105 11.0631 5.08105 11.1562V12.8438C5.08105 12.9369 5.1569 13.0126 5.25 13.0127H12.7188C12.8117 13.0124 12.8867 12.9368 12.8867 12.8438V11.1562C12.8867 11.0632 12.8117 10.9876 12.7188 10.9873H5.25Z" fill="#171B1C"/>
<path fill-rule="evenodd" clip-rule="evenodd" d="M18.75 3.73145C19.5888 3.73145 20.2686 4.41121 20.2686 5.25V6.9375C20.2685 7.77626 19.5888 8.45605 18.75 8.45605H5.25C4.41123 8.45605 3.73149 7.77626 3.73145 6.9375V5.25C3.73145 4.41121 4.41121 3.73145 5.25 3.73145H18.75ZM5.25 5.08105C5.1568 5.08105 5.08105 5.1568 5.08105 5.25V6.9375C5.0811 7.03066 5.15683 7.10645 5.25 7.10645H18.75C18.8432 7.10645 18.9189 7.03066 18.9189 6.9375V5.25C18.9189 5.1568 18.8432 5.08105 18.75 5.08105H5.25Z" fill="#171B1C"/>
</svg>
