<svg width="24" height="24" viewBox="0 0 24 24" fill="none" xmlns="http://www.w3.org/2000/svg">
<path fill-rule="evenodd" clip-rule="evenodd" d="M7.73066 4.97719C6.9737 5.67922 6.55621 6.71772 6.57645 8.09921C6.59568 9.41156 6.96747 10.2572 7.78895 11.1392C7.80247 11.1537 7.81599 11.1682 7.8295 11.1827C8.27377 11.6595 8.70761 12.125 8.99978 12.7525C9.30818 13.4149 9.43229 14.1877 9.43221 15.2667C9.43218 15.7086 9.07941 16.0667 8.64427 16.0667C8.20914 16.0666 7.85642 15.7084 7.85645 15.2666C7.85653 14.3012 7.74275 13.7962 7.5752 13.4364C7.40031 13.0607 7.13778 12.7687 6.64405 12.2386C5.56145 11.0762 5.02618 9.85053 5.00087 8.12301C4.97543 6.38703 5.50976 4.86997 6.66796 3.79581C7.81485 2.73215 9.96879 2 12 2C14.5312 2 16.1852 2.73215 17.3321 3.79581C18.4903 4.86997 19.0246 6.38703 18.9991 8.12302C18.9738 9.85061 18.4383 11.0762 17.356 12.2385C16.8625 12.7686 16.6 13.0607 16.4251 13.4364C16.2575 13.7963 16.1436 14.3013 16.1435 15.2667C16.1435 15.7086 15.7907 16.0667 15.3556 16.0667C14.9205 16.0666 14.5677 15.7084 14.5678 15.2666C14.5679 14.1876 14.6921 13.4148 15.0005 12.7525C15.2926 12.1252 15.7262 11.6597 16.1702 11.183C16.1838 11.1685 16.1974 11.1539 16.211 11.1393C17.0323 10.2572 17.4043 9.41147 17.4235 8.09921C17.4438 6.71771 17.0263 5.67922 16.2694 4.97719C15.5011 4.26467 14.2765 3.6 12 3.6C10.2235 3.6 8.49894 4.26466 7.73066 4.97719ZM8.35567 18.1333C8.35567 17.6915 8.70842 17.3333 9.14355 17.3333H14.8549C15.29 17.3333 15.6428 17.6915 15.6428 18.1333C15.6428 18.5752 15.29 18.9333 14.8549 18.9333H9.14355C8.70842 18.9333 8.35567 18.5752 8.35567 18.1333ZM9.30756 21.2C9.30756 20.7582 9.66031 20.4 10.0954 20.4H13.903C14.3381 20.4 14.6909 20.7582 14.6909 21.2C14.6909 21.6418 14.3381 22 13.903 22H10.0954C9.66031 22 9.30756 21.6418 9.30756 21.2Z" fill="#171B1C"/>
</svg>
