<svg width="24" height="24" viewBox="0 0 24 24" fill="none" xmlns="http://www.w3.org/2000/svg">
<path d="M16 3C16.4417 3.00011 16.7997 3.35813 16.7998 3.7998V4H18L18.1543 4.00391C19.7394 4.08421 21 5.39489 21 7V18C21 19.6051 19.7394 20.9158 18.1543 20.9961L18 21H6C4.39489 21 3.08421 19.7394 3.00391 18.1543L3 18V7C3 5.34315 4.34315 4 6 4H7.2002V3.7998C7.2003 3.35807 7.55824 3 8 3C8.44167 3.00011 8.7997 3.35813 8.7998 3.7998V4H15.2002V3.7998C15.2003 3.35807 15.5582 3 16 3ZM4.59961 18C4.59961 18.7732 5.2268 19.4004 6 19.4004H18C18.7732 19.4004 19.4004 18.7732 19.4004 18V10.5996H4.59961V18ZM6 5.59961C5.2268 5.59961 4.59961 6.2268 4.59961 7V9H19.4004V7C19.4004 6.2268 18.7732 5.59961 18 5.59961H16.7998V6.20246C16.7996 6.64402 16.4416 7.00216 16 7.00227C15.5583 7.00227 15.2004 6.64409 15.2002 6.20246V5.59961H8.7998V6.20246C8.79957 6.64402 8.44159 7.00216 8 7.00227C7.55832 7.00227 7.20043 6.64409 7.2002 6.20246V5.59961H6Z" fill="#171B1C"/>
</svg>
