<svg width="24" height="24" viewBox="0 0 24 24" fill="none" xmlns="http://www.w3.org/2000/svg">
<path d="M12.75 3.78417C12.1703 3.73124 11.5833 3.73951 10.9986 3.81101C9.19174 4.03196 7.50867 4.8443 6.2116 6.1215C4.91453 7.3987 4.07628 9.06902 3.82745 10.8723C3.57862 12.6755 3.93318 14.5104 4.83589 16.0912C5.73859 17.6719 7.13876 18.9097 8.81828 19.6118C10.4978 20.3138 12.3623 20.4407 14.1215 19.9726C15.8806 19.5045 17.4355 18.4677 18.544 17.0238C19.6525 15.5799 20.2523 13.8099 20.2499 11.9895C20.2508 11.742 20.2403 11.4953 20.2185 11.25H12.75V3.78417Z" fill="#1726B6"/>
<path fill-rule="evenodd" clip-rule="evenodd" d="M12.7498 9.17669C12.5221 9.43036 12.3035 9.69207 12.0943 9.96133C11.8236 9.56216 11.5075 9.19572 11.1523 8.86933C10.6683 8.47047 10.0634 8.24734 9.43632 8.23633C8.92741 8.26054 8.43397 8.419 8.00613 8.69563C7.57828 8.97225 7.23126 9.35719 7.00032 9.81133C6.29821 10.9075 5.94203 12.1896 5.97807 13.4908C5.96848 14.1173 6.10402 14.7375 6.37407 15.3028C6.5628 15.6057 6.82941 15.8524 7.14604 16.017C7.46268 16.1817 7.81772 16.2583 8.17407 16.2388C8.58423 16.2347 8.985 16.1155 9.33078 15.8949C9.67657 15.6743 9.9535 15.3611 10.1301 14.9908C10.644 14.3013 11.0939 13.5662 11.4741 12.7948L11.8581 12.0868C11.8689 12.0871 11.8796 12.0853 11.8897 12.0814C11.8998 12.0775 11.909 12.0717 11.9168 12.0642C11.9246 12.0568 11.9309 12.0478 11.9352 12.0379C11.9395 12.028 11.9419 12.0174 11.9421 12.0066C11.9421 12.0502 11.9623 12.0712 11.9817 12.0913C11.9997 12.11 12.0171 12.128 12.0171 12.1626L13.1211 13.9746C13.4805 14.5633 13.8986 15.1141 14.3691 15.6186C14.7932 16.0231 15.358 16.2469 15.9441 16.2426C16.2767 16.2472 16.6044 16.1629 16.8935 15.9984C17.1825 15.8338 17.4223 15.595 17.5881 15.3066C17.8717 14.7204 18.0056 14.0731 17.9781 13.4226C17.992 12.6832 17.8884 11.9502 17.6745 11.25H16.3979C16.6647 11.9624 16.8024 12.7198 16.8013 13.4863C16.8351 13.7834 16.7809 14.0838 16.6453 14.3503L16.6446 14.3601C16.6374 14.4209 16.6074 14.4766 16.5606 14.5161C16.4894 14.6372 16.3876 14.7376 16.2655 14.8071C16.1434 14.8766 16.0051 14.9128 15.8646 14.9121C15.704 14.905 15.5477 14.8584 15.4095 14.7764C15.2714 14.6943 15.1556 14.5794 15.0726 14.4418C14.5542 13.7433 14.0851 13.0095 13.6686 12.2458L13.3446 11.7778C13.2421 11.5975 13.1359 11.4346 13.0359 11.2811C13.0291 11.2707 13.0223 11.2603 13.0156 11.25H12.7498V10.8144C12.7397 10.7955 12.73 10.7767 12.7206 10.7578C12.7244 10.7261 12.7344 10.6958 12.7498 10.6684V9.17669ZM10.0919 13.0129C10.3635 12.5776 10.6263 12.1565 10.8381 11.8521L11.3923 10.9843C11.3433 10.9206 11.2948 10.8569 11.2473 10.7945C11.0622 10.5514 10.8925 10.3285 10.7683 10.2043C10.6077 10.0002 10.4063 9.83182 10.177 9.70992C9.94761 9.58801 9.69536 9.51527 9.43632 9.49633C8.88432 9.49633 8.48832 9.89233 8.09082 10.4323C7.52348 11.3526 7.22883 12.415 7.24107 13.4961C7.21449 13.8777 7.29227 14.2593 7.46607 14.6001C7.54785 14.7139 7.65365 14.8084 7.776 14.8769C7.89835 14.9453 8.03425 14.986 8.17407 14.9961C8.48607 14.9961 8.79807 14.9121 9.43407 14.0481C9.64402 13.7305 9.87087 13.367 10.0919 13.0129Z" fill="white"/>
<path d="M14.25 9.17095V3.21183C14.2502 3.09794 14.2843 2.98669 14.3478 2.89214C14.4113 2.79759 14.5015 2.72399 14.6069 2.68066C14.7122 2.63733 14.8281 2.62621 14.9398 2.64871C15.0515 2.6712 15.1541 2.72631 15.2344 2.80706L21.1973 8.76618C21.2777 8.84691 21.3325 8.94964 21.3546 9.06141C21.3767 9.17318 21.3651 9.28899 21.3215 9.39422C21.2778 9.49946 21.2039 9.58941 21.1091 9.65273C21.0143 9.71604 20.9029 9.74989 20.7889 9.75H14.826C14.7503 9.75015 14.6754 9.73536 14.6054 9.70648C14.5355 9.6776 14.4719 9.6352 14.4184 9.58172C14.3649 9.52823 14.3224 9.46471 14.2935 9.3948C14.2647 9.32489 14.2499 9.24996 14.25 9.17432M18.316 5.10863V1.33189C18.315 1.21734 18.3481 1.10509 18.4112 1.00944C18.4743 0.913785 18.5644 0.839065 18.6701 0.794802C18.7758 0.750538 18.8924 0.738736 19.0048 0.7609C19.1173 0.783063 19.2206 0.838188 19.3016 0.919249L23.0818 4.69486C23.1622 4.77559 23.217 4.87832 23.2391 4.99009C23.2612 5.10186 23.2496 5.21767 23.2059 5.32291C23.1623 5.42814 23.0884 5.51809 22.9936 5.58141C22.8988 5.64472 22.7874 5.67857 22.6734 5.67868H18.8932C18.8174 5.67853 18.7423 5.66347 18.6724 5.63434C18.6024 5.60522 18.5389 5.56261 18.4854 5.50894C18.4319 5.45528 18.3895 5.39161 18.3606 5.32157C18.3318 5.25154 18.317 5.1765 18.3171 5.10076" fill="#039855"/>
</svg>
