<svg width="20" height="20" viewBox="0 0 20 20" fill="none" xmlns="http://www.w3.org/2000/svg">
<path d="M6.94694 2.95801C7.30556 2.95807 7.65906 3.0467 7.97477 3.2168C8.28806 3.38563 8.55429 3.63005 8.75114 3.92643L9.35986 4.8265L9.36393 4.83301C9.44055 4.94931 9.54538 5.04503 9.66829 5.11051C9.7912 5.1759 9.92866 5.20952 10.0679 5.20817H15.9997C16.574 5.20821 17.125 5.43613 17.5312 5.84212C17.9375 6.24838 18.1659 6.79999 18.166 7.37451V9.61165C17.7499 9.36661 17.3036 9.16746 16.833 9.02327V7.37451C16.8329 7.15365 16.745 6.94152 16.5889 6.78532C16.4326 6.62917 16.2206 6.54122 15.9997 6.54118H10.0744C9.71444 6.5436 9.35947 6.45644 9.04167 6.28727C8.72187 6.11694 8.4491 5.86886 8.24984 5.56624L7.64681 4.67269L7.64274 4.66618C7.56695 4.55116 7.46367 4.45652 7.34245 4.39111C7.25131 4.34202 7.15163 4.31021 7.04948 4.29753L6.94694 4.29102H3.99935C3.77847 4.29106 3.56638 4.37901 3.41016 4.53516C3.25399 4.69133 3.16614 4.9035 3.16602 5.12435V14.8745C3.16602 15.0954 3.25402 15.3074 3.41016 15.4637C3.5664 15.6199 3.77839 15.7078 3.99935 15.7078H8.79102C8.84307 16.1694 8.94514 16.6154 9.09212 17.0409H3.99935C3.42493 17.0408 2.87403 16.813 2.46777 16.4069C2.06154 16.0006 1.83301 15.4491 1.83301 14.8745V5.12435C1.83313 4.54988 2.06155 3.99899 2.46777 3.59277C2.87405 3.18658 3.42484 2.95805 3.99935 2.95801H6.94694Z" fill="#171B1C"/>
<path d="M11.0143 10.1846C10.0508 10.9829 9.33227 12.0654 8.98389 13.3031L8.21484 13.5098C7.71292 13.6441 7.29909 13.1045 7.55892 12.6545L9.99951 8.42676L11.0143 10.1846Z" fill="#171B1C"/>
<path d="M20 14.9996C20 17.761 17.7614 19.9996 15 19.9996C12.2386 19.9996 10 17.761 10 14.9996C10 12.2381 12.2386 9.99957 15 9.99957C17.7614 9.99957 20 12.2381 20 14.9996Z" fill="#1B41F5"/>
<path d="M13.5048 13.1942L17.3995 13.1942C17.4739 13.1943 17.5466 13.2166 17.6084 13.2581C17.6702 13.2996 17.7183 13.3585 17.7466 13.4274C17.775 13.4963 17.7822 13.572 17.7675 13.645C17.7528 13.718 17.7168 13.785 17.664 13.8375L13.7694 17.7347C13.7166 17.7872 13.6495 17.823 13.5764 17.8374C13.5034 17.8519 13.4277 17.8444 13.3589 17.8158C13.2901 17.7873 13.2313 17.739 13.1899 17.677C13.1486 17.6151 13.1264 17.5423 13.1264 17.4677L13.1264 13.5706C13.1263 13.5212 13.1359 13.4722 13.1548 13.4264C13.1737 13.3807 13.2014 13.3392 13.2363 13.3042C13.2713 13.2692 13.3128 13.2415 13.3585 13.2226C13.4042 13.2037 13.4532 13.1941 13.5026 13.1942" fill="white"/>
</svg>
