<svg width="20" height="20" viewBox="0 0 20 20" fill="none" xmlns="http://www.w3.org/2000/svg">
<path d="M12.4406 12.6551C12.7004 13.1051 12.2866 13.6448 11.7847 13.5104L10.1514 13.0725C10.0525 13.046 9.94754 13.046 9.84863 13.0725L8.21533 13.5104C7.7134 13.6448 7.29958 13.1051 7.55941 12.6551L10 8.42737L12.4406 12.6551Z" fill="#171B1C"/>
<path fill-rule="evenodd" clip-rule="evenodd" d="M6.94743 2.95862C7.30605 2.95868 7.65955 3.04731 7.97526 3.21741C8.28855 3.38624 8.55478 3.63066 8.75163 3.92704L9.36035 4.82711L9.36442 4.83362C9.44104 4.94992 9.54587 5.04564 9.66878 5.11112C9.79169 5.17651 9.92915 5.21013 10.0684 5.20878H16.0002C16.5745 5.20882 17.1255 5.43674 17.5317 5.84273C17.938 6.24899 18.1664 6.8006 18.1665 7.37512V14.8751C18.1665 15.4497 17.938 16.0012 17.5317 16.4075C17.1255 16.8136 16.5746 17.0414 16.0002 17.0415H3.99984C3.42541 17.0414 2.87452 16.8136 2.46826 16.4075C2.06203 16.0012 1.8335 15.4497 1.8335 14.8751V5.12496C1.83362 4.55049 2.06204 3.9996 2.46826 3.59338C2.87454 3.18719 3.42533 2.95866 3.99984 2.95862H6.94743ZM3.99984 4.29163C3.77895 4.29167 3.56687 4.37962 3.41064 4.53577C3.25447 4.69194 3.16663 4.90411 3.1665 5.12496V14.8751C3.1665 15.096 3.25451 15.3081 3.41064 15.4643C3.56689 15.6206 3.77888 15.7084 3.99984 15.7085H16.0002C16.2211 15.7084 16.4331 15.6206 16.5894 15.4643C16.7455 15.3081 16.8335 15.096 16.8335 14.8751V7.37512C16.8334 7.15426 16.7455 6.94213 16.5894 6.78593C16.4331 6.62978 16.221 6.54183 16.0002 6.54179H10.0749C9.71492 6.54421 9.35995 6.45705 9.04215 6.28788C8.72236 6.11755 8.44959 5.86947 8.25033 5.56685L7.6473 4.6733L7.64323 4.66679C7.56743 4.55177 7.46416 4.45713 7.34294 4.39172C7.2518 4.34263 7.15211 4.31082 7.04997 4.29814L6.94743 4.29163H3.99984Z" fill="#171B1C"/>
</svg>
