<svg width="24" height="24" viewBox="0 0 24 24" fill="none" xmlns="http://www.w3.org/2000/svg">
<circle cx="12" cy="12" r="10" fill="#FFAA00"/>
<path d="M17.8626 15.5611C17.2748 15.8858 16.8841 15.851 16.5802 16.0467C16.322 16.2129 16.4748 16.5712 16.2872 16.7005C16.0567 16.8597 15.3755 16.6893 14.4954 16.9798C13.7695 17.2198 13.3065 17.9098 12.0009 17.9098C10.6953 17.9098 10.2432 17.2212 9.50535 16.9781C8.62701 16.6875 7.94436 16.8579 7.71353 16.6988C7.52627 16.5695 7.6784 16.2111 7.42052 16.0449C7.11626 15.8492 6.72557 15.884 6.13813 15.5611C5.76396 15.3545 5.97617 15.2266 6.10089 15.1662C8.23 14.1354 8.56974 12.5438 8.58485 12.4258C8.60312 12.2828 8.62349 12.1703 8.46609 12.0249C8.31397 11.8843 7.63905 11.4666 7.45178 11.3359C7.1419 11.1195 7.00559 10.9034 7.10607 10.6378C7.17634 10.454 7.34779 10.3848 7.52767 10.3848C7.58453 10.385 7.64119 10.3914 7.69667 10.4038C8.03676 10.4776 8.36702 10.648 8.55779 10.694C8.58076 10.6999 8.60435 10.7031 8.62806 10.7035C8.72995 10.7035 8.76578 10.6522 8.75876 10.5356C8.73698 10.1635 8.68427 9.43832 8.74295 8.76059C8.8234 7.82813 9.1238 7.36612 9.48076 6.95752C9.65221 6.76112 10.4578 5.90982 11.9984 5.90982C13.5391 5.90982 14.3468 6.7576 14.5182 6.9533C14.8755 7.36191 15.1763 7.82392 15.256 8.75637C15.3147 9.43411 15.2641 10.1596 15.2402 10.5313C15.2321 10.654 15.269 10.6993 15.3709 10.6993C15.3946 10.6989 15.4182 10.6957 15.4412 10.6898C15.6323 10.6438 15.9626 10.4734 16.3027 10.3996C16.3581 10.3872 16.4148 10.3808 16.4717 10.3806C16.6526 10.3806 16.823 10.4509 16.8933 10.6336C16.9937 10.8992 16.8581 11.1153 16.5479 11.3317C16.3606 11.4624 15.6857 11.8798 15.5336 12.0207C15.3758 12.1661 15.3966 12.2786 15.4148 12.4215C15.4299 12.5414 15.7693 14.1329 17.8988 15.162C18.0246 15.2249 18.2368 15.3528 17.8626 15.5611Z" fill="#171B1C"/>
</svg>
