<svg width="20" height="20" viewBox="0 0 20 20" fill="none" xmlns="http://www.w3.org/2000/svg">
<path d="M12.4406 12.655C12.7004 13.1051 12.2866 13.6447 11.7847 13.5103L10.1514 13.0725C10.0525 13.046 9.94754 13.046 9.84863 13.0725L8.21533 13.5103C7.7134 13.6447 7.29958 13.1051 7.55941 12.655L10 8.42734L12.4406 12.655Z" fill="#171B1C"/>
<path fill-rule="evenodd" clip-rule="evenodd" d="M6.94743 2.95859C7.30605 2.95865 7.65955 3.04728 7.97526 3.21738C8.28855 3.38621 8.55478 3.63063 8.75163 3.92701L9.36035 4.82708L9.36442 4.83359C9.44104 4.94989 9.54587 5.04561 9.66878 5.11109C9.79169 5.17648 9.92915 5.2101 10.0684 5.20875H16.0002C16.5745 5.20879 17.1255 5.43671 17.5317 5.8427C17.938 6.24896 18.1664 6.80057 18.1665 7.37509V14.8751C18.1665 15.4497 17.938 16.0012 17.5317 16.4075C17.1255 16.8136 16.5746 17.0414 16.0002 17.0414H3.99984C3.42541 17.0414 2.87452 16.8136 2.46826 16.4075C2.06203 16.0012 1.8335 15.4497 1.8335 14.8751V5.12493C1.83362 4.55046 2.06204 3.99957 2.46826 3.59335C2.87454 3.18716 3.42533 2.95863 3.99984 2.95859H6.94743ZM3.99984 4.2916C3.77895 4.29164 3.56687 4.37959 3.41064 4.53574C3.25447 4.69191 3.16663 4.90408 3.1665 5.12493V14.8751C3.1665 15.096 3.25451 15.308 3.41064 15.4643C3.56689 15.6205 3.77888 15.7084 3.99984 15.7084H16.0002C16.2211 15.7084 16.4331 15.6205 16.5894 15.4643C16.7455 15.308 16.8335 15.096 16.8335 14.8751V7.37509C16.8334 7.15423 16.7455 6.9421 16.5894 6.7859C16.4331 6.62975 16.221 6.5418 16.0002 6.54176H10.0749C9.71492 6.54418 9.35995 6.45702 9.04215 6.28785C8.72236 6.11752 8.44959 5.86944 8.25033 5.56682L7.6473 4.67327L7.64323 4.66676C7.56743 4.55174 7.46416 4.4571 7.34294 4.39169C7.2518 4.3426 7.15211 4.31079 7.04997 4.29811L6.94743 4.2916H3.99984Z" fill="#171B1C"/>
</svg>
