<svg width="24" height="24" viewBox="0 0 24 24" fill="none" xmlns="http://www.w3.org/2000/svg">
<path d="M9.99897 12.3859C10.2907 11.9395 10.5744 11.5057 10.8059 11.1961L11.3824 10.3311C11.1353 10.0165 10.8882 9.70194 10.7235 9.54466C10.3941 9.2301 9.98236 8.83689 9.32354 8.83689C8.74707 8.83689 8.33531 9.2301 7.92354 9.78058C7.34707 10.567 7.01766 11.7466 7.01766 12.8476C7.01766 13.3194 7.10001 13.7126 7.26472 13.9485C7.42942 14.1845 7.75884 14.3417 8.00589 14.3417C8.33531 14.3417 8.66472 14.2631 9.32354 13.3981C9.53981 13.0883 9.77186 12.7333 9.99897 12.3859Z" fill="#171B1C"/>
<path d="M13.7706 11.5893C14.5118 12.8476 15.0059 13.4767 15.253 13.7913C15.5824 14.1845 15.8294 14.2631 16.0765 14.2631C16.4059 14.2631 16.653 14.1058 16.8177 13.8699C16.8177 13.8699 16.9 13.7913 16.9 13.7126C17.0647 13.4767 17.0647 13.1621 17.0647 12.8476C17.0647 11.7466 16.7353 10.4883 16.1588 9.6233C15.7471 8.99417 15.1706 8.60097 14.5941 8.60097C14.0177 8.60097 13.4412 9.07282 12.8647 9.93786C12.8647 9.93786 12.7824 10.0165 12.7824 10.0951C12.8821 10.2856 13.012 10.4761 13.1539 10.6841C13.2463 10.8195 13.3437 10.9624 13.4412 11.1175L13.7706 11.5893Z" fill="#171B1C"/>
<path fill-rule="evenodd" clip-rule="evenodd" d="M12 21C16.9706 21 21 16.9706 21 12C21 7.02944 16.9706 3 12 3C7.02944 3 3 7.02944 3 12C3 16.9706 7.02944 21 12 21ZM17.2294 8.99417C17.9706 10.0951 18.3 11.432 18.3 12.7689C18.3 13.634 18.1353 14.1845 17.8882 14.6563C17.5588 15.1282 17.0647 15.6 16.1588 15.6C15.5824 15.6 15.0882 15.4427 14.5118 14.9709C14.1 14.5777 13.6059 13.9485 13.1941 13.3194L12.0412 11.5107C12.0412 11.4714 12.0206 11.4517 12 11.432C11.9794 11.4124 11.9588 11.3927 11.9588 11.3534C11.9588 11.432 11.8765 11.432 11.8765 11.432L11.4647 12.1398C11.3707 12.3014 11.2852 12.4487 11.207 12.5835C10.6004 13.6292 10.4295 13.9238 10.0647 14.3417C9.40589 15.2854 8.82942 15.6 8.00589 15.6C7.10001 15.6 6.44119 15.2068 6.11178 14.6563C5.86472 14.1845 5.70001 13.5553 5.70001 12.8476C5.70001 11.5107 6.02942 10.1738 6.7706 9.15146C7.34707 8.20777 8.25295 7.57864 9.32354 7.57864C9.90001 7.57864 10.4765 7.73592 11.1353 8.20777C11.4647 8.52233 11.7941 8.8369 12.1235 9.30874C12.453 8.91553 12.7824 8.52233 13.1941 8.12913C13.6882 7.73592 14.1824 7.5 14.7588 7.5C15.6647 7.5 16.5706 8.05049 17.2294 8.99417Z" fill="#171B1C"/>
</svg>
