<svg width="20" height="20" viewBox="0 0 20 20" fill="none" xmlns="http://www.w3.org/2000/svg">
<path d="M10 7.87109C10.3681 7.8711 10.6658 8.16915 10.666 8.53711V10.167H12.2959C12.6639 10.1671 12.9618 10.465 12.9619 10.833C12.9619 11.2011 12.664 11.4999 12.2959 11.5H10.666V13.1289C10.666 13.4971 10.3682 13.7959 10 13.7959C9.63185 13.7959 9.33305 13.4971 9.33304 13.1289V11.5H7.70413C7.33601 11.4999 7.03812 11.2011 7.03812 10.833C7.03829 10.465 7.33612 10.1671 7.70413 10.167H9.33304V8.53711C9.3333 8.16914 9.632 7.87109 10 7.87109Z" fill="#171B1C"/>
<path fill-rule="evenodd" clip-rule="evenodd" d="M6.9473 2.95801C7.30592 2.95807 7.6599 3.0467 7.97562 3.2168C8.28882 3.38563 8.55518 3.63043 8.75198 3.92676L9.36038 4.82617L9.36429 4.83301C9.4409 4.94931 9.54606 5.04487 9.66898 5.11035C9.79188 5.17574 9.92918 5.20935 10.0684 5.20801H16C16.5742 5.20805 17.1251 5.43611 17.5313 5.8418C17.9375 6.24805 18.166 6.80047 18.166 7.375V14.875C18.166 15.4494 17.9374 16.001 17.5313 16.4072C17.1251 16.8131 16.5743 17.041 16 17.041H4.00003C3.42561 17.041 2.87406 16.8133 2.4678 16.4072C2.06175 16.001 1.8341 15.4494 1.83401 14.875V5.12402C1.83427 4.54981 2.0618 3.99886 2.4678 3.59277C2.87408 3.18658 3.42553 2.95805 4.00003 2.95801H6.9473ZM4.00003 4.29102C3.77915 4.29106 3.56641 4.37901 3.41019 4.53516C3.25423 4.6912 3.1663 4.90343 3.16605 5.12402V14.875C3.16614 15.0957 3.25428 15.3077 3.41019 15.4639C3.56643 15.6201 3.77908 15.708 4.00003 15.708H16C16.2209 15.708 16.4327 15.62 16.5889 15.4639C16.745 15.3077 16.8329 15.0958 16.833 14.875V7.375C16.833 7.15414 16.7451 6.94136 16.5889 6.78516C16.4327 6.62926 16.2207 6.54106 16 6.54102H10.0752C9.71528 6.54344 9.35982 6.45628 9.04202 6.28711C8.72234 6.11678 8.44924 5.86894 8.25003 5.56641L7.64749 4.67285L7.64359 4.66602C7.5678 4.55103 7.464 4.45699 7.3428 4.3916C7.25166 4.3425 7.15198 4.31054 7.04984 4.29785L6.9473 4.29102H4.00003Z" fill="#171B1C"/>
</svg>
