<svg width="24" height="24" viewBox="0 0 24 24" fill="none" xmlns="http://www.w3.org/2000/svg">
<circle cx="12" cy="12" r="10" fill="black"/>
<path d="M17.2527 8.45692C16.587 8.31452 15.9842 7.96322 15.5321 7.45422C15.0801 6.94522 14.8024 6.30514 14.7397 5.62729V5.33333H12.4433V14.4468C12.4419 14.8503 12.3141 15.2431 12.0778 15.5702C11.8416 15.8973 11.5088 16.1422 11.1263 16.2704C10.7437 16.3986 10.3306 16.4037 9.94501 16.285C9.55939 16.1663 9.22066 15.9298 8.97641 15.6087C8.72836 15.2821 8.59076 14.8851 8.58357 14.4751C8.57637 14.0652 8.69995 13.6636 8.93639 13.3286C9.17283 12.9935 9.50983 12.7426 9.89852 12.612C10.2872 12.4814 10.7074 12.4781 11.0981 12.6024V10.2693C10.2268 10.1489 9.33964 10.3038 8.56069 10.7124C7.78175 11.121 7.15001 11.7628 6.75382 12.5482C6.35763 13.3335 6.21681 14.223 6.35107 15.0923C6.48533 15.9616 6.88794 16.7672 7.5026 17.3964C8.08876 17.9962 8.84035 18.4077 9.66142 18.5783C10.4825 18.749 11.3358 18.6712 12.1124 18.3547C12.8891 18.0383 13.5538 17.4975 14.0217 16.8016C14.4897 16.1057 14.7396 15.2861 14.7397 14.4475V9.79074C15.6677 10.4542 16.7804 10.81 17.9212 10.8079V8.52624C17.6966 8.52652 17.4725 8.50329 17.2527 8.45692Z" fill="white"/>
</svg>
