<svg width="20" height="20" viewBox="0 0 20 20" fill="none" xmlns="http://www.w3.org/2000/svg">
<path fill-rule="evenodd" clip-rule="evenodd" d="M1.80126 2.6346C2.20759 2.22827 2.75869 2 3.33332 2H6.60832C6.96702 2.00006 7.32018 2.08917 7.63595 2.25935C7.95082 2.42904 8.21878 2.67405 8.41591 2.97248L9.09262 3.97501C9.19993 4.13797 9.34637 4.27144 9.5186 4.36316C9.69082 4.45488 9.8833 4.50194 10.0784 4.50002L10.0833 4.49998L16.6667 4.5C17.2413 4.5 17.7924 4.72827 18.1987 5.1346C18.605 5.54093 18.8333 6.09203 18.8333 6.66667V15C18.8333 15.5746 18.605 16.1257 18.1987 16.5321C17.7924 16.9384 17.2413 17.1667 16.6667 17.1667H3.33332C2.75869 17.1667 2.20759 16.9384 1.80126 16.5321C1.39493 16.1257 1.16666 15.5746 1.16666 15V4.16667C1.16666 3.59203 1.39493 3.04093 1.80126 2.6346ZM3.33332 3C3.0239 3 2.72716 3.12292 2.50837 3.34171C2.28957 3.5605 2.16666 3.85725 2.16666 4.16667V15C2.16666 15.3094 2.28957 15.6062 2.50837 15.825C2.72716 16.0437 3.0239 16.1667 3.33332 16.1667H16.6667C16.9761 16.1667 17.2728 16.0437 17.4916 15.825C17.7104 15.6062 17.8333 15.3094 17.8333 15V6.66667C17.8333 6.35725 17.7104 6.0605 17.4916 5.84171C17.2728 5.62292 16.9761 5.5 16.6667 5.5H10.0856C9.72414 5.50311 9.36763 5.41573 9.04855 5.2458C8.7296 5.07595 8.45821 4.82902 8.25907 4.52752L7.58238 3.52502C7.47615 3.36371 7.33156 3.23128 7.16153 3.13965C6.99153 3.04803 6.80144 3.00005 6.60832 3C6.6083 3 6.60835 3 6.60832 3H3.33332Z" fill="#171B1C"/>
</svg>
