<svg width="20" height="20" viewBox="0 0 20 20" fill="none" xmlns="http://www.w3.org/2000/svg">
<path d="M20 14C20 16.7614 17.7614 19 15 19C12.2386 19 10 16.7614 10 14C10 11.2386 12.2386 9 15 9C17.7614 9 20 11.2386 20 14Z" fill="#14D172"/>
<path d="M15.4 10.1218L11.4 14.9219H15L14.6 18.1219L18.6 13.3218H15L15.4 10.1218Z" fill="#171B1C"/>
<path d="M3.33332 2C2.75869 2 2.20759 2.22827 1.80126 2.6346C1.39493 3.04093 1.16666 3.59203 1.16666 4.16667V15C1.16666 15.5746 1.39493 16.1257 1.80126 16.5321C2.20759 16.9384 2.75869 17.1667 3.33332 17.1667H9.68793C9.50606 16.85 9.35168 16.5156 9.22805 16.1667H3.33332C3.0239 16.1667 2.72716 16.0437 2.50837 15.825C2.28957 15.6062 2.16666 15.3094 2.16666 15V4.16667C2.16666 3.85725 2.28957 3.5605 2.50837 3.34171C2.72716 3.12292 3.0239 3 3.33332 3H6.60832C6.80144 3.00005 6.99153 3.04803 7.16153 3.13965C7.33156 3.23128 7.47615 3.36371 7.58238 3.52502L8.25907 4.52752C8.45821 4.82902 8.7296 5.07595 9.04855 5.2458C9.36763 5.41573 9.72414 5.50311 10.0856 5.5H16.6667C16.9761 5.5 17.2728 5.62292 17.4916 5.84171C17.7104 6.0605 17.8333 6.35725 17.8333 6.66667V8.6937C18.1886 8.87952 18.5233 9.09919 18.8333 9.34843V6.66667C18.8333 6.09203 18.605 5.54093 18.1987 5.1346C17.7924 4.72827 17.2413 4.5 16.6667 4.5L10.0833 4.49998L10.0784 4.50002C9.8833 4.50194 9.69082 4.45488 9.5186 4.36316C9.34637 4.27144 9.19993 4.13797 9.09262 3.97501L8.41591 2.97248C8.21878 2.67405 7.95082 2.42904 7.63595 2.25935C7.32018 2.08917 6.96702 2.00006 6.60832 2H3.33332Z" fill="#171B1C"/>
</svg>
