<svg width="24" height="24" viewBox="0 0 24 24" fill="none" xmlns="http://www.w3.org/2000/svg">
<path fill-rule="evenodd" clip-rule="evenodd" d="M7.45068 16.1923H9.59273L10.2941 14.0364H13.7077L14.4077 16.1923H16.5498L13.2905 6.73779H10.7145L7.45068 16.1923ZM13.2011 12.4761L12.0395 8.8983H11.9656L10.8017 12.4761H13.2011Z" fill="#039855"/>
<path fill-rule="evenodd" clip-rule="evenodd" d="M12 2C6.47715 2 2 6.47715 2 12C2 17.5228 6.47715 22 12 22C17.5228 22 22 17.5228 22 12C22 6.47715 17.5228 2 12 2ZM4 12C4 7.58172 7.58172 4 12 4C16.4183 4 20 7.58172 20 12C20 16.4183 16.4183 20 12 20C7.58172 20 4 16.4183 4 12Z" fill="#039855"/>
</svg>
