<svg width="24" height="24" viewBox="0 0 24 24" fill="none" xmlns="http://www.w3.org/2000/svg">
<path d="M12 3C16.9706 3 21 7.02944 21 12C21 16.9706 16.9706 21 12 21C7.02944 21 3 16.9706 3 12C3 7.02944 7.02944 3 12 3ZM11.999 6.51855C10.6125 6.51855 9.88673 7.28516 9.73242 7.46191C9.41124 7.82961 9.14076 8.24591 9.06836 9.08496C9.01563 9.69457 9.06339 10.3467 9.08301 10.6816C9.08933 10.7866 9.05654 10.833 8.96484 10.833C8.94371 10.8326 8.92282 10.8295 8.90234 10.8242C8.73065 10.7828 8.43304 10.6299 8.12695 10.5635C8.07704 10.5523 8.02576 10.5461 7.97461 10.5459C7.81282 10.546 7.6589 10.6091 7.5957 10.7744C7.50548 11.0133 7.62763 11.2077 7.90625 11.4023C8.07476 11.52 8.6823 11.8959 8.81934 12.0225C8.96083 12.1532 8.94319 12.2543 8.92676 12.3828C8.91316 12.4891 8.60662 13.9219 6.69043 14.8496C6.57814 14.9041 6.38816 15.0193 6.72461 15.2051C7.25317 15.4955 7.60512 15.4645 7.87891 15.6406C8.11045 15.7903 7.97414 16.1122 8.14258 16.2285C8.35041 16.3717 8.96449 16.219 9.75488 16.4805C10.4188 16.6993 10.826 17.3193 12.001 17.3193C13.1759 17.3193 13.5928 16.6974 14.2461 16.4814C15.0379 16.2201 15.6509 16.3736 15.8584 16.2305C16.0273 16.1141 15.8897 15.7912 16.1221 15.6416C16.3956 15.4655 16.7474 15.4972 17.2764 15.2051C17.6131 15.0176 17.4218 14.9023 17.3086 14.8457C15.395 13.9208 15.0876 12.4911 15.0732 12.3799C15.0568 12.2512 15.0387 12.1495 15.1807 12.0186C15.318 11.8916 15.9241 11.5161 16.0928 11.3984C16.3718 11.2037 16.4945 11.0094 16.4043 10.7705C16.3411 10.6061 16.1873 10.543 16.0244 10.543C15.9733 10.5431 15.922 10.5484 15.8721 10.5596C15.5661 10.626 15.2686 10.7799 15.0967 10.8213C15.0763 10.8265 15.0552 10.8287 15.0342 10.8291C14.9426 10.8291 14.9089 10.7887 14.916 10.6787C14.9375 10.3442 14.9834 9.69093 14.9307 9.08105C14.8589 8.24192 14.5881 7.82573 14.2666 7.45801C14.1123 7.2819 13.3853 6.51871 11.999 6.51855Z" fill="#171B1C"/>
</svg>
