<svg width="24" height="24" viewBox="0 0 24 24" fill="none" xmlns="http://www.w3.org/2000/svg">
<path fill-rule="evenodd" clip-rule="evenodd" d="M12 2C10.0222 2 8.08879 2.58649 6.4443 3.6853C4.79981 4.78412 3.51809 6.3459 2.76121 8.17316C2.00433 10.0004 1.8063 12.0111 2.19215 13.9509C2.578 15.8907 3.53041 17.6725 4.92894 19.0711C6.32746 20.4696 8.10929 21.422 10.0491 21.8078C11.9889 22.1937 13.9996 21.9957 15.8268 21.2388C17.6541 20.4819 19.2159 19.2002 20.3147 17.5557C21.4135 15.9112 22 13.9778 22 12C22 10.6868 21.7413 9.38642 21.2388 8.17316C20.7362 6.95991 19.9997 5.85752 19.0711 4.92893C18.1425 4.00035 17.0401 3.26375 15.8268 2.7612C14.6136 2.25866 13.3132 2 12 2ZM12 20.1636C10.4245 20.1637 8.88263 19.7079 7.56034 18.8513C6.23805 17.9947 5.19181 16.7738 4.54779 15.336C3.90377 13.8981 3.68948 12.3046 3.93076 10.7477C4.17203 9.19078 4.85857 7.7369 5.90759 6.56141C6.9566 5.38591 8.32328 4.539 9.84282 4.1228C11.3624 3.70659 12.9699 3.73888 14.4715 4.21576C15.9731 4.69265 17.3046 5.59376 18.3056 6.81043C19.3066 8.0271 19.9342 9.50737 20.1127 11.0727H17.9309L16.2945 7.93818C16.2177 7.78906 16.1011 7.66411 15.9577 7.57715C15.8143 7.49019 15.6496 7.44461 15.4818 7.44545H8C7.88062 7.44377 7.76207 7.46562 7.65113 7.50976C7.54019 7.5539 7.43903 7.61946 7.35343 7.70269C7.26782 7.78593 7.19946 7.88522 7.15223 7.99488C7.10501 8.10454 7.07984 8.22243 7.07818 8.34182C7.07497 8.49729 7.11258 8.65088 7.18728 8.78727L8.38182 11.0745H7.07273C6.8297 11.0745 6.59661 11.1711 6.42476 11.3429C6.25291 11.5148 6.15637 11.7479 6.15637 11.9909C6.15637 12.2339 6.25291 12.467 6.42476 12.6389C6.59661 12.8107 6.8297 12.9073 7.07273 12.9073H8.39091L7.19637 15.1964C7.11947 15.3354 7.08035 15.4921 7.08289 15.6509C7.08543 15.8098 7.12954 15.9652 7.21084 16.1016C7.29214 16.2381 7.40778 16.3509 7.54624 16.4288C7.6847 16.5066 7.84115 16.5469 8 16.5455H15.48C15.6475 16.5453 15.8118 16.4993 15.9551 16.4124C16.0983 16.3256 16.2151 16.2012 16.2927 16.0527L17.9291 12.9145H20.1109C19.8827 14.9075 18.9302 16.7472 17.4345 18.084C15.9389 19.4208 14.0042 20.1615 11.9982 20.1655M12.2091 12.7618L11.1909 14.7127H9.51818L10.7127 12.4236C10.7818 12.2928 10.818 12.1471 10.818 11.9991C10.818 11.8511 10.7818 11.7054 10.7127 11.5745L9.52 9.27273H11.1927L12.2109 11.22H14.2782L13.26 9.27273H14.9327L16.0236 11.3582C16.1248 11.5511 16.1776 11.7658 16.1776 11.9836C16.1776 12.2015 16.1248 12.4161 16.0236 12.6091L14.9327 14.6982H13.26L14.2782 12.7473L12.2091 12.7618Z" fill="#431405"/>
</svg>
