<svg width="20" height="20" viewBox="0 0 20 20" fill="none" xmlns="http://www.w3.org/2000/svg">
<path d="M6.94743 2.95776C7.30605 2.95782 7.65955 3.04645 7.97526 3.21655C8.28855 3.38539 8.55478 3.6298 8.75163 3.92619L9.36035 4.82625L9.36442 4.83276C9.44104 4.94906 9.54587 5.04479 9.66878 5.11027C9.79169 5.17566 9.92915 5.20927 10.0684 5.20793H16.0002C16.5745 5.20797 17.1255 5.43589 17.5317 5.84188C17.938 6.24813 18.1664 6.79974 18.1665 7.37427V9.61141C17.7504 9.36636 17.3041 9.16722 16.8335 9.02303V7.37427C16.8334 7.1534 16.7455 6.94128 16.5894 6.78507C16.4331 6.62893 16.221 6.54098 16.0002 6.54093H10.0749C9.71492 6.54336 9.35995 6.4562 9.04215 6.28703C8.72236 6.1167 8.44959 5.86862 8.25033 5.566L7.6473 4.67244L7.64323 4.66593C7.56743 4.55092 7.46416 4.45627 7.34294 4.39087C7.2518 4.34177 7.15211 4.30997 7.04997 4.29728L6.94743 4.29077H3.99984C3.77895 4.29081 3.56687 4.37877 3.41064 4.53491C3.25447 4.69108 3.16663 4.90326 3.1665 5.1241V14.8743C3.1665 15.0952 3.25451 15.3072 3.41064 15.4635C3.56689 15.6197 3.77888 15.7076 3.99984 15.7076H8.7915C8.84356 16.1691 8.94563 16.6151 9.09261 17.0406H3.99984C3.42541 17.0406 2.87452 16.8127 2.46826 16.4067C2.06203 16.0003 1.8335 15.4488 1.8335 14.8743V5.1241C1.83362 4.54964 2.06204 3.99875 2.46826 3.59253C2.87454 3.18633 3.42533 2.95781 3.99984 2.95776H6.94743Z" fill="#171B1C"/>
<path d="M11.0148 10.1843C10.0513 10.9826 9.33276 12.0652 8.98438 13.3028L8.21533 13.5095C7.7134 13.6439 7.29958 13.1042 7.55941 12.6542L10 8.42651L11.0148 10.1843Z" fill="#171B1C"/>
<path d="M20 14.9996C20 17.761 17.7614 19.9996 15 19.9996C12.2386 19.9996 10 17.761 10 14.9996C10 12.2381 12.2386 9.99957 15 9.99957C17.7614 9.99957 20 12.2381 20 14.9996Z" fill="#14D172"/>
<path d="M15.4 11.1214L11.4 15.9214H15L14.6 19.1214L18.6 14.3214H15L15.4 11.1214Z" fill="#171B1C"/>
</svg>
