<svg width="20" height="20" viewBox="0 0 20 20" fill="none" xmlns="http://www.w3.org/2000/svg">
<path d="M6.94743 2.95773C7.30605 2.95779 7.65955 3.04642 7.97526 3.21652C8.28855 3.38536 8.55478 3.62977 8.75163 3.92616L9.36035 4.82622L9.36442 4.83273C9.44104 4.94903 9.54587 5.04476 9.66878 5.11024C9.79169 5.17563 9.92915 5.20924 10.0684 5.2079H16.0002C16.5745 5.20794 17.1255 5.43586 17.5317 5.84185C17.938 6.2481 18.1664 6.79971 18.1665 7.37424V9.61138C17.7504 9.36633 17.3041 9.16719 16.8335 9.023V7.37424C16.8334 7.15337 16.7455 6.94125 16.5894 6.78504C16.4331 6.6289 16.221 6.54095 16.0002 6.5409H10.0749C9.71492 6.54333 9.35995 6.45617 9.04215 6.287C8.72236 6.11667 8.44959 5.86859 8.25033 5.56597L7.6473 4.67241L7.64323 4.6659C7.56743 4.55089 7.46416 4.45624 7.34294 4.39084C7.2518 4.34174 7.15211 4.30994 7.04997 4.29725L6.94743 4.29074H3.99984C3.77895 4.29078 3.56687 4.37874 3.41064 4.53488C3.25447 4.69105 3.16663 4.90323 3.1665 5.12407V14.8742C3.1665 15.0951 3.25451 15.3072 3.41064 15.4634C3.56689 15.6197 3.77888 15.7075 3.99984 15.7076H8.7915C8.84356 16.1691 8.94563 16.6151 9.09261 17.0406H3.99984C3.42541 17.0405 2.87452 16.8127 2.46826 16.4066C2.06203 16.0003 1.8335 15.4488 1.8335 14.8742V5.12407C1.83362 4.54961 2.06204 3.99872 2.46826 3.5925C2.87454 3.1863 3.42533 2.95778 3.99984 2.95773H6.94743Z" fill="#171B1C"/>
<path d="M11.0148 10.1843C10.0513 10.9826 9.33276 12.0652 8.98438 13.3028L8.21533 13.5095C7.7134 13.6439 7.29958 13.1042 7.55941 12.6542L10 8.42648L11.0148 10.1843Z" fill="#171B1C"/>
<path d="M20 14.9996C20 17.761 17.7614 19.9996 15 19.9996C12.2386 19.9996 10 17.761 10 14.9996C10 12.2381 12.2386 9.99957 15 9.99957C17.7614 9.99957 20 12.2381 20 14.9996Z" fill="#14D172"/>
<path d="M15.4 11.1214L11.4 15.9214H15L14.6 19.1214L18.6 14.3214H15L15.4 11.1214Z" fill="#171B1C"/>
</svg>
