<svg width="24" height="24" viewBox="0 0 24 24" fill="none" xmlns="http://www.w3.org/2000/svg">
<circle cx="12" cy="12" r="10" fill="#3264FF"/>
<path d="M19 12.8544C19 11.3689 18.634 9.88349 17.8105 8.66019C17.0784 7.61165 16.0719 7 15.0654 7C14.4248 7 13.8758 7.26214 13.3268 7.69903C12.8693 8.13592 12.5033 8.57282 12.1373 9.00971C11.7712 8.48544 11.4052 8.13592 11.0392 7.78641C10.3072 7.26214 9.66667 7.08738 9.02614 7.08738C7.8366 7.08738 6.83007 7.78641 6.18954 8.83495C5.36601 9.97087 5 11.4563 5 12.9417C5 13.7282 5.18301 14.4272 5.45752 14.9515C5.82353 15.5631 6.55556 16 7.56209 16C8.47712 16 9.11765 15.6505 9.84967 14.6019C10.3072 14.0777 10.4902 13.7282 11.4052 12.1553L11.8627 11.3689C11.8627 11.3689 11.9542 11.3689 11.9542 11.2816C11.9542 11.3689 12.0458 11.3689 12.0458 11.4563L13.3268 13.466C13.7843 14.165 14.3333 14.8641 14.7909 15.301C15.4314 15.8252 15.9804 16 16.6209 16C17.6275 16 18.1765 15.4757 18.5425 14.9515C18.817 14.4272 19 13.8155 19 12.8544ZM10.6732 11.1068C10.2157 11.7184 9.57516 12.767 9.02614 13.5534C8.29412 14.5146 7.9281 14.6019 7.56209 14.6019C7.28758 14.6019 6.92157 14.4272 6.73856 14.165C6.55556 13.9029 6.46405 13.466 6.46405 12.9417C6.46405 11.7184 6.83007 10.4078 7.47059 9.53398C7.9281 8.92233 8.38562 8.48544 9.02614 8.48544C9.75817 8.48544 10.2157 8.92233 10.5817 9.27184C10.7647 9.4466 11.0392 9.79612 11.3137 10.1456L10.6732 11.1068ZM15.6144 13.9903C15.3399 13.6408 14.7908 12.9417 13.9673 11.5437L13.6013 11.0194C13.3268 10.5825 13.0523 10.233 12.8693 9.8835C12.8693 9.79612 12.9608 9.70874 12.9608 9.70874C13.6013 8.74757 14.2418 8.2233 14.8824 8.2233C15.5229 8.2233 16.1634 8.66019 16.6209 9.35922C17.2614 10.3204 17.6275 11.7184 17.6275 12.9417C17.6275 13.2913 17.6275 13.6408 17.4444 13.9029C17.4444 13.9903 17.3529 14.0777 17.3529 14.0777C17.1699 14.3398 16.8954 14.5146 16.5294 14.5146C16.2549 14.5146 15.9804 14.4272 15.6144 13.9903Z" fill="white"/>
</svg>
