<svg width="24" height="24" viewBox="0 0 24 24" fill="none" xmlns="http://www.w3.org/2000/svg">
<path fill-rule="evenodd" clip-rule="evenodd" d="M12 22C17.5228 22 22 17.5228 22 12C22 6.47715 17.5228 2 12 2C6.47715 2 2 6.47715 2 12C2 17.5228 6.47715 22 12 22ZM17.685 9.72852C18.0874 9.35019 18.1068 8.71732 17.7285 8.31497C17.3502 7.91262 16.7173 7.89315 16.315 8.27148L10.3214 13.9072L7.70711 11.2929C7.31658 10.9024 6.68342 10.9024 6.29289 11.2929C5.90237 11.6834 5.90237 12.3166 6.29289 12.7071L9.59289 16.0071C9.97495 16.3892 10.5914 16.3986 10.985 16.0285L17.685 9.72852Z" fill="#171B1C"/>
</svg>
