<svg width="24" height="24" viewBox="0 0 24 24" fill="none" xmlns="http://www.w3.org/2000/svg">
<path d="M11.6434 18.7746C11.9607 19.082 12.4672 19.074 12.7746 18.7566C13.082 18.4393 13.074 17.9328 12.7566 17.6254L6.94043 11.991L12.5658 6.36569C12.8782 6.05327 12.8782 5.54674 12.5658 5.23432C12.2534 4.9219 11.7468 4.92189 11.4344 5.23431L5.23432 11.4343C5.08273 11.5859 4.99832 11.792 5.00003 12.0063C5.00173 12.2207 5.08939 12.4254 5.24336 12.5746L11.6434 18.7746Z" fill="#171B1C"/>
<path d="M17.6434 18.7746C17.9607 19.082 18.4672 19.074 18.7746 18.7566C19.082 18.4393 19.074 17.9328 18.7566 17.6254L12.9404 11.991L18.5658 6.36569C18.8782 6.05327 18.8782 5.54674 18.5658 5.23432C18.2534 4.9219 17.7468 4.92189 17.4344 5.23431L11.2343 11.4343C11.0827 11.5859 10.9983 11.792 11 12.0063C11.0017 12.2207 11.0894 12.4254 11.2434 12.5746L17.6434 18.7746Z" fill="#171B1C"/>
</svg>
