<svg width="24" height="24" viewBox="0 0 24 24" fill="none" xmlns="http://www.w3.org/2000/svg">
<path fill-rule="evenodd" clip-rule="evenodd" d="M17.7657 6.23438C18.0781 6.5468 18.0781 7.05333 17.7657 7.36575L13.1313 12.0001L17.7657 16.6343C18.0781 16.9467 18.0781 17.4533 17.7657 17.7657C17.4533 18.0781 16.9468 18.0781 16.6343 17.7657L12 13.1315L7.3657 17.7657C7.05328 18.0781 6.54674 18.0781 6.23433 17.7657C5.92191 17.4533 5.92191 16.9467 6.23433 16.6343L10.8686 12.0001L6.23414 7.3658C5.92172 7.05339 5.92171 6.54686 6.23412 6.23443C6.54654 5.92201 7.05307 5.922 7.36549 6.23442L11.9999 10.8687L16.6343 6.23437C16.9467 5.92196 17.4533 5.92196 17.7657 6.23438Z" fill="#171B1C"/>
</svg>
