<svg width="24" height="24" viewBox="0 0 24 24" fill="none" xmlns="http://www.w3.org/2000/svg">
<path fill-rule="evenodd" clip-rule="evenodd" d="M17.7165 5.41073C18.0538 5.12534 18.0958 4.62056 17.8104 4.28327C17.5251 3.94598 17.0203 3.90391 16.683 4.1893L11.9995 8.15209L7.31628 4.18936C6.97899 3.90396 6.47421 3.94603 6.18882 4.28331C5.90342 4.6206 5.94549 5.12538 6.28278 5.41078L11.4828 9.81075C11.781 10.0631 12.218 10.0631 12.5163 9.81076L17.7165 5.41073ZM17.7165 18.5893C18.0538 18.8747 18.0958 19.3795 17.8104 19.7168C17.5251 20.0541 17.0203 20.0961 16.683 19.8108L11.9995 15.848L7.31628 19.8107C6.97899 20.0961 6.47421 20.054 6.18882 19.7167C5.90342 19.3795 5.94549 18.8747 6.28278 18.5893L11.4828 14.1893C11.781 13.9369 12.218 13.9369 12.5163 14.1893L17.7165 18.5893Z" fill="#171B1C"/>
</svg>
