<svg width="24" height="24" viewBox="0 0 24 24" fill="none" xmlns="http://www.w3.org/2000/svg">
<path fill-rule="evenodd" clip-rule="evenodd" d="M2.9998 4.80005C2.9998 3.80593 3.80569 3.00005 4.7998 3.00005H11.3998C12.3939 3.00005 13.1998 3.80593 13.1998 4.80005V11.4C13.1998 12.3942 12.3939 13.2 11.3998 13.2H4.7998C3.80569 13.2 2.9998 12.3942 2.9998 11.4V4.80005ZM4.7998 4.60005C4.68934 4.60005 4.5998 4.68959 4.5998 4.80005V11.4C4.5998 11.5105 4.68934 11.6 4.7998 11.6H11.3998C11.5103 11.6 11.5998 11.5105 11.5998 11.4V4.80005C11.5998 4.68959 11.5103 4.60005 11.3998 4.60005H4.7998ZM14.8 4.80005C14.8 3.80593 15.6059 3.00005 16.6 3.00005H19.2C20.1941 3.00005 21 3.80593 21 4.80005V11.4C21 12.3942 20.1941 13.2 19.2 13.2H16.6C15.6059 13.2 14.8 12.3942 14.8 11.4V4.80005ZM16.6 4.60005C16.4895 4.60005 16.4 4.68959 16.4 4.80005V11.4C16.4 11.5105 16.4895 11.6 16.6 11.6H19.2C19.3105 11.6 19.4 11.5105 19.4 11.4V4.80005C19.4 4.68959 19.3105 4.60005 19.2 4.60005H16.6ZM4.66945 16.4025C4.63966 16.4402 4.5998 16.5234 4.5998 16.6455V19.1545C4.5998 19.2766 4.63966 19.3598 4.66945 19.3975L4.67146 19.4H11.5281L11.5302 19.3975C11.5599 19.3598 11.5998 19.2766 11.5998 19.1545V16.6455C11.5998 16.5234 11.5599 16.4402 11.5302 16.4025L11.5281 16.4H4.67146L4.66945 16.4025ZM2.9998 16.6455C2.9998 15.8113 3.5635 14.8 4.62672 14.8H11.5729C12.6361 14.8 13.1998 15.8113 13.1998 16.6455V19.1545C13.1998 19.9887 12.6361 21 11.5729 21H4.62673C3.5635 21 2.9998 19.9887 2.9998 19.1545V16.6455ZM14.8001 16.6C14.8001 15.6059 15.606 14.8 16.6001 14.8H19.2001C20.1942 14.8 21.0001 15.6059 21.0001 16.6V19.2C21.0001 20.1941 20.1942 21 19.2001 21H16.6001C15.606 21 14.8001 20.1941 14.8001 19.2V16.6ZM16.6001 16.4C16.4896 16.4 16.4001 16.4895 16.4001 16.6V19.2C16.4001 19.3105 16.4896 19.4 16.6001 19.4H19.2001C19.3106 19.4 19.4001 19.3105 19.4001 19.2V16.6C19.4001 16.4895 19.3106 16.4 19.2001 16.4H16.6001Z" fill="#171B1C"/>
</svg>
