<svg width="24" height="24" viewBox="0 0 24 24" fill="none" xmlns="http://www.w3.org/2000/svg">
<path fill-rule="evenodd" clip-rule="evenodd" d="M6.30664 3.5459C7.16422 3.54594 7.85938 4.24104 7.85938 5.09863V18.9014C7.85938 19.759 7.16422 20.4541 6.30664 20.4541H4.58105C3.7235 20.454 3.02832 19.7589 3.02832 18.9014V5.09863C3.02832 4.24106 3.7235 3.54597 4.58105 3.5459H6.30664ZM4.58105 4.92578C4.48582 4.92585 4.4082 5.00338 4.4082 5.09863V18.9014C4.4082 18.9966 4.48582 19.0742 4.58105 19.0742H6.30664C6.4019 19.0742 6.47949 18.9966 6.47949 18.9014V5.09863C6.47949 5.00337 6.4019 4.92582 6.30664 4.92578H4.58105Z" fill="#171B1C"/>
<path fill-rule="evenodd" clip-rule="evenodd" d="M12.8623 3.5459C13.7199 3.5459 14.415 4.24102 14.415 5.09863V18.9014C14.415 19.759 13.7199 20.4541 12.8623 20.4541H11.1377C10.2801 20.4541 9.58496 19.759 9.58496 18.9014V5.09863C9.58496 4.24102 10.2801 3.5459 11.1377 3.5459H12.8623ZM11.1377 4.92578C11.0424 4.92578 10.9648 5.00334 10.9648 5.09863V18.9014C10.9648 18.9967 11.0424 19.0742 11.1377 19.0742H12.8623C12.9576 19.0742 13.0352 18.9967 13.0352 18.9014V5.09863C13.0352 5.00334 12.9576 4.92578 12.8623 4.92578H11.1377Z" fill="#171B1C"/>
<path fill-rule="evenodd" clip-rule="evenodd" d="M19.4189 3.5459C20.2765 3.54597 20.9717 4.24106 20.9717 5.09863V18.9014C20.9717 19.7589 20.2765 20.454 19.4189 20.4541H17.6934C16.8358 20.4541 16.1406 19.759 16.1406 18.9014V5.09863C16.1406 4.24104 16.8358 3.54593 17.6934 3.5459H19.4189ZM17.6934 4.92578C17.5981 4.92582 17.5205 5.00336 17.5205 5.09863V18.9014C17.5205 18.9966 17.5981 19.0742 17.6934 19.0742H19.4189C19.5142 19.0741 19.5918 18.9966 19.5918 18.9014V5.09863C19.5918 5.00339 19.5142 4.92585 19.4189 4.92578H17.6934Z" fill="#171B1C"/>
</svg>
