<svg width="24" height="24" viewBox="0 0 24 24" fill="none" xmlns="http://www.w3.org/2000/svg">
<path fill-rule="evenodd" clip-rule="evenodd" d="M13.101 3.02596C11.0657 2.86718 9.04072 3.44054 7.39082 4.64272C5.74092 5.84489 4.57465 7.59682 4.10216 9.58281C3.65638 11.4566 3.85585 13.4224 4.66238 15.1642L3.04237 19.9432C2.94462 20.2315 3.01904 20.5504 3.23434 20.7657C3.44964 20.981 3.76849 21.0554 4.05685 20.9577L8.83587 19.3376C10.5776 20.1442 12.5434 20.3436 14.4172 19.8979C16.4032 19.4254 18.1551 18.2591 19.3573 16.6092C20.5595 14.9593 21.1328 12.9343 20.9741 10.899C20.8153 8.86381 19.9348 6.95221 18.4913 5.5087C17.0478 4.0652 15.1362 3.18473 13.101 3.02596ZM8.33305 5.93586C9.67474 4.95825 11.3215 4.492 12.9765 4.62111C14.6316 4.75023 16.1861 5.46622 17.3599 6.64007C18.5338 7.81393 19.2498 9.36844 19.3789 11.0235C19.508 12.6785 19.0418 14.3253 18.0642 15.667C17.0866 17.0087 15.6619 17.9571 14.0469 18.3413C12.4319 18.7255 10.7328 18.5203 9.25569 17.7626C9.0631 17.6638 8.83871 17.6473 8.63372 17.7167L5.07792 18.9221L6.28328 15.3663C6.35276 15.1613 6.33623 14.9369 6.23743 14.7443C5.47973 13.2673 5.2745 11.5681 5.65872 9.95313C6.04294 8.33813 6.99135 6.91346 8.33305 5.93586ZM8.5 12.5C9.05228 12.5 9.5 12.0523 9.5 11.5C9.5 10.9477 9.05228 10.5 8.5 10.5C7.94772 10.5 7.5 10.9477 7.5 11.5C7.5 12.0523 7.94772 12.5 8.5 12.5ZM17.5 11.5C17.5 12.0523 17.0523 12.5 16.5 12.5C15.9477 12.5 15.5 12.0523 15.5 11.5C15.5 10.9477 15.9477 10.5 16.5 10.5C17.0523 10.5 17.5 10.9477 17.5 11.5ZM12.5 12.5C13.0523 12.5 13.5 12.0523 13.5 11.5C13.5 10.9477 13.0523 10.5 12.5 10.5C11.9477 10.5 11.5 10.9477 11.5 11.5C11.5 12.0523 11.9477 12.5 12.5 12.5Z" fill="#171B1C"/>
</svg>
