<svg width="24" height="24" viewBox="0 0 24 24" fill="none" xmlns="http://www.w3.org/2000/svg">
<path d="M21.3257 12C21.3257 17.1505 17.1505 21.3258 12 21.3258C6.84949 21.3258 2.67419 17.1505 2.67419 12C2.67419 6.84952 6.84949 2.67422 12 2.67422C17.1505 2.67422 21.3257 6.84952 21.3257 12Z" fill="#1B41F5"/>
<path d="M9.21115 8.63261L16.4753 8.63261C16.6141 8.6329 16.7498 8.67439 16.865 8.75183C16.9803 8.82926 17.07 8.93916 17.1228 9.06763C17.1756 9.19609 17.1892 9.33735 17.1618 9.47352C17.1343 9.6097 17.0672 9.73467 16.9687 9.83264L9.70457 17.1014C9.60616 17.1994 9.48094 17.2661 9.34469 17.2931C9.20844 17.32 9.06727 17.306 8.93898 17.2527C8.8107 17.1995 8.70105 17.1094 8.62387 16.9938C8.54669 16.8783 8.50543 16.7425 8.5053 16.6035L8.5053 9.3348C8.50512 9.24254 8.52314 9.15115 8.55834 9.06587C8.59355 8.9806 8.64523 8.90312 8.71043 8.83788C8.77563 8.77264 8.85306 8.72092 8.93828 8.6857C9.0235 8.65047 9.11484 8.63243 9.20704 8.63261" fill="white"/>
</svg>
