<svg width="24" height="24" viewBox="0 0 24 24" fill="none" xmlns="http://www.w3.org/2000/svg">
<path fill-rule="evenodd" clip-rule="evenodd" d="M10 4.6H19C19.2209 4.6 19.4 4.77909 19.4 5V14C19.4 14.2209 19.2209 14.4 19 14.4H10C9.77909 14.4 9.6 14.2209 9.6 14V5C9.6 4.77909 9.77909 4.6 10 4.6ZM8 5C8 3.89543 8.89543 3 10 3H19C20.1046 3 21 3.89543 21 5V14C21 15.1046 20.1046 16 19 16H10C8.89543 16 8 15.1046 8 14V5ZM4.6 10.3C4.6 10.1895 4.68954 10.1 4.8 10.1H5.8C6.24183 10.1 6.6 9.74183 6.6 9.3C6.6 8.85817 6.24183 8.5 5.8 8.5H4.8C3.80589 8.5 3 9.30589 3 10.3V19.2C3 20.1941 3.80589 21 4.8 21H13.7002C14.6943 21 15.5002 20.1941 15.5002 19.2V18.2C15.5002 17.7582 15.142 17.4 14.7002 17.4C14.2584 17.4 13.9002 17.7582 13.9002 18.2V19.2C13.9002 19.3105 13.8107 19.4 13.7002 19.4H4.8C4.68954 19.4 4.6 19.3105 4.6 19.2V10.3Z" fill="#171B1C"/>
</svg>
