<svg width="24" height="24" viewBox="0 0 24 24" fill="none" xmlns="http://www.w3.org/2000/svg">
<path fill-rule="evenodd" clip-rule="evenodd" d="M15.4346 9.43457C15.747 9.12215 16.253 9.12215 16.5654 9.43457C16.8778 9.74699 16.8778 10.253 16.5654 10.5654L16.1299 10.999L16.5654 11.4346L16.6201 11.4951C16.8766 11.8093 16.8584 12.2725 16.5654 12.5654C16.2725 12.8584 15.8093 12.8766 15.4951 12.6201L15.4346 12.5654L14.999 12.1299L12.4629 14.667C12.6778 15.0633 12.7998 15.5174 12.7998 16C12.7998 17.5464 11.5464 18.7998 10 18.7998C8.4536 18.7998 7.2002 17.5464 7.2002 16C7.2002 14.4536 8.4536 13.2002 10 13.2002C10.4821 13.2002 10.936 13.3216 11.332 13.5361L15.4346 9.43457ZM10 14.7998C9.33726 14.7998 8.7998 15.3373 8.7998 16C8.7998 16.6627 9.33726 17.2002 10 17.2002C10.6627 17.2002 11.2002 16.6627 11.2002 16C11.2002 15.3373 10.6627 14.7998 10 14.7998Z" fill="#171B1C"/>
<path fill-rule="evenodd" clip-rule="evenodd" d="M15.0791 1.2041C15.2622 1.2223 15.4342 1.30331 15.5654 1.43457L20.5654 6.43457C20.7155 6.5846 20.7998 6.78783 20.7998 7V20C20.7998 20.7426 20.5046 21.4544 19.9795 21.9795C19.4544 22.5046 18.7426 22.7998 18 22.7998H6C5.25739 22.7998 4.54561 22.5046 4.02051 21.9795C3.49541 21.4544 3.2002 20.7426 3.2002 20V4C3.2002 3.25739 3.49541 2.54561 4.02051 2.02051C4.54561 1.49541 5.25739 1.2002 6 1.2002H15L15.0791 1.2041ZM6 2.7998C5.68174 2.7998 5.37641 2.92632 5.15137 3.15137C4.92632 3.37641 4.7998 3.68174 4.7998 4V20C4.7998 20.3183 4.92632 20.6236 5.15137 20.8486C5.37641 21.0737 5.68174 21.2002 6 21.2002H18C18.3183 21.2002 18.6236 21.0737 18.8486 20.8486C19.0737 20.6236 19.2002 20.3183 19.2002 20V7.33105L14.6689 2.7998H6Z" fill="#171B1C"/>
</svg>
