<svg width="24" height="24" viewBox="0 0 24 24" fill="none" xmlns="http://www.w3.org/2000/svg">
<path fill-rule="evenodd" clip-rule="evenodd" d="M9.50784 4.60006C9.70854 4.59809 9.90652 4.64649 10.0837 4.74083C10.2608 4.83517 10.4115 4.97243 10.5218 5.14006L10.5269 5.14767L11.3346 6.34422C11.5893 6.7295 11.9354 7.04581 12.342 7.26494L12.3814 7.28638C12.4998 7.35096 12.6703 7.44395 12.8764 7.50568C13.1164 7.5775 13.3679 7.60007 13.6699 7.6001H20.2C20.5183 7.6001 20.8235 7.72652 21.0485 7.95157C21.2736 8.17661 21.4 8.48184 21.4 8.8001V10.3001C21.4 10.7419 21.7582 11.1001 22.2 11.1001C22.6418 11.1001 23 10.7419 23 10.3001V8.8001C23 8.05749 22.705 7.3453 22.1799 6.8202C21.6548 6.2951 20.9426 6.0001 20.2 6.0001H13.6701C13.4411 6.00007 13.364 5.98148 13.3353 5.97289C13.297 5.96143 13.2741 5.94974 13.101 5.85646C12.9261 5.76221 12.7774 5.62601 12.6681 5.4601L12.6631 5.45252L11.8554 4.25595C11.5981 3.86672 11.2476 3.54794 10.8357 3.3286C10.4236 3.10914 9.96323 2.99623 9.49641 3.0001H5.8C5.05739 3.0001 4.3452 3.2951 3.8201 3.8202C3.295 4.3453 3 5.05749 3 5.8001V18.2001C3 18.9427 3.295 19.6549 3.8201 20.18C4.3452 20.7051 5.05739 21.0001 5.8 21.0001H9.2002C9.64202 21.0001 10.0002 20.6419 10.0002 20.2001C10.0002 19.7583 9.64202 19.4001 9.2002 19.4001H5.8C5.48174 19.4001 5.17652 19.2737 4.95147 19.0486C4.72643 18.8236 4.6 18.5184 4.6 18.2001V5.8001C4.6 5.48184 4.72643 5.17661 4.95147 4.95157C5.17652 4.72652 5.48174 4.6001 5.8 4.6001H9.5L9.50784 4.60006ZM13.0004 17.1999C13.0004 14.8803 14.8808 12.9999 17.2004 12.9999C19.52 12.9999 21.4004 14.8803 21.4004 17.1999C21.4004 19.5195 19.52 21.3999 17.2004 21.3999C14.8808 21.3999 13.0004 19.5195 13.0004 17.1999ZM17.2004 11.3999C13.9971 11.3999 11.4004 13.9967 11.4004 17.1999C11.4004 20.4032 13.9971 22.9999 17.2004 22.9999C20.4036 22.9999 23.0004 20.4032 23.0004 17.1999C23.0004 13.9967 20.4036 11.3999 17.2004 11.3999ZM17.2004 14.2C17.6422 14.2 18.0004 14.5581 18.0004 15V16.3999H19.4006C19.8424 16.3999 20.2006 16.7581 20.2006 17.1999C20.2006 17.6417 19.8424 17.9999 19.4006 17.9999H18.0004V19.4C18.0004 19.8418 17.6422 20.2 17.2004 20.2C16.7586 20.2 16.4004 19.8418 16.4004 19.4V17.9999H15.0006C14.5588 17.9999 14.2006 17.6417 14.2006 17.1999C14.2006 16.7581 14.5588 16.3999 15.0006 16.3999H16.4004V15C16.4004 14.5581 16.7586 14.2 17.2004 14.2Z" fill="#171B1C"/>
</svg>
