<svg width="24" height="24" viewBox="0 0 24 24" fill="none" xmlns="http://www.w3.org/2000/svg">
<path d="M21.7412 7.36816C21.5693 7.19629 21.3584 7.11035 21.1084 7.11035H18.8896V4.8916C18.8896 4.6416 18.8037 4.43066 18.6318 4.25879C18.46 4.08691 18.249 4.00098 17.999 4.00098C17.749 4.00098 17.5381 4.08691 17.3662 4.25879C17.1943 4.43066 17.1084 4.6416 17.1084 4.8916V7.11035H14.8896C14.6396 7.11035 14.4287 7.19629 14.2568 7.36816C14.085 7.54004 13.999 7.75098 13.999 8.00098C13.999 8.25098 14.085 8.46191 14.2568 8.63379C14.4287 8.80566 14.6396 8.8916 14.8896 8.8916H17.1084V11.1104C17.1084 11.3604 17.1943 11.5713 17.3662 11.7432C17.5381 11.915 17.749 12.001 17.999 12.001C18.249 12.001 18.46 11.915 18.6318 11.7432C18.8037 11.5713 18.8896 11.3604 18.8896 11.1104V8.8916H21.1084C21.3584 8.8916 21.5693 8.80566 21.7412 8.63379C21.9131 8.46191 21.999 8.25098 21.999 8.00098C21.999 7.75098 21.9131 7.54004 21.7412 7.36816Z" fill="#171B1C"/>
<path d="M3.79824 10.0002C3.79824 9.33745 4.3355 8.8002 4.99824 8.8002H11.5482C11.9901 8.8002 12.3482 8.44202 12.3482 8.0002C12.3482 7.55837 11.9901 7.2002 11.5482 7.2002H4.99824C3.45184 7.2002 2.19824 8.4538 2.19824 10.0002V15.0002C2.19824 16.5466 3.45184 17.8002 4.99824 17.8002H18.9982C20.5446 17.8002 21.7982 16.5466 21.7982 15.0002V13.4502C21.7982 13.0084 21.4401 12.6502 20.9982 12.6502C20.5564 12.6502 20.1982 13.0084 20.1982 13.4502V15.0002C20.1982 15.6629 19.661 16.2002 18.9982 16.2002H4.99824C4.3355 16.2002 3.79824 15.6629 3.79824 15.0002V10.0002Z" fill="#171B1C"/>
</svg>
