<svg width="24" height="24" viewBox="0 0 24 24" fill="none" xmlns="http://www.w3.org/2000/svg">
<path fill-rule="evenodd" clip-rule="evenodd" d="M10.2651 4.00772C11.033 2.66408 12.9673 2.6641 13.7352 4.00775L21.7328 18.0021C22.4959 19.3373 21.5336 21 19.9977 21H4.00226C2.46642 21 1.50411 19.3373 2.2672 18.0021L10.2651 4.00772ZM12.0001 8.26964C12.5522 8.26964 12.9997 8.71799 12.9997 9.27106V13.6772C12.9997 14.2303 12.5522 14.6787 12.0001 14.6787C11.448 14.6787 11.0004 14.2303 11.0004 13.6772V9.27106C11.0004 8.71799 11.448 8.26964 12.0001 8.26964ZM12.9999 17.0821C12.9999 16.529 12.5523 16.0807 12.0002 16.0807C11.4481 16.0807 11.0006 16.529 11.0006 17.0821V17.1822C11.0006 17.7353 11.4481 18.1836 12.0002 18.1836C12.5523 18.1836 12.9999 17.7353 12.9999 17.1822V17.0821Z" fill="#171B1C"/>
</svg>
