<svg width="24" height="24" viewBox="0 0 24 24" fill="none" xmlns="http://www.w3.org/2000/svg">
<path fill-rule="evenodd" clip-rule="evenodd" d="M4.00226 19.3977H19.9977C20.3049 19.3977 20.4974 19.0652 20.3448 18.7982L12.3472 4.80382C12.1936 4.53508 11.8067 4.53508 11.6531 4.80381L3.65525 18.7981C3.50263 19.0652 3.6951 19.3977 4.00226 19.3977ZM13.7352 4.00775C12.9673 2.6641 11.033 2.66408 10.2651 4.00772L2.2672 18.0021C1.50411 19.3373 2.46642 21 4.00226 21H19.9977C21.5336 21 22.4959 19.3373 21.7328 18.0021L13.7352 4.00775ZM11.9999 8.28201C12.552 8.28201 12.9996 8.73036 12.9996 9.28342V13.6896C12.9996 14.2427 12.552 14.691 11.9999 14.691C11.4479 14.691 11.0003 14.2427 11.0003 13.6896V9.28342C11.0003 8.73036 11.4479 8.28201 11.9999 8.28201ZM12.9996 17.0944C12.9996 16.5413 12.5521 16.093 12 16.093C11.4479 16.093 11.0003 16.5413 11.0003 17.0944V17.1945C11.0003 17.7476 11.4479 18.1959 12 18.1959C12.5521 18.1959 12.9996 17.7476 12.9996 17.1945V17.0944Z" fill="#171B1C"/>
</svg>
