<svg width="24" height="24" viewBox="0 0 24 24" fill="none" xmlns="http://www.w3.org/2000/svg">
<path d="M12 3.80695C13.7011 3.80697 15.3725 4.25433 16.8457 5.1048C18.3189 5.95544 19.543 7.17938 20.3936 8.65265C21.244 10.1258 21.6914 11.7973 21.6914 13.4984C21.6913 15.1996 21.2442 16.8718 20.3936 18.345C20.1727 18.7273 19.6832 18.8583 19.3008 18.638C18.9182 18.4171 18.787 17.9269 19.0078 17.5443C19.7179 16.3143 20.0917 14.9185 20.0918 13.4984C20.0918 12.0782 19.7178 10.6824 19.0078 9.45245C18.2977 8.22249 17.2758 7.20071 16.0459 6.49054C14.8159 5.78043 13.4203 5.40658 12 5.40656C10.5796 5.40658 9.18416 5.78037 7.9541 6.49054C6.72405 7.20074 5.70236 8.22239 4.99219 9.45245C4.28213 10.6824 3.90822 12.0781 3.9082 13.4984C3.9083 14.9187 4.28297 16.3143 4.99316 17.5443C5.21391 17.9268 5.08274 18.4171 4.7002 18.638C4.31777 18.8588 3.82851 18.7272 3.60742 18.345C2.75674 16.8718 2.3087 15.1996 2.30859 13.4984C2.30861 11.7973 2.75597 10.1259 3.60645 8.65265C4.45705 7.17928 5.68096 5.95546 7.1543 5.1048C8.62754 4.25427 10.2989 3.80697 12 3.80695Z" fill="#171B1C"/>
<path d="M14.9912 9.37628C15.3036 9.06401 15.8097 9.06402 16.1221 9.37628C16.4345 9.68867 16.4344 10.1947 16.1221 10.5071L12.5654 14.0638C12.253 14.3762 11.747 14.3762 11.4346 14.0638C11.1223 13.7514 11.1222 13.2453 11.4346 12.9329L14.9912 9.37628Z" fill="#171B1C"/>
</svg>
