<svg width="24" height="24" viewBox="0 0 24 24" fill="none" xmlns="http://www.w3.org/2000/svg">
<path fill-rule="evenodd" clip-rule="evenodd" d="M7.6 20.2C7.6 20.6418 7.24183 21 6.8 21C6.35817 21 6 20.6418 6 20.2V5.73136L3.36569 8.36567C3.05327 8.67809 2.54673 8.67809 2.23431 8.36567C1.9219 8.05325 1.9219 7.54672 2.23431 7.2343L6.23431 3.23431C6.38434 3.08428 6.58783 3 6.8 3C7.01217 3 7.21566 3.08428 7.36569 3.23431L11.3657 7.2343C11.6781 7.54672 11.6781 8.05325 11.3657 8.36567C11.0533 8.67809 10.5467 8.67809 10.2343 8.36567L7.6 5.73136V20.2ZM10.7998 11.4C10.358 11.4 9.9998 11.7582 9.9998 12.2C9.9998 12.6419 10.358 13 10.7998 13H15.1998C15.6416 13 15.9998 12.6419 15.9998 12.2C15.9998 11.7582 15.6416 11.4 15.1998 11.4H10.7998ZM9.9998 16.2C9.9998 15.7582 10.358 15.4 10.7998 15.4H18.1998C18.6416 15.4 18.9998 15.7582 18.9998 16.2C18.9998 16.6418 18.6416 17 18.1998 17H10.7998C10.358 17 9.9998 16.6418 9.9998 16.2ZM10.7998 19.4C10.358 19.4 9.9998 19.7582 9.9998 20.2C9.9998 20.6418 10.358 21 10.7998 21H21.1998C21.6416 21 21.9998 20.6418 21.9998 20.2C21.9998 19.7582 21.6416 19.4 21.1998 19.4H10.7998Z" fill="#171B1C"/>
</svg>
