<svg width="24" height="24" viewBox="0 0 24 24" fill="none" xmlns="http://www.w3.org/2000/svg">
<path d="M5.13779 2.2002C5.57957 2.20024 5.93759 2.5582 5.93759 3V19.0693L6.82236 18.1846C7.13478 17.8722 7.64081 17.8722 7.95322 18.1846C8.26558 18.497 8.26558 19.003 7.95322 19.3154L5.70322 21.5654C5.66899 21.5997 5.63123 21.6285 5.59287 21.6553C5.56766 21.6728 5.54195 21.6895 5.51474 21.7041C5.50638 21.7086 5.49783 21.7126 5.48935 21.7168C5.4502 21.736 5.40972 21.7529 5.36728 21.7656C5.35569 21.7691 5.34383 21.7715 5.33212 21.7744C5.32013 21.7774 5.30819 21.7808 5.29599 21.7832C5.29117 21.7842 5.28618 21.7843 5.28134 21.7852C5.23468 21.7936 5.1869 21.7998 5.13779 21.7998L5.05576 21.7959C5.03457 21.7937 5.01392 21.7889 4.99326 21.7852C4.98842 21.7843 4.98343 21.7842 4.97861 21.7832C4.96641 21.7807 4.95446 21.7774 4.94248 21.7744C4.93077 21.7715 4.9189 21.7691 4.90732 21.7656C4.86491 21.7529 4.82437 21.7361 4.78525 21.7168C4.70857 21.6791 4.63618 21.6292 4.57236 21.5654L2.32236 19.3154C2.00994 19.003 2.00994 18.497 2.32236 18.1846C2.63478 17.8722 3.14081 17.8722 3.45322 18.1846L4.33798 19.0693V3C4.33798 2.55817 4.69596 2.2002 5.13779 2.2002Z" fill="#171B1C"/>
<path d="M12.2003 17.2002C12.6421 17.2002 13.0001 17.5582 13.0001 18C13.0001 18.4418 12.6421 18.7998 12.2003 18.7998H9.95029C9.50846 18.7998 9.15048 18.4418 9.15048 18C9.15048 17.5582 9.50846 17.2002 9.95029 17.2002H12.2003Z" fill="#171B1C"/>
<path d="M15.6573 13.2041C16.0606 13.2452 16.3751 13.5859 16.3751 14C16.3751 14.4141 16.0606 14.7548 15.6573 14.7959L15.5753 14.7998H9.95029C9.50846 14.7998 9.15048 14.4418 9.15048 14C9.15048 13.5582 9.50846 13.2002 9.95029 13.2002H15.5753L15.6573 13.2041Z" fill="#171B1C"/>
<path d="M17.8253 9.2002C18.2671 9.20024 18.6251 9.5582 18.6251 10C18.6251 10.4418 18.2671 10.7998 17.8253 10.7998H9.95029C9.50846 10.7998 9.15048 10.4418 9.15048 10C9.15048 9.55817 9.50846 9.2002 9.95029 9.2002H17.8253Z" fill="#171B1C"/>
<path d="M21.2003 5.2002C21.6421 5.20024 22.0001 5.5582 22.0001 6C22.0001 6.4418 21.6421 6.79976 21.2003 6.7998H9.95029C9.50846 6.7998 9.15048 6.44183 9.15048 6C9.15048 5.55817 9.50846 5.2002 9.95029 5.2002H21.2003Z" fill="#171B1C"/>
</svg>
