<svg width="24" height="24" viewBox="0 0 24 24" fill="none" xmlns="http://www.w3.org/2000/svg">
<path fill-rule="evenodd" clip-rule="evenodd" d="M12.6378 4.43472C14.5507 2.52176 17.6522 2.52176 19.5652 4.43471C21.4781 6.34767 21.4781 9.44918 19.5652 11.3621L17.7616 13.1657C17.4492 13.4781 16.9427 13.4781 16.6303 13.1657C16.3178 12.8533 16.3178 12.3467 16.6303 12.0343L18.4338 10.2308C19.7219 8.94265 19.7219 6.8542 18.4338 5.56609C17.1457 4.27797 15.0573 4.27797 13.7691 5.56609L11.9656 7.36964C11.6532 7.68206 11.1466 7.68206 10.8342 7.36964C10.5218 7.05722 10.5218 6.55069 10.8342 6.23827L12.6378 4.43472ZM11.3621 19.5652C9.44918 21.4782 6.34767 21.4782 4.43471 19.5652C2.52176 17.6523 2.52176 14.5508 4.43472 12.6378L6.23827 10.8343C6.55069 10.5218 7.05722 10.5218 7.36964 10.8343C7.68206 11.1467 7.68206 11.6532 7.36964 11.9656L5.56609 13.7692C4.27797 15.0573 4.27797 17.1458 5.56608 18.4339C6.8542 19.722 8.94265 19.722 10.2308 18.4339L12.0343 16.6303C12.3467 16.3179 12.8533 16.3179 13.1657 16.6303C13.4781 16.9427 13.4781 17.4493 13.1657 17.7617L11.3621 19.5652ZM6.36547 5.23433C6.05305 4.92192 5.54652 4.92192 5.2341 5.23433C4.92168 5.54675 4.92168 6.05329 5.2341 6.36571L17.6341 18.7657C17.9465 19.0781 18.453 19.0781 18.7655 18.7657C19.0779 18.4533 19.0779 17.9468 18.7655 17.6343L6.36547 5.23433Z" fill="#171B1C"/>
</svg>
