<svg width="24" height="24" viewBox="0 0 24 24" fill="none" xmlns="http://www.w3.org/2000/svg">
<path fill-rule="evenodd" clip-rule="evenodd" d="M12.8498 3.8C12.8498 3.35817 12.4916 3 12.0498 3C11.608 3 11.2498 3.35817 11.2498 3.8V12.2367L8.32216 9.24083C8.01336 8.92484 7.50686 8.919 7.19087 9.22781C6.87487 9.53661 6.86904 10.0431 7.17784 10.3591L11.4776 14.7591C11.6293 14.9143 11.8375 15.0012 12.0545 15C12.2715 14.9987 12.4787 14.9093 12.6285 14.7524L16.8285 10.3524C17.1336 10.0328 17.1218 9.52636 16.8022 9.22128C16.4826 8.91621 15.9762 8.92799 15.6711 9.24759L12.8498 12.2033V3.8ZM4.6 15.1999C4.6 14.7581 4.24183 14.3999 3.8 14.3999C3.35817 14.3999 3 14.7581 3 15.1999V18.1999C3 19.7463 4.2536 20.9999 5.8 20.9999H18.2C19.7464 20.9999 21 19.7463 21 18.1999V15.1999C21 14.7581 20.6418 14.3999 20.2 14.3999C19.7582 14.3999 19.4 14.7581 19.4 15.1999V18.1999C19.4 18.8626 18.8627 19.3999 18.2 19.3999H5.8C5.13726 19.3999 4.6 18.8626 4.6 18.1999V15.1999Z" fill="#171B1C"/>
</svg>
