<svg width="24" height="24" viewBox="0 0 24 24" fill="none" xmlns="http://www.w3.org/2000/svg">
<path fill-rule="evenodd" clip-rule="evenodd" d="M5.60019 2C4.90484 2 4.24162 2.28251 3.75541 2.77949C3.26978 3.27587 3 3.94546 3 4.64006V19.3605C3 20.0551 3.26978 20.7247 3.75541 21.2211C4.24162 21.7181 4.90485 22.0006 5.60019 22.0006H18.4013C19.0966 22.0006 19.7598 21.7181 20.2461 21.2211C20.7317 20.7247 21.0015 20.0551 21.0015 19.3605V7.40015C21.0015 7.19101 20.9196 6.99019 20.7733 6.84069L16.2729 2.24055C16.1224 2.08671 15.9162 2 15.701 2H5.60019ZM4.89912 3.89839C5.08811 3.70522 5.34065 3.6 5.60019 3.6H15.3645L19.4015 7.72639V19.3605C19.4015 19.642 19.2919 19.9084 19.1023 20.1022C18.9134 20.2954 18.6608 20.4006 18.4013 20.4006H5.60019C5.34065 20.4006 5.08811 20.2954 4.89912 20.1022C4.70955 19.9084 4.60001 19.642 4.60001 19.3605V4.64006C4.60001 4.35863 4.70955 4.09216 4.89912 3.89839ZM12.8492 7.00001C12.8492 6.55818 12.491 6.20001 12.0492 6.20001C11.6073 6.20001 11.2491 6.55818 11.2491 7.00001V14.405L9.37817 12.4472C9.0729 12.1278 8.5665 12.1163 8.24708 12.4216C7.92766 12.7269 7.91618 13.2333 8.22145 13.5527L11.4708 16.9527C11.6232 17.1122 11.8347 17.2016 12.0553 17.1999C12.2759 17.1982 12.486 17.1055 12.6359 16.9437L15.7867 13.5437C16.087 13.2196 16.0677 12.7135 15.7436 12.4132C15.4196 12.1129 14.9134 12.1321 14.6131 12.4562L12.8492 14.3597V7.00001Z" fill="#171B1C"/>
</svg>
