<svg width="24" height="24" viewBox="0 0 24 24" fill="none" xmlns="http://www.w3.org/2000/svg">
<path fill-rule="evenodd" clip-rule="evenodd" d="M3 3.8C3 3.35817 3.35817 3 3.8 3H5.8C6.17661 3 6.50222 3.26267 6.58189 3.63076L7.35446 7.19999H20.2C20.45 7.19999 20.6856 7.31686 20.8369 7.51589C20.9882 7.71492 21.0377 7.97323 20.9708 8.2141L19.1742 14.6817C18.9578 15.4608 18.2485 15.9999 17.4399 15.9999H9.10316C8.25869 15.9999 7.52775 15.4129 7.34556 14.5883L5.92719 8.16923L5.15463 4.6H3.8C3.35817 4.6 3 4.24182 3 3.8ZM7.70516 8.79998L8.90787 14.2431C8.92811 14.3347 9.00933 14.3999 9.10316 14.3999H17.4399C17.5298 14.3999 17.6086 14.34 17.6326 14.2534L19.1475 8.79998H7.70516ZM9 19.6C9.05523 19.6 9.1 19.5552 9.1 19.5C9.1 19.4448 9.05523 19.4 9 19.4C8.94477 19.4 8.9 19.4448 8.9 19.5C8.9 19.5552 8.94477 19.6 9 19.6ZM7.5 19.5C7.5 18.6716 8.17157 18 9 18C9.82843 18 10.5 18.6716 10.5 19.5C10.5 20.3284 9.82843 21 9 21C8.17157 21 7.5 20.3284 7.5 19.5ZM17.6 19.5C17.6 19.5552 17.5552 19.6 17.5 19.6C17.4448 19.6 17.4 19.5552 17.4 19.5C17.4 19.4448 17.4448 19.4 17.5 19.4C17.5552 19.4 17.6 19.4448 17.6 19.5ZM17.5 18C16.6716 18 16 18.6716 16 19.5C16 20.3284 16.6716 21 17.5 21C18.3284 21 19 20.3284 19 19.5C19 18.6716 18.3284 18 17.5 18Z" fill="#171B1C"/>
</svg>
