<svg width="24" height="24" viewBox="0 0 24 24" fill="none" xmlns="http://www.w3.org/2000/svg">
<path fill-rule="evenodd" clip-rule="evenodd" d="M17.671 4.93853C17.2197 4.48724 16.4827 4.48724 16.0314 4.93853L15.1487 5.82128L18.1772 8.84271L19.0613 7.95863C19.5126 7.50734 19.5126 6.78018 19.0613 6.32888L17.671 4.93853ZM17.0459 9.97408L14.0176 6.95294L5.17328 15.8065C4.98007 15.9997 4.85927 16.2559 4.83653 16.523L4.83636 16.525L4.60074 19.215C4.59179 19.3075 4.66784 19.4075 4.79579 19.3982L7.47486 19.1635L7.47682 19.1633C7.744 19.1406 7.99987 19.0201 8.19309 18.8269L17.0459 9.97408ZM14.9001 3.80716C15.9762 2.73103 17.7262 2.73103 18.8023 3.80716L20.1927 5.19751C21.2688 6.27365 21.2688 8.01387 20.1927 9.09L9.32446 19.9582C8.8717 20.411 8.26635 20.7017 7.61357 20.7575L7.6125 20.7576L4.92618 20.9929C3.84243 21.0803 2.90195 20.1844 3.00775 19.0651L3.24229 16.3874L3.24238 16.3863C3.29818 15.7337 3.58873 15.1284 4.04132 14.6757L14.9001 3.80716Z" fill="#171B1C"/>
</svg>
