<svg width="24" height="24" viewBox="0 0 24 24" fill="none" xmlns="http://www.w3.org/2000/svg">
<path d="M21.1625 6.1506L18.0202 2.997C17.6101 2.61039 17.0727 2.38856 16.5103 2.37371C15.9478 2.35885 15.3995 2.55201 14.9697 2.91643L4.64846 13.275C4.27777 13.6501 4.04697 14.1419 3.99478 14.6676L3.50165 19.4671C3.48621 19.6357 3.508 19.8056 3.56549 19.9647C3.62297 20.1239 3.71473 20.2684 3.83423 20.3878C3.94139 20.4945 4.06847 20.5789 4.20819 20.6362C4.34792 20.6935 4.49753 20.7225 4.64846 20.7216H4.75167L9.53386 20.2843C10.0577 20.2319 10.5477 20.0002 10.9215 19.6282L21.2428 9.26967C21.6434 8.84494 21.8599 8.27814 21.8448 7.69349C21.8298 7.10884 21.5844 6.55402 21.1625 6.1506ZM17.2634 9.99477L14.1899 6.91023L16.4262 4.60833L19.557 7.75042L17.2634 9.99477Z" fill="#171B1C"/>
</svg>
