<svg width="24" height="24" viewBox="0 0 24 24" fill="none" xmlns="http://www.w3.org/2000/svg">
<path fill-rule="evenodd" clip-rule="evenodd" d="M20.9997 11.9998C20.9997 11.5579 20.6415 11.1998 20.1997 11.1998C19.7579 11.1998 19.3997 11.5579 19.3997 11.9998V19.1998C19.3997 19.3102 19.3102 19.3998 19.1997 19.3998H4.79951C4.68905 19.3998 4.59951 19.3102 4.59951 19.1998L4.59951 4.79976C4.59951 4.6893 4.68905 4.59976 4.79951 4.59976L11.9996 4.59976C12.4414 4.59976 12.7996 4.24158 12.7996 3.79976C12.7996 3.35793 12.4414 2.99976 11.9996 2.99976H4.79951C3.8054 2.99976 2.99951 3.80564 2.99951 4.79976V19.1998C2.99951 20.1939 3.8054 20.9998 4.79951 20.9998L19.1997 20.9998C20.1938 20.9998 20.9997 20.1939 20.9997 19.1998V11.9998ZM20.0858 8.62954C21.357 7.35832 21.2818 5.30009 20.0151 4.03334C18.7483 2.7666 16.6901 2.69141 15.4189 3.96263L14.4997 4.88184C14.1873 5.19426 14.1873 5.70079 14.4997 6.01321C14.8121 6.32563 15.3186 6.32563 15.6311 6.01321L16.5503 5.094C17.1536 4.49071 18.1978 4.47884 18.8837 5.16471C19.5696 5.85059 19.5577 6.89487 18.9544 7.49817L16.3381 10.1145C15.7348 10.7178 14.6906 10.7296 14.0047 10.0437C13.6923 9.73133 13.1857 9.73133 12.8733 10.0437C12.5609 10.3562 12.5609 10.8627 12.8733 11.1751C14.1401 12.4419 16.1983 12.517 17.4695 11.2458L20.0858 8.62954ZM8.91435 10.4686C7.64313 11.7398 7.71832 13.7981 8.98506 15.0648C10.2518 16.3316 12.31 16.4068 13.5813 15.1355L14.5005 14.2163C14.8129 13.9039 14.8129 13.3974 14.5005 13.085C14.188 12.7725 13.6815 12.7725 13.3691 13.085L12.4499 14.0042C11.8466 14.6075 10.8023 14.6193 10.1164 13.9334C9.43056 13.2476 9.44243 12.2033 10.0457 11.6L12.662 8.9837C13.2653 8.38041 14.3096 8.36854 14.9955 9.05441C15.3079 9.36683 15.8144 9.36683 16.1268 9.05441C16.4393 8.74199 16.4393 8.23546 16.1268 7.92304C14.8601 6.6563 12.8019 6.58111 11.5306 7.85233L8.91435 10.4686Z" fill="#171B1C"/>
</svg>
