<svg width="24" height="24" viewBox="0 0 24 24" fill="none" xmlns="http://www.w3.org/2000/svg">
<path fill-rule="evenodd" clip-rule="evenodd" d="M17.717 7.58931C18.0542 7.8747 18.0963 8.37948 17.8109 8.71677C17.5255 9.05406 17.0208 9.09613 16.6835 8.81074L12 4.84795L7.31677 8.81069C6.97948 9.09608 6.4747 9.05401 6.18931 8.71673C5.90391 8.37944 5.94598 7.87466 6.28326 7.58927L11.4833 3.18929C11.7815 2.93691 12.2185 2.9369 12.5168 3.18928L17.717 7.58931ZM17.717 16.4107C18.0542 16.1253 18.0963 15.6205 17.8109 15.2833C17.5255 14.946 17.0208 14.9039 16.6835 15.1893L12 19.1521L7.31677 15.1893C6.97948 14.9039 6.4747 14.946 6.18931 15.2833C5.90391 15.6206 5.94598 16.1254 6.28326 16.4108L11.4833 20.8107C11.7815 21.0631 12.2185 21.0631 12.5168 20.8107L17.717 16.4107Z" fill="#171B1C"/>
</svg>
