<svg width="24" height="24" viewBox="0 0 24 24" fill="none" xmlns="http://www.w3.org/2000/svg">
<path d="M17.8433 3.2002C19.2164 3.20046 20.3293 4.31337 20.3296 5.68652C20.3296 6.12835 19.9716 6.4873 19.5298 6.4873C19.088 6.4873 18.73 6.12835 18.73 5.68652C18.7297 5.19703 18.3328 4.80007 17.8433 4.7998H5.52979C4.86704 4.7998 4.32959 5.33726 4.32959 6V18C4.32959 18.6627 4.86704 19.2002 5.52979 19.2002H17.8569C18.3389 19.1999 18.7297 18.8091 18.73 18.3271C18.73 17.8853 19.088 17.5264 19.5298 17.5264C19.9716 17.5264 20.3296 17.8853 20.3296 18.3271C20.3293 19.6928 19.2225 20.7996 17.8569 20.7998H5.52979C3.98339 20.7998 2.72998 19.5464 2.72998 18V6C2.72998 4.4536 3.98339 3.2002 5.52979 3.2002H17.8433Z" fill="#171B1C"/>
<path d="M16.5962 8.12598C16.9086 7.81372 17.4147 7.81372 17.7271 8.12598L21.0356 11.4346C21.0821 11.4811 21.1212 11.5321 21.1538 11.5859C21.1884 11.6429 21.2163 11.7044 21.2358 11.7695C21.2445 11.7985 21.251 11.8278 21.2563 11.8574C21.2647 11.9037 21.27 11.9513 21.27 12C21.27 12.0491 21.2639 12.0969 21.2554 12.1436C21.2545 12.1484 21.2544 12.1534 21.2534 12.1582C21.2313 12.2683 21.1858 12.3693 21.1235 12.458C21.0973 12.4953 21.069 12.5321 21.0356 12.5654L17.7271 15.874C17.4147 16.1862 16.9086 16.1863 16.5962 15.874C16.2838 15.5617 16.2839 15.0556 16.5962 14.7432L18.5396 12.7998H12.5298C12.088 12.7998 11.7301 12.4417 11.73 12C11.73 11.5582 12.088 11.2002 12.5298 11.2002H18.5396L16.5962 9.25684C16.2839 8.94446 16.284 8.43837 16.5962 8.12598Z" fill="#171B1C"/>
</svg>
