<svg width="24" height="24" viewBox="0 0 24 24" fill="none" xmlns="http://www.w3.org/2000/svg">
<path fill-rule="evenodd" clip-rule="evenodd" d="M15.0002 2C14.0061 2 13.2002 2.80589 13.2002 3.8V9C13.2002 9.99411 14.0061 10.8 15.0002 10.8H20.2002C21.1943 10.8 22.0002 9.99411 22.0002 9V3.8C22.0002 2.80589 21.1943 2 20.2002 2H15.0002ZM14.8002 3.8C14.8002 3.68954 14.8897 3.6 15.0002 3.6H20.2002C20.3107 3.6 20.4002 3.68954 20.4002 3.8V9C20.4002 9.11046 20.3107 9.2 20.2002 9.2H15.0002C14.8897 9.2 14.8002 9.11046 14.8002 9V3.8Z" fill="#171B1C"/>
<path fill-rule="evenodd" clip-rule="evenodd" d="M10.8002 7.8V13.2H16.2002C17.1943 13.2 18.0002 14.0058 18.0002 15V20.2C18.0002 21.1941 17.1943 22 16.2002 22H3.8C2.80589 22 2 21.1941 2 20.2V7.8C2 6.80589 2.80589 6 3.8 6H9.0002C9.99431 6 10.8002 6.80589 10.8002 7.8ZM3.6 7.8C3.6 7.68954 3.68954 7.6 3.8 7.6H9.0002C9.11065 7.6 9.2002 7.68954 9.2002 7.8V13.2H3.6V7.8ZM3.6 14.8H9.2002V20.4H3.8C3.68954 20.4 3.6 20.3104 3.6 20.2V14.8ZM10.8002 14.8V20.4H16.2002C16.3107 20.4 16.4002 20.3104 16.4002 20.2V15C16.4002 14.8895 16.3107 14.8 16.2002 14.8H10.8002Z" fill="#171B1C"/>
</svg>
