<svg width="24" height="24" viewBox="0 0 24 24" fill="none" xmlns="http://www.w3.org/2000/svg">
<path d="M2.24346 3.24344C2.54602 2.94099 3.02522 2.92233 3.3499 3.1868L3.41338 3.24344L20.7601 20.5901L20.8167 20.6526C21.0814 20.9772 21.0624 21.4564 20.7601 21.7591C20.4574 22.0617 19.9783 22.0805 19.6536 21.8157L19.5901 21.7591L14.721 16.8899C13.7737 17.6308 12.6011 18.0403 11.386 18.0403C10.6102 18.0402 9.85218 17.8722 9.15849 17.5589V20.2581L9.15459 20.387C9.13227 20.6863 9.03216 20.9761 8.86455 21.2268C8.67295 21.5133 8.40072 21.7365 8.08232 21.8684C7.76373 22.0004 7.41273 22.0353 7.07451 21.968C6.73641 21.9008 6.42577 21.7342 6.18193 21.4905L6.17803 21.4866C6.01575 21.322 5.81624 21.1984 5.59697 21.1253C5.37764 21.0522 5.14395 21.0314 4.91533 21.0657L4.90849 21.0667C4.64069 21.1048 4.36725 21.08 4.11064 20.9944C3.85422 20.9088 3.62118 20.7646 3.42998 20.5735C3.23867 20.3822 3.09375 20.1485 3.0081 19.8919C2.92262 19.6354 2.89776 19.3617 2.93584 19.094L2.93682 19.0882L2.95244 18.9163C2.95788 18.7438 2.93302 18.5711 2.87822 18.4065C2.82343 18.2421 2.73979 18.0891 2.63213 17.9544L2.51689 17.8255L2.51201 17.8216C2.2684 17.5778 2.10279 17.2669 2.03545 16.929C1.96821 16.5908 2.00223 16.2397 2.13408 15.9212C2.26602 15.6026 2.49005 15.3306 2.77666 15.1389C3.0634 14.9473 3.40052 14.8441 3.74541 14.844H6.44756C6.17387 14.2338 6.01335 13.5734 5.97978 12.8958L5.97295 12.6282C5.97297 11.4133 6.38256 10.2406 7.12334 9.29324L2.24346 4.41336L2.18682 4.34988C1.92235 4.02517 1.94091 3.54599 2.24346 3.24344ZM7.49932 16.4934L7.41533 16.4983H3.74541C3.7277 16.4984 3.71035 16.5032 3.6956 16.513C3.68075 16.5229 3.66924 16.5375 3.6624 16.554C3.65567 16.5703 3.65318 16.5884 3.65654 16.6057C3.66007 16.6232 3.66933 16.64 3.68193 16.6526C4.03023 16.9973 4.29167 17.4191 4.44658 17.8841C4.60121 18.3483 4.64415 18.8424 4.57256 19.3264L4.57353 19.3274C4.57161 19.3413 4.57302 19.3562 4.57744 19.3694C4.58191 19.3825 4.58917 19.3948 4.59892 19.4046C4.60876 19.4143 4.62095 19.4216 4.63408 19.4261L4.67607 19.43C5.16036 19.3582 5.65489 19.4012 6.11943 19.5559C6.58426 19.7108 7.00626 19.9734 7.35088 20.3216L7.37236 20.3372C7.37997 20.3412 7.38825 20.3442 7.39678 20.346C7.4143 20.3494 7.433 20.3479 7.44951 20.3411C7.46601 20.3343 7.48058 20.3227 7.49053 20.3079C7.50028 20.2932 7.50502 20.2757 7.50517 20.2581V16.5882C7.50519 16.5552 7.50824 16.5225 7.51201 16.4905C7.50774 16.491 7.50361 16.493 7.49932 16.4934ZM10.8899 16.3538C11.0535 16.3756 11.2192 16.387 11.386 16.387C12.1612 16.387 12.9113 16.1461 13.5384 15.7083L11.8782 14.0471L10.8899 16.3538ZM8.30498 10.4749C7.86694 11.102 7.62727 11.8529 7.62724 12.6282L7.63115 12.8137C7.67714 13.7428 8.06716 14.6244 8.72783 15.2854L8.8626 15.4143C9.01137 15.549 9.17069 15.6703 9.33721 15.7786L10.6194 12.7884L8.30498 10.4749ZM15.9202 2.13406C16.2387 2.0022 16.59 1.9683 16.928 2.03543C17.2236 2.09426 17.4986 2.22845 17.7259 2.4241L17.8206 2.51199L17.8245 2.51687L17.9534 2.63211C18.088 2.73973 18.2412 2.82338 18.4056 2.8782C18.6248 2.95126 18.8586 2.9711 19.0872 2.9368L19.094 2.93582L19.2952 2.91922C19.4969 2.91409 19.6995 2.94396 19.8919 3.00808C20.1483 3.09368 20.3813 3.23884 20.5726 3.42996C20.7638 3.62119 20.9088 3.85413 20.9944 4.11062C21.08 4.36724 21.1038 4.64065 21.0657 4.90848V4.91531C21.0314 5.14383 21.0513 5.3777 21.1243 5.59695C21.1791 5.76131 21.2628 5.91447 21.3704 6.0491L21.4856 6.17703L21.4905 6.18191L21.5774 6.27664C21.7734 6.50402 21.9082 6.77869 21.9671 7.07449C22.0344 7.41275 22.0004 7.76367 21.8685 8.0823C21.7365 8.40089 21.5126 8.67289 21.2259 8.86453C20.9751 9.03211 20.6854 9.13133 20.386 9.15359L20.2571 9.15847H17.4808C17.5939 9.40881 17.6907 9.66742 17.7649 9.93387C18.015 10.8318 18.0295 11.7799 17.806 12.6848C17.6964 13.1278 17.248 13.3984 16.805 13.2893C16.3618 13.1799 16.0912 12.7315 16.2005 12.2884C16.3557 11.66 16.3457 11.0017 16.1722 10.3782C15.9985 9.75465 15.6669 9.18557 15.2093 8.72781C15.0598 8.57838 14.897 8.44394 14.7259 8.32254L14.2269 9.51883C14.0507 9.93986 13.5669 10.1381 13.1458 9.96219C12.7246 9.78614 12.5246 9.30235 12.7005 8.88113L13.2005 7.68484C12.6864 7.59444 12.1581 7.61085 11.6487 7.7366C11.2055 7.84605 10.7573 7.57524 10.6478 7.13211C10.5383 6.68883 10.809 6.24061 11.2522 6.13113C12.157 5.90773 13.1044 5.92215 14.0022 6.17215C14.292 6.25286 14.5725 6.35912 14.8431 6.48562V3.74539C14.8432 3.40059 14.9464 3.06331 15.138 2.77664C15.3296 2.49007 15.6018 2.26602 15.9202 2.13406ZM16.553 3.66238C16.5366 3.66925 16.5219 3.68078 16.512 3.69558C16.5023 3.71027 16.4975 3.72778 16.4974 3.74539V7.41433C16.4974 7.44687 16.4942 7.47945 16.4905 7.51101C16.5221 7.50732 16.5546 7.50519 16.5872 7.50515H20.2571L20.2825 7.50125C20.291 7.49873 20.2995 7.49539 20.3069 7.49051C20.3218 7.48059 20.3333 7.46596 20.3401 7.44949C20.347 7.43296 20.3495 7.4143 20.346 7.39676C20.3424 7.3794 20.3331 7.3634 20.3206 7.35086C19.9728 7.00637 19.7097 6.58391 19.555 6.11941C19.4003 5.65498 19.3573 5.16022 19.429 4.67605C19.431 4.66219 19.4295 4.64734 19.4251 4.63406C19.4206 4.62097 19.4134 4.60869 19.4036 4.5989C19.3938 4.58914 19.3816 4.58085 19.3685 4.57644C19.3552 4.57214 19.3402 4.57155 19.3265 4.57351L19.3255 4.57254C18.8415 4.64404 18.3473 4.60122 17.8831 4.44656C17.4183 4.29161 16.9963 4.02921 16.6517 3.68094C16.639 3.66844 16.6222 3.65999 16.6048 3.65652C16.5875 3.65329 16.5693 3.65565 16.553 3.66238Z" fill="#171B1C"/>
</svg>
