<svg width="24" height="24" viewBox="0 0 24 24" fill="none" xmlns="http://www.w3.org/2000/svg">
<path d="M2 12.0503C2 17.0251 5.6 21.1457 10.35 22L10.4091 21.9514C10.4061 21.9509 10.403 21.9503 10.4 21.9498V14.8643H7.89999V12.0503H10.4V9.8392C10.4 7.32663 12 5.9196 14.3 5.9196C15 5.9196 15.8 6.0201 16.5 6.1206V8.68342H15.2C14 8.68342 13.7 9.28643 13.7 10.0905V12.0503H16.35L15.9 14.8643H13.7V21.9498C13.6695 21.9553 13.6391 21.9607 13.6086 21.966L13.65 22C18.4 21.1457 22 17.0251 22 12.0503C22 6.52261 17.5 2 12 2C6.5 2 2 6.52261 2 12.0503Z" fill="#171B1C"/>
</svg>
