<svg width="24" height="24" viewBox="0 0 24 24" fill="none" xmlns="http://www.w3.org/2000/svg">
<path fill-rule="evenodd" clip-rule="evenodd" d="M3.08512 3.44058C3.22097 3.17049 3.49748 3.00006 3.79981 3.00006H20.1998C20.5021 3.00006 20.7786 3.17049 20.9145 3.44057C21.0503 3.71065 21.0223 4.03425 20.8421 4.27698L14.6 12.6837V20.2001C14.6 20.478 14.4557 20.7361 14.2189 20.8816C13.9821 21.0272 13.6867 21.0394 13.4387 20.9138L9.83871 19.0916C9.56962 18.9554 9.4 18.6794 9.4 18.3778V12.6837L3.15752 4.277C2.97728 4.03427 2.94927 3.71067 3.08512 3.44058ZM5.39029 4.60006L10.8423 11.9422C10.9447 12.0802 11 12.2474 11 12.4192V17.8861L13 18.8985V12.4192C13 12.2474 13.0553 12.0802 13.1577 11.9423L18.6094 4.60006H5.39029Z" fill="#171B1C"/>
</svg>
