<svg width="24" height="24" viewBox="0 0 24 24" fill="none" xmlns="http://www.w3.org/2000/svg">
<path d="M3.20001 6.00001C3.20001 5.55818 3.55818 5.20001 4.00001 5.20001H20C20.4418 5.20001 20.8 5.55818 20.8 6.00001C20.8 6.44184 20.4418 6.80001 20 6.80001H4.00001C3.55818 6.80001 3.20001 6.44184 3.20001 6.00001Z" fill="#171B1C"/>
<path d="M7.20001 12C7.20001 11.5582 7.55818 11.2 8.00001 11.2H16C16.4418 11.2 16.8 11.5582 16.8 12C16.8 12.4418 16.4418 12.8 16 12.8H8.00001C7.55818 12.8 7.20001 12.4418 7.20001 12Z" fill="#171B1C"/>
<path d="M10 17.2C9.55818 17.2 9.20001 17.5582 9.20001 18C9.20001 18.4418 9.55818 18.8 10 18.8H14C14.4418 18.8 14.8 18.4418 14.8 18C14.8 17.5582 14.4418 17.2 14 17.2H10Z" fill="#171B1C"/>
</svg>
