<svg width="24" height="24" viewBox="0 0 24 24" fill="none" xmlns="http://www.w3.org/2000/svg">
<path d="M12 9.44531C12.4418 9.44531 12.7998 9.80329 12.7998 10.2451V12.2002H14.7549C15.1967 12.2002 15.5547 12.5582 15.5547 13C15.5547 13.4418 15.1967 13.7998 14.7549 13.7998H12.7998V15.7549C12.7998 16.1967 12.4418 16.5547 12 16.5547C11.5582 16.5547 11.2002 16.1967 11.2002 15.7549V13.7998H9.24512C8.80329 13.7998 8.44531 13.4418 8.44531 13C8.44531 12.5582 8.80329 12.2002 9.24512 12.2002H11.2002V10.2451C11.2002 9.80329 11.5582 9.44531 12 9.44531Z" fill="#171B1C"/>
<path fill-rule="evenodd" clip-rule="evenodd" d="M9.17871 4.11621C9.55913 4.13987 9.93223 4.23386 10.2783 4.39355L10.4492 4.47852L10.6143 4.57422C10.9866 4.80575 11.3048 5.11564 11.5488 5.48145L12.123 6.33008H17.9199C18.6854 6.33017 19.4215 6.61567 19.9863 7.12695L20.0977 7.23242L20.2031 7.34277C20.7146 7.90773 21 8.64445 21 9.41016V16.8096C21 17.6264 20.6753 18.4107 20.0977 18.9883C19.5202 19.5656 18.7365 19.8896 17.9199 19.8896H6.08008C5.26339 19.8895 4.47888 19.5658 3.90137 18.9883C3.3239 18.4107 3 17.6263 3 16.8096V7.19043C3.00002 6.37367 3.32388 5.5893 3.90137 5.01172L4.0127 4.90723C4.5776 4.39569 5.31438 4.11045 6.08008 4.11035H8.98828L9.17871 4.11621ZM6.08008 5.70996C5.68771 5.71007 5.31066 5.8661 5.0332 6.14355C4.75577 6.42108 4.59963 6.79802 4.59961 7.19043V16.8096C4.59961 17.202 4.7558 17.5789 5.0332 17.8564C5.27601 18.0992 5.59489 18.2486 5.93359 18.2822L6.08008 18.29H17.9199C18.2631 18.29 18.5942 18.1706 18.8574 17.9551L18.9658 17.8564C19.2434 17.5789 19.3994 17.2021 19.3994 16.8096V9.41016C19.3994 9.01766 19.2434 8.64082 18.9658 8.36328C18.7229 8.12059 18.4042 7.97104 18.0654 7.9375L17.9199 7.92969H12.0732C11.826 7.93199 11.5815 7.87209 11.3633 7.75586C11.1451 7.63952 10.9592 7.47021 10.8232 7.26367L10.2236 6.37598C10.0889 6.17145 9.90506 6.00292 9.68945 5.88672C9.47408 5.7708 9.23287 5.71008 8.98828 5.70996H6.08008Z" fill="#171B1C"/>
</svg>
