<svg width="24" height="24" viewBox="0 0 24 24" fill="none" xmlns="http://www.w3.org/2000/svg">
<path fill-rule="evenodd" clip-rule="evenodd" d="M17 3.7002C18.8225 3.7002 20.2998 5.17746 20.2998 7C20.2998 8.54663 19.2357 9.84362 17.7998 10.2012V11.167C17.7997 11.5987 17.6529 12.0209 17.3369 12.3369C17.0209 12.6529 16.5987 12.7997 16.167 12.7998H12.7998V13.7979C14.2358 14.1553 15.2998 15.4533 15.2998 17C15.2998 18.8225 13.8225 20.2998 12 20.2998C10.1775 20.2998 8.7002 18.8225 8.7002 17C8.7002 15.4533 9.76417 14.1553 11.2002 13.7979V12.7998H7.83301C7.40132 12.7997 6.97906 12.6529 6.66309 12.3369C6.34711 12.0209 6.20027 11.5987 6.2002 11.167V10.2012C4.76429 9.84362 3.7002 8.54663 3.7002 7C3.7002 5.17746 5.17746 3.7002 7 3.7002C8.82254 3.7002 10.2998 5.17746 10.2998 7C10.2998 8.54663 9.23571 9.84362 7.7998 10.2012V11.167C7.79982 11.1789 7.80183 11.1885 7.80273 11.1963C7.81066 11.1973 7.82052 11.2002 7.83301 11.2002H16.167C16.179 11.2002 16.1885 11.1972 16.1963 11.1963C16.1972 11.1885 16.2002 11.179 16.2002 11.167V10.2012C14.7643 9.84362 13.7002 8.54663 13.7002 7C13.7002 5.17746 15.1775 3.7002 17 3.7002ZM12 15.2998C11.0611 15.2998 10.2998 16.0611 10.2998 17C10.2998 17.9389 11.0611 18.7002 12 18.7002C12.9389 18.7002 13.7002 17.9389 13.7002 17C13.7002 16.0611 12.9389 15.2998 12 15.2998ZM7 5.2998C6.06112 5.2998 5.2998 6.06112 5.2998 7C5.2998 7.93888 6.06112 8.7002 7 8.7002C7.93888 8.7002 8.7002 7.93888 8.7002 7C8.7002 6.06112 7.93888 5.2998 7 5.2998ZM17 5.2998C16.0611 5.2998 15.2998 6.06112 15.2998 7C15.2998 7.93888 16.0611 8.7002 17 8.7002C17.9389 8.7002 18.7002 7.93888 18.7002 7C18.7002 6.06112 17.9389 5.2998 17 5.2998Z" fill="#171B1C"/>
</svg>
