<svg width="24" height="24" viewBox="0 0 24 24" fill="none" xmlns="http://www.w3.org/2000/svg">
<path fill-rule="evenodd" clip-rule="evenodd" d="M13.2339 9.63434C12.9214 9.94677 12.9215 10.4533 13.2339 10.7657C13.5463 11.0781 14.0529 11.0781 14.3653 10.7657L19.399 5.73149V9.2C19.399 9.64183 19.7572 10 20.199 10C20.6409 10 20.999 9.64183 20.999 9.2V3.8C20.999 3.35817 20.6409 3 20.199 3H14.7996C14.3577 3 13.9996 3.35817 13.9996 3.8C13.9996 4.24183 14.3577 4.6 14.7996 4.6L18.2678 4.6L13.2339 9.63434ZM10.7647 14.3656C11.0771 14.0532 11.0771 13.5467 10.7646 13.2343C10.4522 12.9219 9.94567 12.9219 9.63327 13.2343L4.59951 18.2685L4.59951 14.8C4.59951 14.3581 4.24134 14 3.79951 14C3.35768 14 2.99951 14.3581 2.99951 14.8V20.2C2.99951 20.6418 3.35768 21 3.79951 21H9.19897C9.6408 21 9.99897 20.6418 9.99897 20.2C9.99897 19.7581 9.6408 19.4 9.19897 19.4H5.73077L10.7647 14.3656Z" fill="#171B1C"/>
</svg>
