<svg width="24" height="24" viewBox="0 0 24 24" fill="none" xmlns="http://www.w3.org/2000/svg">
<path d="M17.6187 3.00586C17.8476 3.03433 18.055 3.16096 18.1849 3.35541L21.8653 8.87507C21.8679 8.87903 21.8696 8.88377 21.8721 8.88776C21.88 8.90003 21.8864 8.91313 21.8936 8.92584C21.9089 8.95285 21.9237 8.97969 21.9356 9.00786C21.9423 9.02378 21.9474 9.04026 21.9531 9.05668C21.9623 9.08314 21.9702 9.10968 21.9766 9.13675C21.9813 9.15703 21.9851 9.17742 21.9883 9.19826C21.9923 9.22459 21.9947 9.25084 21.9961 9.27735C21.9968 9.29126 22 9.30525 22 9.31934C22 9.32457 21.9981 9.32975 21.998 9.33496C21.9976 9.35853 21.9948 9.38181 21.9922 9.40526C21.9876 9.44755 21.9796 9.48824 21.9688 9.52829C21.9624 9.55154 21.9567 9.5749 21.9483 9.59762C21.942 9.61438 21.9341 9.63022 21.9268 9.64644C21.9151 9.67239 21.9023 9.69776 21.8877 9.7226C21.8774 9.74013 21.8661 9.75673 21.8545 9.77337C21.8467 9.78471 21.8406 9.79751 21.8321 9.80852L12.6321 21.6895C12.6186 21.7069 12.6029 21.7222 12.5882 21.7383C12.5743 21.7535 12.5602 21.7682 12.5452 21.7823C12.5273 21.7991 12.5089 21.8151 12.4896 21.8301C12.4787 21.8386 12.4677 21.8466 12.4564 21.8545C12.4346 21.8697 12.4122 21.8836 12.389 21.8965C12.3786 21.9023 12.3685 21.9087 12.3578 21.9141C12.3268 21.9296 12.2949 21.9427 12.2621 21.9541C12.2528 21.9574 12.2433 21.96 12.2338 21.9629C12.2033 21.9723 12.1726 21.9806 12.1411 21.9863C12.1343 21.9875 12.1274 21.9882 12.1206 21.9893C12.0813 21.9953 12.0417 21.9989 12.0015 21.999L12.0005 22C11.9599 22 11.919 21.9953 11.8794 21.9893C11.8719 21.9881 11.8645 21.9867 11.857 21.9854C11.8268 21.9798 11.7973 21.9728 11.7681 21.9639C11.7587 21.961 11.7492 21.9583 11.7398 21.9551C11.705 21.943 11.6711 21.9288 11.6383 21.9121C11.6317 21.9087 11.6253 21.9049 11.6188 21.9014C11.5905 21.886 11.563 21.8694 11.5368 21.8506C11.5298 21.8456 11.5231 21.8402 11.5163 21.835C11.4616 21.7932 11.411 21.7451 11.3679 21.6895L2.16694 9.80852C2.16074 9.8005 2.15619 9.79133 2.15034 9.78313C2.10961 9.72619 2.07556 9.66435 2.05076 9.59762C2.04846 9.59143 2.04607 9.5853 2.04393 9.57906C2.03186 9.54393 2.02176 9.50784 2.01464 9.47068C2.01308 9.46258 2.01205 9.45441 2.01074 9.44627C2.00654 9.41997 2.00352 9.3933 2.00195 9.36621C2.00156 9.35968 2.00023 9.35321 2 9.34668V9.31934C2 9.29038 2.00091 9.26157 2.0039 9.23341C2.00516 9.22161 2.00798 9.21001 2.00976 9.19826C2.01353 9.17344 2.01842 9.14904 2.02441 9.12503C2.02708 9.11432 2.02909 9.10343 2.03222 9.09281C2.0417 9.06056 2.05406 9.02949 2.06736 8.99907C2.073 8.98615 2.07955 8.97368 2.08591 8.96099C2.09747 8.93799 2.10936 8.91529 2.123 8.89362C2.1268 8.88759 2.12977 8.88102 2.13374 8.87507L5.81413 3.35541L5.87465 3.27632C6.02542 3.10195 6.24619 3.00006 6.47991 3H17.5201L17.6187 3.00586ZM9.40567 10.119L11.9995 18.4966L14.5943 10.119H9.40567ZM4.43081 10.119L9.92991 17.2205L7.73046 10.119H4.43081ZM16.2695 10.119L14.0701 17.2175L19.5682 10.119H16.2695ZM4.29316 8.51966H7.82516L9.7864 4.59936H6.9075L4.29316 8.51966ZM9.61361 8.51966H14.3864L12.4261 4.59936H11.5739L9.61361 8.51966ZM16.1748 8.51966H19.7059L17.0915 4.59936H14.2146L16.1748 8.51966Z" fill="#171B1C"/>
</svg>
