<svg width="24" height="24" viewBox="0 0 24 24" fill="none" xmlns="http://www.w3.org/2000/svg">
<path d="M18.2285 14.4014C18.2346 14.4016 18.241 14.402 18.2471 14.4023C18.2859 14.4046 18.3242 14.4094 18.3613 14.417L18.3809 14.4209C18.3854 14.422 18.39 14.4237 18.3945 14.4248C18.5084 14.4533 18.6106 14.5086 18.6992 14.5801C18.7212 14.5978 18.7452 14.6144 18.7656 14.6348L21.7656 17.6348L21.8203 17.6953C22.0763 18.0094 22.0582 18.4728 21.7656 18.7656C21.4728 19.0584 21.0095 19.0763 20.6953 18.8203L20.6348 18.7656L19 17.1309V21.2002C18.9999 21.6417 18.6417 21.9996 18.2002 22C17.7584 22 17.4005 21.642 17.4004 21.2002V17.1309L15.7656 18.7656C15.4534 19.0779 14.9472 19.0776 14.6348 18.7656C14.3223 18.4532 14.3223 17.9472 14.6348 17.6348L17.6289 14.6396C17.6336 14.6349 17.6388 14.6306 17.6436 14.626L17.6953 14.5801C17.704 14.573 17.7138 14.5672 17.7227 14.5605C17.7909 14.5096 17.8666 14.4677 17.9492 14.4404L17.9541 14.4385C17.9953 14.4252 18.0382 14.4156 18.082 14.4092C18.0885 14.4082 18.0951 14.407 18.1016 14.4062C18.1337 14.4023 18.167 14.4004 18.2002 14.4004C18.2096 14.4004 18.2192 14.401 18.2285 14.4014ZM19.3594 5C20.0915 5 20.7728 5.32725 21.2588 5.87305C21.7419 6.41575 21.9999 7.13421 22 7.86621V13.0332C22 13.4749 21.6418 13.8328 21.2002 13.833C20.7584 13.833 20.3995 13.475 20.3994 13.0332V7.86621C20.3993 7.50253 20.2701 7.16971 20.0635 6.9375C19.8594 6.70829 19.6032 6.59961 19.3594 6.59961H4.63965C4.39588 6.59966 4.1406 6.70834 3.93652 6.9375C3.72981 7.16972 3.59972 7.50243 3.59961 7.86621V16.1328C3.59961 16.4968 3.72974 16.8302 3.93652 17.0625C4.1406 17.2916 4.39589 17.3994 4.63965 17.3994H12L12.082 17.4043C12.4852 17.4455 12.7997 17.7862 12.7998 18.2002C12.7996 18.6141 12.4851 18.955 12.082 18.9961L12 19H4.63965C3.90756 19 3.22717 18.6718 2.74121 18.126C2.25814 17.5832 2 16.8649 2 16.1328V7.86621C2.00011 7.13415 2.25802 6.41576 2.74121 5.87305C3.22716 5.32732 3.90763 5.00005 4.63965 5H19.3594ZM12 9.2002C13.5463 9.2002 14.7997 10.4537 14.7998 12C14.7998 13.5464 13.5464 14.7998 12 14.7998C10.4536 14.7998 9.2002 13.5464 9.2002 12C9.20033 10.4537 10.4537 9.2002 12 9.2002ZM6.13477 10.8066C6.73982 10.8681 7.21191 11.3787 7.21191 12C7.21191 12.6213 6.73982 13.1319 6.13477 13.1934L6.01172 13.2002H6C5.33726 13.2002 4.7998 12.6627 4.7998 12C4.7998 11.3373 5.33726 10.7998 6 10.7998H6.01172L6.13477 10.8066ZM12 10.7998C11.3373 10.7998 10.7999 11.3374 10.7998 12C10.7998 12.6627 11.3373 13.2002 12 13.2002C12.6627 13.2002 13.2002 12.6627 13.2002 12C13.2001 11.3374 12.6627 10.7998 12 10.7998ZM18.1348 10.8066C18.7398 10.8681 19.2119 11.3787 19.2119 12C19.2119 12.6213 18.7398 13.1319 18.1348 13.1934L18.0117 13.2002H18C17.3373 13.2002 16.7998 12.6627 16.7998 12C16.7998 11.3373 17.3373 10.7998 18 10.7998H18.0117L18.1348 10.8066Z" fill="#171B1C"/>
</svg>
