<svg width="24" height="24" viewBox="0 0 24 24" fill="none" xmlns="http://www.w3.org/2000/svg">
<path fill-rule="evenodd" clip-rule="evenodd" d="M4.60021 4.6V14.4299L9.86226 12.1747C10.0691 12.0861 10.3036 12.0887 10.5084 12.1818L19.3987 16.2228V4.6H4.60021ZM3.00021 15.6616C2.99993 15.6495 2.99993 15.6375 3.00021 15.6254V4.34662C3.00021 3.6029 3.60311 3 4.34682 3H19.6521C20.3958 3 20.9987 3.60293 20.9987 4.34662V17.448C20.999 17.4597 20.999 17.4715 20.9987 17.4833V19.6519C20.9987 20.3956 20.3958 20.9985 19.6521 20.9985H4.34682C3.60313 20.9985 3.00021 20.3956 3.00021 19.6519V15.6616ZM19.3987 19.3985V17.9803L10.1679 13.7845L4.60021 16.1706V19.3985H19.3987ZM14.6223 8.35514C14.6223 7.79067 15.0798 7.33309 15.6443 7.33309C16.2088 7.33309 16.6664 7.79067 16.6664 8.35514C16.6664 8.91962 16.2088 9.3772 15.6443 9.3772C15.0798 9.3772 14.6223 8.91962 14.6223 8.35514ZM15.6443 5.73309C14.1962 5.73309 13.0223 6.90703 13.0223 8.35514C13.0223 9.80326 14.1962 10.9772 15.6443 10.9772C17.0925 10.9772 18.2664 9.80326 18.2664 8.35514C18.2664 6.90703 17.0925 5.73309 15.6443 5.73309Z" fill="#171B1C"/>
</svg>
