<svg width="24" height="24" viewBox="0 0 24 24" fill="none" xmlns="http://www.w3.org/2000/svg">
<path fill-rule="evenodd" clip-rule="evenodd" d="M12 22C17.5228 22 22 17.5228 22 12C22 6.47715 17.5228 2 12 2C6.47715 2 2 6.47715 2 12C2 17.5228 6.47715 22 12 22ZM15.0068 8.78355C14.1874 8.01634 13.1241 7.59578 11.996 7.59677C9.96587 7.59856 8.21323 8.99055 7.72932 10.9215C7.69409 11.062 7.56886 11.1613 7.42395 11.1613H5.92205C5.72553 11.1613 5.57624 10.9829 5.6126 10.7897C6.1797 7.77825 8.82373 5.5 12 5.5C13.7416 5.5 15.3232 6.18502 16.4901 7.30021L17.4262 6.36413C17.8225 5.96787 18.5 6.24852 18.5 6.80894V10.3226C18.5 10.67 18.2184 10.9516 17.871 10.9516H14.3573C13.7969 10.9516 13.5163 10.2741 13.9125 9.87778L15.0068 8.78355ZM6.12903 13.0484H9.64267C10.2031 13.0484 10.4837 13.7259 10.0875 14.1222L8.99323 15.2165C9.81259 15.9837 10.876 16.4043 12.0041 16.4032C14.0332 16.4014 15.7865 15.0104 16.2707 13.0786C16.3059 12.938 16.4311 12.8388 16.5761 12.8388H18.078C18.2745 12.8388 18.4238 13.0172 18.3874 13.2103C17.8203 16.2217 15.1763 18.5 12 18.5C10.2584 18.5 8.67685 17.815 7.50989 16.6998L6.57381 17.6359C6.17755 18.0321 5.5 17.7515 5.5 17.1911V13.6774C5.5 13.33 5.78162 13.0484 6.12903 13.0484Z" fill="#171B1C"/>
</svg>
