<svg width="24" height="24" viewBox="0 0 24 24" fill="none" xmlns="http://www.w3.org/2000/svg">
<path d="M13.6172 20.1221C14.0069 20.0452 14.3856 20.2988 14.4629 20.6885C14.54 21.0785 14.2864 21.4579 13.8965 21.5352C13.2826 21.6566 12.6482 21.7197 12 21.7197C11.3518 21.7197 10.7174 21.6566 10.1035 21.5352C9.71358 21.4579 9.45996 21.0785 9.53711 20.6885C9.61445 20.2988 9.99305 20.0452 10.3828 20.1221C10.9051 20.2254 11.4461 20.2803 12 20.2803C12.5539 20.2803 13.0949 20.2254 13.6172 20.1221ZM4.11523 16.4023C4.44558 16.1812 4.89298 16.2694 5.11426 16.5996C5.71897 17.5029 6.49713 18.281 7.40039 18.8857C7.73062 19.107 7.81882 19.5544 7.59766 19.8848C7.37641 20.2151 6.92902 20.3032 6.59863 20.082C5.53923 19.3727 4.62729 18.4608 3.91797 17.4014C3.69678 17.071 3.78491 16.6236 4.11523 16.4023ZM18.8857 16.5996C19.107 16.2694 19.5544 16.1812 19.8848 16.4023C20.2151 16.6236 20.3032 17.071 20.082 17.4014C19.3727 18.4608 18.4608 19.3727 17.4014 20.082C17.071 20.3032 16.6236 20.2151 16.4023 19.8848C16.1812 19.5544 16.2694 19.107 16.5996 18.8857C17.5029 18.281 18.281 17.5029 18.8857 16.5996ZM2.28027 12C2.28027 11.3518 2.3434 10.7174 2.46484 10.1035C2.54213 9.71358 2.92152 9.45996 3.31152 9.53711C3.70119 9.61445 3.95476 9.99305 3.87793 10.3828C3.7746 10.9051 3.71973 11.4461 3.71973 12C3.71973 12.5539 3.7746 13.0949 3.87793 13.6172C3.95475 14.0069 3.70119 14.3856 3.31152 14.4629C2.92152 14.54 2.54213 14.2864 2.46484 13.8965C2.3434 13.2826 2.28027 12.6482 2.28027 12ZM20.2803 12C20.2803 11.4461 20.2254 10.9051 20.1221 10.3828C20.0452 9.99305 20.2988 9.61445 20.6885 9.53711C21.0785 9.45996 21.4579 9.71358 21.5352 10.1035C21.6566 10.7174 21.7197 11.3518 21.7197 12C21.7197 12.6482 21.6566 13.2826 21.5352 13.8965C21.4579 14.2864 21.0785 14.54 20.6885 14.4629C20.2988 14.3856 20.0452 14.0069 20.1221 13.6172C20.2254 13.0949 20.2803 12.5539 20.2803 12ZM6.59863 3.91797C6.92902 3.69678 7.37641 3.78491 7.59766 4.11523C7.81882 4.44558 7.73062 4.89298 7.40039 5.11426C6.49713 5.71897 5.71897 6.49713 5.11426 7.40039C4.89298 7.73062 4.44558 7.81882 4.11523 7.59766C3.78491 7.37641 3.69678 6.92902 3.91797 6.59863C4.62729 5.53923 5.53923 4.62729 6.59863 3.91797ZM16.4023 4.11523C16.6236 3.78491 17.071 3.69678 17.4014 3.91797C18.4608 4.62729 19.3727 5.53923 20.082 6.59863C20.3032 6.92902 20.2151 7.37641 19.8848 7.59766C19.5544 7.81882 19.107 7.73062 18.8857 7.40039C18.281 6.49713 17.5029 5.71897 16.5996 5.11426C16.2694 4.89298 16.1812 4.44558 16.4023 4.11523ZM12 2.28027C12.6482 2.28027 13.2826 2.3434 13.8965 2.46484C14.2864 2.54213 14.54 2.92152 14.4629 3.31152C14.3856 3.70119 14.0069 3.95476 13.6172 3.87793C13.0949 3.7746 12.5539 3.71973 12 3.71973C11.4461 3.71973 10.9051 3.7746 10.3828 3.87793C9.99305 3.95475 9.61445 3.70119 9.53711 3.31152C9.45996 2.92152 9.71358 2.54213 10.1035 2.46484C10.7174 2.3434 11.3518 2.28027 12 2.28027Z" fill="black"/>
</svg>
