<svg width="24" height="24" viewBox="0 0 24 24" fill="none" xmlns="http://www.w3.org/2000/svg">
<path fill-rule="evenodd" clip-rule="evenodd" d="M12 22C17.5228 22 22 17.5228 22 12C22 6.47715 17.5228 2 12 2C6.47715 2 2 6.47715 2 12C2 17.5228 6.47715 22 12 22ZM13.1131 8.22135C12.8162 8.51823 12.4452 8.66667 11.9998 8.66667C11.5545 8.66667 11.1752 8.51823 10.8618 8.22135C10.5649 7.90799 10.4165 7.52865 10.4165 7.08333C10.4165 6.63802 10.5649 6.26693 10.8618 5.97005C11.1752 5.65668 11.5545 5.5 11.9998 5.5C12.4452 5.5 12.8162 5.65668 13.1131 5.97005C13.4265 6.26693 13.5832 6.63802 13.5832 7.08333C13.5832 7.52865 13.4265 7.90799 13.1131 8.22135ZM13.5833 11.6875V17.3092C13.5833 17.639 13.4679 17.9194 13.237 18.1503C13.0061 18.3812 12.7257 18.4967 12.3958 18.4967C12.066 18.4967 11.7856 18.3812 11.5547 18.1503C11.3238 17.9194 11.2083 17.639 11.2083 17.3092V12.875H10.8125C10.4826 12.875 10.2023 12.7595 9.97135 12.5286C9.74045 12.2977 9.625 12.0174 9.625 11.6875C9.625 11.3576 9.74045 11.0773 9.97135 10.8464C10.2023 10.6155 10.4826 10.5 10.8125 10.5H12.3958C12.7257 10.5 13.0061 10.6155 13.237 10.8464C13.4679 11.0773 13.5833 11.3576 13.5833 11.6875Z" fill="#171B1C"/>
</svg>
