<svg width="24" height="24" viewBox="0 0 24 24" fill="none" xmlns="http://www.w3.org/2000/svg">
<path fill-rule="evenodd" clip-rule="evenodd" d="M20.4 12C20.4 16.6392 16.6392 20.4 12 20.4C7.36081 20.4 3.6 16.6392 3.6 12C3.6 7.36081 7.36081 3.6 12 3.6C16.6392 3.6 20.4 7.36081 20.4 12ZM22 12C22 17.5228 17.5228 22 12 22C6.47715 22 2 17.5228 2 12C2 6.47715 6.47715 2 12 2C17.5228 2 22 6.47715 22 12ZM12 9.3876C12.5523 9.3876 13 8.93988 13 8.3876V8.2876C13 7.73531 12.5523 7.2876 12 7.2876C11.4477 7.2876 11 7.73531 11 8.2876V8.3876C11 8.93988 11.4477 9.3876 12 9.3876ZM11.9995 17.1876C12.5518 17.1876 12.9995 16.7399 12.9995 16.1876V11.7877C12.9995 11.2354 12.5518 10.7877 11.9995 10.7877C11.4472 10.7877 10.9995 11.2354 10.9995 11.7877V16.1876C10.9995 16.7399 11.4472 17.1876 11.9995 17.1876Z" fill="#171B1C"/>
</svg>
