<svg width="24" height="24" viewBox="0 0 24 24" fill="none" xmlns="http://www.w3.org/2000/svg">
<path fill-rule="evenodd" clip-rule="evenodd" d="M22 12C22 17.5228 17.5228 22 12 22C6.47715 22 2 17.5228 2 12C2 6.47715 6.47715 2 12 2C17.5228 2 22 6.47715 22 12ZM11.9995 17.1876C12.5518 17.1876 12.9995 16.7399 12.9995 16.1876V11.7877C12.9995 11.2354 12.5518 10.7877 11.9995 10.7877C11.4472 10.7877 10.9995 11.2354 10.9995 11.7877V16.1876C10.9995 16.7399 11.4472 17.1876 11.9995 17.1876ZM13 8.38757C13 8.93986 12.5523 9.38757 12 9.38757C11.4477 9.38757 11 8.93986 11 8.38757V8.28757C11 7.73529 11.4477 7.28757 12 7.28757C12.5523 7.28757 13 7.73529 13 8.28757V8.38757Z" fill="#171B1C"/>
</svg>
