<svg width="24" height="24" viewBox="0 0 24 24" fill="none" xmlns="http://www.w3.org/2000/svg">
<path fill-rule="evenodd" clip-rule="evenodd" d="M11.2 3.79976C11.2 3.35793 11.5582 2.99976 12 2.99976H19.2C20.1941 2.99976 21 3.80564 21 4.79976V19.2C21 20.1941 20.1941 21 19.2 21H4.8C3.80589 21 3 20.1941 3 19.2V11.9999C3 11.558 3.35817 11.1999 3.8 11.1999C4.24183 11.1999 4.6 11.558 4.6 11.9999V19.2C4.6 19.3104 4.68954 19.4 4.8 19.4H19.2C19.3105 19.4 19.4 19.3104 19.4 19.2V4.79976C19.4 4.6893 19.3105 4.59976 19.2 4.59976H12C11.5582 4.59976 11.2 4.24158 11.2 3.79976ZM7.0002 13.2C6.55837 13.2 6.2002 13.5581 6.2002 14C6.2002 14.4418 6.55837 14.8 7.0002 14.8H7.8002C8.24202 14.8 8.6002 14.4418 8.6002 14C8.6002 13.5581 8.24202 13.2 7.8002 13.2H7.0002ZM7.0002 16.2C6.55837 16.2 6.2002 16.5581 6.2002 17C6.2002 17.4418 6.55837 17.8 7.0002 17.8H7.8002C8.24202 17.8 8.6002 17.4418 8.6002 17C8.6002 16.5581 8.24202 16.2 7.8002 16.2H7.0002ZM10.2002 14C10.2002 13.5581 10.5584 13.2 11.0002 13.2H17.2002C17.642 13.2 18.0002 13.5581 18.0002 14C18.0002 14.4418 17.642 14.8 17.2002 14.8H11.0002C10.5584 14.8 10.2002 14.4418 10.2002 14ZM11.0002 16.2C10.5584 16.2 10.2002 16.5581 10.2002 17C10.2002 17.4418 10.5584 17.8 11.0002 17.8H17.2002C17.642 17.8 18.0002 17.4418 18.0002 17C18.0002 16.5581 17.642 16.2 17.2002 16.2H11.0002ZM4.36568 3.23431C4.05326 2.92189 3.54673 2.9219 3.23431 3.23432C2.92189 3.54674 2.9219 4.05327 3.23432 4.36569L7.06862 8.19995H4.8C4.35817 8.19995 4 8.55812 4 8.99995C4 9.44178 4.35817 9.79995 4.8 9.79995H9C9.44183 9.79995 9.8 9.44178 9.8 8.99995V4.79995C9.8 4.35812 9.44183 3.99995 9 3.99995C8.55817 3.99995 8.2 4.35812 8.2 4.79995V7.06859L4.36568 3.23431Z" fill="#171B1C"/>
</svg>
