<svg width="24" height="24" viewBox="0 0 24 24" fill="none" xmlns="http://www.w3.org/2000/svg">
<path fill-rule="evenodd" clip-rule="evenodd" d="M12 2C17.5228 2 22 6.47715 22 12C22 17.5228 17.5228 22 12 22C6.47715 22 2 17.5228 2 12C2 6.47715 6.47715 2 12 2ZM12.1719 6.76953C11.4925 6.76953 10.8575 6.88618 10.2676 7.11816C9.68093 7.35017 9.16326 7.69085 8.71582 8.1416C8.27169 8.59236 7.92534 9.14335 7.67676 9.79297C7.42832 10.4391 7.30472 11.1797 7.30469 12.0146C7.30469 13.0885 7.50995 14.0167 7.9209 14.7988C8.33183 15.5776 8.90498 16.1777 9.64062 16.5986C10.3764 17.0195 11.2301 17.2304 12.2012 17.2305C13.0762 17.2305 13.8506 17.056 14.5234 16.708C15.1994 16.36 15.7299 15.8614 16.1143 15.2119C16.502 14.5623 16.6953 13.7815 16.6953 12.8701V11.5225H12.3057V13.3174H14.3223C14.3146 13.6624 14.2354 13.9644 14.0811 14.2227C13.9186 14.4944 13.6791 14.7044 13.3643 14.8535C13.0529 14.9992 12.6721 15.0722 12.2217 15.0723C11.7114 15.0723 11.2768 14.9517 10.9189 14.71C10.561 14.468 10.2876 14.116 10.0986 13.6553C9.90978 13.1947 9.81545 12.6381 9.81543 11.9854C9.81543 11.3357 9.91285 10.7832 10.1084 10.3291C10.3039 9.87192 10.5806 9.52372 10.9385 9.28516C11.2997 9.04657 11.7279 8.92773 12.2217 8.92773C12.4668 8.92777 12.6921 8.95699 12.8975 9.0166C13.103 9.07295 13.2852 9.15782 13.4443 9.27051C13.6034 9.3832 13.7373 9.52119 13.8467 9.68359C13.956 9.84266 14.0394 10.0266 14.0957 10.2354H16.5859C16.5263 9.72825 16.3742 9.26213 16.1289 8.83789C15.8837 8.41371 15.5633 8.04746 15.1689 7.73926C14.778 7.43119 14.3276 7.19242 13.8174 7.02344C13.3104 6.85444 12.7617 6.76957 12.1719 6.76953Z" fill="#171B1C"/>
</svg>
