<svg width="24" height="24" viewBox="0 0 24 24" fill="none" xmlns="http://www.w3.org/2000/svg">
<path fill-rule="evenodd" clip-rule="evenodd" d="M5.4852 3C4.80408 3 4.21101 3.25132 3.72099 3.74134C3.24246 4.21987 3 4.80697 3 5.4852V18.5148C3 19.1928 3.24216 19.7848 3.71757 20.2755L3.72446 20.2824C4.21521 20.7578 4.80721 21 5.4852 21H8.96655C9.64478 21 10.2319 20.7575 10.7104 20.279L10.7138 20.2755C11.1892 19.7848 11.4314 19.1928 11.4314 18.5148V5.4852C11.4314 4.80779 11.1895 4.22128 10.7121 3.74308C10.2347 3.25109 9.64717 3 8.96655 3H5.4852ZM4.76565 4.78601C4.96568 4.58599 5.19968 4.48906 5.4852 4.48906H8.96655C9.23507 4.48906 9.46325 4.58352 9.66574 4.78601L9.67168 4.7918C9.86625 4.97612 9.96269 5.19999 9.96269 5.4852V18.5148C9.96269 18.7989 9.8667 19.032 9.66865 19.2314C9.46807 19.4202 9.23898 19.5109 8.96655 19.5109H5.4852C5.19744 19.5109 4.96341 19.4189 4.76576 19.2342C4.5811 19.0366 4.48906 18.8026 4.48906 18.5148V5.4852C4.48906 5.19464 4.58265 4.96902 4.76565 4.78601Z" fill="#171B1C"/>
<path fill-rule="evenodd" clip-rule="evenodd" d="M15.0335 3C14.3528 3 13.7653 3.25109 13.2879 3.74306C12.8105 4.22127 12.5686 4.80778 12.5686 5.4852V10.697C12.5686 11.375 12.8108 11.967 13.2862 12.4578L13.2896 12.4613C13.7681 12.9398 14.3552 13.1822 15.0335 13.1822H18.5148C19.193 13.1822 19.7801 12.9398 20.2587 12.4613C20.7487 11.9712 21 11.3782 21 10.697V5.4852C21 4.80539 20.7495 4.21842 20.2587 3.74131C19.7816 3.25049 19.1946 3 18.5148 3H15.0335ZM14.3343 4.78601C14.5368 4.58352 14.7649 4.48906 15.0335 4.48906H18.5148C18.8 4.48906 19.0239 4.5855 19.2082 4.78007L19.2139 4.78609L19.2199 4.7918C19.4145 4.97612 19.5109 5.19999 19.5109 5.4852V10.697C19.5109 10.9826 19.414 11.2166 19.214 11.4166C19.031 11.5996 18.8054 11.6932 18.5148 11.6932H15.0335C14.761 11.6932 14.5319 11.6024 14.3313 11.4136C14.1333 11.2143 14.0373 10.9812 14.0373 10.697V5.4852C14.0373 5.19999 14.1338 4.97612 14.3283 4.7918L14.3343 4.78601Z" fill="#171B1C"/>
<path fill-rule="evenodd" clip-rule="evenodd" d="M15.0335 14.2991C14.3552 14.2991 13.7681 14.5416 13.2896 15.0201C12.8096 15.5001 12.5686 16.0946 12.5686 16.7843V18.5148C12.5686 19.1928 12.8108 19.7848 13.2862 20.2755L13.2896 20.279C13.7681 20.7575 14.3552 21 15.0335 21H18.5148C19.193 21 19.7801 20.7575 20.2587 20.279C20.7487 19.789 21 19.1959 21 18.5148V16.7843C21 16.0922 20.7504 15.4973 20.2569 15.0184C19.7787 14.541 19.1922 14.2991 18.5148 14.2991H15.0335ZM14.3343 16.0851C14.5368 15.8826 14.7649 15.7882 15.0335 15.7882H18.5148C18.8 15.7882 19.0239 15.8846 19.2082 16.0792L19.2139 16.0852L19.2199 16.0909C19.4145 16.2752 19.5109 16.4991 19.5109 16.7843V18.5148C19.5109 18.8003 19.414 19.0343 19.214 19.2343C19.031 19.4174 18.8054 19.5109 18.5148 19.5109H15.0335C14.761 19.5109 14.5319 19.4202 14.3313 19.2314C14.1333 19.032 14.0373 18.7989 14.0373 18.5148V16.7843C14.0373 16.4991 14.1338 16.2752 14.3283 16.0909L14.3343 16.0851Z" fill="#171B1C"/>
</svg>
