<svg width="24" height="24" viewBox="0 0 24 24" fill="none" xmlns="http://www.w3.org/2000/svg">
<path d="M16.6165 2.01028C18.0403 2.02265 19.4026 2.59327 20.4094 3.60012C21.4163 4.60699 21.9869 5.96921 21.9993 7.39309C22.0116 8.81694 21.4651 10.1892 20.4758 11.2134L17.6926 13.9956C17.1421 14.5463 16.4798 14.9725 15.7503 15.2446C15.0207 15.5168 14.2408 15.6284 13.4641 15.5728C12.6875 15.5171 11.9316 15.2957 11.2483 14.9224C10.6505 14.5958 10.1205 14.1596 9.68483 13.6382L9.50319 13.4087L9.45729 13.3404C9.24616 12.9888 9.33181 12.5278 9.66725 12.2769C10.0028 12.0259 10.4688 12.0745 10.7464 12.3765L10.8001 12.44L10.927 12.6001C11.2329 12.9662 11.605 13.2722 12.0247 13.5015C12.5044 13.7636 13.0351 13.9195 13.5803 13.9585C14.1255 13.9975 14.6728 13.9191 15.1848 13.728C15.6969 13.537 16.1617 13.2376 16.5481 12.8511L19.3118 10.0874C20.0057 9.36853 20.3898 8.40593 20.3811 7.40676C20.3723 6.40735 19.9716 5.45137 19.2649 4.74465C18.5582 4.03793 17.6022 3.6372 16.6028 3.62844C15.6034 3.61976 14.6401 4.00353 13.9212 4.69778L12.3401 6.27004L12.2776 6.3257C11.9591 6.5838 11.4909 6.56404 11.1956 6.26711C10.8805 5.95019 10.8816 5.43767 11.1985 5.12258L12.7883 3.5425L12.7962 3.53371C13.8203 2.54477 15.1928 1.99793 16.6165 2.01028Z" fill="#171B1C"/>
<path d="M12.7522 9.07766C12.0689 8.70437 11.313 8.48293 10.5364 8.42727C9.75978 8.37165 8.97978 8.48331 8.25026 8.75539C7.61199 8.99349 7.02435 9.34918 6.51882 9.80324L6.30788 10.0044L3.52468 12.7866C2.53556 13.8107 1.98899 15.1832 2.00124 16.607C2.01363 18.0307 2.58432 19.3931 3.59108 20.3999C4.59795 21.4068 5.9602 21.9774 7.38405 21.9898C8.80785 22.0021 10.1802 21.4555 11.2044 20.4663L11.2141 20.4556L12.7942 18.8755C13.1099 18.5595 13.1101 18.0469 12.7942 17.731C12.4783 17.4154 11.9656 17.4154 11.6497 17.731L10.0794 19.3013L9.94167 19.4282C9.23985 20.0425 8.33468 20.3797 7.39772 20.3716C6.39834 20.3628 5.44233 19.9621 4.73561 19.2554C4.029 18.5487 3.62821 17.5926 3.6194 16.5933C3.61137 15.6564 3.94857 14.7511 4.56276 14.0493L4.68874 13.9116L7.45241 11.148C7.83868 10.7617 8.30392 10.4629 8.81569 10.272C9.32764 10.0811 9.87518 10.0026 10.4202 10.0415C10.9654 10.0806 11.4962 10.2365 11.9758 10.4986C12.3957 10.7279 12.7686 11.0337 13.0745 11.3999L13.2014 11.5601L13.2542 11.6236C13.5317 11.9255 13.9978 11.974 14.3333 11.7232C14.6684 11.4722 14.7543 11.0111 14.5432 10.6597L14.4973 10.5904L14.3157 10.3618C13.8801 9.84046 13.35 9.40424 12.7522 9.07766Z" fill="#171B1C"/>
</svg>
