<svg width="24" height="24" viewBox="0 0 24 24" fill="none" xmlns="http://www.w3.org/2000/svg">
<path fill-rule="evenodd" clip-rule="evenodd" d="M9.08366 3.74083C8.90652 3.64649 8.70854 3.59809 8.50784 3.60006L8.5 3.60013L4.8 3.60009C4.48174 3.60009 4.17652 3.72652 3.95147 3.95157C3.72643 4.17661 3.6 4.48183 3.6 4.80009V17.2001C3.6 17.5183 3.72643 17.8236 3.95147 18.0486C4.17652 18.2736 4.48174 18.4001 4.8 18.4001H8.2002C8.64202 18.4001 9.0002 18.7582 9.0002 19.2001C9.0002 19.6419 8.64202 20.0001 8.2002 20.0001H4.8C4.05739 20.0001 3.3452 19.7051 2.8201 19.18C2.295 18.6549 2 17.9427 2 17.2001V4.80009C2 4.05749 2.295 3.3453 2.8201 2.8202C3.3452 2.29509 4.05739 2.0001 4.8 2.0001H8.49641C8.96323 1.99623 9.42364 2.10914 9.83574 2.3286C10.2476 2.54794 10.5981 2.86672 10.8554 3.25595L11.6682 4.46006C11.7774 4.62598 11.9261 4.76221 12.101 4.85645C12.2741 4.94974 12.297 4.96143 12.3353 4.97289C12.364 4.98147 12.441 5.00006 12.67 5.00009H19.2C19.9426 5.00009 20.6548 5.29509 21.1799 5.82019C21.705 6.34529 22 7.05748 22 7.80009V9.30009C22 9.74191 21.6418 10.1001 21.2 10.1001C20.7582 10.1001 20.4 9.74191 20.4 9.30009V7.80009C20.4 7.48183 20.2736 7.17661 20.0485 6.95156C19.8235 6.72652 19.5183 6.60009 19.2 6.60009H12.67C12.3679 6.60006 12.1164 6.5775 11.8764 6.50567C11.6703 6.44395 11.4998 6.35096 11.3814 6.28637L11.342 6.26494C10.9354 6.0458 10.5893 5.72949 10.3346 5.34422L9.5218 4.14008C9.41142 3.97246 9.26081 3.83517 9.08366 3.74083ZM11.6632 9.20019C12.105 9.20019 12.4632 9.55836 12.4632 10.0002V11.9343L12.5341 11.8564C12.5417 11.8481 12.5494 11.84 12.5573 11.832C13.194 11.1897 13.9707 10.7132 14.8243 10.4457C15.6782 10.1782 16.5816 10.1283 17.4584 10.3009C18.335 10.4734 19.1565 10.8627 19.8552 11.4329C20.5538 12.0029 21.1091 12.7369 21.4782 13.5717C21.6569 13.9758 21.4741 14.4482 21.07 14.6269C20.6659 14.8055 20.1935 14.6228 20.0149 14.2187C19.7453 13.6091 19.3427 13.0798 18.8436 12.6725C18.3448 12.2654 17.7636 11.9917 17.1494 11.8708C16.5352 11.7499 15.9025 11.7846 15.3028 11.9725C14.7078 12.1589 14.1598 12.4917 13.705 12.947L13.4743 13.2002H15.4737C15.9156 13.2002 16.2737 13.5584 16.2737 14.0002C16.2737 14.442 15.9156 14.8002 15.4737 14.8002H11.6632C11.2214 14.8002 10.8632 14.442 10.8632 14.0002V10.0002C10.8632 9.55836 11.2214 9.20019 11.6632 9.20019ZM17.3797 16.4001C16.9379 16.4001 16.5797 16.7582 16.5797 17.2001C16.5797 17.6419 16.9379 18.0001 17.3797 18.0001H19.379L19.1483 18.2533C18.6935 18.7085 18.1455 19.0413 17.5505 19.2277C16.9508 19.4157 16.3181 19.4504 15.7039 19.3295C15.0897 19.2086 14.5085 18.9349 14.0097 18.5278C13.5106 18.1205 13.108 17.5911 12.8384 16.9815C12.6598 16.5775 12.1874 16.3947 11.7833 16.5734C11.3792 16.752 11.1964 17.2245 11.3751 17.6286C11.7442 18.4633 12.2995 19.1973 12.9981 19.7674C13.6968 20.3376 14.5183 20.7268 15.3949 20.8994C16.2717 21.0719 17.1751 21.0221 18.029 20.7545C18.8826 20.487 19.6593 20.0105 20.296 19.3682C20.3039 19.3603 20.3116 19.3521 20.3192 19.3438L20.3901 19.266V21.2C20.3901 21.6419 20.7483 22 21.1901 22C21.6319 22 21.9901 21.6419 21.9901 21.2V17.2001C21.9901 16.7582 21.6319 16.4001 21.1901 16.4001H17.3797Z" fill="#171B1C"/>
</svg>
