<svg width="24" height="24" viewBox="0 0 24 24" fill="none" xmlns="http://www.w3.org/2000/svg">
<path fill-rule="evenodd" clip-rule="evenodd" d="M3.95147 4.95147C4.17652 4.72643 4.48174 4.6 4.8 4.6H8.5C8.94536 4.6 9.28972 4.77679 9.53436 5.14376L10.3344 6.34376C10.5654 6.69034 10.8485 7.03128 11.2656 7.26959C11.6867 7.51023 12.1619 7.6 12.7 7.6H19.2C19.6215 7.6 19.7259 7.65133 19.7446 7.66114C19.7545 7.6663 19.7734 7.67727 19.8192 7.72015C19.857 7.75545 19.8843 7.78367 19.923 7.82365C19.9539 7.85556 19.9921 7.89502 20.0485 7.95147C20.2736 8.17652 20.4 8.48174 20.4 8.8V18.2C20.4 18.5183 20.2736 18.8235 20.0485 19.0485C19.8235 19.2736 19.5183 19.4 19.2 19.4H11.3C10.8582 19.4 10.5 19.7582 10.5 20.2C10.5 20.6418 10.8582 21 11.3 21H19.2C19.9426 21 20.6548 20.705 21.1799 20.1799C21.705 19.6548 22 18.9426 22 18.2V8.8C22 8.05739 21.705 7.3452 21.1799 6.8201C21.1621 6.80227 21.1415 6.78078 21.1183 6.75655C20.9859 6.61832 20.7681 6.39083 20.4861 6.24334C20.1241 6.05402 19.709 6 19.2 6H12.7C12.3381 6 12.1633 5.93977 12.0594 5.88041C11.9515 5.81872 11.8346 5.70966 11.6656 5.45624L10.8656 4.25624C10.3103 3.42321 9.45464 3 8.5 3H4.8C4.05739 3 3.3452 3.295 2.8201 3.8201C2.295 4.3452 2 5.05739 2 5.8V12.3C2 12.7418 2.35817 13.1 2.8 13.1C3.24183 13.1 3.6 12.7418 3.6 12.3V5.8C3.6 5.48174 3.72643 5.17652 3.95147 4.95147ZM9.87578 10.2C9.49178 10.2 9.11153 10.2756 8.75676 10.4226C8.40198 10.5695 8.07963 10.7849 7.8081 11.0565L3.79825 15.0683C3.46965 15.3967 3.22801 15.8017 3.09497 16.2466L2.06285 19.3021C2.05927 19.3127 2.05591 19.3234 2.05278 19.3341C1.98753 19.5579 1.98362 19.795 2.04145 20.0208C2.09929 20.2465 2.21676 20.4526 2.38154 20.6174C2.54633 20.7822 2.75239 20.8996 2.97815 20.9575C3.2039 21.0153 3.44105 21.0114 3.66478 20.9461C3.67552 20.943 3.6862 20.9397 3.6968 20.9361L6.75234 19.904C7.19726 19.7709 7.60221 19.5293 7.93062 19.2007L11.9432 15.1921C12.2147 14.9206 12.4304 14.5979 12.5773 14.2432C12.7243 13.8884 12.7999 13.5082 12.7999 13.1241C12.7999 12.7401 12.7243 12.3599 12.5773 12.0051C12.4304 11.6504 12.215 11.328 11.9435 11.0565C11.6719 10.7849 11.3496 10.5695 10.9948 10.4226C10.64 10.2756 10.2598 10.2 9.87578 10.2ZM9.36905 11.9008C9.5297 11.8343 9.70189 11.8 9.87578 11.8C10.0497 11.8 10.2219 11.8342 10.3825 11.9008C10.5432 11.9673 10.6891 12.0649 10.8121 12.1878C10.9351 12.3108 11.0326 12.4568 11.0991 12.6174C11.1657 12.7781 11.1999 12.9503 11.1999 13.1241C11.1999 13.298 11.1657 13.4702 11.0991 13.6309C11.0326 13.7915 10.9351 13.9375 10.8121 14.0604L6.79938 18.0692C6.6568 18.2118 6.48014 18.3167 6.28654 18.3732C6.27588 18.3763 6.26529 18.3797 6.25476 18.3832L3.77965 19.2193L4.61571 16.7442C4.61926 16.7336 4.6226 16.7231 4.62571 16.7124C4.68224 16.5188 4.78666 16.3426 4.92931 16.2L8.93947 12.1878C9.0624 12.0649 9.20845 11.9673 9.36905 11.9008Z" fill="#171B1C"/>
</svg>
