<svg width="24" height="24" viewBox="0 0 24 24" fill="none" xmlns="http://www.w3.org/2000/svg">
<path d="M9.5 3.7002C9.94183 3.7002 10.2998 4.05817 10.2998 4.5C10.2998 4.94183 9.94183 5.2998 9.5 5.2998H6.16699C5.93714 5.2998 5.71624 5.39118 5.55371 5.55371C5.39118 5.71624 5.2998 5.93714 5.2998 6.16699V17.833C5.2998 18.0629 5.39118 18.2838 5.55371 18.4463C5.71624 18.6088 5.93714 18.7002 6.16699 18.7002H9.5C9.94183 18.7002 10.2998 19.0582 10.2998 19.5C10.2998 19.9418 9.94183 20.2998 9.5 20.2998H6.16699C5.51279 20.2998 4.88544 20.0397 4.42285 19.5771C3.96026 19.1146 3.7002 18.4872 3.7002 17.833V6.16699C3.7002 5.51279 3.96026 4.88544 4.42285 4.42285C4.88544 3.96026 5.51279 3.7002 6.16699 3.7002H9.5Z" fill="#171B1C"/>
<path d="M14.7676 7.26758C15.0799 6.95528 15.586 6.95549 15.8984 7.26758L20.0654 11.4336C20.1361 11.5043 20.1898 11.5858 20.2285 11.6719C20.2311 11.6776 20.2349 11.6827 20.2373 11.6885L20.2412 11.6982C20.2621 11.7498 20.2764 11.8033 20.2861 11.8574C20.2945 11.9037 20.2998 11.9513 20.2998 12C20.2998 12.0491 20.2936 12.0969 20.2852 12.1436C20.2793 12.1755 20.2724 12.2071 20.2627 12.2383C20.2524 12.2712 20.2399 12.303 20.2256 12.334C20.1871 12.4177 20.1344 12.4965 20.0654 12.5654L15.8984 16.7324C15.5861 17.0444 15.0799 17.0444 14.7676 16.7324C14.4555 16.42 14.4553 15.9129 14.7676 15.6006L17.5664 12.7998H9.5C9.05817 12.7998 8.7002 12.4418 8.7002 12C8.7002 11.5582 9.05817 11.2002 9.5 11.2002H17.5684L14.7676 8.39844C14.4555 8.08599 14.4553 7.57989 14.7676 7.26758Z" fill="#171B1C"/>
</svg>
