<svg width="24" height="24" viewBox="0 0 24 24" fill="none" xmlns="http://www.w3.org/2000/svg">
<path fill-rule="evenodd" clip-rule="evenodd" d="M6.60016 2C5.90483 2 5.24161 2.28251 4.7554 2.77949C4.26978 3.27588 4 3.94546 4 4.64006V19.3605C4 20.0551 4.26978 20.7247 4.7554 21.2211C5.24161 21.7181 5.90483 22.0006 6.60016 22.0006H17.4011C18.0965 22.0006 18.7597 21.7181 19.2459 21.2211C19.7315 20.7247 20.0013 20.0551 20.0013 19.3605V8.35269C20.0017 8.3419 20.002 8.33107 20.002 8.32018C20.002 8.30929 20.0017 8.29845 20.0013 8.28767V7.40015C20.0013 7.19101 19.9194 6.99019 19.7732 6.8407L15.2727 2.24055C15.1222 2.08671 14.9161 2 14.7009 2H6.60016ZM13.0015 3.6H6.60016C6.34063 3.6 6.08809 3.70522 5.89911 3.89839C5.70954 4.09216 5.6 4.35863 5.6 4.64006V19.3605C5.6 19.642 5.70954 19.9084 5.89911 20.1022C6.08809 20.2954 6.34063 20.4006 6.60016 20.4006H17.4011C17.6607 20.4006 17.9132 20.2954 18.1022 20.1022C18.2918 19.9084 18.4013 19.642 18.4013 19.3605V9.12018H13.8015C13.3596 9.12018 13.0015 8.76201 13.0015 8.32018V3.6ZM18.1996 7.52018H14.6015V3.84234L18.1996 7.52018ZM8.2998 12C7.85798 12 7.4998 12.3582 7.4998 12.8C7.4998 13.2418 7.85798 13.6 8.2998 13.6H15.6998C16.1416 13.6 16.4998 13.2418 16.4998 12.8C16.4998 12.3582 16.1416 12 15.6998 12H8.2998ZM7.4998 16.8C7.4998 16.3582 7.85798 16 8.2998 16H15.6998C16.1416 16 16.4998 16.3582 16.4998 16.8C16.4998 17.2418 16.1416 17.6 15.6998 17.6H8.2998C7.85798 17.6 7.4998 17.2418 7.4998 16.8Z" fill="#171B1C"/>
</svg>
