<svg width="24" height="24" viewBox="0 0 24 24" fill="none" xmlns="http://www.w3.org/2000/svg">
<path d="M15.3842 19.1575C15.8038 18.9594 16.3045 19.1393 16.5029 19.5589C16.7014 19.9787 16.5224 20.4802 16.1026 20.6788C13.8055 21.7651 11.1708 21.896 8.77715 21.0432C8.33995 20.8872 8.11129 20.4058 8.26703 19.9684C8.42292 19.5312 8.90437 19.3037 9.34168 19.4593C11.316 20.1626 13.4895 20.0535 15.3842 19.1575Z" fill="#171B1C"/>
<path d="M3.63176 14.7323C4.05743 14.5473 4.55291 14.7421 4.73823 15.1675C5.1828 16.1904 5.83901 17.1081 6.66275 17.86C7.00572 18.1731 7.03011 18.7057 6.71715 19.0487C6.40409 19.3917 5.87154 19.4151 5.52857 19.1021C4.53018 18.1907 3.73548 17.0786 3.19656 15.8389C3.01161 15.4131 3.20626 14.9176 3.63176 14.7323Z" fill="#171B1C"/>
<path d="M11.9991 2.39999C13.8615 2.39968 15.684 2.94092 17.244 3.95821C18.8038 4.97544 20.0342 6.42468 20.7851 8.12886C21.5359 9.83324 21.775 11.7202 21.4728 13.558C21.1705 15.3956 20.3403 17.106 19.0833 18.48C18.77 18.8222 18.2383 18.8463 17.8958 18.5334C17.5533 18.22 17.5293 17.6874 17.8424 17.3447C18.8791 16.2114 19.5638 14.8006 19.8131 13.2849C20.0624 11.7691 19.8658 10.2131 19.2465 8.80737C18.6272 7.40155 17.6121 6.20566 16.3254 5.36656C15.0386 4.52752 13.5352 4.08111 11.9991 4.08139C11.5349 4.08136 11.1588 3.7048 11.1584 3.24069C11.1584 2.77637 11.5348 2.40011 11.9991 2.39999Z" fill="#171B1C"/>
<path d="M11.9991 5.90342C12.4634 5.90342 12.8397 6.2797 12.8397 6.74412V11.4793L15.8789 12.9996C16.294 13.2073 16.4622 13.7124 16.2546 14.1277C16.0469 14.5431 15.5419 14.7111 15.1265 14.5034L11.6234 12.7522C11.3386 12.6097 11.1584 12.3183 11.1584 11.9998V6.74412C11.1584 6.27972 11.5347 5.90345 11.9991 5.90342Z" fill="#171B1C"/>
<path d="M2.8794 8.99932C3.02464 8.55837 3.50072 8.3184 3.94173 8.46349C4.38239 8.60879 4.62232 9.08401 4.47752 9.52489C4.22527 10.2918 4.09146 11.093 4.08133 11.9002C4.07553 12.3644 3.69454 12.7361 3.23043 12.7306C2.76617 12.7248 2.39439 12.3439 2.40007 11.8797C2.41232 10.9009 2.57357 9.92914 2.8794 8.99932Z" fill="#171B1C"/>
<path d="M5.78517 4.68292C6.13912 4.38228 6.67006 4.42543 6.97067 4.77941C7.27084 5.13324 7.22763 5.66338 6.87419 5.96398C6.62535 6.17535 6.38889 6.40204 6.16802 6.64249C5.85395 6.98428 5.32242 7.00765 4.98046 6.69382C4.63852 6.37968 4.61615 5.84716 4.93017 5.50514C5.19787 5.2137 5.48357 4.93911 5.78517 4.68292Z" fill="#171B1C"/>
</svg>
