<svg width="24" height="24" viewBox="0 0 24 24" fill="none" xmlns="http://www.w3.org/2000/svg">
<path d="M2.7998 2C3.24157 2 3.5995 2.35807 3.59961 2.7998V20.2002C3.59982 20.3105 3.68948 20.3994 3.7998 20.3994H21.2002L21.2812 20.4043C21.6847 20.4451 21.9999 20.786 22 21.2002C21.9998 21.6144 21.6847 21.9553 21.2812 21.9961L21.2002 22H3.7998C2.80582 22 2.00021 21.1941 2 20.2002V2.7998C2.00011 2.35807 2.35804 2 2.7998 2ZM12.5 7.84961C13.1627 7.84961 13.7002 8.38706 13.7002 9.0498V17.8184C13.7001 18.481 13.1627 19.0186 12.5 19.0186C11.8373 19.0186 11.2999 18.481 11.2998 17.8184V9.0498C11.2998 8.38706 11.8373 7.84961 12.5 7.84961ZM7.2002 3.96484C7.86294 3.96484 8.40039 4.5023 8.40039 5.16504V17.8184C8.40012 18.4809 7.86277 19.0176 7.2002 19.0176C6.53762 19.0176 6.00027 18.4809 6 17.8184V5.16504C6 4.5023 6.53745 3.96484 7.2002 3.96484ZM17.7998 12.7041C18.4624 12.7041 18.9998 13.2417 19 13.9043V17.8174C19 18.4801 18.4625 19.0176 17.7998 19.0176C17.1371 19.0176 16.5996 18.4801 16.5996 17.8174V13.9043C16.5998 13.2417 17.1372 12.7041 17.7998 12.7041Z" fill="#171B1C"/>
</svg>
