<svg width="24" height="24" viewBox="0 0 24 24" fill="none" xmlns="http://www.w3.org/2000/svg">
<path fill-rule="evenodd" clip-rule="evenodd" d="M10.0665 4.88006V17.218C10.194 17.2589 10.3186 17.3096 10.4391 17.3699L13.9331 19.1201V6.78218C13.8056 6.74127 13.681 6.69052 13.5605 6.63021L10.0665 4.88006ZM15.5331 6.78218V19.1201L19.3376 17.214C19.356 17.2048 19.3719 17.1905 19.3829 17.1725C19.3941 17.1545 19.3998 17.134 19.3998 17.1128V5.06093M19.3468 4.96484C19.3627 4.97476 19.3761 4.98876 19.3855 5.00572L19.3468 4.96484ZM15.5331 6.78218C15.6607 6.74127 15.7853 6.69052 15.9058 6.63021L19.2395 4.95991C19.2564 4.95144 19.275 4.94751 19.2937 4.94835M8.46647 17.218V4.8801L4.66199 6.78616C4.64363 6.79536 4.62778 6.80969 4.61679 6.82749C4.60577 6.84534 4.59984 6.86604 4.5998 6.88721V18.9369L4.5998 18.9389C4.59975 18.9584 4.6047 18.9775 4.61406 18.9944C4.62338 19.0113 4.63676 19.0253 4.65288 19.0353M8.46647 17.218C8.33894 17.2589 8.21435 17.3096 8.09386 17.3699L4.75997 19.0403C4.74332 19.0487 4.72473 19.0526 4.70588 19.0518C4.68722 19.0509 4.66897 19.0453 4.65288 19.0353M8.09382 3.27723C8.45787 3.09498 8.85934 3.00006 9.26647 3.00006C9.6736 3.00006 10.0751 3.09498 10.4391 3.27723L14.2767 5.19945C14.4185 5.27037 14.5749 5.30735 14.7331 5.30735C14.8914 5.30735 15.0476 5.27048 15.1893 5.19958L18.5231 3.52927C18.7842 3.39857 19.0747 3.33672 19.3666 3.35001C19.6585 3.36333 19.9418 3.45124 20.1899 3.60505C20.4382 3.75903 20.6428 3.97403 20.7845 4.22915C20.9261 4.48436 21.0003 4.77164 20.9998 5.06373L20.1998 5.06233H20.9998V5.06373V17.1133C20.9996 17.4311 20.9111 17.7428 20.7444 18.013C20.5775 18.2832 20.3385 18.5022 20.0543 18.6445L15.906 20.7228C15.542 20.905 15.1402 21.0001 14.7331 21.0001C14.3261 21.0001 13.9246 20.9052 13.5605 20.723L9.72292 18.8007C9.58114 18.7297 9.42487 18.6928 9.26647 18.6928C9.10817 18.6928 8.95201 18.7297 8.8103 18.8006L5.47654 20.4709C5.21505 20.6018 4.92439 20.6635 4.6326 20.6501C4.34063 20.6367 4.05706 20.5487 3.80886 20.3946C3.56068 20.2405 3.35609 20.0254 3.21451 19.7699C3.07316 19.5147 2.99928 19.2278 2.9998 18.9361L2.99981 18.935L3.7998 18.9369L2.9998 18.9361V6.8869C2.99998 6.56919 3.08843 6.25731 3.25535 5.98696C3.42227 5.7166 3.66115 5.49795 3.9453 5.35565L8.09382 3.27723ZM19.2937 4.94835C19.3122 4.94921 19.3305 4.9548 19.3468 4.96484L19.2937 4.94835Z" fill="#171B1C"/>
</svg>
