<svg width="24" height="24" viewBox="0 0 24 24" fill="none" xmlns="http://www.w3.org/2000/svg">
<path d="M21 13.8118C21 14.4552 20.9448 14.9954 20.8345 15.4325C20.7242 15.8695 20.5832 16.264 20.4116 16.6161C20.1788 16.956 19.8662 17.2716 19.474 17.563C19.094 17.8543 18.5792 18 17.9295 18C17.525 18 17.1328 17.9332 16.7528 17.7997C16.3851 17.6662 15.9929 17.4234 15.5761 17.0713C15.2819 16.78 14.9694 16.4158 14.6384 15.9788C14.3075 15.5417 13.9949 15.0926 13.7007 14.6313L12.046 11.9545C12.046 11.8938 12.0276 11.8574 11.9908 11.8452C11.954 11.8209 11.9356 11.7785 11.9356 11.7178C11.9356 11.7785 11.9173 11.8149 11.8805 11.827C11.8437 11.827 11.8253 11.827 11.8253 11.827L11.237 12.8832C10.6486 13.9272 10.238 14.6434 10.0051 15.0319C9.78447 15.4203 9.52707 15.7906 9.23289 16.1426C8.75485 16.8467 8.28907 17.3323 7.83555 17.5994C7.39428 17.8665 6.87947 18 6.29111 18C5.64147 18 5.08376 17.8725 4.61798 17.6176C4.16445 17.3505 3.82125 17.0167 3.58836 16.6161C3.40449 16.264 3.25741 15.8634 3.14709 15.4143C3.04903 14.953 3 14.4552 3 13.9211C3 13.4355 3.02451 12.9439 3.07354 12.4461C3.13483 11.9605 3.22676 11.4871 3.34934 11.0258C3.48417 10.5524 3.64351 10.0971 3.82737 9.66009C4.02349 9.2352 4.25638 8.8346 4.52605 8.45827C4.93054 7.75417 5.44535 7.18968 6.07048 6.7648C6.70787 6.33991 7.40654 6.12747 8.1665 6.12747C8.58325 6.12747 9 6.19423 9.41675 6.32777C9.84576 6.4613 10.2932 6.7041 10.7589 7.05615C10.9918 7.2868 11.2247 7.52959 11.4576 7.78452C11.7028 8.03945 11.9418 8.33687 12.1747 8.67678C12.4076 8.38543 12.6466 8.09408 12.8917 7.80273C13.1369 7.51138 13.4065 7.22003 13.7007 6.92868C14.0562 6.63733 14.4116 6.41275 14.7671 6.25493C15.1348 6.08498 15.5271 6 15.9438 6C16.5812 6 17.2063 6.19423 17.8192 6.5827C18.4443 6.97117 18.9959 7.51745 19.474 8.22155C19.7314 8.62215 19.9581 9.04704 20.1542 9.49621C20.3504 9.94537 20.5097 10.4067 20.6323 10.8801C20.7549 11.3536 20.8468 11.8391 20.9081 12.3369C20.9694 12.8225 21 13.3141 21 13.8118ZM10.2809 11.481L11.1083 10.2064C10.9367 9.96358 10.7651 9.739 10.5935 9.53263C10.4341 9.31411 10.2932 9.15023 10.1706 9.04097C9.93769 8.79818 9.6619 8.56146 9.34321 8.3308C9.03677 8.10015 8.64454 7.98483 8.1665 7.98483C7.762 7.98483 7.40041 8.11836 7.08172 8.38543C6.76302 8.64036 6.45659 8.9742 6.16241 9.38695C5.75792 9.96965 5.43922 10.6677 5.20633 11.481C4.9857 12.2944 4.87538 13.1077 4.87538 13.9211C4.87538 14.2731 4.90603 14.5948 4.96731 14.8862C5.0286 15.1654 5.1144 15.39 5.22472 15.5599C5.34729 15.7299 5.50664 15.8695 5.70276 15.9788C5.91113 16.088 6.10725 16.1426 6.29111 16.1426C6.524 16.1426 6.77528 16.0698 7.04494 15.9241C7.32686 15.7785 7.70072 15.3839 8.1665 14.7405C8.52196 14.2185 8.88968 13.648 9.26966 13.0288C9.64964 12.4097 9.98672 11.8938 10.2809 11.481ZM16.6425 15.3232C16.8754 15.6146 17.0838 15.8088 17.2676 15.9059C17.4637 15.9909 17.6476 16.0334 17.8192 16.0334C18.0521 16.0334 18.2543 15.9788 18.4259 15.8695C18.6098 15.7602 18.763 15.6206 18.8856 15.4507C18.8856 15.4507 18.904 15.4264 18.9408 15.3778C18.9775 15.3293 18.9959 15.2747 18.9959 15.214C19.1185 15.0319 19.1859 14.8316 19.1982 14.6131C19.2227 14.3945 19.2349 14.1639 19.2349 13.9211C19.2349 13.1077 19.1185 12.2701 18.8856 11.4082C18.665 10.5463 18.3463 9.79363 17.9295 9.15023C17.6353 8.68892 17.2921 8.32473 16.8999 8.05766C16.5077 7.77845 16.1093 7.63885 15.7048 7.63885C15.288 7.63885 14.8713 7.8088 14.4545 8.14871C14.0501 8.48862 13.6394 8.98027 13.2227 9.62367C13.2227 9.62367 13.2043 9.64795 13.1675 9.69651C13.1307 9.74507 13.1124 9.79363 13.1124 9.84219C13.2349 10.085 13.3759 10.3278 13.5352 10.5706C13.7068 10.8134 13.8784 11.0804 14.0501 11.3718L14.5281 12.0637C15.0552 12.9985 15.4964 13.7208 15.8519 14.2307C16.2074 14.7284 16.4709 15.0926 16.6425 15.3232Z" fill="#171B1C"/>
</svg>
