<svg width="24" height="24" viewBox="0 0 24 24" fill="none" xmlns="http://www.w3.org/2000/svg">
<path d="M11.4297 16.1611C11.4457 16.1773 11.4624 16.1929 11.4798 16.2078C11.5401 16.2595 11.6062 16.3008 11.6759 16.3316C11.7743 16.3753 11.8831 16.3997 11.9976 16.4L12 16.4C12.0025 16.4 12.0049 16.4 12.0074 16.4C12.1071 16.3991 12.2025 16.3799 12.2904 16.3457C12.3907 16.3067 12.4847 16.2467 12.5657 16.1657L16.1657 12.5657C16.4781 12.2533 16.4781 11.7467 16.1657 11.4343C15.8533 11.1219 15.3468 11.1219 15.0343 11.4343L12.8 13.6687V8.39999C12.8 7.95817 12.4418 7.59999 12 7.59999C11.5582 7.59999 11.2 7.95817 11.2 8.39999V13.6686L8.96571 11.4343C8.65329 11.1219 8.14676 11.1219 7.83434 11.4343C7.52192 11.7467 7.52192 12.2533 7.83434 12.5657L11.4297 16.1611Z" fill="#171B1C"/>
<path fill-rule="evenodd" clip-rule="evenodd" d="M3 12C3 7.02944 7.02944 3 12 3C16.9706 3 21 7.02944 21 12C21 16.9706 16.9706 21 12 21C7.02944 21 3 16.9706 3 12ZM12 4.6C7.91309 4.6 4.6 7.91309 4.6 12C4.6 16.0869 7.91309 19.4 12 19.4C16.0869 19.4 19.4 16.0869 19.4 12C19.4 7.91309 16.0869 4.6 12 4.6Z" fill="#171B1C"/>
</svg>
