<svg width="24" height="24" viewBox="0 0 24 24" fill="none" xmlns="http://www.w3.org/2000/svg">
<path d="M12.5703 7.83894C12.5543 7.82266 12.5376 7.80707 12.5202 7.7922C12.4599 7.7405 12.3938 7.69923 12.3241 7.66839C12.2257 7.62473 12.1169 7.60034 12.0024 7.60001L12 7.60001C11.9975 7.60001 11.9951 7.60002 11.9926 7.60004C11.8929 7.60094 11.7975 7.62011 11.7096 7.65435C11.6093 7.69335 11.5153 7.75334 11.4343 7.83432L7.83429 11.4343C7.52187 11.7467 7.52187 12.2533 7.83429 12.5657C8.14671 12.8781 8.65324 12.8781 8.96566 12.5657L11.2 10.3313V15.6C11.2 16.0418 11.5582 16.4 12 16.4C12.4418 16.4 12.8 16.0418 12.8 15.6V10.3314L15.0343 12.5657C15.3467 12.8781 15.8532 12.8781 16.1657 12.5657C16.4781 12.2533 16.4781 11.7467 16.1657 11.4343L12.5703 7.83894Z" fill="#171B1C"/>
<path fill-rule="evenodd" clip-rule="evenodd" d="M21 12C21 16.9706 16.9706 21 12 21C7.02944 21 3 16.9706 3 12C3 7.02944 7.02944 3 12 3C16.9706 3 21 7.02944 21 12ZM12 19.4C16.0869 19.4 19.4 16.0869 19.4 12C19.4 7.91309 16.0869 4.6 12 4.6C7.91309 4.6 4.6 7.91309 4.6 12C4.6 16.0869 7.91309 19.4 12 19.4Z" fill="#171B1C"/>
</svg>
