<svg width="24" height="24" viewBox="0 0 24 24" fill="none" xmlns="http://www.w3.org/2000/svg">
<path fill-rule="evenodd" clip-rule="evenodd" d="M21 4.8C21 3.80589 20.1941 3 19.2 3H4.8C3.80589 3 3 3.80589 3 4.8V5.39995C3 5.84178 3.35817 6.19995 3.8 6.19995C4.24183 6.19995 4.6 5.84178 4.6 5.39995V4.8C4.6 4.68954 4.68954 4.6 4.8 4.6H19.2C19.3105 4.6 19.4 4.68954 19.4 4.8V19.2C19.4 19.3105 19.3105 19.4 19.2 19.4H18.0998C17.658 19.4 17.2998 19.7582 17.2998 20.2C17.2998 20.6418 17.658 21 18.0998 21H19.2C20.1941 21 21 20.1941 21 19.2V4.8ZM10.6 13.2C10.6 12.2058 9.79411 11.4 8.8 11.4H4.8C3.80588 11.4 3 12.2058 3 13.2V19.2001C3 20.1942 3.80589 21 4.8 21H8.8C9.79411 21 10.6 20.1942 10.6 19.2001V13.2ZM8.8 13C8.91045 13 9 13.0895 9 13.2V19.2001C9 19.3105 8.91045 19.4001 8.8 19.4001H4.8C4.68954 19.4001 4.6 19.3105 4.6 19.2001V13.2C4.6 13.0895 4.68954 13 4.8 13H8.8ZM14.0002 7.19995C14.9943 7.19995 15.8002 8.00584 15.8002 8.99995V19.2C15.8002 20.1941 14.9943 21 14.0002 21H12.9002C12.4584 21 12.1002 20.6418 12.1002 20.2C12.1002 19.7582 12.4584 19.4 12.9002 19.4H14.0002C14.1106 19.4 14.2002 19.3105 14.2002 19.2V8.99995C14.2002 8.8895 14.1106 8.79995 14.0002 8.79995H4.7998C4.68934 8.79995 4.5998 8.8895 4.5998 8.99995V9.59995C4.5998 10.0418 4.24163 10.4 3.7998 10.4C3.35797 10.4 2.9998 10.0418 2.9998 9.59995V8.99995C2.9998 8.00584 3.80569 7.19995 4.7998 7.19995H14.0002Z" fill="#171B1C"/>
</svg>
