<svg width="24" height="24" viewBox="0 0 24 24" fill="none" xmlns="http://www.w3.org/2000/svg">
<path fill-rule="evenodd" clip-rule="evenodd" d="M2.2432 3.24341C2.56597 2.92064 3.09023 2.92083 3.41313 3.24341L20.7598 20.5901C21.0824 20.9129 21.0824 21.4362 20.7598 21.759C20.4369 22.0817 19.9127 22.0818 19.5899 21.759L17.8291 19.9983H5.28617C4.57629 19.9983 4.00053 19.423 4.00004 18.7131V6.16919L2.2432 4.41333C1.92068 4.0905 1.92061 3.5662 2.2432 3.24341ZM5.59965 15.8557V18.3987H16.2295L12.8428 15.012L10.4385 13.7815L5.59965 15.8557ZM5.59965 14.1145L10.0411 12.2112L5.59965 7.7688V14.1145Z" fill="#171B1C"/>
<path d="M18.7129 4.00025C19.423 4.00053 19.9981 4.57637 19.9981 5.28638V17.1106L18.3985 15.511V5.59986H8.48637L6.88676 4.00025H18.7129Z" fill="#171B1C"/>
<path fill-rule="evenodd" clip-rule="evenodd" d="M15.1501 6.60993C16.4862 6.61036 17.57 7.69368 17.57 9.02986C17.5696 10.3657 16.486 11.4494 15.1501 11.4498C13.8139 11.4498 12.7306 10.366 12.7302 9.02986C12.7302 7.69342 13.8136 6.60993 15.1501 6.60993ZM15.1501 8.20954C14.6973 8.20954 14.3298 8.57706 14.3298 9.02986C14.3302 9.48231 14.6976 9.84919 15.1501 9.84919C15.6023 9.84877 15.9691 9.48205 15.9695 9.02986C15.9695 8.57732 15.6026 8.20996 15.1501 8.20954Z" fill="#171B1C"/>
</svg>
