<svg width="24" height="24" viewBox="0 0 24 24" fill="none" xmlns="http://www.w3.org/2000/svg">
<path fill-rule="evenodd" clip-rule="evenodd" d="M15.4219 3.70502C15.8607 3.75394 16.1774 4.14904 16.1289 4.58783L15.6719 8.70014H18.666C19.1078 8.70014 19.4668 9.05814 19.4668 9.49994C19.4668 9.94177 19.1078 10.2997 18.666 10.2997H15.4941L15.1162 13.7001H18.666C19.1078 13.7001 19.4668 14.0581 19.4668 14.4999C19.4668 14.9418 19.1078 15.2997 18.666 15.2997H14.9385L14.4619 19.5878C14.4131 20.0267 14.0179 20.3432 13.5791 20.2949C13.1401 20.2461 12.8235 19.851 12.8721 19.4121L13.3291 15.2997H9.93848L9.46191 19.5878C9.41315 20.0267 9.01793 20.3432 8.5791 20.2949C8.14012 20.2461 7.82353 19.851 7.87207 19.4121L8.3291 15.2997H5.33301C4.89133 15.2996 4.5332 14.9417 4.5332 14.4999C4.53324 14.0583 4.89136 13.7003 5.33301 13.7001H8.50684L8.88379 10.2997H5.33301C4.89133 10.2996 4.5332 9.94166 4.5332 9.49994C4.53324 9.05826 4.89136 8.70032 5.33301 8.70014H9.06152L9.53809 4.41205C9.58693 3.97302 9.98283 3.6563 10.4219 3.70502C10.8606 3.75395 11.1773 4.14904 11.1289 4.58783L10.6719 8.70014H14.0615L14.5381 4.41205C14.5869 3.97302 14.9828 3.6563 15.4219 3.70502ZM10.4941 10.2997L10.1162 13.7001H13.5068L13.8838 10.2997H10.4941Z" fill="#171B1C"/>
</svg>
