<svg width="24" height="24" viewBox="0 0 24 24" fill="none" xmlns="http://www.w3.org/2000/svg">
<path d="M7.90945 16.0009V14.6713L11.016 11.7949C11.2802 11.5392 11.5018 11.3091 11.6808 11.1046C11.8626 10.9 12.0004 10.6998 12.0941 10.5037C12.1879 10.3049 12.2347 10.0904 12.2347 9.86026C12.2347 9.60458 12.1765 9.38441 12.06 9.19975C11.9435 9.01225 11.7844 8.86879 11.5827 8.76935C11.381 8.66708 11.1523 8.61594 10.8967 8.61594C10.6296 8.61594 10.3967 8.66992 10.1978 8.77788C9.99893 8.88583 9.84553 9.04066 9.73757 9.24236C9.62962 9.44407 9.57564 9.68413 9.57564 9.96253H7.82422C7.82422 9.39151 7.95348 8.89577 8.212 8.47532C8.47053 8.05487 8.83274 7.72958 9.29865 7.49947C9.76456 7.26935 10.3015 7.1543 10.9094 7.1543C11.5344 7.1543 12.0785 7.26509 12.5415 7.48668C13.0075 7.70543 13.3697 8.00941 13.6282 8.39861C13.8867 8.78782 14.016 9.23384 14.016 9.73668C14.016 10.0662 13.9506 10.3915 13.82 10.7125C13.6921 11.0336 13.4634 11.3901 13.1339 11.7821C12.8043 12.1713 12.3398 12.6387 11.7404 13.1841L10.4663 14.4327V14.4924H14.131V16.0009H7.90945Z" fill="#171B1C"/>
<path d="M18.6939 16.1202C18.0575 16.1202 17.4908 16.0108 16.9936 15.7921C16.4993 15.5705 16.1087 15.2665 15.8217 14.8801C15.5376 14.4909 15.3913 14.0421 15.3828 13.5336H17.2408C17.2521 13.7466 17.3217 13.9341 17.4496 14.0961C17.5803 14.2551 17.7536 14.3787 17.9695 14.4668C18.1854 14.5549 18.4283 14.5989 18.6982 14.5989C18.9794 14.5989 19.228 14.5492 19.4439 14.4498C19.6598 14.3503 19.8288 14.2125 19.951 14.0364C20.0732 13.8603 20.1342 13.6571 20.1342 13.427C20.1342 13.1941 20.0689 12.9881 19.9382 12.8091C19.8104 12.6273 19.6257 12.4853 19.3842 12.383C19.1456 12.2807 18.8615 12.2296 18.532 12.2296H17.718V10.8745H18.532C18.8104 10.8745 19.0561 10.8262 19.2692 10.7296C19.4851 10.633 19.6527 10.4995 19.772 10.329C19.8913 10.1557 19.951 9.95401 19.951 9.7239C19.951 9.50515 19.8984 9.31339 19.7933 9.14861C19.6911 8.981 19.5462 8.85032 19.3587 8.75657C19.174 8.66282 18.9581 8.61594 18.7109 8.61594C18.4609 8.61594 18.2322 8.6614 18.0249 8.75231C17.8175 8.84038 17.6513 8.9668 17.5263 9.13157C17.4013 9.29634 17.3345 9.48952 17.326 9.71111H15.5575C15.5661 9.20827 15.7095 8.76509 15.9879 8.38157C16.2663 7.99805 16.6413 7.69833 17.1129 7.48242C17.5874 7.26367 18.1229 7.1543 18.7195 7.1543C19.3217 7.1543 19.8487 7.26367 20.3004 7.48242C20.7521 7.70117 21.103 7.99663 21.353 8.36878C21.6058 8.7381 21.7308 9.15288 21.728 9.6131C21.7308 10.1017 21.5788 10.5094 21.272 10.8361C20.968 11.1628 20.5717 11.3702 20.0831 11.4583V11.5265C20.7251 11.6088 21.2138 11.8319 21.549 12.1955C21.8871 12.5563 22.0547 13.008 22.0518 13.5506C22.0547 14.0478 21.9112 14.4895 21.6214 14.8759C21.3345 15.2623 20.9382 15.5662 20.4325 15.7878C19.9268 16.0094 19.3473 16.1202 18.6939 16.1202Z" fill="#171B1C"/>
<path d="M5.83434 16.0007V7.27344H4.09996L1.93945 8.64134V10.2777L3.93803 9.02486H3.98917V16.0007H5.83434Z" fill="#171B1C"/>
</svg>
