<svg width="24" height="24" viewBox="0 0 24 24" fill="none" xmlns="http://www.w3.org/2000/svg">
<path d="M12.1129 10.8262C13.4937 10.8262 14.6129 9.48303 14.6129 7.82617C14.6129 6.16932 13.4937 4.82617 12.1129 4.82617C10.7322 4.82617 9.61294 6.16932 9.61294 7.82617C9.61294 9.48303 10.7322 10.8262 12.1129 10.8262Z" fill="#171B1C"/>
<path d="M15.5074 19.1737C15.9022 19.1737 16.2883 19.0568 16.6168 18.8378L16.7223 18.7675C17.2787 18.3965 17.6129 17.7721 17.6129 17.1033V15.6737C17.6129 14.5071 16.5129 12.1737 12.1129 12.1737C7.71294 12.1737 6.61294 14.5071 6.61294 15.6737V17.1033C6.61294 17.7721 6.94714 18.3965 7.50354 18.7675L7.60909 18.8378C7.93763 19.0568 8.32364 19.1737 8.71849 19.1737H15.5074Z" fill="#171B1C"/>
<path d="M18.7748 17.2992C18.7748 17.6156 19.0042 17.9186 19.3207 17.9186H20.3578C20.6482 17.9186 20.9322 17.8326 21.1738 17.6715L21.2515 17.6198C21.6608 17.3469 21.9066 16.8876 21.9066 16.3957V15.3441C21.9066 14.4859 21.0975 12.7696 17.861 12.7696C17.6566 12.7696 17.5692 13.0278 17.7107 13.1752C18.5023 14.0003 18.7748 14.9284 18.7748 15.5675V17.2992Z" fill="#171B1C"/>
<path d="M19.6999 9.5717C19.6999 10.7904 18.8766 11.7784 17.861 11.7784C16.8454 11.7784 16.022 10.7904 16.022 9.5717C16.022 8.35297 16.8454 7.36499 17.861 7.36499C18.8766 7.36499 19.6999 8.35297 19.6999 9.5717Z" fill="#171B1C"/>
<path d="M3.64216 17.9186H4.67929C4.99572 17.9186 5.22516 17.6156 5.22516 17.2992V15.5675C5.22516 14.9284 5.49769 14.0003 6.28927 13.1752C6.43075 13.0278 6.34336 12.7696 6.13901 12.7696C2.90251 12.7696 2.09338 14.4859 2.09338 15.3441V16.3957C2.09338 16.8876 2.33921 17.3469 2.74848 17.6198L2.82612 17.6715C3.06778 17.8326 3.35172 17.9186 3.64216 17.9186Z" fill="#171B1C"/>
<path d="M6.13901 11.7784C5.1234 11.7784 4.30009 10.7904 4.30009 9.5717C4.30009 8.35297 5.1234 7.36499 6.13901 7.36499C7.15462 7.36499 7.97793 8.35297 7.97793 9.5717C7.97793 10.7904 7.15462 11.7784 6.13901 11.7784Z" fill="#171B1C"/>
</svg>
