<svg width="24" height="24" viewBox="0 0 24 24" fill="none" xmlns="http://www.w3.org/2000/svg">
<path d="M1.9104 6.2981C1.9104 4.08896 3.70126 2.2981 5.9104 2.2981H13.5115C15.7206 2.2981 17.5115 4.08896 17.5115 6.2981V10.2981C17.5115 12.5072 15.7206 14.2981 13.5115 14.2981H10.1554L6.54542 17.5471C6.22366 17.8366 5.71094 17.6083 5.71094 17.1754V14.2932C3.59446 14.1893 1.9104 12.4404 1.9104 10.2981V6.2981Z" fill="#171B1C"/>
<path d="M10.1325 16.9864C9.60768 17.4587 9.78233 18.2979 10.4884 18.2979H13.9078L17.5463 21.5726C17.868 21.8621 18.3807 21.6338 18.3807 21.2009V18.2875C20.4539 18.1383 22.0895 16.4091 22.0895 14.2979V10.2979C22.0895 8.8548 21.3253 7.59017 20.1795 6.88667C19.6294 6.54892 19.0154 7.02481 19.0154 7.67032V10.6835C19.0154 13.3185 16.8793 15.4546 14.2443 15.4546H12.0263C11.9028 15.4546 11.7836 15.5004 11.6918 15.583L10.1325 16.9864Z" fill="#171B1C"/>
</svg>
