<svg width="24" height="24" viewBox="0 0 24 24" fill="none" xmlns="http://www.w3.org/2000/svg">
<path fill-rule="evenodd" clip-rule="evenodd" d="M9.50004 11.7354L4.3249 5.36594C3.79392 4.71243 4.25898 3.73535 5.10101 3.73535H18.8991C19.7411 3.73535 20.2062 4.71243 19.6752 5.36594L14.5 11.7354H14.5054V19.1221L13.7789 19.9323C13.3904 20.3657 12.7153 20.3769 12.3125 19.9568L10.0538 17.6008C9.69686 17.2284 9.49756 16.7325 9.49756 16.2167V11.7354H9.50004ZM17.8486 5.23535L14.4883 9.37103C13.957 9.21165 13.2942 8.87063 12.5 8.23528C10.654 6.75847 8.66599 6.87195 7.71551 7.1603L6.1515 5.23535H17.8486Z" fill="#171B1C"/>
</svg>
