<svg width="24" height="24" viewBox="0 0 24 24" fill="none" xmlns="http://www.w3.org/2000/svg">
<path fill-rule="evenodd" clip-rule="evenodd" d="M8.22696 5.92261C8.22696 3.7972 9.94995 2.07422 12.0754 2.07422C14.2008 2.07422 15.9237 3.7972 15.9237 5.92261H19.0754C20.1799 5.92261 21.0754 6.81804 21.0754 7.92261V15.9226C21.0754 16.4749 20.6276 16.9226 20.0754 16.9226H4.07535C3.52307 16.9226 3.07535 16.4749 3.07535 15.9226V7.92261C3.07535 6.81804 3.97078 5.92261 5.07535 5.92261H8.22696ZM9.72696 5.92261H14.4237C14.4237 4.62563 13.3723 3.57422 12.0754 3.57422C10.7784 3.57422 9.72696 4.62563 9.72696 5.92261Z" fill="#171B1C"/>
<path d="M2.95279 19.2813C3.02311 18.7886 3.44506 18.4226 3.94276 18.4226H20.2079C20.7056 18.4226 21.1276 18.7886 21.1979 19.2813L21.4125 20.7845C21.4984 21.3869 21.031 21.9258 20.4225 21.9258H3.72822C3.11972 21.9258 2.65227 21.3869 2.73825 20.7845L2.95279 19.2813Z" fill="#171B1C"/>
</svg>
