<svg width="24" height="24" viewBox="0 0 24 24" fill="none" xmlns="http://www.w3.org/2000/svg">
<path d="M11.9932 14.6982C12.7255 14.6983 13.426 14.7343 14.0752 14.7998C14.1858 14.8111 14.2558 14.9254 14.2129 15.0283C13.8499 15.896 12.9933 16.5057 11.9932 16.5059C10.9928 16.5059 10.1362 15.8961 9.77246 15.0283C9.72963 14.9255 9.79967 14.8112 9.91016 14.7998C10.5587 14.7342 11.2607 14.6982 11.9932 14.6982Z" fill="#171B1C"/>
<path d="M9.20898 11.6807C9.79896 11.6807 10.25 12.3004 10.2148 13.0645C10.1796 13.8286 9.73912 14.1064 9.14844 14.1064C8.55769 14.1064 8.04092 13.7954 8.07617 13.0312C8.11152 12.2672 8.61901 11.6807 9.20898 11.6807Z" fill="#171B1C"/>
<path d="M14.7773 11.6807C15.368 11.6807 15.8755 12.2672 15.9102 13.0312C15.9454 13.7954 15.4279 14.1064 14.8379 14.1064C14.2479 14.1064 13.8067 13.8293 13.7715 13.0645C13.7363 12.3004 14.1866 11.6807 14.7773 11.6807Z" fill="#171B1C"/>
<path fill-rule="evenodd" clip-rule="evenodd" d="M12 2C17.5228 2 22 6.47715 22 12C22 17.5228 17.5228 22 12 22C6.47715 22 2 17.5228 2 12C2 6.47715 6.47715 2 12 2ZM15.2881 5.38184C14.5621 5.38184 13.9565 5.89665 13.8154 6.58105C12.5994 6.71147 11.6494 7.74329 11.6494 8.99316V9.00098C10.327 9.05667 9.11982 9.43315 8.16113 10.0273C7.80521 9.75177 7.35793 9.58699 6.87305 9.58691C5.70917 9.58691 4.76562 10.5305 4.76562 11.6943C4.76567 12.5387 5.26176 13.2662 5.97852 13.6025C6.04832 16.0487 8.71444 18.0166 11.9932 18.0166C15.2716 18.0164 17.9403 16.0467 18.0068 13.5986C18.718 13.2603 19.2098 12.5347 19.21 11.6953C19.21 10.5314 18.2664 9.58789 17.1025 9.58789C16.6199 9.58799 16.1755 9.75103 15.8203 10.0244C14.8531 9.42591 13.6318 9.04908 12.2959 8.99902V8.99316C12.2961 8.09806 12.9615 7.35536 13.8242 7.2334L13.8584 7.35449C14.0555 7.95527 14.6213 8.38965 15.2881 8.38965C16.1184 8.38945 16.791 7.71605 16.791 6.88574C16.791 6.05543 16.1184 5.38203 15.2881 5.38184Z" fill="#171B1C"/>
</svg>
