<svg width="24" height="24" viewBox="0 0 24 24" fill="none" xmlns="http://www.w3.org/2000/svg">
<circle cx="12" cy="12" r="10" fill="#FF4500"/>
<path d="M13.8242 7.23176C13.9807 7.89512 14.5764 8.38929 15.2877 8.38929C16.1182 8.38929 16.7914 7.71607 16.7914 6.88563C16.7914 6.0552 16.1182 5.38197 15.2877 5.38197C14.5616 5.38197 13.9561 5.89659 13.8151 6.5811C12.599 6.71151 11.6495 7.74285 11.6495 8.99273C11.6495 8.99555 11.6495 8.99767 11.6495 9.00049C10.327 9.05618 9.1194 9.43262 8.16067 10.0269C7.80467 9.75126 7.35773 9.58701 6.87272 9.58701C5.70885 9.58701 4.76562 10.5302 4.76562 11.6941C4.76562 12.5386 5.26191 13.2661 5.97885 13.6024C6.04864 16.0486 8.71406 18.0161 11.9928 18.0161C15.2715 18.0161 17.9405 16.0465 18.0067 13.5982C18.718 13.2598 19.2101 12.5344 19.2101 11.6948C19.2101 10.5309 18.2668 9.58771 17.103 9.58771C16.6201 9.58771 16.1753 9.75056 15.82 10.0241C14.8528 9.42557 13.6318 9.04913 12.2959 8.99908C12.2959 8.99696 12.2959 8.99555 12.2959 8.99344C12.2959 8.09815 12.9614 7.35513 13.8242 7.23317V7.23176ZM8.07607 13.0314C8.11132 12.2672 8.61889 11.6807 9.20893 11.6807C9.79897 11.6807 10.2501 12.3004 10.2149 13.0645C10.1796 13.8287 9.73905 14.1064 9.1483 14.1064C8.55756 14.1064 8.04083 13.7956 8.07607 13.0314ZM14.7773 11.6807C15.3681 11.6807 15.8757 12.2672 15.9102 13.0314C15.9454 13.7956 15.428 14.1064 14.838 14.1064C14.2479 14.1064 13.8066 13.8294 13.7714 13.0645C13.7361 12.3004 14.1866 11.6807 14.7773 11.6807ZM14.0752 14.7994C14.1859 14.8107 14.2564 14.9256 14.2134 15.0285C13.8503 15.8963 12.9931 16.5061 11.9928 16.5061C10.9925 16.5061 10.1359 15.8963 9.77219 15.0285C9.72918 14.9256 9.79968 14.8107 9.91036 14.7994C10.5589 14.7339 11.2603 14.6979 11.9928 14.6979C12.7252 14.6979 13.4259 14.7339 14.0752 14.7994Z" fill="white"/>
</svg>
