<svg width="24" height="24" viewBox="0 0 24 24" fill="none" xmlns="http://www.w3.org/2000/svg">
<circle opacity="0.25" cx="12.0055" cy="12.0055" r="11" fill="#2B95A8"/>
<circle cx="12.0055" cy="12.0055" r="8.99451" fill="white"/>
<path d="M12 3C16.9706 3 21 7.02944 21 12C21 16.9706 16.9706 21 12 21C7.28708 21 3.42336 17.3772 3.03516 12.7646H13.6045L10.9346 15.4346C10.6222 15.747 10.6222 16.253 10.9346 16.5654C11.247 16.8778 11.753 16.8778 12.0654 16.5654L16.6318 12L12.0654 7.43457C11.753 7.12219 11.247 7.12219 10.9346 7.43457C10.6222 7.74698 10.6222 8.25302 10.9346 8.56543L13.5342 11.165H3.04004C3.46136 6.586 7.31102 3 12 3Z" fill="#2B95A8"/>
</svg>
