<svg width="24" height="24" viewBox="0 0 24 24" fill="none" xmlns="http://www.w3.org/2000/svg">
<path d="M15.9111 6.31055C16.353 6.31055 16.7109 6.66852 16.7109 7.11035V15.9121C16.7108 16.3538 16.3529 16.7119 15.9111 16.7119C15.4695 16.7118 15.1115 16.3537 15.1113 15.9121V7.11035C15.1113 6.66857 15.4694 6.31063 15.9111 6.31055Z" fill="#171B1C"/>
<path d="M8.08789 6.31055C8.52965 6.31063 8.8877 6.66857 8.8877 7.11035V13.9561C8.88762 14.3978 8.5296 14.7558 8.08789 14.7559C7.64611 14.7559 7.28816 14.3978 7.28809 13.9561V7.11035C7.28809 6.66852 7.64606 6.31055 8.08789 6.31055Z" fill="#171B1C"/>
<path d="M12 6.31055C12.4416 6.31081 12.7998 6.66869 12.7998 7.11035V11.0225C12.7996 11.4639 12.4415 11.822 12 11.8223C11.5583 11.8223 11.2004 11.4641 11.2002 11.0225V7.11035C11.2002 6.66852 11.5582 6.31055 12 6.31055Z" fill="#171B1C"/>
<path fill-rule="evenodd" clip-rule="evenodd" d="M18.8457 2.39844C20.3674 2.39875 21.6014 3.63256 21.6016 5.1543V18.8457C21.6014 20.3674 20.3674 21.6013 18.8457 21.6016H5.1543C3.63237 21.6016 2.39861 20.3676 2.39844 18.8457V5.1543C2.39857 3.63237 3.63234 2.39844 5.1543 2.39844H18.8457ZM5.1543 3.99805C4.516 3.99805 3.99818 4.51603 3.99805 5.1543V18.8457C3.99822 19.4839 4.51602 20.001 5.1543 20.001H18.8457C19.4837 20.0007 20.0008 19.4837 20.001 18.8457V5.1543C20.0008 4.51622 19.4837 3.99835 18.8457 3.99805H5.1543Z" fill="#171B1C"/>
</svg>
