<svg width="24" height="24" viewBox="0 0 24 24" fill="none" xmlns="http://www.w3.org/2000/svg">
<path d="M12 3.5C16.6944 3.5 20.5 7.30558 20.5 12C20.5 16.6944 16.6944 20.5 12 20.5C7.30558 20.5 3.5 16.6944 3.5 12C3.5 10.0519 4.15651 8.25774 5.25879 6.82422L13.3867 14.9531H7.88574V17.3535H16.2852C16.3255 17.3535 16.366 17.3517 16.4062 17.3477C16.4128 17.347 16.4193 17.3455 16.4258 17.3447C16.4582 17.3409 16.4904 17.3355 16.5225 17.3291C16.5336 17.3269 16.5446 17.3238 16.5557 17.3213C16.5825 17.3151 16.6093 17.3088 16.6357 17.3008C16.6957 17.2825 16.753 17.2585 16.8086 17.2314C16.8222 17.2248 16.8362 17.2191 16.8496 17.2119C16.8643 17.2041 16.8783 17.195 16.8926 17.1865C16.9782 17.1361 17.0603 17.0763 17.1338 17.0029C17.2025 16.9342 17.2591 16.8578 17.3076 16.7783C17.3395 16.7263 17.3678 16.6721 17.3916 16.6152C17.3983 16.5991 17.4042 16.5828 17.4102 16.5664C17.4575 16.4375 17.4853 16.2986 17.4854 16.1533V7.75391H15.085V13.2559L6.97461 5.14551C8.38236 4.11166 10.1195 3.5 12 3.5Z" fill="#505B5E"/>
</svg>
