<svg width="24" height="24" viewBox="0 0 24 24" fill="none" xmlns="http://www.w3.org/2000/svg">
<path fill-rule="evenodd" clip-rule="evenodd" d="M12 2.2002C17.4124 2.2002 21.7998 6.58761 21.7998 12C21.7998 17.4124 17.4124 21.7998 12 21.7998C6.58761 21.7998 2.2002 17.4124 2.2002 12C2.2002 6.58761 6.58761 2.2002 12 2.2002ZM12 3.7998C7.7528 3.7998 4.2597 7.02898 3.8418 11.166H13.5352L10.9346 8.56543C10.6224 8.25305 10.6224 7.74694 10.9346 7.43457C11.2469 7.12239 11.7531 7.12239 12.0654 7.43457L16.6318 12L12.0654 16.5654C11.7531 16.8776 11.2469 16.8776 10.9346 16.5654C10.6224 16.2531 10.6224 15.7469 10.9346 15.4346L13.6035 12.7656H3.83594C4.22208 16.9354 7.72946 20.2002 12 20.2002C16.5287 20.2002 20.2002 16.5287 20.2002 12C20.2002 7.47126 16.5287 3.7998 12 3.7998Z" fill="black"/>
</svg>
