<svg width="20" height="20" viewBox="0 0 20 20" fill="none" xmlns="http://www.w3.org/2000/svg">
<path d="M10 1.5C14.6944 1.5 18.5 5.30558 18.5 10C18.5 14.6944 14.6944 18.5 10 18.5C5.30558 18.5 1.5 14.6944 1.5 10C1.5 7.98494 2.20233 6.13457 3.37402 4.67773L11.1562 12.4609H6.57031V14.4609H13.5703L13.6729 14.4561C13.6963 14.4537 13.7193 14.4483 13.7422 14.4443C13.7495 14.4431 13.7573 14.4428 13.7646 14.4414C13.7805 14.4383 13.796 14.4335 13.8115 14.4297C13.8281 14.4256 13.8449 14.422 13.8613 14.417C13.8752 14.4128 13.8887 14.4072 13.9023 14.4023C13.9197 14.3962 13.937 14.3899 13.9541 14.3828C13.963 14.3791 13.9717 14.375 13.9805 14.3711C14.0592 14.3357 14.1349 14.2912 14.2041 14.2344C14.3543 14.1112 14.4669 13.9451 14.5254 13.7549C14.5294 13.7417 14.5327 13.7281 14.5361 13.7148C14.5574 13.6337 14.5703 13.5487 14.5703 13.4609V6.46094H12.5703V11.0459L4.80078 3.27637C6.23812 2.16329 8.04138 1.5 10 1.5Z" fill="#505B5E"/>
</svg>
