<svg width="24" height="24" viewBox="0 0 24 24" fill="none" xmlns="http://www.w3.org/2000/svg">
<path fill-rule="evenodd" clip-rule="evenodd" d="M16.2002 12.4004C17.7466 12.4004 19 13.6538 19 15.2002V16.2002C18.9999 17.7465 17.7465 19 16.2002 19C14.6539 19 13.4005 17.7465 13.4004 16.2002V15.2002C13.4004 13.6538 14.6538 12.4004 16.2002 12.4004ZM16.2002 14C15.5375 14 15 14.5374 15 15.2002V16.2002C15.0001 16.8628 15.5375 17.4004 16.2002 17.4004C16.8629 17.4004 17.4003 16.8628 17.4004 16.2002V15.2002C17.4004 14.5374 16.8629 14 16.2002 14Z" fill="#171B1C"/>
<path d="M16.5869 5.28612C16.8707 4.94777 17.3754 4.90298 17.7139 5.18651C18.0523 5.47039 18.0963 5.97494 17.8125 6.31346L7.41309 18.7139C7.1292 19.0523 6.62466 19.0963 6.28613 18.8125C5.94784 18.5285 5.90272 18.024 6.18652 17.6855L16.5869 5.28612Z" fill="#171B1C"/>
<path fill-rule="evenodd" clip-rule="evenodd" d="M7.7998 4.99998C9.34611 4.99998 10.5995 6.25352 10.5996 7.79979V8.79979C10.5996 10.3462 9.3462 11.5996 7.7998 11.5996C6.25341 11.5996 5 10.3462 5 8.79979V7.79979C5.00015 6.25352 6.2535 4.99998 7.7998 4.99998ZM7.7998 6.59959C7.13715 6.59959 6.59976 7.13717 6.59961 7.79979V8.79979C6.59961 9.46253 7.13706 9.99998 7.7998 9.99998C8.46255 9.99998 9 9.46253 9 8.79979V7.79979C8.99985 7.13717 8.46246 6.59959 7.7998 6.59959Z" fill="#171B1C"/>
</svg>
