<svg width="24" height="24" viewBox="0 0 24 24" fill="none" xmlns="http://www.w3.org/2000/svg">
<path fill-rule="evenodd" clip-rule="evenodd" d="M5.60019 2C4.90484 2 4.24162 2.28251 3.75541 2.77949C3.26978 3.27587 3 3.94546 3 4.64006V19.3605C3 20.0551 3.26978 20.7247 3.75541 21.2211C4.24162 21.7181 4.90485 22.0006 5.60019 22.0006H18.4013C19.0966 22.0006 19.7598 21.7181 20.2461 21.2211C20.7317 20.7247 21.0015 20.0551 21.0015 19.3605V7.40015C21.0015 7.19101 20.9196 6.99019 20.7733 6.84069L16.2729 2.24055C16.1224 2.08671 15.9162 2 15.701 2H5.60019ZM4.89912 3.89839C5.08811 3.70522 5.34065 3.6 5.60019 3.6H15.3645L19.4015 7.72639V19.3605C19.4015 19.642 19.2919 19.9084 19.1023 20.1022C18.9134 20.2954 18.6608 20.4006 18.4013 20.4006H5.60019C5.34065 20.4006 5.08811 20.2954 4.89912 20.1022C4.70955 19.9084 4.60001 19.642 4.60001 19.3605V4.64006C4.60001 4.35863 4.70955 4.09216 4.89912 3.89839ZM11.4867 9.78395C11.0247 9.35861 10.284 9.14595 9.26469 9.14595H6.92167V16.9999H8.32968V14.1069H9.11069C9.69003 14.1069 10.174 14.0373 10.5627 13.8979C10.9587 13.7586 11.2777 13.5679 11.5197 13.3259C11.7617 13.0839 11.934 12.8126 12.0367 12.5119C12.1394 12.2039 12.1907 11.8813 12.1907 11.5439C12.1907 10.7959 11.956 10.2093 11.4867 9.78395ZM8.32968 10.3119H9.17669C9.71936 10.3119 10.119 10.4183 10.3757 10.6309C10.6324 10.8436 10.7607 11.1663 10.7607 11.5989C10.7607 11.9143 10.691 12.1709 10.5517 12.3689C10.4124 12.5669 10.207 12.7136 9.93569 12.8089C9.67169 12.8969 9.34902 12.9409 8.96769 12.9409H8.32968V10.3119ZM17.3733 16.2849C17.564 16.0063 17.6593 15.6689 17.6593 15.2729C17.6593 14.9356 17.5896 14.6569 17.4503 14.4369C17.311 14.2169 17.113 14.0336 16.8563 13.8869C16.607 13.7329 16.3026 13.5863 15.9433 13.4469C15.584 13.3003 15.3053 13.1829 15.1073 13.0949C14.9166 12.9996 14.781 12.9079 14.7003 12.8199C14.6269 12.7246 14.5903 12.6146 14.5903 12.4899C14.5903 12.3286 14.6673 12.2039 14.8213 12.1159C14.9753 12.0206 15.2026 11.9729 15.5033 11.9729C15.6866 11.9729 15.8663 11.9913 16.0423 12.0279C16.2256 12.0646 16.4053 12.1159 16.5813 12.1819C16.7646 12.2406 16.948 12.3103 17.1313 12.3909L17.5713 11.3679C17.2413 11.2139 16.9113 11.1039 16.5813 11.0379C16.2586 10.9646 15.914 10.9279 15.5473 10.9279C14.8506 10.9279 14.2896 11.0673 13.8643 11.3459C13.4389 11.6173 13.2263 12.0206 13.2263 12.5559C13.2263 12.8859 13.2886 13.1609 13.4133 13.3809C13.5453 13.5936 13.7359 13.7769 13.9853 13.9309C14.2419 14.0849 14.5609 14.2389 14.9423 14.3929C15.331 14.5543 15.6206 14.6899 15.8113 14.7999C16.002 14.9026 16.1303 15.0016 16.1963 15.0969C16.2623 15.1923 16.2953 15.2986 16.2953 15.4159C16.2953 15.6139 16.211 15.7716 16.0423 15.8889C15.8736 16.0063 15.5986 16.0649 15.2173 16.0649C14.9093 16.0649 14.5756 16.0173 14.2163 15.9219C13.8569 15.8266 13.5306 15.7093 13.2373 15.5699V16.7469C13.5086 16.8716 13.7946 16.9633 14.0953 17.0219C14.3959 17.0806 14.7553 17.1099 15.1733 17.1099C15.7086 17.1099 16.1596 17.0403 16.5263 16.9009C16.9003 16.7616 17.1826 16.5563 17.3733 16.2849Z" fill="#171B1C"/>
</svg>
