<svg width="24" height="24" viewBox="0 0 24 24" fill="none" xmlns="http://www.w3.org/2000/svg">
<path d="M11.9963 2.99976C7.02057 2.99976 3 7.02772 3 11.996C3 15.8093 5.36939 19.0672 8.71617 20.3778C8.63472 19.667 8.56808 18.5711 8.74578 17.7937C8.90868 17.0902 9.7972 13.3214 9.7972 13.3214C9.7972 13.3214 9.53065 12.7809 9.53065 11.9887C9.53065 10.7373 10.2563 9.80437 11.1596 9.80437C11.9297 9.80437 12.2999 10.3819 12.2999 11.0705C12.2999 11.8406 11.8112 12.9956 11.552 14.0693C11.3373 14.9652 12.0037 15.6982 12.8848 15.6982C14.4842 15.6982 15.7133 14.01 15.7133 11.5814C15.7133 9.42675 14.1658 7.92366 11.9519 7.92366C9.38996 7.92366 7.88687 9.84138 7.88687 11.8258C7.88687 12.5958 8.18305 13.4251 8.55327 13.8768C8.62732 13.9656 8.63472 14.0471 8.61251 14.1359C8.54587 14.4173 8.39037 15.0318 8.36076 15.1577C8.32373 15.3206 8.22747 15.3576 8.05717 15.2762C6.94652 14.7431 6.25051 13.0993 6.25051 11.7813C6.25051 8.94546 8.30892 6.33912 12.1962 6.33912C15.3135 6.33912 17.7421 8.56042 17.7421 11.537C17.7421 14.6394 15.7873 17.1347 13.0773 17.1347C12.1666 17.1347 11.3077 16.6608 11.0189 16.0981C11.0189 16.0981 10.5673 17.8159 10.4562 18.2379C10.2563 19.0228 9.70835 20.0002 9.33812 20.5999C10.1822 20.8591 11.0708 20.9998 12.0037 20.9998C16.972 20.9998 21 16.9718 21 12.0035C20.9926 7.02772 16.9646 2.99976 11.9963 2.99976Z" fill="#171B1C"/>
</svg>
