<svg width="24" height="24" viewBox="0 0 24 24" fill="none" xmlns="http://www.w3.org/2000/svg">
<path fill-rule="evenodd" clip-rule="evenodd" d="M20.1997 11.1998C20.6415 11.1998 20.9997 11.5579 20.9997 11.9998V19.1998C20.9997 20.1939 20.1938 20.9998 19.1997 20.9998L4.79951 20.9998C3.8054 20.9998 2.99951 20.1939 2.99951 19.1998V4.79976C2.99951 3.80564 3.8054 2.99976 4.79951 2.99976H11.9996C12.4414 2.99976 12.7996 3.35793 12.7996 3.79976C12.7996 4.24158 12.4414 4.59976 11.9996 4.59976L4.79951 4.59976C4.68905 4.59976 4.59951 4.6893 4.59951 4.79976L4.59951 19.1998C4.59951 19.3102 4.68905 19.3998 4.79951 19.3998H19.1997C19.3102 19.3998 19.3997 19.3102 19.3997 19.1998V11.9998C19.3997 11.5579 19.7579 11.1998 20.1997 11.1998ZM14.4338 9.56564C14.1214 9.25322 14.1214 8.74669 14.4338 8.43427L18.2681 4.59995L15.9995 4.59995C15.5576 4.59995 15.1995 4.24178 15.1995 3.79995C15.1995 3.35812 15.5576 2.99995 15.9995 2.99995L20.1995 2.99995C20.6413 2.99995 20.9995 3.35812 20.9995 3.79995V7.99995C20.9995 8.44178 20.6413 8.79995 20.1995 8.79995C19.7576 8.79995 19.3995 8.44178 19.3995 7.99995V5.73134L15.5652 9.56563C15.2528 9.87806 14.7463 9.87806 14.4338 9.56564ZM7.6 9.89995V7.59995H9.9V9.89995H7.6ZM6 6.99995C6 6.44767 6.44772 5.99995 7 5.99995H10.5C11.0523 5.99995 11.5 6.44767 11.5 6.99995V10.5C11.5 11.0522 11.0523 11.5 10.5 11.5H7C6.44772 11.5 6 11.0522 6 10.5V6.99995ZM7.6 14.1V16.4H9.9V14.1H7.6ZM7 12.5C6.44772 12.5 6 12.9477 6 13.5V17C6 17.5522 6.44772 18 7 18H10.5C11.0523 18 11.5 17.5522 11.5 17V13.5C11.5 12.9477 11.0523 12.5 10.5 12.5H7ZM14.1 16.4V14.1H16.4V16.4H14.1ZM12.5 13.5C12.5 12.9477 12.9477 12.5 13.5 12.5H17C17.5523 12.5 18 12.9477 18 13.5V17C18 17.5522 17.5523 18 17 18H13.5C12.9477 18 12.5 17.5522 12.5 17V13.5Z" fill="#171B1C"/>
</svg>
