<svg width="24" height="24" viewBox="0 0 24 24" fill="none" xmlns="http://www.w3.org/2000/svg">
<path d="M7.84147 3.69969C8.27549 3.70116 8.70196 3.81688 9.07682 4.03563L19.0719 9.86668L19.2096 9.95164C19.522 10.1614 19.7827 10.4408 19.9714 10.768C20.1869 11.142 20.301 11.5659 20.3014 11.9975C20.3018 12.4293 20.1883 12.8536 19.9733 13.228C19.7584 13.6023 19.4488 13.913 19.0758 14.1304L19.0768 14.1313L9.07682 19.9643C8.70196 20.1831 8.27549 20.2988 7.84147 20.3003C7.40753 20.3017 6.98044 20.1893 6.60417 19.9731C6.22789 19.7569 5.91525 19.4444 5.69792 19.0688C5.48077 18.6934 5.3668 18.2672 5.36686 17.8335V6.16649C5.3668 5.73276 5.48077 5.30659 5.69792 4.93114C5.91525 4.55551 6.22789 4.24303 6.60417 4.02684C6.98044 3.81068 7.40753 3.69826 7.84147 3.69969ZM6.96647 17.8335L6.97428 17.9468C6.98911 18.0596 7.02631 18.1689 7.08366 18.268C7.16002 18.3999 7.26991 18.5095 7.40202 18.5854C7.53416 18.6613 7.68423 18.7012 7.83659 18.7007C7.98896 18.7001 8.13857 18.6593 8.27018 18.5825L18.2702 12.7485C18.4012 12.6722 18.5101 12.5627 18.5856 12.4311C18.6611 12.2997 18.7009 12.151 18.7008 11.9995C18.7007 11.8478 18.6613 11.6983 18.5856 11.5669C18.5099 11.4355 18.4004 11.3266 18.2692 11.2505L18.2682 11.2495L8.27018 5.41746C8.13857 5.34067 7.98896 5.29987 7.83659 5.2993C7.68423 5.29878 7.53416 5.33871 7.40202 5.41453C7.26991 5.49042 7.16002 5.60009 7.08366 5.73192C7.00729 5.86391 6.96643 6.01399 6.96647 6.16649V17.8335Z" fill="#171B1C"/>
</svg>
