<svg width="24" height="24" viewBox="0 0 24 24" fill="none" xmlns="http://www.w3.org/2000/svg">
<path fill-rule="evenodd" clip-rule="evenodd" d="M12 22C17.5228 22 22 17.5228 22 12C22 6.47715 17.5228 2 12 2C6.47715 2 2 6.47715 2 12C2 17.5228 6.47715 22 12 22ZM12.0001 6.8C12.5524 6.8 13.0001 7.24772 13.0001 7.8V11H16.2C16.7523 11 17.2 11.4477 17.2 12C17.2 12.5523 16.7523 13 16.2 13H13.0001V16.2C13.0001 16.7522 12.5524 17.2 12.0001 17.2C11.4478 17.2 11.0001 16.7522 11.0001 16.2V13H7.8C7.24771 13 6.8 12.5523 6.8 12C6.8 11.4477 7.24771 11 7.8 11H11.0001V7.8C11.0001 7.24772 11.4478 6.8 12.0001 6.8Z" fill="#171B1C"/>
</svg>
