<svg width="24" height="24" viewBox="0 0 24 24" fill="none" xmlns="http://www.w3.org/2000/svg">
<path fill-rule="evenodd" clip-rule="evenodd" d="M10.6696 2.35132C11.0671 2.12184 11.5179 2.00098 11.9769 2.00098C12.4359 2.00098 12.8868 2.12186 13.2843 2.35139L13.2859 2.35232L19.6453 5.9927C20.0428 6.22261 20.3728 6.55307 20.6023 6.95082C20.8318 7.34856 20.9528 7.79965 20.9533 8.25887V11.0092C20.9533 11.451 20.5951 11.8092 20.1533 11.8092C19.7114 11.8092 19.3533 11.451 19.3533 11.0092V8.57681L16.5398 10.1966C16.4918 10.2318 16.4403 10.2614 16.3864 10.2849L12.7772 12.3628V20.0956L13.9674 19.4143C14.3509 19.1948 14.8397 19.3277 15.0592 19.7111C15.2787 20.0946 15.1458 20.5834 14.7623 20.8029L13.2859 21.648L13.2844 21.6489C12.8869 21.8785 12.4359 21.9994 11.9769 21.9994C11.5179 21.9994 11.067 21.8785 10.6695 21.649L10.6679 21.648L4.31154 18.0094L4.30845 18.0076C3.91095 17.7777 3.58097 17.4473 3.35146 17.0495C3.12196 16.6518 3.00096 16.2007 3.00049 15.7415V8.25968C3.00096 7.80047 3.12196 7.34856 3.35146 6.95082C3.58097 6.55307 3.91095 6.2226 4.30845 5.9927L4.31153 5.99092L10.6696 2.35132ZM4.60049 8.57579L11.1772 12.3622V20.096L5.10951 16.6226L5.10821 16.6219C4.9544 16.5326 4.82646 16.4044 4.7373 16.2499C4.64795 16.095 4.60073 15.9192 4.60049 15.7402V8.57579ZM5.4188 7.20069L11.9778 10.9769L14.455 9.5507L7.88881 5.78676L5.4188 7.20069ZM16.0601 8.62658L18.5359 7.2012L12.4848 3.73736C12.3303 3.64798 12.1551 3.60098 11.9769 3.60098C11.7986 3.60098 11.6235 3.64797 11.4689 3.73735L11.4658 3.73913L9.49855 4.86528L16.0601 8.62658ZM17.3935 12.1195C17.1461 11.9756 16.8406 11.9749 16.5925 12.1176C16.3444 12.2604 16.1914 12.5248 16.1914 12.8111V19.2176C16.1914 19.5107 16.3518 19.7804 16.6093 19.9204C16.8669 20.0604 17.1804 20.0484 17.4264 19.8889L22.6375 16.5126C22.8709 16.3614 23.009 16.0999 23.0023 15.8219C22.9956 15.5439 22.845 15.2894 22.6046 15.1496L17.3935 12.1195ZM17.7914 17.746V14.2017L20.6744 15.878L17.7914 17.746Z" fill="#171B1C"/>
</svg>
