<svg width="24" height="24" viewBox="0 0 24 24" fill="none" xmlns="http://www.w3.org/2000/svg">
<path fill-rule="evenodd" clip-rule="evenodd" d="M5.7 4.93756C5.7 3.86751 6.56745 3.00006 7.6375 3.00006H16.3625C17.4326 3.00006 18.3 3.86751 18.3 4.93756V19.0626C18.3 20.1326 17.4326 21.0001 16.3625 21.0001H7.6375C6.56745 21.0001 5.7 20.1326 5.7 19.0626V4.93756ZM7.6375 4.60006C7.45111 4.60006 7.3 4.75116 7.3 4.93756V19.0626C7.3 19.249 7.4511 19.4001 7.6375 19.4001H16.3625C16.5489 19.4001 16.7 19.249 16.7 19.0626V4.93756C16.7 4.75116 16.5489 4.60006 16.3625 4.60006H7.6375Z" fill="#171B1C"/>
</svg>
