<svg width="24" height="24" viewBox="0 0 24 24" fill="none" xmlns="http://www.w3.org/2000/svg">
<path fill-rule="evenodd" clip-rule="evenodd" d="M5.7 4.93755C5.7 3.8675 6.56745 3.00005 7.6375 3.00005H16.3625C17.4326 3.00005 18.3 3.86749 18.3 4.93755V19.0625C18.3 20.1326 17.4326 21 16.3625 21H7.6375C6.56745 21 5.7 20.1326 5.7 19.0625V4.93755ZM7.6375 4.60005C7.45111 4.60005 7.3 4.75115 7.3 4.93755V19.0625C7.3 19.2489 7.4511 19.4 7.6375 19.4H16.3625C16.5489 19.4 16.7 19.2489 16.7 19.0625V4.93755C16.7 4.75115 16.5489 4.60005 16.3625 4.60005H7.6375Z" fill="#171B1C"/>
</svg>
