<svg width="24" height="24" viewBox="0 0 24 24" fill="none" xmlns="http://www.w3.org/2000/svg">
<path fill-rule="evenodd" clip-rule="evenodd" d="M11.9997 17.4C7.57115 17.4 5.19708 14.2014 3.74629 11.9888C4.27823 11.1511 5.14348 9.93978 6.35303 8.87567C7.78023 7.62007 9.65004 6.6 11.9997 6.6C14.3494 6.6 16.2191 7.62007 17.6463 8.87566C18.8558 9.93978 19.721 11.1511 20.2529 11.9888C18.8022 14.2014 16.4283 17.4 11.9997 17.4ZM11.9997 5C9.14937 5 6.91909 6.24662 5.29619 7.67438C3.67913 9.09701 2.62877 10.7297 2.11352 11.5885C1.95658 11.85 1.96204 12.178 2.12759 12.4342L2.1637 12.4901C3.5547 14.6434 6.36898 19 11.9997 19C17.6304 19 20.4446 14.6434 21.8355 12.4901L21.8716 12.4342C22.0372 12.178 22.0426 11.85 21.8857 11.5885C21.3705 10.7297 20.3202 9.09702 18.7031 7.67439C17.0803 6.24662 14.85 5 11.9997 5ZM9.79973 11.9997C9.79973 10.7847 10.7847 9.79971 11.9997 9.79971C13.2148 9.79971 14.1997 10.7847 14.1997 11.9997C14.1997 13.2147 13.2148 14.1997 11.9997 14.1997C10.7847 14.1997 9.79973 13.2147 9.79973 11.9997ZM11.9997 8.19971C9.90105 8.19971 8.19973 9.90103 8.19973 11.9997C8.19973 14.0984 9.90105 15.7997 11.9997 15.7997C14.0984 15.7997 15.7997 14.0984 15.7997 11.9997C15.7997 9.90103 14.0984 8.19971 11.9997 8.19971Z" fill="#171B1C"/>
</svg>
