<svg width="24" height="24" viewBox="0 0 24 24" fill="none" xmlns="http://www.w3.org/2000/svg">
<path fill-rule="evenodd" clip-rule="evenodd" d="M18.0841 3.66513C18.3965 3.35275 18.9025 3.35272 19.215 3.66513C19.5273 3.97754 19.5273 4.48359 19.215 4.79599L5.07238 18.9386C4.75995 19.2506 4.25381 19.2508 3.94152 18.9386C3.6291 18.6261 3.6291 18.1191 3.94152 17.8067L5.33605 16.4112C3.8421 15.0826 2.83526 13.5307 2.1632 12.4903L2.12707 12.4347C1.96169 12.1786 1.95672 11.8504 2.11339 11.589C2.62862 10.7302 3.67912 9.09746 5.29601 7.67489C6.91882 6.24721 9.14903 5.00023 11.9991 5.00009C13.4641 5.00009 14.7654 5.32982 15.9044 5.84384L18.0841 3.66513ZM11.9991 6.5997C9.64969 6.59983 7.77975 7.62055 6.35265 8.87606C5.14328 9.94011 4.27809 11.1517 3.74621 11.9893C4.41782 13.0136 5.28822 14.2481 6.46789 15.2794L8.43371 13.3136C8.28276 12.9042 8.19938 12.4619 8.19933 12.0001C8.19933 9.90157 9.90068 8.20055 11.9991 8.20028C12.4614 8.20028 12.9047 8.28274 13.3146 8.43368L14.6769 7.07138C13.865 6.77646 12.9733 6.5997 11.9991 6.5997ZM11.9454 9.80185C10.7733 9.83021 9.82895 10.7742 9.80089 11.9464L11.9454 9.80185Z" fill="#171B1C"/>
<path d="M18.9386 7.88778C20.422 9.25731 21.3951 10.7727 21.8849 11.589C22.0417 11.8505 22.0367 12.1785 21.8712 12.4347L21.8351 12.4903C20.4441 14.6437 17.6296 19.0001 11.9991 19.0001C10.6721 19 9.50225 18.7547 8.46984 18.3565L9.73253 17.0938C10.4217 17.2885 11.175 17.4004 11.9991 17.4005C16.4272 17.4005 18.8013 14.2019 20.2521 11.9893C19.744 11.1892 18.9296 10.0505 17.8038 9.02255L18.9386 7.88778Z" fill="#171B1C"/>
<path d="M15.6974 11.129C15.763 11.4087 15.7989 11.7003 15.7989 12.0001C15.7987 14.0986 14.0977 15.7999 11.9991 15.7999C11.6997 15.7999 11.4085 15.7629 11.129 15.6974L12.7687 14.0577C13.3643 13.8349 13.8364 13.3635 14.0587 12.7677L15.6974 11.129Z" fill="#171B1C"/>
</svg>
