<svg width="24" height="24" viewBox="0 0 24 24" fill="none" xmlns="http://www.w3.org/2000/svg">
<path fill-rule="evenodd" clip-rule="evenodd" d="M12.0001 5C6.7161 5 3.48735 9.32691 2.1424 11.4867C1.94638 11.8014 1.95476 12.1959 2.15502 12.5081C3.76982 15.0255 6.63101 19 12.0001 19C17.3692 19 20.2303 15.0254 21.845 12.5081C22.0453 12.1959 22.0537 11.8015 21.8576 11.4867C20.5127 9.32692 17.2841 5 12.0001 5ZM15.8 12C15.8 14.0987 14.0987 15.8 12 15.8C9.90133 15.8 8.20001 14.0987 8.20001 12C8.20001 9.90132 9.90133 8.2 12 8.2C14.0987 8.2 15.8 9.90132 15.8 12ZM11.9998 14.2C13.2148 14.2 14.1998 13.2151 14.1998 12C14.1998 10.785 13.2148 9.80005 11.9998 9.80005C10.7848 9.80005 9.79982 10.785 9.79982 12C9.79982 13.2151 10.7848 14.2 11.9998 14.2Z" fill="#171B1C"/>
</svg>
