<svg width="24" height="24" viewBox="0 0 24 24" fill="none" xmlns="http://www.w3.org/2000/svg">
<path fill-rule="evenodd" clip-rule="evenodd" d="M9.2998 12.9004C10.2939 12.9004 11.0996 13.7061 11.0996 14.7002V19.2002C11.0995 20.1942 10.2938 21 9.2998 21H4.7998C3.80577 21 3.00013 20.1942 3 19.2002V14.7002C3 13.7061 3.80569 12.9004 4.7998 12.9004H9.2998ZM4.7998 14.5C4.68935 14.5 4.59961 14.5897 4.59961 14.7002V19.2002C4.59974 19.3105 4.68943 19.4004 4.7998 19.4004H9.2998C9.41018 19.4004 9.49987 19.3105 9.5 19.2002V14.7002C9.5 14.5897 9.41026 14.5 9.2998 14.5H4.7998Z" fill="#171B1C"/>
<path fill-rule="evenodd" clip-rule="evenodd" d="M16.8496 12.7002C19.1415 12.7002 20.9998 14.5578 21 16.8496C21 19.1416 19.1416 21 16.8496 21C14.5578 20.9998 12.7002 19.1415 12.7002 16.8496C12.7004 14.5579 14.5579 12.7004 16.8496 12.7002ZM16.8496 14.2998C15.4416 14.3 14.3 15.4416 14.2998 16.8496C14.2998 18.2578 15.4415 19.4002 16.8496 19.4004C18.2579 19.4004 19.4004 18.2579 19.4004 16.8496C19.4002 15.4415 18.2578 14.2998 16.8496 14.2998Z" fill="#171B1C"/>
<path fill-rule="evenodd" clip-rule="evenodd" d="M12 3C12.2777 3 12.536 3.14441 12.6816 3.38086L16.6816 9.88086C16.8333 10.1276 16.8395 10.4376 16.6982 10.6904C16.5568 10.9432 16.2897 11.0996 16 11.0996H8C7.71037 11.0995 7.44316 10.9432 7.30176 10.6904C7.1606 10.4376 7.16674 10.1275 7.31836 9.88086L11.3184 3.38086C11.4639 3.14437 11.7223 3.00006 12 3ZM9.43164 9.5H14.5684L12 5.32617L9.43164 9.5Z" fill="#171B1C"/>
</svg>
