<svg width="24" height="24" viewBox="0 0 24 24" fill="none" xmlns="http://www.w3.org/2000/svg">
<path d="M10.445 8.23514C10.113 8.60403 10.0004 9.01785 10.0004 9.19995C10.0004 9.64178 9.64222 9.99995 9.20039 9.99995C8.75856 9.99995 8.40039 9.64178 8.40039 9.19995C8.40039 8.582 8.68778 7.79585 9.25576 7.16477C9.85042 6.50407 10.7633 6 12.0004 6C13.155 6 14.1588 6.34894 14.8325 7.08475C15.5108 7.82564 15.7396 8.83323 15.5931 9.90809C15.3939 11.3684 14.4308 12.0903 13.7458 12.5684C13.7197 12.5867 13.6942 12.6044 13.6694 12.6216C13.6442 12.6392 13.6197 12.6562 13.5958 12.6728C13.3092 12.8717 13.1155 13.0061 12.9686 13.1568C12.8324 13.2965 12.8004 13.3877 12.8004 13.5V14C12.8004 14.4418 12.4422 14.8 12.0004 14.8C11.5586 14.8 11.2004 14.4418 11.2004 14V13.5C11.2004 12.8623 11.4808 12.391 11.8228 12.0401C12.0874 11.7685 12.4283 11.5336 12.7037 11.3439L12.7047 11.3432C12.7483 11.3131 12.7902 11.2842 12.8299 11.2565C13.47 10.8097 13.9069 10.4315 14.0077 9.69191C14.1066 8.96672 13.9354 8.47431 13.6524 8.16522C13.3647 7.85103 12.8458 7.6 12.0004 7.6C11.2375 7.6 10.7504 7.89588 10.445 8.23514Z" fill="#171B1C"/>
<path d="M12 18C12.5523 18 13 17.5523 13 17C13 16.4477 12.5523 16 12 16C11.4477 16 11 16.4477 11 17C11 17.5523 11.4477 18 12 18Z" fill="#171B1C"/>
<path fill-rule="evenodd" clip-rule="evenodd" d="M12 22C17.5229 22 22 17.5228 22 12C22 6.47715 17.5229 2 12 2C6.47715 2 2 6.47715 2 12C2 17.5228 6.47715 22 12 22ZM12 20.4C16.6392 20.4 20.4 16.6392 20.4 12C20.4 7.36081 16.6392 3.6 12 3.6C7.36081 3.6 3.6 7.36081 3.6 12C3.6 16.6392 7.36081 20.4 12 20.4Z" fill="#171B1C"/>
</svg>
