<svg width="24" height="24" viewBox="0 0 24 24" fill="none" xmlns="http://www.w3.org/2000/svg">
<path d="M11.0039 5.59375C11.5496 5.50892 12 5.9653 12 6.51758V17.4824C12 18.0347 11.5496 18.4911 11.0039 18.4062C9.6534 18.1963 8.39448 17.5624 7.41602 16.584C6.20024 15.3682 5.51758 13.7194 5.51758 12C5.51758 10.2806 6.20024 8.63179 7.41602 7.41602C8.39448 6.43755 9.6534 5.80374 11.0039 5.59375Z" fill="#171B1C"/>
<path fill-rule="evenodd" clip-rule="evenodd" d="M12 2C17.5228 2 22 6.47715 22 12C22 17.5228 17.5228 22 12 22C6.47715 22 2 17.5228 2 12C2 6.47715 6.47715 2 12 2ZM12 3.59961C7.36081 3.59961 3.59961 7.36081 3.59961 12C3.59961 16.6392 7.36081 20.4004 12 20.4004C16.6392 20.4004 20.4004 16.6392 20.4004 12C20.4004 7.36081 16.6392 3.59961 12 3.59961Z" fill="#171B1C"/>
</svg>
