<svg width="24" height="24" viewBox="0 0 24 24" fill="none" xmlns="http://www.w3.org/2000/svg">
<path fill-rule="evenodd" clip-rule="evenodd" d="M8.72106 4.6C8.49823 4.6 8.28452 4.68852 8.12696 4.84609C7.96939 5.00365 7.88087 5.21736 7.88087 5.44019V19.4019H16.122V9.54487L16.122 9.54055L16.122 9.53622V5.44019C16.122 5.21736 16.0335 5.00365 15.8759 4.84609C15.7184 4.68852 15.5047 4.6 15.2818 4.6H8.72106ZM17.722 8.74055V5.44019C17.722 4.79301 17.4649 4.17234 17.0073 3.71472C16.5497 3.25709 15.929 3 15.2818 3H8.72106C8.07388 3 7.45321 3.25709 6.99559 3.71472C6.53796 4.17234 6.28087 4.79301 6.28087 5.44019V11.2008H5.44019C4.79301 11.2008 4.17234 11.4579 3.71472 11.9156C3.25709 12.3732 3 12.9938 3 13.641V18.5616C3 19.2088 3.25709 19.8295 3.71472 20.2871C4.17234 20.7447 4.79301 21.0018 5.44019 21.0018H7.06621L7.08087 21.0019H16.922L16.9365 21.0018H18.5622C19.2094 21.0018 19.8301 20.7447 20.2877 20.2871C20.7453 19.8295 21.0024 19.2088 21.0024 18.5616V11.1807C21.0024 10.5336 20.7453 9.91289 20.2877 9.45526C19.8301 8.99764 19.2094 8.74055 18.5622 8.74055H17.722ZM17.722 10.3405V19.4018H18.5622C18.785 19.4018 18.9987 19.3133 19.1563 19.1557C19.3139 18.9981 19.4024 18.7844 19.4024 18.5616V11.1807C19.4024 10.9579 19.3139 10.7442 19.1563 10.5866C18.9987 10.4291 18.785 10.3405 18.5622 10.3405H17.722ZM6.28087 12.8008V19.4018H5.44019C5.21736 19.4018 5.00365 19.3133 4.84609 19.1557C4.68852 18.9981 4.6 18.7844 4.6 18.5616V13.641C4.6 13.4182 4.68852 13.2045 4.84609 13.0469C5.00365 12.8894 5.21736 12.8008 5.44019 12.8008H6.28087ZM9.56125 7.08026C9.56125 6.63843 9.91943 6.28026 10.3613 6.28026H13.6416C14.0835 6.28026 14.4416 6.63843 14.4416 7.08026C14.4416 7.52209 14.0835 7.88026 13.6416 7.88026H10.3613C9.91943 7.88026 9.56125 7.52209 9.56125 7.08026ZM10.3613 9.56064C9.91943 9.56064 9.56125 9.91882 9.56125 10.3606C9.56125 10.8025 9.91943 11.1606 10.3613 11.1606H13.6416C14.0835 11.1606 14.4416 10.8025 14.4416 10.3606C14.4416 9.91882 14.0835 9.56064 13.6416 9.56064H10.3613ZM9.56125 13.6411C9.56125 13.1993 9.91943 12.8411 10.3613 12.8411H13.6416C14.0835 12.8411 14.4416 13.1993 14.4416 13.6411C14.4416 14.083 14.0835 14.4411 13.6416 14.4411H10.3613C9.91943 14.4411 9.56125 14.083 9.56125 13.6411ZM10.3613 16.1214C9.91943 16.1214 9.56125 16.4796 9.56125 16.9214C9.56125 17.3632 9.91943 17.7214 10.3613 17.7214H13.6416C14.0835 17.7214 14.4416 17.3632 14.4416 16.9214C14.4416 16.4796 14.0835 16.1214 13.6416 16.1214H10.3613Z" fill="#171B1C"/>
</svg>
