<svg width="24" height="24" viewBox="0 0 24 24" fill="none" xmlns="http://www.w3.org/2000/svg">
<path fill-rule="evenodd" clip-rule="evenodd" d="M17.5484 7.10144C15.2666 4.51278 11.4047 3.80105 8.30117 5.59285C4.7618 7.63631 3.54913 12.1621 5.59258 15.7014C7.63603 19.2408 12.1618 20.4535 15.7012 18.41C17.5526 17.3411 18.767 15.5943 19.2125 13.662C19.3117 13.2314 19.7412 12.9629 20.1717 13.0621C20.6023 13.1613 20.8708 13.5908 20.7716 14.0214C20.2306 16.3682 18.7528 18.4957 16.5012 19.7957C12.1965 22.281 6.69222 20.8061 4.20694 16.5014C1.72166 12.1968 3.19653 6.69249 7.50117 4.20721C11.0807 2.14059 15.4897 2.81229 18.3026 5.57234V3.80138C18.3026 3.35955 18.6607 3.00138 19.1026 3.00138C19.5444 3.00138 19.9026 3.35955 19.9026 3.80138V7.90144C19.9026 8.34327 19.5444 8.70144 19.1026 8.70144L14.8014 8.70144C14.3596 8.70144 14.0014 8.34327 14.0014 7.90144C14.0014 7.45961 14.3596 7.10144 14.8014 7.10144L17.5484 7.10144Z" fill="#171B1C"/>
</svg>
