<svg width="24" height="24" viewBox="0 0 24 24" fill="none" xmlns="http://www.w3.org/2000/svg">
<path fill-rule="evenodd" clip-rule="evenodd" d="M9.77871 6.24769C10.0838 6.5673 10.072 7.07369 9.75238 7.37876L6.7966 10.2001H15.2C17.851 10.2001 20 12.3491 20 15.0001V17.2C20 17.6418 19.6418 18 19.2 18C18.7582 18 18.4 17.6418 18.4 17.2V15.0001C18.4 13.2327 16.9673 11.8001 15.2 11.8001H6.79661L9.75238 14.6213C10.072 14.9264 10.0838 15.4328 9.77871 15.7524C9.47365 16.072 8.96726 16.0838 8.64765 15.7787L4.24745 11.5788C4.0893 11.4278 3.99982 11.2187 3.99982 11.0001C3.99982 10.7814 4.0893 10.5723 4.24745 10.4214L8.64764 6.22137C8.96725 5.9163 9.47364 5.92809 9.77871 6.24769Z" fill="#171B1C"/>
</svg>
