<svg width="24" height="24" viewBox="0 0 24 24" fill="none" xmlns="http://www.w3.org/2000/svg">
<circle cx="12" cy="12" r="9" fill="#431405"/>
<path fill-rule="evenodd" clip-rule="evenodd" d="M12 21C16.9706 21 21 16.9706 21 12C21 7.02944 16.9706 3 12 3C7.02944 3 3 7.02944 3 12C3 16.9706 7.02944 21 12 21ZM13.5196 8.913C13.5196 8.75433 13.5818 8.60199 13.6928 8.48869L15.9781 6.20347C15.3045 5.89867 14.5541 5.80639 13.8267 5.93891C13.0994 6.07143 12.4297 6.42247 11.9069 6.94524C11.3842 7.46801 11.0331 8.13769 10.9006 8.86502C10.7681 9.59236 10.8604 10.3428 11.1652 11.0164L6.97662 15.2049C6.73547 15.4461 6.6 15.7731 6.6 16.1141C6.6 16.4552 6.73547 16.7822 6.97662 17.0234C7.21776 17.2645 7.54482 17.4 7.88585 17.4C8.22688 17.4 8.55395 17.2645 8.79509 17.0234L12.9836 12.8348C13.6572 13.1396 14.4076 13.2319 15.135 13.0994C15.8623 12.9669 16.532 12.6158 17.0548 12.0931C17.5775 11.5703 17.9286 10.9006 18.0611 10.1733C18.1936 9.44595 18.1013 8.6955 17.7965 8.02194L15.5113 10.3072C15.398 10.4182 15.2457 10.4804 15.087 10.4804C14.9283 10.4804 14.776 10.4182 14.6627 10.3072L13.6928 9.33731C13.5818 9.224 13.5196 9.07166 13.5196 8.913Z" fill="#F8C151"/>
</svg>
