<svg width="24" height="24" viewBox="0 0 24 24" fill="none" xmlns="http://www.w3.org/2000/svg">
<path d="M13.2139 7.2832C13.8155 7.17367 14.437 7.24985 14.9941 7.50195L13.1035 9.39258C13.0117 9.48621 12.9601 9.61207 12.96 9.74316C12.96 9.87444 13.0116 10.001 13.1035 10.0947L13.9062 10.8975C13.9999 10.989 14.1259 11.0409 14.2568 11.041C14.388 11.0409 14.5147 10.9893 14.6084 10.8975L16.499 9.00684C16.751 9.5639 16.8273 10.1846 16.7178 10.7861C16.6082 11.3878 16.3181 11.9425 15.8857 12.375C15.4533 12.8075 14.8985 13.0983 14.2969 13.208C13.6952 13.3176 13.0738 13.2404 12.5166 12.9883L9.05078 16.4541C8.8514 16.6535 8.58078 16.7655 8.29883 16.7656C8.01674 16.7656 7.74541 16.6535 7.5459 16.4541C7.34661 16.2546 7.23439 15.9841 7.23438 15.7021C7.23438 15.4202 7.34664 15.1497 7.5459 14.9502L11.0117 11.4844C10.7595 10.9271 10.6834 10.3059 10.793 9.7041C10.9026 9.10232 11.1934 8.54777 11.626 8.11523C12.0584 7.68303 12.6124 7.39289 13.2139 7.2832Z" fill="#171B1C"/>
<path fill-rule="evenodd" clip-rule="evenodd" d="M12 2.2002C17.4124 2.2002 21.7998 6.58761 21.7998 12C21.7998 17.4124 17.4124 21.7998 12 21.7998C6.58761 21.7998 2.2002 17.4124 2.2002 12C2.2002 6.58761 6.58761 2.2002 12 2.2002ZM12 3.7998C7.47126 3.7998 3.7998 7.47126 3.7998 12C3.7998 16.5287 7.47126 20.2002 12 20.2002C16.5287 20.2002 20.2002 16.5287 20.2002 12C20.2002 7.47126 16.5287 3.7998 12 3.7998Z" fill="#171B1C"/>
</svg>
