<svg width="20" height="20" viewBox="0 0 20 20" fill="none" xmlns="http://www.w3.org/2000/svg">
<circle cx="10" cy="10.0001" r="8.17041" fill="#431405"/>
<path fill-rule="evenodd" clip-rule="evenodd" d="M10 18.5C14.6944 18.5 18.5 14.6944 18.5 10C18.5 5.30558 14.6944 1.5 10 1.5C5.30558 1.5 1.5 5.30558 1.5 10C1.5 14.6944 5.30558 18.5 10 18.5ZM11.4351 7.0845C11.4351 6.93465 11.4939 6.79077 11.5988 6.68376L13.7571 4.5255C13.1209 4.23764 12.4122 4.15048 11.7252 4.27564C11.0383 4.4008 10.4058 4.73233 9.9121 5.22606C9.41838 5.71979 9.08684 6.35226 8.96168 7.03919C8.83652 7.72611 8.92368 8.43487 9.21155 9.07101L5.25569 13.0269C5.02795 13.2546 4.9 13.5635 4.9 13.8856C4.9 14.2077 5.02795 14.5166 5.25569 14.7443C5.48344 14.9721 5.79233 15.1 6.11442 15.1C6.4365 15.1 6.74539 14.9721 6.97314 14.7443L10.929 10.7885C11.5651 11.0763 12.2739 11.1635 12.9608 11.0383C13.6477 10.9132 14.2802 10.5816 14.7739 10.0879C15.2677 9.59417 15.5992 8.9617 15.7244 8.27477C15.8495 7.58784 15.7624 6.87908 15.4745 6.24295L13.3162 8.4012C13.2092 8.5061 13.0654 8.56485 12.9155 8.56485C12.7657 8.56485 12.6218 8.5061 12.5148 8.4012L11.5988 7.48523C11.4939 7.37822 11.4351 7.23434 11.4351 7.0845Z" fill="#F8C151"/>
</svg>
