<svg width="24" height="24" viewBox="0 0 24 24" fill="none" xmlns="http://www.w3.org/2000/svg">
<circle cx="12" cy="12.0001" r="8.17041" fill="#431405"/>
<path fill-rule="evenodd" clip-rule="evenodd" d="M12 20.5C16.6944 20.5 20.5 16.6944 20.5 12C20.5 7.30558 16.6944 3.5 12 3.5C7.30558 3.5 3.5 7.30558 3.5 12C3.5 16.6944 7.30558 20.5 12 20.5ZM13.4351 9.0845C13.4351 8.93465 13.4939 8.79077 13.5988 8.68376L15.7571 6.5255C15.1209 6.23764 14.4122 6.15048 13.7252 6.27564C13.0383 6.4008 12.4058 6.73233 11.9121 7.22606C11.4184 7.71979 11.0868 8.35226 10.9617 9.03919C10.8365 9.72611 10.9237 10.4349 11.2115 11.071L7.25569 15.0269C7.02795 15.2546 6.9 15.5635 6.9 15.8856C6.9 16.2077 7.02795 16.5166 7.25569 16.7443C7.48344 16.9721 7.79233 17.1 8.11442 17.1C8.4365 17.1 8.74539 16.9721 8.97314 16.7443L12.929 12.7885C13.5651 13.0763 14.2739 13.1635 14.9608 13.0383C15.6477 12.9132 16.2802 12.5816 16.7739 12.0879C17.2677 11.5942 17.5992 10.9617 17.7244 10.2748C17.8495 9.58784 17.7624 8.87908 17.4745 8.24295L15.3162 10.4012C15.2092 10.5061 15.0654 10.5649 14.9155 10.5649C14.7657 10.5649 14.6218 10.5061 14.5148 10.4012L13.5988 9.48523C13.4939 9.37822 13.4351 9.23434 13.4351 9.0845Z" fill="#F8C151"/>
</svg>
