<svg width="24" height="24" viewBox="0 0 24 24" fill="none" xmlns="http://www.w3.org/2000/svg">
<path fill-rule="evenodd" clip-rule="evenodd" d="M16.2988 2.01367C16.4434 2.04095 16.5792 2.10771 16.6895 2.20801L21.7383 6.80859C21.9045 6.96018 22 7.17543 22 7.40039V19.3604C22 20.0856 21.6829 20.7648 21.1475 21.2529C20.6144 21.7386 19.9054 21.9998 19.1807 22H4.81934C4.09449 22 3.38575 21.7386 2.85254 21.2529C2.31681 20.7648 1.99903 20.0858 1.99902 19.3604V4.63965C1.99909 3.91425 2.31686 3.23515 2.85254 2.74707C3.38574 2.26146 4.09454 2 4.81934 2H16.1514L16.2988 2.01367ZM4.81934 3.59961C4.47325 3.59961 4.15389 3.72554 3.92969 3.92969C3.70803 4.13166 3.59967 4.38918 3.59961 4.63965V19.3604C3.59961 19.6108 3.70804 19.8683 3.92969 20.0703C4.15389 20.2745 4.47325 20.4004 4.81934 20.4004H6V15C6 14.0059 6.80569 13.2002 7.7998 13.2002H16.2002C17.1942 13.2003 18 14.006 18 15V20.4004H19.1807C19.5265 20.4002 19.8453 20.2743 20.0693 20.0703C20.2909 19.8683 20.3994 19.6108 20.3994 19.3604V7.75195L15.8408 3.59961H8.7998V6.15234C8.79987 6.17857 8.80969 6.21083 8.84277 6.24219C8.87675 6.27432 8.93084 6.2998 9 6.2998H15C15.4418 6.2998 15.7998 6.65876 15.7998 7.10059C15.7995 7.54212 15.4416 7.90039 15 7.90039H9C8.04727 7.90039 7.20033 7.15747 7.2002 6.15234V3.59961H4.81934ZM7.7998 14.7998C7.68935 14.7998 7.59961 14.8895 7.59961 15V20.4004H16.4004V15C16.4004 14.8896 16.3106 14.7999 16.2002 14.7998H7.7998Z" fill="#171B1C"/>
</svg>
