<svg width="24" height="24" viewBox="0 0 24 24" fill="none" xmlns="http://www.w3.org/2000/svg">
<path fill-rule="evenodd" clip-rule="evenodd" d="M11.088 3C6.6211 3 3 6.6211 3 11.088C3 15.5548 6.6211 19.1759 11.088 19.1759C13.0331 19.1759 14.8187 18.4886 16.2136 17.3446L19.6327 20.7637C19.9451 21.0761 20.4516 21.0761 20.764 20.7637C21.0764 20.4512 21.0764 19.9447 20.764 19.6323L17.345 16.2132C18.4887 14.8184 19.1759 13.0329 19.1759 11.088C19.1759 6.6211 15.5548 3 11.088 3ZM4.6 11.088C4.6 7.50476 7.50476 4.6 11.088 4.6C14.6712 4.6 17.5759 7.50476 17.5759 11.088C17.5759 12.8767 16.8531 14.4951 15.6818 15.6695C14.5063 16.8481 12.8829 17.5759 11.088 17.5759C7.50476 17.5759 4.6 14.6712 4.6 11.088Z" fill="#171B1C"/>
</svg>
