<svg width="24" height="24" viewBox="0 0 24 24" fill="none" xmlns="http://www.w3.org/2000/svg">
<path fill-rule="evenodd" clip-rule="evenodd" d="M3.5 3.80049C3.5 3.35866 3.85817 3.00049 4.3 3.00049H5.7C6.14183 3.00049 6.5 3.35866 6.5 3.80049C6.5 4.24232 6.14183 4.60049 5.7 4.60049H4.3C3.85817 4.60049 3.5 4.24232 3.5 3.80049ZM3.5 8.40328C3.5 7.96145 3.85817 7.60328 4.3 7.60328H5.7C6.14183 7.60328 6.5 7.96145 6.5 8.40328C6.5 8.8451 6.14183 9.20328 5.7 9.20328H4.3C3.85817 9.20328 3.5 8.8451 3.5 8.40328ZM4.3 12.2061C3.85817 12.2061 3.5 12.5642 3.5 13.0061C3.5 13.4479 3.85817 13.8061 4.3 13.8061H5.7C6.14183 13.8061 6.5 13.4479 6.5 13.0061C6.5 12.5642 6.14183 12.2061 5.7 12.2061H4.3ZM7.99951 3.80049C7.99951 3.35866 8.35768 3.00049 8.79951 3.00049H19.6962C20.138 3.00049 20.4962 3.35866 20.4962 3.80049C20.4962 4.24232 20.138 4.60049 19.6962 4.60049H8.79951C8.35768 4.60049 7.99951 4.24232 7.99951 3.80049ZM8.79951 7.60328C8.35768 7.60328 7.99951 7.96145 7.99951 8.40328C7.99951 8.8451 8.35768 9.20328 8.79951 9.20328H19.6962C20.138 9.20328 20.4962 8.8451 20.4962 8.40328C20.4962 7.96145 20.138 7.60328 19.6962 7.60328H8.79951ZM7.99902 13.0061C7.99902 12.5642 8.3572 12.2061 8.79902 12.2061H11.199C11.6409 12.2061 11.999 12.5642 11.999 13.0061C11.999 13.4479 11.6409 13.8061 11.199 13.8061H8.79902C8.3572 13.8061 7.99902 13.4479 7.99902 13.0061ZM15.0733 11.7627C14.8175 11.5734 14.4738 11.5537 14.1981 11.7125C13.9223 11.8713 13.7669 12.1785 13.8023 12.4947L14.7867 21.2885C14.8223 21.6063 15.0437 21.8724 15.3498 21.9651C15.6559 22.0578 15.9877 21.9594 16.1937 21.7148L18.433 19.0554L21.8406 18.4511C22.1552 18.3953 22.4065 18.1575 22.4796 17.8464C22.5528 17.5353 22.4337 17.2105 22.1768 17.0203L15.0733 11.7627ZM16.1696 19.2594L15.5966 14.1406L19.7305 17.2003L17.8682 17.5306C17.6837 17.5633 17.5166 17.6597 17.3959 17.803L16.1696 19.2594Z" fill="#171B1C"/>
</svg>
