<svg width="24" height="24" viewBox="0 0 24 24" fill="none" xmlns="http://www.w3.org/2000/svg">
<path fill-rule="evenodd" clip-rule="evenodd" d="M5 4.6H9C9.22091 4.6 9.4 4.77909 9.4 5V9C9.4 9.22091 9.22091 9.4 9 9.4H5C4.77909 9.4 4.6 9.22091 4.6 9V5C4.6 4.77909 4.77909 4.6 5 4.6ZM3 5C3 3.89543 3.89543 3 5 3H9C10.1046 3 11 3.89543 11 5V9C11 10.1046 10.1046 11 9 11H5C3.89543 11 3 10.1046 3 9V5ZM15 14.6H19C19.2209 14.6 19.4 14.7791 19.4 15V19C19.4 19.2209 19.2209 19.4 19 19.4H15C14.7791 19.4 14.6 19.2209 14.6 19V15C14.6 14.7791 14.7791 14.6 15 14.6ZM13 15C13 13.8954 13.8954 13 15 13H19C20.1046 13 21 13.8954 21 15V19C21 20.1046 20.1046 21 19 21H15C13.8954 21 13 20.1046 13 19V15Z" fill="#171B1C"/>
<path d="M4.2998 16C3.85798 16 3.5 16.4488 3.5 17.0012C3.50026 17.5534 3.85814 18 4.2998 18C5.50195 18 7.50195 18 9.7002 18C10.1418 17.9997 10.5 17.5523 10.5 17C10.4997 16.448 10.1417 16.0003 9.7002 16C5.63622 16 7.88618 16 4.2998 16Z" fill="#171B1C"/>
<path d="M17.0068 3C16.565 3 16.207 3.35798 16.207 3.7998V6.19434H13.8018C13.3599 6.19434 13.002 6.55329 13.002 6.99512C13.0022 7.43672 13.3601 7.79395 13.8018 7.79395H16.207V10.2002C16.2072 10.6418 16.5651 11 17.0068 11C17.4485 11 17.8064 10.6418 17.8066 10.2002V7.79395H20.2021C20.6438 7.79373 21.002 7.43584 21.002 6.99414C21.0017 6.55267 20.6436 6.19455 20.2021 6.19434H17.8066V3.7998C17.8066 3.35798 17.4487 3 17.0068 3Z" fill="#171B1C"/>
</svg>
