<svg width="24" height="24" viewBox="0 0 24 24" fill="none" xmlns="http://www.w3.org/2000/svg">
<path fill-rule="evenodd" clip-rule="evenodd" d="M9.00098 13C10.1055 13 11.001 13.8954 11.001 15V19C11.001 20.1046 10.1055 21 9.00098 21H5.00098C3.89641 21 3.00098 20.1046 3.00098 19V15C3.00098 13.8954 3.89641 13 5.00098 13H9.00098ZM5.00098 14.5996C4.78006 14.5996 4.60059 14.7791 4.60059 15V19C4.60059 19.2209 4.78006 19.4004 5.00098 19.4004H9.00098C9.22189 19.4004 9.40137 19.2209 9.40137 19V15C9.40137 14.7791 9.22189 14.5996 9.00098 14.5996H5.00098Z" fill="#171B1C"/>
<path fill-rule="evenodd" clip-rule="evenodd" d="M19.001 13C20.1055 13 21.001 13.8954 21.001 15V19C21.001 20.1046 20.1055 21 19.001 21H15.001C13.8964 21 13.001 20.1046 13.001 19V15C13.001 13.8954 13.8964 13 15.001 13H19.001ZM15.001 14.5996C14.7801 14.5996 14.6006 14.7791 14.6006 15V19C14.6006 19.2209 14.7801 19.4004 15.001 19.4004H19.001C19.2219 19.4004 19.4014 19.2209 19.4014 19V15C19.4014 14.7791 19.2219 14.5996 19.001 14.5996H15.001Z" fill="#171B1C"/>
<path fill-rule="evenodd" clip-rule="evenodd" d="M9.00098 3C10.1055 3 11.001 3.89543 11.001 5V9C11.001 10.1046 10.1055 11 9.00098 11H5.00098C3.89641 11 3.00098 10.1046 3.00098 9V5C3.00098 3.89543 3.89641 3 5.00098 3H9.00098ZM5.00098 4.59961C4.78006 4.59961 4.60059 4.77909 4.60059 5V9C4.60059 9.22091 4.78006 9.40039 5.00098 9.40039H9.00098C9.22189 9.40039 9.40137 9.22091 9.40137 9V5C9.40137 4.77909 9.22189 4.59961 9.00098 4.59961H5.00098Z" fill="#171B1C"/>
<path d="M17.0078 3C17.4496 3 17.8076 3.35798 17.8076 3.7998V6.19434H20.2031C20.6446 6.19455 21.0027 6.55267 21.0029 6.99414C21.0029 7.43584 20.6448 7.79373 20.2031 7.79395H17.8076V10.2002C17.8074 10.6418 17.4495 11 17.0078 11C16.5661 11 16.2082 10.6418 16.208 10.2002V7.79395H13.8027C13.3611 7.79395 13.0032 7.43672 13.0029 6.99512C13.0029 6.55329 13.3609 6.19434 13.8027 6.19434H16.208V3.7998C16.208 3.35798 16.566 3 17.0078 3Z" fill="#171B1C"/>
</svg>
