<svg width="24" height="24" viewBox="0 0 24 24" fill="none" xmlns="http://www.w3.org/2000/svg">
<path fill-rule="evenodd" clip-rule="evenodd" d="M9.00195 13C10.1065 13 11.002 13.8954 11.002 15V19C11.002 20.1046 10.1065 21 9.00195 21H5.00195C3.89738 21 3.00195 20.1046 3.00195 19V15C3.00195 13.8954 3.89738 13 5.00195 13H9.00195ZM5.00195 14.5996C4.78104 14.5996 4.60156 14.7791 4.60156 15V19C4.60156 19.2209 4.78104 19.4004 5.00195 19.4004H9.00195C9.22287 19.4004 9.40234 19.2209 9.40234 19V15C9.40234 14.7791 9.22287 14.5996 9.00195 14.5996H5.00195Z" fill="#171B1C"/>
<path fill-rule="evenodd" clip-rule="evenodd" d="M9.00195 3C10.1065 3 11.002 3.89543 11.002 5V9C11.002 10.1046 10.1065 11 9.00195 11H5.00195C3.89738 11 3.00195 10.1046 3.00195 9V5C3.00195 3.89543 3.89738 3 5.00195 3H9.00195ZM5.00195 4.59961C4.78104 4.59961 4.60156 4.77909 4.60156 5V9C4.60156 9.22091 4.78104 9.40039 5.00195 9.40039H9.00195C9.22287 9.40039 9.40234 9.22091 9.40234 9V5C9.40234 4.77909 9.22287 4.59961 9.00195 4.59961H5.00195Z" fill="#171B1C"/>
<path fill-rule="evenodd" clip-rule="evenodd" d="M19.002 3C20.1065 3 21.002 3.89543 21.002 5V9C21.002 10.1046 20.1065 11 19.002 11H15.002C13.8974 11 13.002 10.1046 13.002 9V5C13.002 3.89543 13.8974 3 15.002 3H19.002ZM15.002 4.59961C14.781 4.59961 14.6016 4.77909 14.6016 5V9C14.6016 9.22091 14.781 9.40039 15.002 9.40039H19.002C19.2229 9.40039 19.4023 9.22091 19.4023 9V5C19.4023 4.77909 19.2229 4.59961 19.002 4.59961H15.002Z" fill="#171B1C"/>
<path d="M19.7041 16C20.1456 16.0003 20.5036 16.448 20.5039 17C20.5039 17.5523 20.1458 17.9997 19.7041 18H14.3037C13.862 18 13.5042 17.5531 13.5039 17.001C13.504 16.4487 13.8619 16 14.3037 16H19.7041Z" fill="#171B1C"/>
</svg>
