<svg width="24" height="24" viewBox="0 0 24 24" fill="none" xmlns="http://www.w3.org/2000/svg">
<path fill-rule="evenodd" clip-rule="evenodd" d="M5 4.6H9C9.22091 4.6 9.4 4.77909 9.4 5V9C9.4 9.22091 9.22091 9.4 9 9.4H5C4.77909 9.4 4.6 9.22091 4.6 9V5C4.6 4.77909 4.77909 4.6 5 4.6ZM3 5C3 3.89543 3.89543 3 5 3H9C10.1046 3 11 3.89543 11 5V9C11 10.1046 10.1046 11 9 11H5C3.89543 11 3 10.1046 3 9V5ZM5 14.6H9C9.22091 14.6 9.4 14.7791 9.4 15V19C9.4 19.2209 9.22091 19.4 9 19.4H5C4.77909 19.4 4.6 19.2209 4.6 19V15C4.6 14.7791 4.77909 14.6 5 14.6ZM3 15C3 13.8954 3.89543 13 5 13H9C10.1046 13 11 13.8954 11 15V19C11 20.1046 10.1046 21 9 21H5C3.89543 21 3 20.1046 3 19V15ZM19 4.6H15C14.7791 4.6 14.6 4.77909 14.6 5V9C14.6 9.22091 14.7791 9.4 15 9.4H19C19.2209 9.4 19.4 9.22091 19.4 9V5C19.4 4.77909 19.2209 4.6 19 4.6ZM15 3C13.8954 3 13 3.89543 13 5V9C13 10.1046 13.8954 11 15 11H19C20.1046 11 21 10.1046 21 9V5C21 3.89543 20.1046 3 19 3H15ZM15 14.6H19C19.2209 14.6 19.4 14.7791 19.4 15V19C19.4 19.2209 19.2209 19.4 19 19.4H15C14.7791 19.4 14.6 19.2209 14.6 19V15C14.6 14.7791 14.7791 14.6 15 14.6ZM13 15C13 13.8954 13.8954 13 15 13H19C20.1046 13 21 13.8954 21 15V19C21 20.1046 20.1046 21 19 21H15C13.8954 21 13 20.1046 13 19V15Z" fill="#171B1C"/>
</svg>
