<svg width="24" height="24" viewBox="0 0 24 24" fill="none" xmlns="http://www.w3.org/2000/svg">
<path fill-rule="evenodd" clip-rule="evenodd" d="M6.8 5.6C5.58497 5.6 4.6 6.58497 4.6 7.8C4.6 9.01503 5.58497 10 6.8 10C8.01503 10 9 9.01503 9 7.8C9 6.58497 8.01503 5.6 6.8 5.6ZM3 7.8C3 5.70132 4.70132 4 6.8 4C8.62422 4 10.1482 5.28543 10.5156 6.99992L20.2007 6.99993C20.6425 6.99993 21.0007 7.3581 21.0007 7.79993C21.0007 8.24175 20.6425 8.59993 20.2007 8.59993L10.5157 8.59993C10.1483 10.3145 8.62428 11.6 6.8 11.6C4.70132 11.6 3 9.89868 3 7.8ZM17.2009 13.9999C15.9859 13.9999 15.0009 14.9849 15.0009 16.1999C15.0009 17.4149 15.9859 18.3999 17.2009 18.3999C18.4159 18.3999 19.4009 17.4149 19.4009 16.1999C19.4009 14.9849 18.4159 13.9999 17.2009 13.9999ZM3.8 17.0999H13.5081C13.9123 18.7642 15.4123 19.9999 17.2009 19.9999C19.2996 19.9999 21.0009 18.2986 21.0009 16.1999C21.0009 14.1012 19.2996 12.3999 17.2009 12.3999C15.3413 12.3999 13.7937 13.7356 13.4652 15.4999H3.8C3.35817 15.4999 3 15.8581 3 16.2999C3 16.7418 3.35817 17.0999 3.8 17.0999Z" fill="#171B1C"/>
</svg>
