<svg width="24" height="24" viewBox="0 0 24 24" fill="none" xmlns="http://www.w3.org/2000/svg">
<path fill-rule="evenodd" clip-rule="evenodd" d="M14.4262 6.13808L15.977 7.01151C16.2914 7.18617 16.6686 7.24782 17.0249 7.1656L18.3766 6.88821C18.6386 6.82656 18.9111 6.94986 19.0473 7.17589L19.7913 8.43979C19.9275 8.66581 19.8961 8.95355 19.7074 9.14872L18.8063 10.1249C18.5652 10.392 18.429 10.7414 18.429 11.101V12.9095C18.429 13.2691 18.5652 13.6185 18.8063 13.8857L19.7074 14.8618C19.8961 15.057 19.9275 15.3447 19.7913 15.5707L19.0473 16.8346C18.9111 17.0607 18.6386 17.184 18.3766 17.1223L17.0249 16.8449C16.6686 16.7627 16.2914 16.8244 15.977 16.999L14.4262 17.8725C14.1118 18.0471 13.8708 18.3451 13.7556 18.6842L13.3364 19.9789C13.2526 20.2357 13.0116 20.4001 12.7391 20.4001H11.2511C10.9892 20.4001 10.7482 20.2357 10.6643 19.9789L10.2347 18.6842C10.1299 18.3451 9.88893 18.0471 9.56409 17.8725L8.0237 16.999C7.69886 16.8244 7.33213 16.7627 6.97583 16.8449L5.6241 17.1223C5.36213 17.184 5.08968 17.0607 4.95345 16.8346L4.20951 15.5707C4.07328 15.3447 4.10468 15.057 4.2828 14.8618L5.18401 13.8857C5.43549 13.6185 5.57172 13.2691 5.57172 12.9095V11.101C5.57172 10.7414 5.43549 10.392 5.18401 10.1249L4.2828 9.14872C4.10468 8.95355 4.07328 8.66581 4.20951 8.43979L4.95345 7.17589C5.0687 6.99094 5.2678 6.86764 5.48787 6.86764H5.49836C5.52904 6.86764 5.55413 6.87316 5.58593 6.88015C5.59755 6.88271 5.61008 6.88546 5.6241 6.88821L6.9654 7.1656C7.33213 7.24782 7.69886 7.18617 8.0237 7.01151L9.56409 6.13808C9.88893 5.96342 10.1299 5.66546 10.2347 5.32636L10.6643 4.03166C10.6852 3.98052 10.7064 3.92876 10.7377 3.8878C10.853 3.71313 11.0416 3.60012 11.2511 3.60012H12.7391C13.0116 3.60012 13.2526 3.77478 13.3364 4.03166L13.7556 5.32636C13.8708 5.66546 14.1118 5.96342 14.4262 6.13808ZM15.2571 4.76974L16.7215 5.59451L18.0393 5.3241C18.9991 5.1117 19.9444 5.56486 20.4176 6.34996L20.4219 6.35707L21.1673 7.62333C21.6703 8.46729 21.5459 9.53358 20.8745 10.2434L20.029 11.1592V12.8514L20.8745 13.7672C21.5459 14.477 21.6703 15.5432 21.1673 16.3872L20.4219 17.6535L20.4176 17.6606C19.9444 18.4457 18.9991 18.8988 18.0393 18.6864L16.7215 18.416L15.2571 19.2408L14.8575 20.475C14.5445 21.4348 13.656 22.0001 12.7391 22.0001H11.2511C10.3301 22.0001 9.45462 21.422 9.14487 20.4801L9.14332 20.4753L8.7337 19.2409L7.27898 18.4161L5.96147 18.6864C5.00169 18.8988 4.0563 18.4457 3.5831 17.6606L3.57881 17.6534L2.83357 16.3873C2.33007 15.5427 2.45859 14.4871 3.10099 13.7832L3.10718 13.7765L3.97172 12.8401V11.1705L3.10097 10.2273C2.45857 9.52342 2.33007 8.46786 2.83357 7.62319L3.58484 6.34685L3.59553 6.32969C3.96992 5.72888 4.65571 5.26764 5.48787 5.26764H5.49836C5.65955 5.26764 5.78825 5.28887 5.86546 5.30403C5.89438 5.3097 5.92233 5.31588 5.93006 5.3176L5.93163 5.31794C5.93373 5.3184 5.93627 5.31896 5.93627 5.31896L5.94027 5.31974L7.27623 5.59603L8.7337 4.76962L9.16274 3.47661L9.18312 3.42671L9.18377 3.42502C9.1919 3.40357 9.27288 3.1902 9.42303 2.97563C9.80382 2.41899 10.4597 2.00012 11.2511 2.00012H12.7391C13.6996 2.00012 14.5576 2.61603 14.8575 3.53554L14.8586 3.53883L15.2571 4.76974ZM11.9952 9.71097C10.659 9.71097 9.6237 10.7708 9.6237 12.0053C9.6237 13.2397 10.659 14.2996 11.9952 14.2996C13.339 14.2996 14.3666 13.2424 14.3666 12.0053C14.3666 10.7681 13.339 9.71097 11.9952 9.71097ZM8.0237 12.0053C8.0237 9.85771 9.80508 8.11097 11.9952 8.11097C14.1957 8.11097 15.9666 9.85771 15.9666 12.0053C15.9666 14.1528 14.1957 15.8996 11.9952 15.8996C9.80508 15.8996 8.0237 14.1528 8.0237 12.0053Z" fill="#171B1C"/>
</svg>
