<svg width="24" height="24" viewBox="0 0 24 24" fill="none" xmlns="http://www.w3.org/2000/svg">
<path fill-rule="evenodd" clip-rule="evenodd" d="M3.6 4.76863V3.6H4.76863L3.6 4.76863ZM3.6 7.03137V8.26863L8.26863 3.6H7.03137L3.6 7.03137ZM9.4 4.73137L4.73137 9.4H5.96863L9.4 5.96863V4.73137ZM9.4 8.23137L8.23137 9.4H9.4V8.23137ZM2 3C2 2.44772 2.44772 2 3 2H10C10.5523 2 11 2.44772 11 3V10C11 10.5523 10.5523 11 10 11H3C2.44772 11 2 10.5523 2 10V3ZM14.6 14.6V20.4H20.4V14.6H14.6ZM14 13C13.4477 13 13 13.4477 13 14V21C13 21.5523 13.4477 22 14 22H21C21.5523 22 22 21.5523 22 21V14C22 13.4477 21.5523 13 21 13H14ZM13.2998 5.00005C12.858 5.00005 12.4998 5.35822 12.4998 5.80005C12.4998 6.24188 12.858 6.60005 13.2998 6.60005H15.4998C16.1625 6.60005 16.6998 7.13731 16.6998 7.80005V8.99036L16.1144 8.28785C15.8315 7.94843 15.3271 7.90257 14.9877 8.18542C14.6482 8.46827 14.6024 8.97273 14.8852 9.31215L16.8852 11.7121C17.0372 11.8945 17.2624 12 17.4998 12C17.7372 12 17.9624 11.8945 18.1144 11.7121L20.1144 9.31215C20.3972 8.97273 20.3514 8.46827 20.012 8.18542C19.6725 7.90257 19.1681 7.94843 18.8852 8.28785L18.2998 8.99036V7.80005C18.2998 6.25365 17.0462 5.00005 15.4998 5.00005H13.2998Z" fill="#171B1C"/>
</svg>
