<svg width="24" height="24" viewBox="0 0 24 24" fill="none" xmlns="http://www.w3.org/2000/svg">
<path fill-rule="evenodd" clip-rule="evenodd" d="M5.8 3C4.2536 3 3 4.2536 3 5.8V18.2C3 19.7464 4.2536 21 5.8 21H18.2C19.7464 21 21 19.7464 21 18.2V5.8C21 4.2536 19.7464 3 18.2 3H5.8ZM4.6 5.8C4.6 5.13726 5.13726 4.6 5.8 4.6H14V19.4H5.8C5.13726 19.4 4.6 18.8627 4.6 18.2V5.8ZM15.6 19.4H18.2C18.8627 19.4 19.4 18.8627 19.4 18.2V17.5998H15.6V19.4ZM15.6 15.9998V14.3999H19.4V15.9998H15.6ZM15.6 12.7999H19.4V11.1999H15.6V12.7999ZM15.6 9.5999V7.99995H19.4V9.5999H15.6ZM15.6 6.39995H19.4V5.8C19.4 5.13726 18.8627 4.6 18.2 4.6H15.6V6.39995Z" fill="#171B1C"/>
</svg>
