<svg width="24" height="24" viewBox="0 0 24 24" fill="none" xmlns="http://www.w3.org/2000/svg">
<path d="M17.3593 14.4474C17.3593 15.5236 18.2292 16.3935 19.3054 16.3935C20.3817 16.3935 21.2515 15.5236 21.2515 14.4474C21.2515 13.3711 20.3817 12.5013 19.3054 12.5013H17.3593V14.4474ZM16.3862 14.4474C16.3862 13.3711 15.5164 12.5013 14.4401 12.5013C13.3639 12.5013 12.494 13.3711 12.494 14.4474V19.3127C12.494 20.3889 13.3639 21.2588 14.4401 21.2588C15.5164 21.2588 16.3862 20.3889 16.3862 19.3127V14.4474Z" fill="#E01E5A"/>
<path d="M14.4402 6.63344C15.5164 6.63344 16.3863 5.76359 16.3863 4.68733C16.3863 3.61107 15.5164 2.74121 14.4402 2.74121C13.3639 2.74121 12.494 3.61107 12.494 4.68733V6.63344H14.4402ZM14.4402 7.62124C13.3639 7.62124 12.494 8.4911 12.494 9.56736C12.494 10.6436 13.3639 11.5135 14.4402 11.5135H19.3202C20.3964 11.5135 21.2663 10.6436 21.2663 9.56736C21.2663 8.4911 20.3964 7.62124 19.3202 7.62124H14.4402Z" fill="#36C5F0"/>
<path d="M6.64088 9.56736C6.64088 8.4911 5.77102 7.62124 4.69476 7.62124C3.6185 7.62124 2.74865 8.4911 2.74865 9.56736C2.74865 10.6436 3.6185 11.5135 4.69476 11.5135H6.64088V9.56736ZM7.61393 9.56736C7.61393 10.6436 8.48379 11.5135 9.56005 11.5135C10.6363 11.5135 11.5062 10.6436 11.5062 9.56736V4.68733C11.5062 3.61107 10.6363 2.74121 9.56005 2.74121C8.48379 2.74121 7.61393 3.61107 7.61393 4.68733V9.56736Z" fill="#2EB67D"/>
<path d="M9.56005 17.3666C8.48379 17.3666 7.61393 18.2364 7.61393 19.3127C7.61393 20.3889 8.48379 21.2588 9.56005 21.2588C10.6363 21.2588 11.5062 20.3889 11.5062 19.3127V17.3666H9.56005ZM9.56005 16.3935C10.6363 16.3935 11.5062 15.5236 11.5062 14.4474C11.5062 13.3711 10.6363 12.5013 9.56005 12.5013H4.68002C3.60376 12.5013 2.7339 13.3711 2.7339 14.4474C2.7339 15.5236 3.60376 16.3935 4.68002 16.3935H9.56005Z" fill="#ECB22E"/>
</svg>
