<svg width="24" height="24" viewBox="0 0 24 24" fill="none" xmlns="http://www.w3.org/2000/svg">
<path fill-rule="evenodd" clip-rule="evenodd" d="M2.9998 3.8C2.9998 2.80589 3.80569 2 4.7998 2H13.7998C14.7939 2 15.5998 2.80589 15.5998 3.8V17C15.5998 17.9941 14.7939 18.8 13.7998 18.8H4.7998C3.80569 18.8 2.9998 17.9941 2.9998 17V3.8ZM4.7998 3.6C4.68934 3.6 4.5998 3.68954 4.5998 3.8V17C4.5998 17.1105 4.68934 17.2 4.7998 17.2H13.7998C13.9103 17.2 13.9998 17.1105 13.9998 17V3.8C13.9998 3.68954 13.9103 3.6 13.7998 3.6H4.7998Z" fill="#171B1C"/>
<path fill-rule="evenodd" clip-rule="evenodd" d="M17.2 4.80005C17.2 3.80594 18.0059 3.00005 19 3.00005H20.2C20.6418 3.00005 21 3.35822 21 3.80005C21 4.24188 20.6418 4.60005 20.2 4.60005H19C18.8895 4.60005 18.8 4.68959 18.8 4.80005V16.2C18.8 16.3105 18.8895 16.4 19 16.4H20.2C20.6418 16.4 21 16.7582 21 17.2C21 17.6419 20.6418 18 20.2 18H19C18.0059 18 17.2 17.1942 17.2 16.2V4.80005Z" fill="#171B1C"/>
<path fill-rule="evenodd" clip-rule="evenodd" d="M2.9998 21.2C2.9998 20.7582 3.35797 20.4 3.7998 20.4H14.7998C15.2416 20.4 15.5998 20.7582 15.5998 21.2C15.5998 21.6418 15.2416 22 14.7998 22H3.7998C3.35797 22 2.9998 21.6418 2.9998 21.2Z" fill="#171B1C"/>
<path fill-rule="evenodd" clip-rule="evenodd" d="M17.2 20.2C17.2 19.7581 17.5582 19.4 18 19.4H20.2C20.6418 19.4 21 19.7581 21 20.2C21 20.6418 20.6418 21 20.2 21H18C17.5582 21 17.2 20.6418 17.2 20.2Z" fill="#171B1C"/>
<path d="M7.4 13.0705V7.72956C7.4 7.46588 7.69828 7.30935 7.91944 7.45697L11.9201 10.1274C12.1155 10.2579 12.1155 10.5422 11.9201 10.6726L7.91944 13.3431C7.69828 13.4907 7.4 13.3342 7.4 13.0705Z" fill="#171B1C"/>
</svg>
