<svg width="24" height="24" viewBox="0 0 24 24" fill="none" xmlns="http://www.w3.org/2000/svg">
<path fill-rule="evenodd" clip-rule="evenodd" d="M3.59961 2.7998C3.59948 2.35809 3.24155 2 2.7998 2C2.35806 2 2.00013 2.35809 2 2.7998V21.2002C2.00021 21.6418 2.35811 22 2.7998 22H21.2002L21.2812 21.9961C21.6847 21.9553 21.9998 21.6144 22 21.2002C21.9999 20.786 21.6847 20.4451 21.2812 20.4043L21.2002 20.3994H3.59961V2.7998ZM22 6.7998C21.9999 6.24763 21.5522 5.7998 21 5.7998C18.882 5.7998 17.4128 6.64721 16.2881 7.87402C15.3967 8.84649 14.6983 10.093 14.0474 11.2546C13.9241 11.4747 13.8025 11.6918 13.6816 11.9033C12.8883 13.2916 12.0789 14.546 10.9258 15.4688C9.80472 16.3656 8.29171 17 6 17C5.4478 17 5.00013 17.4478 5 18C5.00011 18.5522 5.44778 19 6 19C8.70829 19 10.6709 18.2334 12.1748 17.0303C13.6462 15.8531 14.6115 14.3069 15.418 12.8955C15.5588 12.649 15.694 12.4085 15.8256 12.1745C16.4791 11.0121 17.0422 10.0106 17.7617 9.22559C18.562 8.35263 19.5182 7.7998 21 7.7998C21.5523 7.7998 22 7.35209 22 6.7998ZM7.95117 13.6152C7.81752 13.115 7.32758 12.805 6.82715 12.8857L6.72754 12.9072C6.50328 12.9671 6.26251 13 6 13C5.44773 13 5.00003 13.4477 5 14C5 14.5523 5.44772 15 6 15C6.32551 15 6.63988 14.9692 6.94336 14.9092L7.24316 14.8398C7.77676 14.6974 8.09355 14.1488 7.95117 13.6152ZM11.6279 8.89941C11.1561 8.61254 10.5409 8.76268 10.2539 9.23438C9.902 9.81314 9.56069 10.3518 9.21094 10.8359C8.88788 11.2836 8.98905 11.9081 9.43652 12.2314C9.8842 12.5549 10.5096 12.4545 10.833 12.0068C11.2298 11.4575 11.6022 10.865 11.9619 10.2734C12.2488 9.80164 12.0996 9.18642 11.6279 8.89941ZM15.252 4.18555C14.8921 3.81338 14.3131 3.78024 13.915 4.09375L13.8379 4.16113C13.4477 4.5384 13.0897 4.94734 12.7568 5.37109L12.4316 5.79883C12.1052 6.2443 12.202 6.87081 12.6475 7.19727C13.0651 7.50313 13.6412 7.43707 13.9805 7.06055L14.0449 6.98145C14.3269 6.59667 14.6167 6.23828 14.9199 5.91309L15.2275 5.59961C15.6245 5.21579 15.6356 4.58261 15.252 4.18555Z" fill="#171B1C"/>
<path d="M19 2C18.6033 2 18.221 2.02921 17.8525 2.08594C17.3067 2.16998 16.9326 2.68071 17.0166 3.22656C17.1007 3.77225 17.6106 4.14633 18.1562 4.0625C18.421 4.02173 18.7019 4 19 4C19.5523 4 20 3.55228 20 3C20 2.44772 19.5523 2 19 2Z" fill="#171B1C"/>
</svg>
