<svg width="24" height="24" viewBox="0 0 24 24" fill="none" xmlns="http://www.w3.org/2000/svg">
<path fill-rule="evenodd" clip-rule="evenodd" d="M15.978 3.15487C16.268 2.54815 17.1314 2.54815 17.4214 3.15487L18.2231 4.83357C18.3956 5.1947 18.6723 5.49444 19.0151 5.69587L19.1665 5.77692L20.8452 6.57867C21.4519 6.86864 21.4519 7.73208 20.8452 8.02202L19.1665 8.82377C18.7536 9.02095 18.4203 9.35427 18.2231 9.76712L17.4214 11.4458C17.1495 12.0146 16.3734 12.0501 16.0386 11.5523L15.978 11.4458L15.1763 9.76712C14.9791 9.35427 14.6458 9.02095 14.2329 8.82377L12.5542 8.02202C11.9475 7.73208 11.9476 6.86864 12.5542 6.57867L14.2329 5.77692C14.594 5.60446 14.8938 5.32772 15.0952 4.98493L15.1763 4.83357L15.978 3.15487ZM14.9224 7.22027C15.6655 6.86537 16.2647 6.26609 16.6196 5.52302L16.6997 5.35407L16.7798 5.52302C17.1347 6.26609 17.734 6.86537 18.4771 7.22027L18.645 7.29937L18.4771 7.38042C17.734 7.73534 17.1347 8.33457 16.7798 9.07768L16.6997 9.24467L16.6196 9.07768C16.2647 8.33457 15.6655 7.73534 14.9224 7.38042L14.7544 7.29937L14.9224 7.22027Z" fill="#171B1C"/>
<path fill-rule="evenodd" clip-rule="evenodd" d="M8.69971 3.30038C9.80428 3.30038 10.6997 4.1958 10.6997 5.30036V9.30033C10.6996 10.4048 9.80422 11.3003 8.69971 11.3003H4.69971C3.5952 11.3003 2.6998 10.4048 2.69971 9.30033V5.30036C2.69971 4.1958 3.59514 3.30038 4.69971 3.30038H8.69971ZM4.29932 5.30036C4.29932 5.07945 4.47879 4.89997 4.69971 4.89997H8.69971C8.92062 4.89997 9.1001 5.07945 9.1001 5.30036V9.30033C9.1 9.52116 8.92056 9.69974 8.69971 9.69974H4.69971C4.47885 9.69974 4.29941 9.52116 4.29932 9.30033V5.30036Z" fill="#171B1C"/>
<path fill-rule="evenodd" clip-rule="evenodd" d="M10.6997 15.3003C10.6997 14.1957 9.80428 13.3003 8.69971 13.3003H4.69971C3.59514 13.3003 2.69971 14.1957 2.69971 15.3003V19.3003C2.6998 20.4047 3.5952 21.3002 4.69971 21.3002H8.69971C9.80422 21.3002 10.6996 20.4047 10.6997 19.3003V15.3003ZM4.69971 14.8999C4.47879 14.8999 4.29932 15.0794 4.29932 15.3003V19.3003C4.29941 19.5211 4.47885 19.6997 4.69971 19.6997H8.69971C8.92056 19.6997 9.1 19.5211 9.1001 19.3003V15.3003C9.1001 15.0794 8.92062 14.8999 8.69971 14.8999H4.69971Z" fill="#171B1C"/>
<path fill-rule="evenodd" clip-rule="evenodd" d="M18.6997 13.3003C19.8043 13.3003 20.6997 14.1957 20.6997 15.3003V19.3003C20.6996 20.4047 19.8042 21.3002 18.6997 21.3002H14.6997C13.5952 21.3002 12.6998 20.4047 12.6997 19.3003V15.3003C12.6997 14.1957 13.5951 13.3003 14.6997 13.3003H18.6997ZM14.2993 15.3003C14.2993 15.0794 14.4788 14.8999 14.6997 14.8999H18.6997C18.9206 14.8999 19.1001 15.0794 19.1001 15.3003V19.3003C19.1 19.5211 18.9206 19.6997 18.6997 19.6997H14.6997C14.4789 19.6997 14.2994 19.5211 14.2993 19.3003V15.3003Z" fill="#171B1C"/>
</svg>
