<svg width="24" height="24" viewBox="0 0 24 24" fill="none" xmlns="http://www.w3.org/2000/svg">
<path d="M20.7422 16.8881C17.5861 15.3417 17.0831 12.9543 17.0607 12.7772C17.0336 12.5627 17.0029 12.394 17.2367 12.1758C17.4622 11.965 18.4625 11.3383 18.74 11.1423C19.1988 10.8176 19.4008 10.4935 19.2519 10.0951C19.1477 9.81942 18.8942 9.71559 18.627 9.71559C18.5428 9.71585 18.4588 9.72539 18.3766 9.74405C17.8725 9.85473 17.383 10.1103 17.0998 10.1794C17.0657 10.1883 17.0308 10.193 16.9956 10.1936C16.8446 10.1936 16.7873 10.1256 16.8019 9.94169C16.8373 9.38408 16.9123 8.29574 16.8254 7.27908C16.7061 5.88032 16.2604 5.18726 15.7319 4.57431C15.4762 4.27706 14.289 3.00005 11.9978 3.00005C9.70667 3.00005 8.52101 4.27706 8.2669 4.57063C7.73681 5.18357 7.2916 5.87663 7.1734 7.27539C7.08644 8.29206 7.16455 9.37987 7.19683 9.938C7.20725 10.113 7.15413 10.1899 7.00313 10.1899C6.96798 10.1893 6.93303 10.1845 6.89898 10.1757C6.61624 10.1067 6.12677 9.85104 5.62271 9.74036C5.54049 9.7217 5.45651 9.71216 5.37225 9.7119C5.10408 9.7119 4.85154 9.81731 4.7474 10.0914C4.59847 10.4898 4.79947 10.8139 5.25978 11.1386C5.53732 11.3347 6.53761 11.9608 6.76308 12.1721C6.99636 12.3903 6.96616 12.559 6.93908 12.7735C6.91669 12.9532 6.41316 15.3407 3.25763 16.8844C3.07278 16.975 2.75827 17.1669 3.31283 17.4768C4.18346 17.9638 4.76302 17.9116 5.21343 18.2052C5.59564 18.4544 5.36965 18.992 5.64771 19.186C5.9893 19.4247 6.99896 19.1691 8.30335 19.605C9.39685 19.9697 10.0613 21 12.0004 21C13.9396 21 14.6233 19.9649 15.6975 19.605C16.9993 19.1691 18.011 19.4247 18.3531 19.186C18.6307 18.992 18.4052 18.4544 18.7874 18.2052C19.2378 17.9116 19.8169 17.9638 20.688 17.4768C21.2415 17.1706 20.927 16.9787 20.7422 16.8881Z" fill="#171B1C"/>
</svg>
