<svg width="24" height="24" viewBox="0 0 24 24" fill="none" xmlns="http://www.w3.org/2000/svg">
<path d="M3.8 4C3.35817 4 3 4.35817 3 4.8V9.19995C3 9.64178 3.35817 9.99995 3.8 9.99995C4.24183 9.99995 4.6 9.64178 4.6 9.19995V6.73137L11.2 13.3314V21.2C11.2 21.6418 11.5582 22 12 22C12.4418 22 12.8 21.6418 12.8 21.2V13C12.8 12.7878 12.7157 12.5843 12.5657 12.4343L5.73137 5.6H8.2002C8.64202 5.6 9.0002 5.24183 9.0002 4.8C9.0002 4.35817 8.64202 4 8.2002 4H3.8Z" fill="#171B1C"/>
<path d="M20.2 4C20.6418 4 21 4.35817 21 4.8V9.19995C21 9.64178 20.6418 9.99995 20.2 9.99995C19.7582 9.99995 19.4 9.64178 19.4 9.19995V6.73131L15.3655 10.7656C15.0531 11.0781 14.5465 11.0781 14.2341 10.7656C13.9217 10.4532 13.9217 9.94667 14.2341 9.63425L18.2686 5.6H15.7998C15.358 5.6 14.9998 5.24183 14.9998 4.8C14.9998 4.35817 15.358 4 15.7998 4H20.2Z" fill="#171B1C"/>
</svg>
