<svg width="24" height="24" viewBox="0 0 24 24" fill="none" xmlns="http://www.w3.org/2000/svg">
<path fill-rule="evenodd" clip-rule="evenodd" d="M3.9998 5.8C3.9998 4.80589 4.80569 4 5.7998 4H18.1998C19.1939 4 19.9998 4.80589 19.9998 5.8V18.2C19.9998 19.1941 19.1939 20 18.1998 20H5.7998C4.80569 20 3.9998 19.1941 3.9998 18.2V5.8ZM5.7998 5.6C5.68935 5.6 5.5998 5.68954 5.5998 5.8V18.2C5.5998 18.3105 5.68934 18.4 5.7998 18.4H18.1998C18.3103 18.4 18.3998 18.3105 18.3998 18.2V5.8C18.3998 5.68954 18.3103 5.6 18.1998 5.6H5.7998Z" fill="#171B1C"/>
</svg>
