<svg width="24" height="24" viewBox="0 0 24 24" fill="none" xmlns="http://www.w3.org/2000/svg">
<path d="M10 12L2 17L2 7L10 12Z" fill="#2B95A8"/>
<path d="M2.5 7.90137L9.05664 12L2.5 16.0986L2.5 7.90137Z" stroke="black" stroke-opacity="0.1"/>
<path d="M12 5C15.866 5 19 8.13401 19 12C19 15.866 15.866 19 12 19C9.9706 19 8.14377 18.1356 6.86523 16.7559L14 12L6.86523 7.24316C8.14375 5.86373 9.97086 5 12 5Z" fill="#A8B6BD"/>
<path d="M12 5.5C15.5899 5.5 18.5 8.41015 18.5 12C18.5 15.5899 15.5899 18.5 12 18.5C10.3282 18.5 8.80539 17.8679 7.65332 16.8301L14.2773 12.416L14.9014 12L14.2773 11.584L7.6543 7.16797C8.8062 6.13107 10.3288 5.5 12 5.5Z" stroke="black" stroke-opacity="0.33"/>
</svg>
