<svg width="24" height="24" viewBox="0 0 24 24" fill="none" xmlns="http://www.w3.org/2000/svg">
<path d="M10 12L2 17L2 7L10 12Z" fill="#2B95A8"/>
<path d="M2.5 7.90137L9.05664 12L2.5 16.0986L2.5 7.90137Z" stroke="black" stroke-opacity="0.1"/>
<mask id="path-3-inside-1_7843_2569" fill="white">
<path d="M12 5C15.866 5 19 8.13401 19 12C19 15.866 15.866 19 12 19C9.9706 19 8.14377 18.1356 6.86523 16.7559L14 12L6.86523 7.24316C8.14375 5.86373 9.97086 5 12 5Z"/>
</mask>
<path d="M12 5C15.866 5 19 8.13401 19 12C19 15.866 15.866 19 12 19C9.9706 19 8.14377 18.1356 6.86523 16.7559L14 12L6.86523 7.24316C8.14375 5.86373 9.97086 5 12 5Z" fill="#12B76A"/>
<path d="M19 12H20H19ZM6.86523 16.7559L6.31059 15.9238L5.33404 16.5747L6.13174 17.4356L6.86523 16.7559ZM14 12L14.5546 12.8321L15.8028 12.0001L14.5547 11.168L14 12ZM6.86523 7.24316L6.13181 6.5634L5.33402 7.42416L6.31051 8.0752L6.86523 7.24316ZM12 5V6C15.3137 6 18 8.68629 18 12H19H20C20 7.58172 16.4183 4 12 4V5ZM19 12H18C18 15.3137 15.3137 18 12 18V19V20C16.4183 20 20 16.4183 20 12H19ZM12 19V18C10.2609 18 8.69624 17.2606 7.59873 16.0762L6.86523 16.7559L6.13174 17.4356C7.5913 19.0107 9.68031 20 12 20V19ZM6.86523 16.7559L7.41988 17.5879L14.5546 12.8321L14 12L13.4454 11.1679L6.31059 15.9238L6.86523 16.7559ZM14 12L14.5547 11.168L7.41996 6.41113L6.86523 7.24316L6.31051 8.0752L13.4453 12.832L14 12ZM6.86523 7.24316L7.59866 7.92293C8.69599 6.73898 10.2609 6 12 6V5V4C9.68083 4 7.5915 4.98847 6.13181 6.5634L6.86523 7.24316Z" fill="black" fill-opacity="0.33" mask="url(#path-3-inside-1_7843_2569)"/>
</svg>
