<svg width="24" height="24" viewBox="0 0 24 24" fill="none" xmlns="http://www.w3.org/2000/svg">
<path d="M12.9141 18.9404L13.0439 19.9326C12.7019 19.9772 12.3532 20 12 20C11.6468 20 11.2981 19.9772 10.9561 19.9326L11.0859 18.9404V18.9385C11.2685 18.9623 11.4529 18.9817 11.6396 18.9912L12 19C12.3096 19 12.6141 18.9774 12.9131 18.9385L12.9141 18.9404Z" fill="#171B1C"/>
<path d="M7.73828 17.5518C8.22012 17.9222 8.75098 18.2316 9.32031 18.4678L8.9375 19.3926C8.28658 19.1227 7.67909 18.7695 7.12891 18.3467L7.73828 17.5537V17.5518Z" fill="#171B1C"/>
<path d="M16.2617 17.5537L16.8711 18.3467C16.3209 18.7695 15.7134 19.1227 15.0625 19.3926L14.6797 18.4688L14.6787 18.4678C15.2481 18.2317 15.7788 17.9222 16.2607 17.5518L16.2617 17.5537Z" fill="#171B1C"/>
<path d="M5.53125 14.6787C5.76728 15.2481 6.07696 15.7789 6.44727 16.2607L6.44629 16.2617L5.65332 16.8711C5.23053 16.3209 4.87735 15.7134 4.60742 15.0625L5.53125 14.6787Z" fill="#171B1C"/>
<path d="M18.4688 14.6797L19.3926 15.0625C19.1227 15.7134 18.7695 16.3209 18.3467 16.8711L17.5537 16.2617L17.5518 16.2607C17.9222 15.7788 18.2317 15.2481 18.4678 14.6787L18.4688 14.6797Z" fill="#171B1C"/>
<path d="M12 11.2002H15.5996L11.5996 16L12 12.7998H8.40039L12.4004 8L12 11.2002Z" fill="#171B1C"/>
<path d="M5.05957 11.0859C5.02054 11.3852 5 11.6901 5 12L5.00879 12.3604C5.01824 12.5467 5.03681 12.7309 5.06055 12.9131L5.05957 12.9141L4.06738 13.0439C4.02277 12.7019 4 12.3532 4 12C4 11.6468 4.02277 11.2981 4.06738 10.9561L5.05957 11.0859Z" fill="#171B1C"/>
<path d="M19.9326 10.9561C19.9772 11.2981 20 11.6468 20 12C20 12.3532 19.9772 12.7019 19.9326 13.0439L18.9404 12.9141L18.9385 12.9131C18.9622 12.7308 18.9818 12.5467 18.9912 12.3604L19 12C19 11.6901 18.9775 11.3852 18.9385 11.0859H18.9404L19.9326 10.9561Z" fill="#171B1C"/>
<path d="M6.44629 7.73828C6.07595 8.22009 5.76734 8.75104 5.53125 9.32031L4.60742 8.9375C4.87735 8.28658 5.23053 7.67909 5.65332 7.12891L6.44629 7.73828Z" fill="#171B1C"/>
<path d="M18.3467 7.12891C18.7695 7.67909 19.1227 8.28658 19.3926 8.9375L18.4688 9.32031C18.2326 8.75098 17.9222 8.22012 17.5518 7.73828H17.5537L18.3467 7.12891Z" fill="#171B1C"/>
<path d="M9.32031 5.53125C8.75104 5.76734 8.22009 6.07693 7.73828 6.44727L7.12891 5.65332C7.67909 5.23053 8.28658 4.87735 8.9375 4.60742L9.32031 5.53125Z" fill="#171B1C"/>
<path d="M15.0625 4.60742C15.7134 4.87735 16.3209 5.23053 16.8711 5.65332L16.2617 6.44629L16.2607 6.44727C15.7789 6.07696 15.2481 5.76728 14.6787 5.53125L15.0625 4.60742Z" fill="#171B1C"/>
<path d="M12 4C12.3532 4 12.7019 4.02277 13.0439 4.06738L12.9141 5.05957L12.9131 5.06055C12.7309 5.03681 12.5467 5.01824 12.3604 5.00879L12 5C11.6901 5 11.3852 5.02152 11.0859 5.06055L10.9561 4.06738C11.2981 4.02277 11.6468 4 12 4Z" fill="#171B1C"/>
</svg>
