<svg width="24" height="24" viewBox="0 0 24 24" fill="none" xmlns="http://www.w3.org/2000/svg">
<path fill-rule="evenodd" clip-rule="evenodd" d="M6 3.93754C6 2.86749 6.86745 2.00005 7.9375 2.00005H16.0625C17.1326 2.00005 18 2.86749 18 3.93755V20.0625C18 21.1326 17.1325 22 16.0625 22H7.9375C6.86745 22 6 21.1326 6 20.0625V3.93754ZM7.9375 3.60005C7.7511 3.60005 7.6 3.75115 7.6 3.93754V20.0625C7.6 20.2489 7.7511 20.4 7.9375 20.4H16.0625C16.2489 20.4 16.4 20.2489 16.4 20.0625V3.93755C16.4 3.75115 16.2489 3.60005 16.0625 3.60005H7.9375Z" fill="#171B1C"/>
</svg>
