<svg width="24" height="24" viewBox="0 0 24 24" fill="none" xmlns="http://www.w3.org/2000/svg">
<path fill-rule="evenodd" clip-rule="evenodd" d="M6 3.93756C6 2.8675 6.86745 2.00006 7.9375 2.00006H16.0625C17.1326 2.00006 18 2.86751 18 3.93756V20.0626C18 21.1326 17.1325 22.0001 16.0625 22.0001H7.9375C6.86745 22.0001 6 21.1326 6 20.0626V3.93756ZM7.9375 3.60006C7.7511 3.60006 7.6 3.75116 7.6 3.93756V20.0626C7.6 20.249 7.7511 20.4001 7.9375 20.4001H16.0625C16.2489 20.4001 16.4 20.249 16.4 20.0626V3.93756C16.4 3.75117 16.2489 3.60006 16.0625 3.60006H7.9375Z" fill="#171B1C"/>
</svg>
