<svg width="24" height="24" viewBox="0 0 24 24" fill="none" xmlns="http://www.w3.org/2000/svg">
<path fill-rule="evenodd" clip-rule="evenodd" d="M18.3979 5.26864C18.1044 4.93841 17.5987 4.90867 17.2685 5.2022C16.9383 5.49574 16.9085 6.0014 17.2021 6.33162L18.4185 7.70013H7.7998C7.35798 7.70013 6.9998 8.0583 6.9998 8.50013C6.9998 8.94196 7.35798 9.30013 7.7998 9.30013H18.4185L17.2021 10.6686C16.9085 10.9988 16.9383 11.5045 17.2685 11.798C17.5987 12.0915 18.1044 12.0618 18.3979 11.7316L20.7979 9.03163C21.0674 8.72852 21.0674 8.27175 20.7979 7.96864L18.3979 5.26864ZM5.60207 12.2685C5.89561 11.9383 6.40126 11.9085 6.73149 12.2021C7.06172 12.4956 7.09146 13.0013 6.79793 13.3315L5.58147 14.7H16.2002C16.642 14.7 17.0002 15.0582 17.0002 15.5C17.0002 15.9418 16.642 16.3 16.2002 16.3H5.5815L6.79792 17.6685C7.09146 17.9987 7.06172 18.5043 6.7315 18.7979C6.40127 19.0914 5.89561 19.0617 5.60208 18.7315L3.20208 16.0315C2.93264 15.7284 2.93264 15.2716 3.20207 14.9685L5.60207 12.2685Z" fill="#171B1C"/>
</svg>
