<svg width="24" height="24" viewBox="0 0 24 24" fill="none" xmlns="http://www.w3.org/2000/svg">
<path fill-rule="evenodd" clip-rule="evenodd" d="M17.5487 7.10144C15.267 4.51278 11.405 3.80105 8.30153 5.59285C4.76217 7.63631 3.54949 12.1621 5.59295 15.7014C7.6364 19.2408 12.1622 20.4535 15.7015 18.41C17.553 17.3411 18.7674 15.5943 19.2129 13.662C19.3121 13.2314 19.7416 12.9629 20.1721 13.0621C20.6027 13.1613 20.8712 13.5908 20.772 14.0214C20.231 16.3682 18.7532 18.4957 16.5015 19.7957C12.1969 22.281 6.69259 20.8061 4.2073 16.5014C1.72202 12.1968 3.1969 6.69249 7.50153 4.20721C11.081 2.14059 15.4901 2.81229 18.3029 5.57234V3.80138C18.3029 3.35955 18.6611 3.00138 19.1029 3.00138C19.5448 3.00138 19.9029 3.35955 19.9029 3.80138V7.90144C19.9029 8.34327 19.5448 8.70144 19.1029 8.70144L14.8018 8.70144C14.36 8.70144 14.0018 8.34327 14.0018 7.90144C14.0018 7.45961 14.36 7.10144 14.8018 7.10144L17.5487 7.10144Z" fill="#171B1C"/>
</svg>
