<svg width="24" height="24" viewBox="0 0 24 24" fill="none" xmlns="http://www.w3.org/2000/svg">
<path fill-rule="evenodd" clip-rule="evenodd" d="M7.10557 5.6006C7.44706 5.21846 7.93526 5 8.44775 5H19.2001C20.1942 5 21.0001 5.80588 21.0001 6.8V17.2C21.0001 18.1941 20.1942 19 19.2001 19H8.44775C7.93526 19 7.44706 18.7815 7.10557 18.3993L2.45879 13.1993C1.84837 12.5162 1.84837 11.4837 2.4588 10.8006L7.10557 5.6006ZM10 12C10 12.8284 9.32843 13.5 8.5 13.5C7.67157 13.5 7 12.8284 7 12C7 11.1716 7.67157 10.5 8.5 10.5C9.32843 10.5 10 11.1716 10 12Z" fill="#171B1C"/>
</svg>
