<svg width="24" height="24" viewBox="0 0 24 24" fill="none" xmlns="http://www.w3.org/2000/svg">
<path d="M8.5 13.5C9.32843 13.5 10 12.8284 10 12C10 11.1716 9.32843 10.5 8.5 10.5C7.67157 10.5 7 11.1716 7 12C7 12.8284 7.67157 13.5 8.5 13.5Z" fill="#171B1C"/>
<path fill-rule="evenodd" clip-rule="evenodd" d="M8.44775 5C7.93526 5 7.44706 5.21846 7.10557 5.6006L2.4588 10.8006C1.84837 11.4837 1.84837 12.5162 2.45879 13.1993L7.10557 18.3993C7.44706 18.7815 7.93526 19 8.44775 19H19.2001C20.1942 19 21.0001 18.1941 21.0001 17.2V6.8C21.0001 5.80588 20.1942 5 19.2001 5H8.44775ZM8.29862 6.66673C8.33656 6.62427 8.39081 6.6 8.44775 6.6H19.2001C19.3105 6.6 19.4001 6.68954 19.4001 6.8V17.2C19.4001 17.3104 19.3105 17.4 19.2001 17.4H8.44775C8.39081 17.4 8.33657 17.3757 8.29862 17.3332L3.65184 12.1332C3.58402 12.0573 3.58402 11.9426 3.65185 11.8667L8.29862 6.66673Z" fill="#171B1C"/>
</svg>
