<svg width="24" height="24" viewBox="0 0 24 24" fill="none" xmlns="http://www.w3.org/2000/svg">
<path d="M7.50094 10.9956C8.32945 10.9956 9.00119 10.3245 9.00119 9.49658C9.00119 8.66866 8.32945 7.99751 7.50094 7.99751C6.67243 7.99751 6.00068 8.66866 6.00068 9.49658C6.00068 10.3245 6.67243 10.9956 7.50094 10.9956Z" fill="black"/>
<path fill-rule="evenodd" clip-rule="evenodd" d="M2 5.79888C2 4.80539 2.80605 4 3.80036 4H9.45952C9.93544 4 10.3921 4.18828 10.7295 4.52368L17.4685 11.2235C18.1732 11.9241 18.1761 13.0628 17.4753 13.7671L11.8161 19.4534C11.1139 20.1592 9.97109 20.1609 9.26662 19.4571L2.52743 12.7243C2.18973 12.3869 2 11.9293 2 11.4522V5.79888ZM3.80036 5.59901C3.68974 5.59901 3.60037 5.68849 3.60037 5.79888V11.4522C3.60037 11.5052 3.62137 11.556 3.65897 11.5935L10.3982 18.3263C10.4765 18.4045 10.6035 18.4044 10.6814 18.3259L16.3403 12.6396C16.4182 12.5614 16.418 12.4348 16.3396 12.357L9.60066 5.65719C9.59212 5.6488 9.58308 5.64124 9.57356 5.63456C9.56696 5.63006 9.56037 5.62596 9.55329 5.62228C9.52472 5.60714 9.49249 5.59901 9.45952 5.59901H3.80036Z" fill="black"/>
<path d="M13.3061 4.2356C13.6177 3.92258 14.1244 3.92131 14.4377 4.23275L21.4694 11.2236C22.1741 11.9241 22.1773 13.0626 21.4765 13.767L15.5099 19.7641C15.1983 20.0773 14.6916 20.0788 14.3783 19.7675C14.0648 19.4562 14.0633 18.95 14.3749 18.6368L20.3415 12.6397C20.4194 12.5614 20.4189 12.4349 20.3408 12.3571L13.3091 5.36626C12.9958 5.05482 12.9943 4.54861 13.3061 4.2356Z" fill="black"/>
</svg>
