<svg width="24" height="24" viewBox="0 0 24 24" fill="none" xmlns="http://www.w3.org/2000/svg">
<path fill-rule="evenodd" clip-rule="evenodd" d="M12.438 2.99951C6.60253 2.99951 2.5 7.19207 2.5 11.9995C2.5 13.763 3.12038 16.0118 4.7512 17.8297C6.40237 19.6703 9.02682 20.9995 12.8902 20.9995C13.9186 20.9995 14.765 20.7916 15.2946 20.1677C15.8054 19.5659 15.8339 18.7819 15.8133 18.1751C15.8034 17.8841 15.7824 17.597 15.7616 17.3124C15.685 16.2653 15.6107 15.2506 16.102 14.1899C16.9069 12.7825 17.7576 12.2244 18.5026 11.7643C18.5474 11.7366 18.5929 11.7088 18.639 11.6806C19.3668 11.2359 20.2342 10.7059 20.4604 9.40309C20.5828 8.698 20.4121 7.93853 20.0745 7.23743C19.7325 6.52714 19.1947 5.82255 18.4972 5.20028C17.098 3.95213 15.0163 2.99951 12.438 2.99951ZM4.09892 11.9995C4.09892 8.16671 7.39178 4.59942 12.438 4.59942C14.6119 4.59942 16.3179 5.39959 17.4332 6.39451C17.9928 6.89377 18.394 7.43329 18.634 7.93186C18.8785 8.43962 18.9329 8.85376 18.8851 9.12924C18.7851 9.70505 18.5143 9.87686 17.6628 10.4028C16.8091 10.9301 15.6955 11.665 14.6962 13.4269C14.6863 13.4443 14.6771 13.4621 14.6685 13.4803C13.9635 14.9747 14.0877 16.5285 14.1736 17.6032C14.1923 17.8363 14.2091 18.0468 14.2153 18.2293C14.2353 18.8197 14.1587 19.0344 14.0759 19.132C14.0118 19.2075 13.7759 19.3996 12.8902 19.3996C9.42373 19.3996 7.2528 18.2232 5.94106 16.761C4.60898 15.2761 4.09892 13.4249 4.09892 11.9995ZM8.89861 16.1783C9.19415 15.8501 9.16781 15.3442 8.83977 15.0485C8.51174 14.7528 8.00624 14.7792 7.7107 15.1074L7.70213 15.1169C7.40659 15.4451 7.43293 15.951 7.76096 16.2467C8.089 16.5424 8.5945 16.516 8.89004 16.1878L8.89861 16.1783ZM7.04099 11.4039C7.36902 11.6997 7.39536 12.2055 7.09983 12.5337L7.09125 12.5432C6.79572 12.8715 6.29021 12.8978 5.96218 12.6021C5.63415 12.3064 5.6078 11.8006 5.90334 11.4723L5.91191 11.4628C6.20745 11.1346 6.71295 11.1082 7.04099 11.4039ZM8.699 8.88887C8.99438 8.5605 8.9678 8.05469 8.63963 7.75912C8.31146 7.46356 7.80597 7.49015 7.51058 7.81853L7.50201 7.82806C7.20662 8.15644 7.23321 8.66224 7.56138 8.95781C7.88955 9.25337 8.39504 9.22678 8.69042 8.8984L8.699 8.88887ZM12.5297 6.4052C12.8578 6.70076 12.8844 7.20657 12.589 7.53494L12.5805 7.54447C12.2851 7.87285 11.7796 7.89945 11.4514 7.60388C11.1233 7.30831 11.0967 6.80251 11.3921 6.47413L11.4006 6.4646C11.696 6.13623 12.2015 6.10963 12.5297 6.4052ZM16.2061 8.88882C16.5015 8.56045 16.4749 8.05464 16.1468 7.75907C15.8186 7.46351 15.3131 7.49011 15.0177 7.81848L15.0091 7.82801C14.7138 8.15639 14.7403 8.66219 15.0685 8.95776C15.3967 9.25332 15.9022 9.22673 16.1976 8.89835L16.2061 8.88882Z" fill="#171B1C"/>
</svg>
