<svg width="24" height="24" viewBox="0 0 24 24" fill="none" xmlns="http://www.w3.org/2000/svg">
<path fill-rule="evenodd" clip-rule="evenodd" d="M2.00049 18.7889H3.98369L5.11777 15.4043H9.956L11.0881 18.7889H13.0713L8.61518 6.00006H6.45664L2.00049 18.7889ZM9.41291 13.7807L7.5873 8.32303H7.49056L5.66179 13.7807H9.41291Z" fill="#171B1C"/>
<path fill-rule="evenodd" clip-rule="evenodd" d="M15.8212 18.6629C16.2968 18.8877 16.8289 19.0001 17.4174 19.0001C17.9293 19.0001 18.3687 18.923 18.7355 18.769C19.1023 18.615 19.4026 18.4214 19.6364 18.1883C19.8702 17.9551 20.0456 17.7179 20.1625 17.4764H20.235V18.7877H22.0005V12.4183C22.0005 11.7189 21.8836 11.1507 21.6499 10.7136C21.4161 10.2723 21.1158 9.933 20.749 9.69571C20.3862 9.45842 19.9952 9.29606 19.576 9.20864C19.1608 9.11705 18.7678 9.07126 18.3969 9.07126C17.8366 9.07126 17.3025 9.15452 16.7947 9.32104C16.2868 9.48339 15.8373 9.74567 15.4463 10.1078C15.0594 10.4659 14.7651 10.9363 14.5636 11.5191L16.2626 11.9188C16.3956 11.5816 16.6354 11.2756 16.9821 11.0008C17.3328 10.7219 17.8125 10.5824 18.4211 10.5824C19.0056 10.5824 19.445 10.7323 19.7392 11.032C20.0375 11.3318 20.1866 11.7543 20.1866 12.2997V12.3434C20.1866 12.5682 20.108 12.7306 19.9508 12.8305C19.7936 12.9304 19.5417 13.0032 19.195 13.049L17.8407 13.2114C17.4013 13.2655 16.97 13.3446 16.5468 13.4487C16.1235 13.5527 15.7406 13.7068 15.398 13.9108C15.0553 14.1148 14.7832 14.3916 14.5817 14.7413C14.3802 15.091 14.2794 15.5364 14.2794 16.0776C14.2794 16.7062 14.4164 17.237 14.6905 17.67C14.9687 18.1029 15.3455 18.4339 15.8212 18.6629ZM19.0923 17.1954C18.7375 17.3994 18.3103 17.5014 17.8104 17.5014C17.2985 17.5014 16.8773 17.3848 16.5468 17.1517C16.2162 16.9144 16.051 16.5647 16.051 16.1026C16.051 15.7696 16.1356 15.5031 16.3049 15.3033C16.4782 15.0993 16.708 14.9432 16.9942 14.835C17.2844 14.7267 17.6049 14.6497 17.9555 14.6039C18.1047 14.5831 18.2901 14.5581 18.5118 14.529C18.7335 14.4957 18.9613 14.4603 19.195 14.4228C19.4288 14.3812 19.6364 14.3333 19.8178 14.2792C20.0032 14.2209 20.1282 14.1585 20.1927 14.0919V15.3283C20.1927 15.7071 20.098 16.063 19.9085 16.3961C19.7231 16.725 19.451 16.9914 19.0923 17.1954Z" fill="#171B1C"/>
</svg>
