<svg width="24" height="24" viewBox="0 0 24 24" fill="none" xmlns="http://www.w3.org/2000/svg">
<path d="M18.1945 7.74831C17.3924 7.57743 16.6661 7.15587 16.1214 6.54507C15.5768 5.93427 15.2423 5.16618 15.1666 4.35275V4H12.3998V14.9362C12.3981 15.4203 12.2441 15.8918 11.9595 16.2843C11.6749 16.6768 11.274 16.9706 10.813 17.1244C10.3521 17.2783 9.85437 17.2844 9.38976 17.142C8.92515 16.9996 8.51702 16.7157 8.22273 16.3304C7.92387 15.9386 7.75808 15.4621 7.74941 14.9702C7.74074 14.4782 7.88964 13.9963 8.17451 13.5943C8.45938 13.1923 8.86542 12.8911 9.33374 12.7344C9.80207 12.5777 10.3083 12.5737 10.7791 12.7229V9.92322C9.72929 9.77868 8.66037 9.96457 7.72185 10.4549C6.78333 10.9452 6.02217 11.7154 5.54481 12.6578C5.06746 13.6002 4.8978 14.6676 5.05956 15.7108C5.22133 16.7539 5.70642 17.7207 6.44699 18.4757C7.15324 19.1954 8.0588 19.6892 9.04807 19.894C10.0374 20.0988 11.0655 20.0054 12.0012 19.6257C12.9369 19.2459 13.7378 18.5971 14.3016 17.7619C14.8654 16.9268 15.1666 15.9433 15.1666 14.937V9.3489C16.2848 10.1451 17.6255 10.572 19 10.5695V7.8315C18.7293 7.83183 18.4593 7.80395 18.1945 7.74831Z" fill="#171B1C"/>
</svg>
