<svg width="24" height="24" viewBox="0 0 24 24" fill="none" xmlns="http://www.w3.org/2000/svg">
<path d="M13.9346 10.6016C14.247 10.2891 14.753 10.2891 15.0654 10.6016C15.3777 10.914 15.3778 11.4201 15.0654 11.7324L12.5654 14.2324C12.253 14.5446 11.747 14.5446 11.4346 14.2324C11.1222 13.9201 11.1223 13.414 11.4346 13.1016L13.9346 10.6016Z" fill="#171B1C"/>
<path fill-rule="evenodd" clip-rule="evenodd" d="M12 6.2002C16.1236 6.20037 19.4668 9.54337 19.4668 13.667C19.4666 17.7905 16.1235 21.1336 12 21.1338C7.87653 21.1336 4.53338 17.7905 4.5332 13.667C4.5332 9.54337 7.87642 6.20037 12 6.2002ZM12 7.7998C8.76008 7.79998 6.13281 10.427 6.13281 13.667C6.13299 16.9068 8.76019 19.533 12 19.5332C15.2398 19.533 17.866 16.9068 17.8662 13.667C17.8662 10.427 15.2399 7.79998 12 7.7998Z" fill="#171B1C"/>
<path d="M13.666 2.86719C14.1078 2.86719 14.4668 3.22516 14.4668 3.66699C14.4666 4.10868 14.1077 4.4668 13.666 4.4668H10.333C9.89143 4.46662 9.53337 4.10857 9.5332 3.66699C9.5332 3.22527 9.89133 2.86736 10.333 2.86719H13.666Z" fill="#171B1C"/>
</svg>
