<svg width="24" height="24" viewBox="0 0 24 24" fill="none" xmlns="http://www.w3.org/2000/svg">
<path fill-rule="evenodd" clip-rule="evenodd" d="M17.9 17.2V7.6H6.1V17.2C6.1 18.415 7.08497 19.4 8.3 19.4H15.7C16.915 19.4 17.9 18.415 17.9 17.2ZM4.5 7.6V17.2C4.5 19.2987 6.20132 21 8.3 21H15.7C17.7987 21 19.5 19.2987 19.5 17.2V7.6H20.2C20.6418 7.6 21 7.24183 21 6.8C21 6.35817 20.6418 6 20.2 6H15.8002V4.8C15.8002 3.80589 14.9943 3 14.0002 3H10.0002C9.00608 3 8.2002 3.80589 8.2002 4.8V6H3.8C3.35817 6 3 6.35817 3 6.8C3 7.24183 3.35817 7.6 3.8 7.6H4.5ZM9.8002 6H14.2002V4.8C14.2002 4.68954 14.1107 4.6 14.0002 4.6H10.0002C9.88974 4.6 9.8002 4.68954 9.8002 4.8V6ZM9 10.5C9.44183 10.5 9.8 10.8582 9.8 11.3V15.7C9.8 16.1418 9.44183 16.5 9 16.5C8.55817 16.5 8.2 16.1418 8.2 15.7V11.3C8.2 10.8582 8.55817 10.5 9 10.5ZM12.8 11.3C12.8 10.8582 12.4418 10.5 12 10.5C11.5582 10.5 11.2 10.8582 11.2 11.3V15.7C11.2 16.1418 11.5582 16.5 12 16.5C12.4418 16.5 12.8 16.1418 12.8 15.7V11.3ZM15 10.5C15.4418 10.5 15.8 10.8582 15.8 11.3V15.7C15.8 16.1418 15.4418 16.5 15 16.5C14.5582 16.5 14.2 16.1418 14.2 15.7V11.3C14.2 10.8582 14.5582 10.5 15 10.5Z" fill="#171B1C"/>
</svg>
