<svg width="24" height="24" viewBox="0 0 24 24" fill="none" xmlns="http://www.w3.org/2000/svg">
<path d="M8.30732 21C8.28145 21 8.25509 20.999 8.22873 20.9961C7.99002 20.9727 7.77474 20.8438 7.64196 20.6437L5.92755 18.0731L3.35594 16.3587C3.15677 16.225 3.02741 16.0102 3.00397 15.772C2.98006 15.5328 3.06499 15.2965 3.23439 15.1276L4.13601 14.2265C4.28588 14.0762 4.48944 13.9922 4.7013 13.9922H6.97758L8.09741 12.3115L3.99005 9.5994C3.30712 9.08929 3.0977 8.26139 3.41793 7.4623C3.43404 7.42325 3.45259 7.38469 3.47456 7.34856L3.745 6.89801C4.06035 6.26195 4.79307 5.91635 5.57852 6.07402L12.5582 7.60582L15.4042 4.76042C16.9214 3.24376 19.0605 2.59648 20.3843 3.25889C20.5386 3.33602 20.6636 3.46147 20.7417 3.61621C21.4026 4.93762 20.7573 7.07862 19.2391 8.59626L16.3941 11.4417L17.923 18.406C17.924 18.4109 17.925 18.4167 17.926 18.4216C18.0705 19.146 17.7961 19.8304 17.1713 20.299C17.1147 20.341 17.0532 20.3762 16.9887 20.4015L16.5377 20.5821C15.7371 20.9014 14.9111 20.6925 14.4278 20.0481L11.6888 15.9028L10.0081 17.0226V19.2983C10.0081 19.5102 9.9241 19.7133 9.77423 19.8636L8.87309 20.7657C8.72225 20.917 8.51869 21 8.30732 21ZM11.9133 13.9922C11.9661 13.9922 12.0193 13.9971 12.072 14.0078C12.2804 14.0498 12.4635 14.1738 12.5807 14.3515L15.7361 19.1285C15.7468 19.1421 15.8259 19.1441 15.9431 19.0972L16.2789 18.9635C16.3795 18.8668 16.3707 18.8024 16.359 18.7409L14.7383 11.3572C14.6797 11.0912 14.7608 10.8134 14.9541 10.6206L18.1086 7.46523C19.0907 6.4826 19.4705 5.27395 19.3885 4.61154C18.7393 4.53051 17.5179 4.90931 16.5347 5.89194L13.3803 9.04682C13.186 9.23963 12.9072 9.32164 12.6431 9.26209L5.25096 7.6395C5.2041 7.63022 5.17042 7.63657 5.16358 7.6395L4.88582 8.10519C4.858 8.19598 4.86581 8.25895 4.91072 8.29215L9.64927 11.4197C9.82647 11.5368 9.94997 11.7199 9.99244 11.9283C10.0344 12.1368 9.99195 12.3535 9.87382 12.5307L8.07105 15.235C7.92265 15.4576 7.6732 15.5914 7.40569 15.5914H5.08938L6.9478 16.8303C7.03567 16.8889 7.11085 16.965 7.16942 17.0529L8.40886 18.9107V16.594C8.40886 16.3265 8.54261 16.0766 8.76521 15.9282L11.4701 14.126C11.6024 14.0381 11.7566 13.9922 11.9133 13.9922Z" fill="black"/>
</svg>
