<svg width="24" height="24" viewBox="0 0 24 24" fill="none" xmlns="http://www.w3.org/2000/svg">
<path fill-rule="evenodd" clip-rule="evenodd" d="M10.5 2C5.80558 2 2 5.80558 2 10.5C2 15.1944 5.80558 19 10.5 19C12.5589 19 14.4478 18.2672 15.9184 17.0494L20.6347 21.7657C20.9471 22.0781 21.4537 22.0781 21.7661 21.7657C22.0785 21.4533 22.0785 20.9468 21.7661 20.6343L17.0497 15.918C18.2673 14.4475 19 12.5587 19 10.5C19 5.80558 15.1944 2 10.5 2ZM3.6 10.5C3.6 6.68923 6.68923 3.6 10.5 3.6C14.3108 3.6 17.4 6.68923 17.4 10.5C17.4 12.4023 16.6313 14.1235 15.3856 15.3725C14.1355 16.6259 12.4089 17.4 10.5 17.4C6.68923 17.4 3.6 14.3108 3.6 10.5ZM10.5005 5C11.0528 5 11.5005 5.44772 11.5005 6V11C11.5005 11.5523 11.0528 12 10.5005 12C9.9482 12 9.50049 11.5523 9.50049 11V6C9.50049 5.44772 9.9482 5 10.5005 5ZM11.5005 14.2999C11.5005 13.7476 11.0528 13.2999 10.5005 13.2999C9.9482 13.2999 9.50049 13.7476 9.50049 14.2999V14.3999C9.50049 14.9522 9.9482 15.3999 10.5005 15.3999C11.0528 15.3999 11.5005 14.9522 11.5005 14.3999V14.2999Z" fill="#171B1C"/>
</svg>
