<svg width="24" height="24" viewBox="0 0 24 24" fill="none" xmlns="http://www.w3.org/2000/svg">
<path fill-rule="evenodd" clip-rule="evenodd" d="M10.5 19C5.80558 19 2 15.1944 2 10.5C2 5.80558 5.80558 2 10.5 2C15.1944 2 19 5.80558 19 10.5C19 12.5592 18.2678 14.4473 17.0495 15.9183L21.7656 20.6343C22.078 20.9468 22.078 21.4533 21.7656 21.7657C21.4532 22.0781 20.9466 22.0781 20.6342 21.7657L15.9181 17.0496C14.4472 18.2679 12.5591 19 10.5 19ZM10.5 5C11.0523 5 11.5 5.44772 11.5 6V11C11.5 11.5523 11.0523 12 10.5 12C9.94772 12 9.5 11.5523 9.5 11V6C9.5 5.44772 9.94772 5 10.5 5ZM11.5 14.2999C11.5 13.7476 11.0523 13.2999 10.5 13.2999C9.94772 13.2999 9.5 13.7476 9.5 14.2999V14.3999C9.5 14.9522 9.94772 15.3999 10.5 15.3999C11.0523 15.3999 11.5 14.9522 11.5 14.3999V14.2999Z" fill="#171B1C"/>
</svg>
