<svg width="24" height="24" viewBox="0 0 24 24" fill="none" xmlns="http://www.w3.org/2000/svg">
<path d="M12 3C12.4418 3 12.7997 3.35807 12.7998 3.7998C12.7998 4.24163 12.4418 4.59961 12 4.59961H4.7998C4.6895 4.59971 4.59971 4.6895 4.59961 4.7998V19.2002C4.59971 19.3105 4.6895 19.4003 4.7998 19.4004H19.2002C19.3106 19.4004 19.4003 19.3106 19.4004 19.2002V12C19.4004 11.5582 19.7584 11.2002 20.2002 11.2002C20.642 11.2002 21 11.5582 21 12V19.2002C20.9999 20.1942 20.1942 21 19.2002 21H4.7998C3.80585 20.9999 3.00011 20.1942 3 19.2002V4.7998C3.00011 3.80585 3.80585 3.00011 4.7998 3H12Z" fill="#171B1C"/>
<path fill-rule="evenodd" clip-rule="evenodd" d="M10.501 12.5C11.053 12.5003 11.5009 12.948 11.501 13.5V17C11.501 17.5521 11.053 17.9997 10.501 18H7.00098C6.44869 18 6.00098 17.5523 6.00098 17V13.5C6.00108 12.9478 6.44876 12.5 7.00098 12.5H10.501ZM7.60059 16.4004H9.90039V14.1006H7.60059V16.4004Z" fill="#171B1C"/>
<path fill-rule="evenodd" clip-rule="evenodd" d="M17.001 12.5C17.553 12.5003 18.0009 12.948 18.001 13.5V17C18.001 17.5521 17.553 17.9997 17.001 18H13.501C12.9487 18 12.501 17.5523 12.501 17V13.5C12.5011 12.9478 12.9488 12.5 13.501 12.5H17.001ZM14.1006 16.4004H16.4004V14.1006H14.1006V16.4004Z" fill="#171B1C"/>
<path fill-rule="evenodd" clip-rule="evenodd" d="M10.501 6C11.053 6.00026 11.5009 6.44797 11.501 7V10.5C11.501 11.0521 11.053 11.4997 10.501 11.5H7.00098C6.44869 11.5 6.00098 11.0523 6.00098 10.5V7C6.00108 6.44781 6.44876 6 7.00098 6H10.501ZM7.60059 9.90039H9.90039V7.60059H7.60059V9.90039Z" fill="#171B1C"/>
<path d="M17.2277 3.00098C17.2339 3.00119 17.2401 3.00159 17.2463 3.00195C17.2852 3.0042 17.3233 3.00899 17.3605 3.0166L17.3801 3.02051C17.3844 3.0215 17.3885 3.02335 17.3928 3.02441C17.4342 3.0347 17.4743 3.048 17.5129 3.06445C17.5185 3.06685 17.5239 3.06974 17.5295 3.07227C17.6175 3.11224 17.6973 3.16691 17.7648 3.23438L20.7648 6.23438L20.8195 6.29492C21.076 6.60913 21.0577 7.07227 20.7648 7.36523C20.4719 7.65819 20.0087 7.67638 19.6945 7.41992L19.634 7.36523L17.9992 5.73047V9.7998C17.9992 10.2416 17.6412 10.5996 17.1994 10.5996C16.7576 10.5996 16.3996 10.2416 16.3996 9.7998V5.73047L14.7648 7.36523C14.4524 7.67765 13.9464 7.67765 13.634 7.36523C13.3217 7.0528 13.3216 6.54673 13.634 6.23438L16.634 3.23438L16.6945 3.17969C16.7038 3.17212 16.7143 3.16627 16.7238 3.15918C16.827 3.08248 16.9482 3.02847 17.0812 3.00879C17.0877 3.00782 17.0942 3.00667 17.1008 3.00586C17.1331 3.00189 17.166 3 17.1994 3C17.2089 3 17.2183 3.00065 17.2277 3.00098Z" fill="#171B1C"/>
</svg>
