<svg width="24" height="24" viewBox="0 0 24 24" fill="none" xmlns="http://www.w3.org/2000/svg">
<path d="M11.9999 12.1732C12.049 12.1732 12.0969 12.1784 12.1435 12.1868C12.1483 12.1877 12.1533 12.1878 12.1581 12.1888C12.1703 12.1912 12.1823 12.1946 12.1943 12.1976C12.206 12.2005 12.2178 12.2029 12.2294 12.2064C12.2948 12.2259 12.3559 12.2548 12.413 12.2894C12.4671 12.3221 12.5187 12.3609 12.5654 12.4075L16.4579 16.2991C16.7703 16.6115 16.7702 17.1185 16.4579 17.431C16.1455 17.7433 15.6385 17.7433 15.3261 17.431L12.7997 14.9046V20.7571C12.7997 21.199 12.4418 21.5579 11.9999 21.5579C11.5582 21.5579 11.2001 21.1989 11.2001 20.7571V14.9026L8.67279 17.431C8.3604 17.7431 7.85427 17.7431 7.54193 17.431C7.22983 17.1186 7.22973 16.6115 7.54193 16.2991L11.4335 12.4075C11.4852 12.3558 11.5429 12.3132 11.6035 12.2786C11.6094 12.2752 11.615 12.2711 11.621 12.2679C11.6318 12.2621 11.6432 12.2575 11.6542 12.2523C11.6676 12.2458 11.6805 12.2384 11.6943 12.2327C11.7064 12.2277 11.7191 12.2244 11.7314 12.22C11.7431 12.2159 11.7546 12.211 11.7665 12.2073C11.7964 12.1983 11.8268 12.1913 11.8574 12.1858C11.9036 12.1775 11.9513 12.1732 11.9999 12.1732Z" fill="#171B1C"/>
<path d="M8.48138 2.46905C9.63244 2.3778 10.7894 2.55008 11.8642 2.97198C12.9393 3.39406 13.9048 4.05534 14.6865 4.90558C15.3312 5.60696 15.8347 6.42287 16.1777 7.30792H17.3515C18.4625 7.30782 19.544 7.66568 20.4365 8.32745C21.3289 8.9893 21.985 9.92043 22.3076 10.9837C22.63 12.0469 22.6018 13.1857 22.2275 14.2317C21.853 15.2777 21.1523 16.1762 20.2285 16.7933C19.8612 17.0382 19.3644 16.9397 19.1191 16.5726C18.8738 16.2054 18.9729 15.7087 19.3398 15.4632C19.9781 15.0368 20.4628 14.4154 20.7216 13.6927C20.9802 12.97 20.999 12.1831 20.7763 11.4485C20.5534 10.7137 20.1001 10.07 19.4833 9.61261C18.9438 9.21254 18.3044 8.97273 17.6386 8.91925L17.3515 8.9085H15.6093C15.2561 8.90815 14.9439 8.67567 14.8427 8.33722C14.5818 7.46333 14.1259 6.66002 13.5087 5.98858C12.8914 5.31717 12.1292 4.7946 11.2802 4.46124C10.4312 4.12795 9.51659 3.99167 8.60736 4.06378C7.6983 4.13598 6.8169 4.41435 6.03119 4.87725C5.24553 5.34025 4.57489 5.9764 4.07123 6.73663C3.56764 7.49692 3.24387 8.36287 3.12396 9.2669C3.00419 10.1709 3.09078 11.0912 3.37884 11.9564C3.66701 12.8216 4.14914 13.6103 4.78705 14.262C5.09584 14.5778 5.09002 15.0839 4.77435 15.3929C4.45863 15.7014 3.9524 15.6966 3.64349 15.3812C2.8357 14.5558 2.22612 13.5569 1.86127 12.4612C1.49649 11.3656 1.38529 10.2007 1.53705 9.05597C1.68888 7.9113 2.09959 6.81549 2.73724 5.85284C3.37502 4.89019 4.2248 4.08556 5.21966 3.49933C6.21458 2.91319 7.33027 2.56042 8.48138 2.46905Z" fill="#171B1C"/>
</svg>
