<svg width="24" height="24" viewBox="0 0 24 24" fill="none" xmlns="http://www.w3.org/2000/svg">
<path d="M12.142 12.0632C12.1438 12.0634 12.1496 12.0638 12.1567 12.0652C12.1701 12.0678 12.186 12.0723 12.1928 12.074C12.1975 12.0751 12.2156 12.0791 12.228 12.0828C12.2941 12.1024 12.3552 12.1316 12.4106 12.1648C12.4633 12.1965 12.515 12.2345 12.562 12.281L15.9467 15.6365C16.2578 15.9449 16.2575 16.4461 15.9467 16.7546C15.6361 17.0621 15.1322 17.0625 14.8217 16.7546L12.7954 14.7449V19.5515C12.7951 19.9882 12.4381 20.3425 11.9995 20.3425C11.5611 20.3422 11.2047 19.988 11.2045 19.5515V14.7429L9.17719 16.7546C8.8666 17.0619 8.36363 17.0622 8.05317 16.7546C7.74288 16.4463 7.74187 15.9449 8.05219 15.6365L11.437 12.281C11.4886 12.2298 11.5465 12.1877 11.6059 12.154C11.6062 12.1538 11.6074 12.153 11.6088 12.1521C11.6113 12.1505 11.6174 12.1466 11.6235 12.1433C11.6333 12.1381 11.6517 12.1295 11.6557 12.1277C11.6573 12.1269 11.6814 12.1151 11.6957 12.1091C11.7044 12.1056 11.7133 12.1022 11.7192 12.1003C11.7257 12.0982 11.7296 12.0975 11.7329 12.0964C11.7348 12.0957 11.7554 12.0876 11.768 12.0837C11.7981 12.0747 11.8286 12.0675 11.8579 12.0622C11.9036 12.0541 11.9514 12.0496 11.9995 12.0495C12.049 12.0495 12.097 12.0552 12.142 12.0632Z" fill="#171B1C"/>
<path d="M8.93207 3.68236C9.94782 3.60251 10.9689 3.75367 11.9174 4.12279C12.8662 4.4922 13.7186 5.07092 14.4086 5.81517C14.9621 6.41225 15.3967 7.10437 15.6987 7.85424H16.6528C17.6401 7.85415 18.6018 8.16951 19.395 8.75267C20.1883 9.33606 20.7712 10.1579 21.058 11.0954C21.3445 12.0327 21.3195 13.0366 20.9868 13.9587C20.6538 14.8807 20.0313 15.6737 19.2104 16.2175C18.8456 16.4583 18.351 16.3619 18.1069 15.9997C17.8625 15.637 17.9623 15.1464 18.3266 14.904C18.8637 14.5483 19.2719 14.0291 19.4897 13.4265C19.7072 12.8238 19.7228 12.1671 19.5356 11.5544C19.3481 10.9415 18.9668 10.4039 18.4477 10.0222C17.9936 9.68837 17.4552 9.48874 16.895 9.44408L16.6498 9.43431H15.1381C14.7877 9.43377 14.4763 9.20512 14.3754 8.87084C14.1529 8.13198 13.765 7.45226 13.2387 6.88451C12.7123 6.31669 12.0615 5.87548 11.3373 5.59349C10.6132 5.31163 9.83258 5.19559 9.05707 5.25658C8.28186 5.31776 7.52977 5.55364 6.85981 5.94506C6.18993 6.33665 5.61731 6.87462 5.18793 7.51732C4.75873 8.16008 4.48254 8.89277 4.38031 9.65697C4.27827 10.4212 4.35253 11.2 4.59809 11.9314C4.84375 12.6626 5.25454 13.3296 5.79828 13.8806C6.10574 14.1924 6.10051 14.6927 5.78656 14.9978C5.47273 15.3015 4.96872 15.2971 4.66156 14.9861C3.94877 14.2637 3.41039 13.3894 3.08832 12.4304C2.76635 11.4714 2.66835 10.451 2.80219 9.44896C2.93622 8.44695 3.29904 7.48689 3.86176 6.64427C4.42473 5.80162 5.1753 5.09681 6.05317 4.58373C6.93115 4.0708 7.9163 3.7624 8.93207 3.68236Z" fill="#171B1C"/>
</svg>
