<svg width="24" height="24" viewBox="0 0 24 24" fill="none" xmlns="http://www.w3.org/2000/svg">
<path fill-rule="evenodd" clip-rule="evenodd" d="M12 2.98145C14.9633 2.98169 17.3652 5.38431 17.3652 8.34766C17.3651 10.1574 16.4682 11.7558 15.0957 12.7275C16.0723 13.1311 16.9698 13.7257 17.7314 14.4873C19.2514 16.0073 20.1054 18.0691 20.1055 20.2188C20.1054 20.6604 19.7473 21.0184 19.3057 21.0186C18.864 21.0185 18.505 20.6605 18.5049 20.2188C18.5049 18.4934 17.8196 16.8382 16.5996 15.6182C15.3797 14.3985 13.7251 13.7129 12 13.7129C10.2747 13.7129 8.6194 14.3982 7.39941 15.6182C6.17943 16.8382 5.49416 18.4934 5.49414 20.2188C5.49406 20.6605 5.13611 21.0186 4.69434 21.0186C4.25263 21.0185 3.89461 20.6605 3.89453 20.2188C3.89456 18.0691 4.74852 16.0074 6.26855 14.4873C7.02996 13.7259 7.92714 13.1311 8.90332 12.7275C7.53113 11.7557 6.63394 10.157 6.63379 8.34766C6.63382 5.38431 9.0367 2.98169 12 2.98145ZM12 4.58105C9.92036 4.5813 8.23343 6.26796 8.2334 8.34766C8.23365 10.4272 9.92049 12.113 12 12.1133C14.0795 12.113 15.7654 10.4272 15.7656 8.34766C15.7656 6.26796 14.0796 4.5813 12 4.58105Z" fill="#171B1C"/>
</svg>
