<svg width="24" height="24" viewBox="0 0 24 24" fill="none" xmlns="http://www.w3.org/2000/svg">
<path fill-rule="evenodd" clip-rule="evenodd" d="M4.6 19.3985V4.6H19.3985V19.3985H4.6ZM4.34662 3C3.6029 3 3 3.6029 3 4.34662V19.6519C3 20.3956 3.60293 20.9985 4.34662 20.9985H19.6519C20.3956 20.9985 20.9985 20.3956 20.9985 19.6519V4.34662C20.9985 3.60293 20.3956 3 19.6519 3H4.34662ZM9.68385 7.5981C9.43599 7.46255 9.13501 7.46778 8.892 7.61186C8.649 7.75593 8.5 8.01749 8.5 8.3V15.7C8.5 15.9892 8.65608 16.2559 8.90823 16.3975C9.16038 16.5391 9.46934 16.5336 9.7163 16.3832L16.1163 12.4832C16.3603 12.3345 16.5065 12.0669 16.4998 11.7813C16.4931 11.4956 16.3345 11.2352 16.0839 11.0981L9.68385 7.5981ZM10.1 14.2757V9.64931L14.1012 11.8375L10.1 14.2757Z" fill="#171B1C"/>
</svg>
