<svg width="24" height="24" viewBox="0 0 24 24" fill="none" xmlns="http://www.w3.org/2000/svg">
<path fill-rule="evenodd" clip-rule="evenodd" d="M22 12C22 17.5228 17.5228 22 12 22C6.47715 22 2 17.5228 2 12C2 6.47715 6.47715 2 12 2C17.5228 2 22 6.47715 22 12ZM12.0001 6C12.5524 6.00005 13 6.4478 13 7.00009L12.9995 13.0001C12.9994 13.5524 12.5517 14 11.9994 14C11.4471 14 10.9994 13.5522 10.9995 12.9999L11 6.99991C11 6.44763 11.4478 5.99995 12.0001 6ZM13 17.0876C13 16.5354 12.5523 16.0876 12 16.0876C11.4477 16.0876 11 16.5354 11 17.0876V17.1876C11 17.7399 11.4477 18.1876 12 18.1876C12.5523 18.1876 13 17.7399 13 17.1876V17.0876Z" fill="#171B1C"/>
</svg>
